<?xml version="1.0" encoding="UTF-8"?>
<!-- Generator: visioncortex VTracer 0.6.3 -->
<svg version="1.1" xmlns="http://www.w3.org/2000/svg" width="1280" height="926">
<path d="M0 0 C1.11 0.03 1.11 0.03 2.25 0.06 C3.82 0.1 5.39 0.14 6.96 0.19 C9.37 0.26 11.77 0.32 14.17 0.37 C15.7 0.41 17.22 0.46 18.75 0.5 C19.83 0.52 19.83 0.52 20.93 0.54 C24.59 0.67 26.25 0.86 29.38 2.95 C29.68 5.7 29.78 8.23 29.76 10.99 C29.77 12.24 29.77 12.24 29.78 13.51 C29.79 16.27 29.78 19.02 29.77 21.78 C29.78 23.69 29.78 25.61 29.78 27.52 C29.79 31.54 29.78 35.55 29.77 39.57 C29.75 44.71 29.76 49.86 29.78 55 C29.79 58.96 29.78 62.91 29.78 66.87 C29.77 68.76 29.78 70.66 29.78 72.55 C29.79 75.21 29.78 77.86 29.76 80.52 C29.77 81.3 29.78 82.08 29.78 82.89 C29.73 87.42 29.21 90.37 26.38 93.95 C25.38 94.61 24.39 95.27 23.38 95.95 C23.32 98.89 23.42 101.6 23.69 104.51 C23.75 105.31 23.81 106.1 23.87 106.92 C24.03 108.93 24.2 110.94 24.38 112.95 C24.38 113.28 24.38 113.61 24.38 113.95 C24.38 115.59 24.38 117.23 24.39 118.86 C24.4 127.11 24.42 135.36 24.43 143.6 C24.43 148.17 24.44 152.74 24.45 157.31 C24.46 161.72 24.47 166.13 24.47 170.54 C24.47 172.22 24.48 173.9 24.48 175.59 C24.49 177.94 24.49 180.29 24.49 182.65 C24.49 183.35 24.5 184.04 24.5 184.76 C24.49 187.78 24.34 190.06 23.38 192.95 C19.15 195.06 13.6 194.14 8.94 194.13 C6.88 194.14 4.82 194.15 2.76 194.17 C1.47 194.18 0.18 194.18 -1.16 194.18 C-2.94 194.19 -2.94 194.19 -4.77 194.19 C-7.62 193.95 -7.62 193.95 -9.62 191.95 C-10.78 187.12 -10.76 182.3 -10.72 177.36 C-10.72 176.52 -10.72 175.68 -10.72 174.81 C-10.71 172.99 -10.71 171.17 -10.7 169.36 C-10.69 166.48 -10.68 163.6 -10.68 160.72 C-10.66 154.61 -10.65 148.5 -10.62 142.39 C-10.6 135.3 -10.58 128.22 -10.57 121.13 C-10.56 118.3 -10.55 115.46 -10.54 112.63 C-10.53 110.89 -10.53 109.15 -10.53 107.41 C-10.52 106.23 -10.52 106.23 -10.51 105.03 C-10.51 101.21 -10.69 97.66 -11.62 93.95 C-14.92 93.95 -18.23 93.95 -21.62 93.95 C-22.62 96.59 -23.61 99.23 -24.62 101.95 C-26.93 101.29 -29.25 100.63 -31.62 99.95 C-31.62 100.94 -31.62 101.93 -31.62 102.95 C-31.07 102.74 -30.51 102.54 -29.94 102.32 C-26.97 101.84 -25.31 102.68 -22.62 103.95 C-22.88 106.32 -22.88 106.32 -23.62 108.95 C-25.44 110.32 -25.44 110.32 -27.62 110.95 C-29.88 110.57 -29.88 110.57 -31.62 109.95 C-31.62 110.61 -31.62 111.27 -31.62 111.95 C-29.98 111.95 -28.33 111.95 -26.62 111.95 C-25.62 113.95 -25.62 113.95 -26.19 116.64 C-26.86 120.04 -26.86 120.04 -25.56 123.57 C-24.47 127.51 -24.9 127.58 -26.62 130.95 C-26.86 133.31 -26.86 133.31 -26.75 135.7 C-26.73 136.5 -26.71 137.3 -26.7 138.12 C-26.67 138.72 -26.65 139.33 -26.62 139.95 C-28.27 139.95 -29.92 139.95 -31.62 139.95 C-32.5 144.13 -32.5 144.13 -32.12 148.34 C-31.29 152.73 -31.89 156.83 -33.62 160.95 C-35.96 162.76 -37.7 163.19 -40.62 163.95 C-41.39 170.25 -41.69 176.35 -41.46 182.7 C-41.62 184.95 -41.62 184.95 -43.62 186.95 C-46.3 187.18 -46.3 187.18 -49.5 187.14 C-50.55 187.13 -51.6 187.12 -52.68 187.12 C-55.17 186.98 -57.25 186.67 -59.62 185.95 C-59.77 187.08 -59.91 188.22 -60.06 189.39 C-60.62 192.95 -60.62 192.95 -61.62 193.95 C-63.54 194.06 -65.46 194.1 -67.38 194.11 C-68.61 194.12 -69.85 194.13 -71.11 194.14 C-72.47 194.14 -73.82 194.15 -75.18 194.15 C-76.56 194.16 -77.94 194.16 -79.32 194.17 C-82.22 194.18 -85.12 194.19 -88.02 194.19 C-91.74 194.19 -95.46 194.22 -99.18 194.25 C-102.03 194.27 -104.89 194.27 -107.74 194.27 C-109.11 194.28 -110.49 194.28 -111.86 194.3 C-113.77 194.31 -115.69 194.31 -117.61 194.31 C-118.7 194.31 -119.79 194.31 -120.92 194.32 C-123.62 193.95 -123.62 193.95 -125.5 192.68 C-126.62 190.95 -126.62 190.95 -126.62 186.95 C-127.39 186.8 -128.15 186.66 -128.94 186.51 C-131.63 185.95 -131.63 185.95 -134.62 184.95 C-135.8 180.32 -135.74 175.87 -135.69 171.14 C-135.68 170.35 -135.68 169.56 -135.67 168.75 C-135.66 166.82 -135.64 164.88 -135.62 162.95 C-136.96 162.88 -136.96 162.88 -138.33 162.8 C-139.5 162.73 -140.67 162.65 -141.88 162.57 C-143.04 162.5 -144.2 162.43 -145.39 162.36 C-148.62 161.95 -148.62 161.95 -152.62 159.95 C-152.96 154.34 -153.28 148.73 -153.62 142.95 C-156.26 142.62 -158.9 142.29 -161.62 141.95 C-165.28 138.67 -166.18 135.78 -166.62 130.95 C-163.65 130.95 -160.68 130.95 -157.62 130.95 C-157.96 129.96 -158.28 128.97 -158.62 127.95 C-158.72 126.02 -158.75 124.08 -158.75 122.15 C-158.76 120.96 -158.76 119.77 -158.76 118.54 C-158.76 117.25 -158.76 115.96 -158.76 114.64 C-158.76 113.3 -158.76 111.97 -158.76 110.64 C-158.76 107.84 -158.76 105.05 -158.76 102.25 C-158.75 98.67 -158.75 95.09 -158.76 91.51 C-158.76 88.76 -158.76 86 -158.76 83.25 C-158.76 81.29 -158.76 79.32 -158.76 77.36 C-158.76 76.17 -158.76 74.98 -158.75 73.75 C-158.75 72.7 -158.75 71.65 -158.75 70.57 C-158.62 67.95 -158.62 67.95 -157.62 64.95 C-157.43 63.53 -157.26 62.1 -157.12 60.68 C-157.04 59.85 -156.96 59.03 -156.88 58.18 C-156.79 57.32 -156.71 56.46 -156.62 55.57 C-155.27 41.59 -155.27 41.59 -153.62 39.95 C-153.62 38.96 -153.62 37.97 -153.62 36.95 C-152.97 35.96 -152.3 34.97 -151.62 33.95 C-151.28 32.28 -150.95 30.62 -150.62 28.95 C-149.75 26.95 -149.75 26.95 -148.62 24.95 C-148.22 24.2 -147.81 23.45 -147.39 22.68 C-145.35 19.53 -142.96 16.95 -140.31 14.32 C-139.39 13.38 -138.46 12.44 -137.51 11.47 C-132.45 7.05 -126.86 5.26 -120.5 3.45 C-119.61 3.19 -118.72 2.93 -117.8 2.67 C-109.28 0.74 -100.77 0.82 -92.06 0.89 C-90.86 0.89 -89.66 0.9 -88.43 0.9 C-85.49 0.91 -82.56 0.93 -79.62 0.95 C-79.62 1.61 -79.62 2.27 -79.62 2.95 C-76.65 2.95 -73.68 2.95 -70.62 2.95 C-70.62 3.61 -70.62 4.27 -70.62 4.95 C-69.54 4.86 -69.54 4.86 -68.44 4.76 C-65.04 4.99 -63.48 6.14 -60.62 7.95 C-58.64 8.66 -56.64 9.34 -54.62 9.95 C-54.62 10.94 -54.62 11.93 -54.62 12.95 C-54.09 13.16 -53.55 13.36 -53 13.57 C-48.74 16.04 -45.2 19.05 -43.75 23.82 C-43.71 24.53 -43.67 25.23 -43.62 25.95 C-42.97 25.95 -42.31 25.95 -41.62 25.95 C-37.96 32.97 -35.52 39.15 -34.87 47.09 C-34.81 48.96 -34.81 48.96 -33.62 49.95 C-33.47 51.65 -33.37 53.37 -33.31 55.08 C-33.25 56.63 -33.25 56.63 -33.18 58.21 C-33.14 59.3 -33.1 60.39 -33.06 61.51 C-33.02 62.6 -32.98 63.7 -32.93 64.82 C-32.83 67.53 -32.72 70.24 -32.62 72.95 C-32.29 72.95 -31.97 72.95 -31.62 72.95 C-31.29 76.58 -30.97 80.21 -30.62 83.95 C-24.02 83.95 -17.42 83.95 -10.62 83.95 C-10.62 56.56 -10.62 29.17 -10.62 0.95 C-7 -0.26 -3.76 -0.11 0 0 Z M26.38 8.95 C27.38 10.95 27.38 10.95 27.38 10.95 Z M-43.62 26.95 C-42.62 28.95 -42.62 28.95 -42.62 28.95 Z M-111.33 39.78 C-111.7 40.43 -112.06 41.09 -112.44 41.76 C-112.82 42.41 -113.19 43.05 -113.58 43.72 C-116.07 49.05 -116.93 53.87 -117 59.72 C-117.02 60.44 -117.04 61.16 -117.06 61.91 C-117.11 64.19 -117.15 66.48 -117.19 68.76 C-117.23 71.07 -117.28 73.37 -117.33 75.67 C-117.36 77.1 -117.39 78.53 -117.41 79.96 C-117.51 84.84 -117.51 84.84 -118.62 85.95 C-120.64 86.18 -122.66 86.36 -124.69 86.51 C-125.79 86.6 -126.9 86.68 -128.04 86.77 C-128.89 86.83 -129.74 86.89 -130.62 86.95 C-130.29 87.94 -129.97 88.93 -129.62 89.95 C-125.66 90.94 -121.71 91.93 -117.62 92.95 C-117.62 108.79 -117.62 124.63 -117.62 140.95 C-115.32 141.94 -113 142.93 -110.62 143.95 C-110.65 144.52 -110.67 145.09 -110.7 145.67 C-110.71 146.44 -110.73 147.22 -110.75 148.01 C-110.77 148.77 -110.8 149.52 -110.82 150.3 C-110.57 153.69 -109.63 156.71 -108.62 159.95 C-105.5 160.04 -102.38 160.09 -99.25 160.14 C-98.36 160.16 -97.47 160.19 -96.55 160.21 C-95.7 160.22 -94.85 160.23 -93.98 160.24 C-93.19 160.26 -92.41 160.27 -91.6 160.29 C-90.95 160.18 -90.3 160.07 -89.62 159.95 C-87.69 157.05 -87.32 156.05 -87 152.76 C-86.88 151.5 -86.75 150.25 -86.62 148.95 C-84.64 148.95 -82.66 148.95 -80.62 148.95 C-80.62 147.63 -80.62 146.31 -80.62 144.95 C-79.97 144.95 -79.31 144.95 -78.62 144.95 C-78.13 142.97 -78.13 142.97 -77.62 140.95 C-78.62 140.45 -78.62 140.45 -79.62 139.95 C-79.53 139.39 -79.43 138.84 -79.34 138.26 C-78.51 132.56 -78.92 128.45 -80.62 122.95 C-77.99 122.95 -75.35 122.95 -72.62 122.95 C-72.57 115.14 -72.54 107.34 -72.52 99.53 C-72.51 96.88 -72.49 94.23 -72.47 91.58 C-70.58 64.63 -70.58 64.63 -78.94 40.26 C-84.07 35.84 -87.73 34.46 -94.5 34.57 C-95.18 34.56 -95.86 34.55 -96.57 34.54 C-102.18 34.57 -107.34 35.49 -111.33 39.78 Z M26.38 37.95 C27.38 39.95 27.38 39.95 27.38 39.95 Z M-38.62 38.95 C-38.62 39.94 -38.62 40.93 -38.62 41.95 C-37.97 41.62 -37.31 41.29 -36.62 40.95 C-37.28 40.29 -37.94 39.63 -38.62 38.95 Z M-115.62 41.95 C-114.62 43.95 -114.62 43.95 -114.62 43.95 Z M-36.62 49.95 C-36.62 50.94 -36.62 51.93 -36.62 52.95 C-35.97 52.62 -35.31 52.29 -34.62 51.95 C-35.28 51.29 -35.94 50.63 -36.62 49.95 Z M26.38 50.95 C27.38 52.95 27.38 52.95 27.38 52.95 Z M-119.62 63.95 C-118.62 67.95 -118.62 67.95 -118.62 67.95 Z M-119.62 74.95 C-119.62 76.93 -119.62 78.91 -119.62 80.95 C-118.97 80.62 -118.3 80.29 -117.62 79.95 C-117.96 78.3 -118.28 76.65 -118.62 74.95 C-118.96 74.95 -119.28 74.95 -119.62 74.95 Z M-47.62 86.95 C-46.97 88.27 -46.31 89.59 -45.62 90.95 C-44.17 90.98 -42.71 91 -41.25 91.01 C-40.03 91.03 -40.03 91.03 -38.79 91.05 C-36.58 91.09 -36.58 91.09 -34.62 89.95 C-34.62 88.96 -34.62 87.97 -34.62 86.95 C-38.91 86.95 -43.21 86.95 -47.62 86.95 Z M-8.62 87.95 C-8.96 88.94 -9.28 89.93 -9.62 90.95 C-7.75 93.26 -7.75 93.26 -4.69 93.14 C-2.96 93.11 -2.96 93.11 -1.19 93.07 C0.54 93.05 0.54 93.05 2.31 93.02 C3.32 93 4.33 92.97 5.38 92.95 C6.37 92.95 7.36 92.95 8.38 92.95 C8.38 91.63 8.38 90.31 8.38 88.95 C2.76 88.62 -2.85 88.29 -8.62 87.95 Z M-119.62 101.95 C-118.62 103.95 -118.62 103.95 -118.62 103.95 Z M-119.62 108.95 C-118.62 111.95 -118.62 111.95 -118.62 111.95 Z M-119.62 115.95 C-118.62 117.95 -118.62 117.95 -118.62 117.95 Z M-119.62 121.95 C-118.62 124.95 -118.62 124.95 -118.62 124.95 Z M-74.62 127.95 C-74.62 128.61 -74.62 129.27 -74.62 129.95 C-75.62 130.28 -76.61 130.61 -77.62 130.95 C-77.29 131.61 -76.97 132.27 -76.62 132.95 C-75.31 132.95 -73.99 132.95 -72.62 132.95 C-72.96 131.3 -73.28 129.65 -73.62 127.95 C-73.96 127.95 -74.28 127.95 -74.62 127.95 Z M-149.62 132.95 C-149.62 135.26 -149.62 137.57 -149.62 139.95 C-146.82 140.18 -145.16 140.29 -142.75 138.76 C-141.35 136.92 -141.35 136.92 -141.94 134.26 C-142.16 133.5 -142.39 132.74 -142.62 131.95 C-146.25 131.8 -146.25 131.8 -149.62 132.95 Z M-73.62 135.95 C-72.62 138.95 -72.62 138.95 -72.62 138.95 Z M-77.62 136.95 C-76.62 138.95 -76.62 138.95 -76.62 138.95 Z M-73.62 141.95 C-72.62 144.95 -72.62 144.95 -72.62 144.95 Z M-151.62 145.95 C-150.62 147.95 -150.62 147.95 -150.62 147.95 Z M-116.62 148.95 C-115.62 150.95 -115.62 150.95 -115.62 150.95 Z M-34.62 148.95 C-33.62 150.95 -33.62 150.95 -33.62 150.95 Z M21.38 149.95 C22.38 151.95 22.38 151.95 22.38 151.95 Z M-140.62 159.95 C-136.62 160.95 -136.62 160.95 -136.62 160.95 Z M-62.62 188.95 C-62.62 189.94 -62.62 190.93 -62.62 191.95 C-61.97 190.96 -61.31 189.97 -60.62 188.95 C-61.28 188.95 -61.94 188.95 -62.62 188.95 Z " fill="#C9DBDA" transform="translate(771.625,511.05078125)"/>
<path d="M0 0 C12.05 1.36 27.15 3.36 37 11 C37.33 11.99 37.66 12.98 38 14 C38.99 13.67 39.98 13.34 41 13 C41 13.66 41 14.32 41 15 C41.56 15.23 42.11 15.45 42.69 15.69 C45.65 17.37 47.66 19.54 50 22 C50.58 22.5 51.15 22.99 51.75 23.5 C53.44 25.53 53.65 27.42 54 30 C54.66 30 55.32 30 56 30 C56.1 30.95 56.21 31.9 56.31 32.88 C56.69 36.29 56.69 36.29 60 38 C61.13 40.43 61.13 40.43 62.12 43.31 C62.62 44.73 62.62 44.73 63.13 46.18 C63.93 48.78 64.52 51.32 65 54 C66.46 53.86 67.92 53.71 69.38 53.56 C70.19 53.48 71 53.4 71.84 53.32 C74.04 53.11 74.04 53.11 76 52 C90.7 51.91 101.74 55.35 113 65 C115.52 67.54 117.81 70.17 120 73 C120.77 73.96 120.77 73.96 121.56 74.93 C127.73 83.8 130.06 97.16 128.38 107.69 C127.96 109.47 127.5 111.24 127 113 C126.59 114.51 126.59 114.51 126.18 116.05 C125.31 118.88 124.44 121.41 123 124 C119.75 125.69 119.75 125.69 117 126 C117.31 126.68 117.62 127.36 117.94 128.06 C118 131 118 131 116.75 132.75 C112.94 136.69 108.88 139.52 104 142 C103.34 142.41 102.69 142.83 102.01 143.25 C94.34 147.75 86.82 147.75 78.19 147.75 C76.11 147.77 74.04 147.8 71.96 147.83 C70.61 147.85 69.26 147.87 67.9 147.88 C61.58 147.96 55.3 148.42 49 149 C49.01 149.95 49.02 150.9 49.03 151.88 C49.08 157.1 49.04 161.88 48 167 C48.33 167.33 48.66 167.66 49 168 C49.23 172.53 49.23 172.53 48 175 C50.39 178.85 52.98 180.07 57 182 C60.91 184.66 62.58 186.51 64 191 C64.27 193.99 64.27 193.99 64.29 197.35 C64.3 198.61 64.32 199.87 64.33 201.17 C64.33 202.54 64.33 203.91 64.34 205.28 C64.34 206.69 64.35 208.1 64.36 209.52 C64.37 212.48 64.37 215.43 64.37 218.39 C64.37 222.17 64.4 225.95 64.43 229.73 C64.45 232.65 64.46 235.57 64.46 238.49 C64.46 239.88 64.47 241.27 64.48 242.67 C64.62 256.11 64.62 256.11 60 261 C54.12 266.72 47.96 266.11 40.2 266.04 C39.11 266.02 39.11 266.02 38 266 C38 266.33 38 266.66 38 267 C25.8 267.02 13.59 267.04 1.39 267.05 C-4.28 267.06 -9.95 267.06 -15.61 267.08 C-21.08 267.09 -26.54 267.09 -32.01 267.09 C-34.1 267.1 -36.19 267.1 -38.27 267.11 C-41.19 267.11 -44.11 267.11 -47.03 267.11 C-47.9 267.12 -48.77 267.12 -49.66 267.12 C-57.67 267.11 -64.17 264.66 -70 259 C-70 257.68 -70 256.36 -70 255 C-70.66 255 -71.32 255 -72 255 C-72.16 246.53 -72.29 238.07 -72.36 229.6 C-72.4 225.67 -72.45 221.73 -72.53 217.8 C-72.6 214 -72.65 210.2 -72.66 206.4 C-72.68 204.96 -72.7 203.51 -72.74 202.07 C-73.06 189.36 -73.06 189.36 -68.71 184.05 C-66.9 182.21 -66.9 182.21 -65 181 C-63.68 181 -62.36 181 -61 181 C-61 180.34 -61 179.68 -61 179 C-59.68 179 -58.36 179 -57 179 C-55.6 176.21 -55.78 173.8 -55.68 170.68 C-55.64 169.42 -55.6 168.17 -55.56 166.87 C-55.52 165.55 -55.48 164.23 -55.44 162.88 C-55.39 161.54 -55.35 160.2 -55.31 158.86 C-55.2 155.57 -55.1 152.29 -55 149 C-58.62 147.79 -61.93 147.89 -65.69 147.94 C-66.74 147.94 -66.74 147.94 -67.81 147.95 C-69.54 147.96 -71.27 147.98 -73 148 C-73 148.33 -73 148.66 -73 149 C-81.25 149 -89.5 149 -98 149 C-98 148.67 -98 148.34 -98 148 C-99.32 147.93 -99.32 147.93 -100.67 147.85 C-101.83 147.78 -102.99 147.7 -104.19 147.62 C-105.34 147.56 -106.48 147.49 -107.67 147.41 C-110.8 147.02 -113.15 146.32 -116 145 C-116 144.34 -116 143.68 -116 143 C-116.56 142.92 -117.12 142.84 -117.69 142.75 C-124.16 140.65 -129.73 134.05 -133.06 128.31 C-137.4 119.45 -136.41 109.52 -135 100 C-134.34 100 -133.68 100 -133 100 C-133 98.68 -133 97.36 -133 96 C-132.34 96 -131.68 96 -131 96 C-130.91 95.26 -130.83 94.53 -130.74 93.77 C-129.86 90.46 -128.61 89.08 -126.19 86.69 C-125.5 85.99 -124.81 85.29 -124.11 84.57 C-122 83 -122 83 -118 83 C-118 82.34 -118 81.68 -118 81 C-116.73 80.49 -115.46 80 -114.19 79.5 C-113.48 79.22 -112.77 78.94 -112.04 78.66 C-110 78 -110 78 -107 78 C-106.9 76.87 -106.79 75.73 -106.69 74.56 C-105.76 67.29 -103.82 61.59 -99 56 C-98.47 54.64 -98.47 54.64 -97.94 53.25 C-97.63 52.51 -97.32 51.76 -97 51 C-96.01 50.67 -95.02 50.34 -94 50 C-93.5 49.01 -93.5 49.01 -93 48 C-91.36 46.95 -89.69 45.96 -88 45 C-87.24 44.5 -86.47 43.99 -85.69 43.48 C-77.73 39.11 -66.26 38.77 -57.56 41.06 C-54.19 42.37 -54.19 42.37 -52 41 C-51.86 40.26 -51.71 39.51 -51.56 38.75 C-50.92 35.59 -49.77 33.69 -48 31 C-47.17 29.66 -47.17 29.66 -46.33 28.3 C-43.67 24.32 -40.38 21.01 -37 17.62 C-36.38 16.98 -35.77 16.34 -35.13 15.68 C-34.53 15.08 -33.93 14.47 -33.31 13.85 C-32.5 13.03 -32.5 13.03 -31.68 12.19 C-30 11 -30 11 -26 11 C-26 10.34 -26 9.68 -26 9 C-24.76 8.3 -23.51 7.61 -22.25 6.94 C-21.21 6.36 -21.21 6.36 -20.14 5.78 C-17.64 4.87 -16.47 5.12 -14 6 C-14 5.34 -14 4.68 -14 4 C-13.07 3.8 -12.15 3.59 -11.19 3.38 C-9.99 3.11 -8.8 2.84 -7.56 2.56 C-6.37 2.3 -5.17 2.03 -3.94 1.75 C-1.13 1.3 -1.13 1.3 0 0 Z M-5 11 C-5 11.33 -5 11.66 -5 12 C-2.69 12 -0.38 12 2 12 C2 11.67 2 11.34 2 11 C-0.31 11 -2.62 11 -5 11 Z M13 13 C11.01 13.08 9.01 13.11 7.02 13.1 C5.86 13.09 4.69 13.09 3.49 13.09 C2.28 13.08 1.06 13.07 -0.19 13.06 C-1.41 13.06 -2.64 13.05 -3.9 13.05 C-6.94 13.04 -9.97 13.02 -13 13 C-12.5 13.99 -12.5 13.99 -12 15 C-14.31 15 -16.62 15 -19 15 C-19 15.66 -19 16.32 -19 17 C-19.66 17 -20.32 17 -21 17 C-21.33 17.99 -21.66 18.98 -22 20 C-23.65 20.7 -25.32 21.37 -27 22 C-27.33 22.66 -27.66 23.32 -28 24 C-28.68 24.5 -29.36 24.99 -30.06 25.5 C-30.7 26 -31.34 26.49 -32 27 C-32 27.66 -32 28.32 -32 29 C-32.96 29.43 -32.96 29.43 -33.94 29.88 C-36.15 30.83 -36.15 30.83 -37 33 C-36.5 33.99 -36.5 33.99 -36 35 C-37.32 35 -38.64 35 -40 35 C-40.33 37.31 -40.66 39.62 -41 42 C-42.49 42.5 -42.49 42.5 -44 43 C-43.95 43.92 -43.95 43.92 -43.89 44.86 C-43.87 45.67 -43.84 46.48 -43.81 47.31 C-43.76 48.51 -43.76 48.51 -43.71 49.74 C-44 52 -44 52 -45.35 53.8 C-47 55 -47 55 -49.62 54.81 C-52 54 -52 54 -53 52 C-61.17 49 -70.45 49.81 -79 50 C-79.33 50.99 -79.66 51.98 -80 53 C-81.67 54.39 -81.67 54.39 -83.75 55.81 C-92.05 61.91 -94.01 67.03 -96 77 C-96.18 77.89 -96.36 78.78 -96.54 79.7 C-96.69 80.46 -96.84 81.22 -97 82 C-97.33 83.67 -97.67 85.33 -98 87 C-101.3 87 -104.6 87 -108 87 C-108 87.66 -108 88.32 -108 89 C-108.88 88.9 -109.76 88.8 -110.66 88.7 C-115.09 89.1 -116.37 90.69 -119.38 93.88 C-120.69 95.23 -120.69 95.23 -122.02 96.62 C-124.21 98.74 -124.21 98.74 -124 101 C-124.53 101.99 -124.53 101.99 -125.06 103 C-125.53 103.99 -125.53 103.99 -126 105 C-125.67 105.66 -125.34 106.32 -125 107 C-124.93 109.88 -124.91 112.74 -124.94 115.62 C-124.94 116.43 -124.95 117.23 -124.95 118.05 C-124.96 120.04 -124.98 122.02 -125 124 C-124.34 124 -123.68 124 -123 124 C-122.67 124.99 -122.34 125.98 -122 127 C-120.24 128.82 -120.24 128.82 -118.12 130.56 C-117.08 131.46 -117.08 131.46 -116.01 132.38 C-110.98 136.43 -107.01 137.13 -100.69 137.12 C-99.64 137.12 -98.59 137.12 -97.51 137.12 C-95.8 137.12 -95.8 137.12 -94.05 137.11 C-92.84 137.11 -91.63 137.11 -90.38 137.11 C-87.07 137.11 -83.76 137.11 -80.45 137.1 C-76.99 137.1 -73.53 137.09 -70.07 137.09 C-63.52 137.09 -56.96 137.08 -50.41 137.07 C-42.95 137.06 -35.49 137.06 -28.03 137.05 C-12.69 137.04 2.66 137.02 18 137 C18.33 135.35 18.66 133.7 19 132 C18.34 132 17.68 132 17 132 C16.9 131.4 16.79 130.8 16.69 130.19 C15.91 127.72 14.93 126.68 13 125 C12.01 125.33 11.02 125.66 10 126 C10 126.66 10 127.32 10 128 C9.3 127.82 8.61 127.63 7.89 127.45 C4.58 126.94 2.04 127.28 -1.25 127.88 C-2.31 128.06 -3.36 128.24 -4.45 128.43 C-6.92 128.74 -6.92 128.74 -8 130 C-10.03 129.77 -10.03 129.77 -12.5 129.25 C-13.31 129.09 -14.13 128.93 -14.97 128.77 C-15.64 128.51 -16.31 128.26 -17 128 C-17.33 127.01 -17.66 126.02 -18 125 C-18.74 124.71 -19.49 124.42 -20.25 124.12 C-26.67 121.5 -29.19 116.14 -32.08 110.21 C-33 108 -33 108 -33 106 C-34.82 103.76 -34.82 103.76 -37.43 103.77 C-38.43 103.78 -39.42 103.79 -40.45 103.8 C-42.06 103.81 -42.06 103.81 -43.71 103.82 C-44.83 103.84 -45.96 103.86 -47.12 103.88 C-48.83 103.89 -48.83 103.89 -50.57 103.9 C-53.38 103.93 -56.19 103.96 -59 104 C-59 104.99 -59 105.98 -59 107 C-60.67 108 -62.33 109 -64 110 C-64 110.99 -64 111.98 -64 113 C-64.99 113.66 -65.98 114.32 -67 115 C-67.33 115.33 -67.66 115.66 -68 116 C-69.85 116.07 -71.71 116.08 -73.56 116.06 C-74.57 116.05 -75.59 116.04 -76.63 116.04 C-77.41 116.02 -78.19 116.01 -79 116 C-79 115.67 -79 115.34 -79 115 C-79.63 114.97 -80.25 114.95 -80.9 114.92 C-81.72 114.87 -82.53 114.81 -83.38 114.75 C-84.19 114.7 -85 114.66 -85.84 114.61 C-88 114 -88 114 -89.19 112.16 C-89.46 111.44 -89.72 110.73 -90 110 C-90.54 108.93 -91.07 107.86 -91.62 106.75 C-93.6 101.35 -93.87 97.33 -91.81 91.81 C-88.75 87.06 -85.59 83.51 -80 82 C-79.01 82.5 -79.01 82.5 -78 83 C-78 82.34 -78 81.68 -78 81 C-77.23 81.29 -76.46 81.58 -75.66 81.88 C-74.16 82.43 -74.16 82.43 -72.62 83 C-71.13 83.56 -71.13 83.56 -69.6 84.12 C-67.14 85.11 -67.14 85.11 -65 85 C-65 85.66 -65 86.32 -65 87 C-64.34 87 -63.68 87 -63 87 C-63.5 88.49 -63.5 88.49 -64 90 C-58.53 94.71 -53.82 94.49 -46.81 94.25 C-45.32 94.22 -45.32 94.22 -43.79 94.2 C-41.95 94.16 -40.11 94.12 -38.26 94.06 C-36.51 94.01 -34.76 94 -33 94 C-32.86 93.26 -32.71 92.51 -32.56 91.75 C-32.22 90.1 -31.86 88.45 -31.44 86.81 C-30.92 84.99 -30.92 84.99 -31 83 C-30.1 82.61 -30.1 82.61 -29.19 82.21 C-26.86 80.92 -25.66 79.64 -23.94 77.62 C-19.71 73.21 -14.76 71.68 -9 70 C-7.88 60.83 -7.88 60.83 -10.71 52.45 C-14.38 49.1 -14.38 49.1 -19 48 C-19.22 46.64 -19.22 46.64 -19.44 45.25 C-19.91 42.19 -19.91 42.19 -20.56 40 C-21.41 36.11 -21.25 32.76 -20 29 C-19.48 28.32 -18.97 27.64 -18.44 26.94 C-16.8 25.13 -16.8 25.13 -17 23 C-15.68 22.67 -14.36 22.34 -13 22 C-13 21.34 -13 20.68 -13 20 C-6.29 18.94 -0.6 19.15 6 21 C6 21.66 6 22.32 6 23 C7.18 23.93 7.18 23.93 8.38 24.88 C11.77 27.62 12.82 29.47 13.34 33.8 C13.42 40.29 13.21 44 9 49 C9 49.66 9 50.32 9 51 C6.36 51.33 3.72 51.66 1 52 C-0.2 55.64 0.06 58.83 0.38 62.62 C0.47 63.77 0.56 64.92 0.65 66.1 C0.83 68.93 0.83 68.93 2 71 C3.9 71.47 3.9 71.47 6.06 71.62 C8.01 71.81 8.01 71.81 10 72 C10 72.66 10 73.32 10 74 C11.66 75.01 13.33 76.01 15 77 C17.17 78.98 17.17 78.98 19.19 81.19 C19.86 81.9 20.54 82.62 21.23 83.36 C23.56 86.84 24.16 89.9 25 94 C39.43 95.9 39.43 95.9 52.64 91.84 C55.21 89.22 55.21 89.22 57.17 86.38 C59.28 83.64 60.7 82.91 64 82 C70.06 82 75.43 83.63 80 87.62 C82.4 91.68 83.31 95.37 84 100 C84.33 100 84.66 100 85 100 C85.62 104.97 83.69 108.93 81 113 C78 115 78 115 75.06 114.94 C71.96 114.66 71.96 114.66 70.19 116.69 C68 118 68 118 66 117.81 C60.16 116.23 57.08 113.47 53.41 108.74 C52.1 106.88 52.1 106.88 50 106 C47.28 105.93 44.59 105.91 41.88 105.94 C41.12 105.94 40.37 105.95 39.59 105.95 C37.73 105.96 35.86 105.98 34 106 C34.6 106.84 34.6 106.84 35.21 107.69 C41.38 116.58 43.48 124.3 45 135 C45.66 135 46.32 135 47 135 C47.33 135.66 47.66 136.32 48 137 C61.53 137 75.06 137 89 137 C89 136.34 89 135.68 89 135 C89.66 135 90.32 135 91 135 C91.33 134.67 91.66 134.34 92 134 C94.06 134.44 94.06 134.44 96 135 C97.32 133.35 98.64 131.7 100 130 C100.66 130.33 101.32 130.66 102 131 C102 130.34 102 129.68 102 129 C102.99 128.67 103.98 128.34 105 128 C106.36 126.35 107.69 124.69 109 123 C109.66 122.67 110.32 122.34 111 122 C112.13 120.23 112.13 120.23 113.12 118.12 C113.48 117.43 113.83 116.73 114.2 116.01 C115.19 113.9 115.19 113.9 115 111 C115.66 110.67 116.32 110.34 117 110 C117.71 96.76 118.03 86.27 109 75.64 C107.07 73.64 105.1 71.81 103 70 C101.64 68.79 101.64 68.79 100.25 67.56 C98.07 66.05 96.55 65.55 94 65 C93.67 64.34 93.34 63.68 93 63 C90.08 61.17 87.8 60.73 84.38 60.75 C83.21 60.74 83.21 60.74 82.02 60.73 C79.77 60.82 79.77 60.82 78 63 C76.05 63.12 76.05 63.12 73.75 63 C69.77 62.9 66.73 63.47 63 65 C63 65.99 63 66.98 63 68 C61.82 67.72 61.82 67.72 60.62 67.44 C58.03 66.74 58.03 66.74 56 68 C55.88 66.93 55.76 65.85 55.63 64.75 C55.46 63.31 55.29 61.87 55.12 60.44 C55.05 59.73 54.97 59.03 54.89 58.3 C54.33 53.69 53.39 49.44 52 45 C51.34 45 50.68 45 50 45 C50.33 44.01 50.66 43.02 51 42 C47.12 33.82 42.19 27.48 35 22 C34.01 21.01 34.01 21.01 33 20 C30.68 18.96 28.35 17.96 26 17 C26.33 16.34 26.66 15.68 27 15 C25.23 14.47 23.46 13.95 21.69 13.44 C20.7 13.15 19.72 12.86 18.7 12.56 C15.92 11.75 15.92 11.75 13 13 Z M9 27 C9.99 28.49 9.99 28.49 11 30 C11 29.01 11 28.02 11 27 C10.34 27 9.68 27 9 27 Z M-12 32 C-12.34 34.75 -12.18 37.21 -12 40 C-7.24 43.25 -7.24 43.25 -1.69 43.94 C1.3 43.2 1.3 43.2 3 40 C2.01 40 1.02 40 0 40 C1.32 39.67 2.64 39.34 4 39 C4.5 36.71 4.5 36.71 4 34 C0.91 30.69 -0.66 29.21 -5.12 28.5 C-8.44 29.08 -9.86 29.37 -12 32 Z M12 32 C12 34.97 12 37.94 12 41 C12.33 41 12.66 41 13 41 C13 38.03 13 35.06 13 32 C12.67 32 12.34 32 12 32 Z M58 38 C59 40 59 40 59 40 Z M-42 39 C-41 42 -41 42 -41 42 Z M10 45 C11 47 11 47 11 47 Z M61 47 C62 49 62 49 62 49 Z M-71 48 C-71 48.33 -71 48.66 -71 49 C-68.69 49 -66.38 49 -64 49 C-64 48.67 -64 48.34 -64 48 C-66.31 48 -68.62 48 -71 48 Z M-96 67 C-95 71 -95 71 -95 71 Z M-97 72 C-96 75 -96 75 -96 75 Z M-7 78 C-7 78.33 -7 78.66 -7 79 C-5.02 79 -3.04 79 -1 79 C-1 78.67 -1 78.34 -1 78 C-2.98 78 -4.96 78 -7 78 Z M121 78 C122 80 122 80 122 80 Z M-18 85 C-18 85.66 -18 86.32 -18 87 C-18.66 87 -19.32 87 -20 87 C-21.61 88.93 -22.88 90.76 -24 93 C-22.15 93.69 -22.15 93.69 -20 94 C-19.01 93.34 -18.02 92.68 -17 92 C-6.67 92 3.67 92 14 92 C13.5 90.02 13.5 90.02 13 88 C12.34 88 11.68 88 11 88 C11 87.34 11 86.68 11 86 C9.02 84.31 7.02 82.64 5 81 C5 80.67 5 80.34 5 80 C-4.03 79.36 -10.29 80.12 -18 85 Z M23 88 C24 91 24 91 24 91 Z M-79 91 C-79 91.33 -79 91.66 -79 92 C-77.35 92 -75.7 92 -74 92 C-74 91.67 -74 91.34 -74 91 C-75.65 91 -77.3 91 -79 91 Z M67 91 C71 92 71 92 71 92 Z M62.38 93.56 C60.47 96.93 60.52 99.19 61 103 C62.42 105.58 62.42 105.58 65 107 C68.58 107.5 68.58 107.5 72 107 C72.66 106.34 73.32 105.68 74 105 C74 104.01 74 103.02 74 102 C74.66 102 75.32 102 76 102 C76 100.68 76 99.36 76 98 C75.34 98 74.68 98 74 98 C74 97.01 74 96.02 74 95 C72.71 94.5 71.42 94 70.12 93.5 C69.41 93.22 68.69 92.94 67.95 92.66 C65.22 91.74 64.5 91.52 62.38 93.56 Z M-82 94 C-83.13 99.86 -83.13 99.86 -82 105.56 C-78.9 107.79 -76.72 107.51 -73 107 C-69.99 105.48 -69.99 105.48 -68 103 C-67.17 100.54 -67.17 100.54 -68 98 C-71.03 94.09 -71.03 94.09 -75.56 92.62 C-77.76 92.96 -79.85 93.45 -82 94 Z M-85 96 C-84.67 97.32 -84.34 98.64 -84 100 C-83.67 98.68 -83.34 97.36 -83 96 C-83.66 96 -84.32 96 -85 96 Z M60 99 C61 101 61 101 61 101 Z M-18 103 C-19.32 103.7 -20.65 104.37 -22 105 C-22 106.32 -22 107.64 -22 109 C-20.48 110.52 -19.09 110.69 -17 111 C-16.01 110.34 -15.02 109.68 -14 109 C-1.99 105.1 9.44 110.66 20 116 C20 116.66 20 117.32 20 118 C20.66 118 21.32 118 22 118 C22 118.66 22 119.32 22 120 C22.66 120 23.32 120 24 120 C24.5 121.98 24.5 121.98 25 124 C25.66 124 26.32 124 27 124 C28.12 128.75 28.12 128.75 27 131 C27.81 132.91 28.52 134.52 30 136 C30.91 141.12 31.2 146.15 31.32 151.34 C31.34 152.11 31.36 152.87 31.38 153.66 C31.44 156.09 31.5 158.51 31.56 160.94 C31.61 162.59 31.65 164.25 31.69 165.9 C31.8 169.93 31.9 173.97 32 178 C33.65 178.33 35.3 178.66 37 179 C39.46 174.08 38.12 166.37 38.04 160.91 C38.01 158.93 37.99 156.95 37.98 154.96 C37.84 137.39 37.84 137.39 32 121 C31.34 121 30.68 121 30 121 C29.96 120.44 29.92 119.89 29.88 119.31 C28.55 115.81 25.91 114.27 23 112 C20.59 109.84 20.06 109.18 19 106 C18.01 105.67 17.02 105.34 16 105 C15.4 104.69 14.8 104.38 14.19 104.06 C11.53 102.77 8.81 101.89 6 101 C6 100.67 6 100.34 6 100 C2.75 99.91 -0.5 99.86 -3.75 99.81 C-4.67 99.79 -5.59 99.76 -6.54 99.74 C-7.43 99.73 -8.32 99.72 -9.23 99.71 C-10.05 99.69 -10.87 99.68 -11.71 99.66 C-14.54 100.08 -15.84 101.18 -18 103 Z M126 101 C127 103 127 103 127 103 Z M-127 106 C-127 110.62 -127 115.24 -127 120 C-126.67 120 -126.34 120 -126 120 C-126 115.38 -126 110.76 -126 106 C-126.33 106 -126.66 106 -127 106 Z M82 106 C81.67 106.66 81.34 107.32 81 108 C81.66 108 82.32 108 83 108 C82.67 107.34 82.34 106.68 82 106 Z M124 108 C125 110 125 110 125 110 Z M-77 115 C-77 115.33 -77 115.66 -77 116 C-74.03 116 -71.06 116 -68 116 C-68 115.67 -68 115.34 -68 115 C-70.97 115 -73.94 115 -77 115 Z M121 118 C122 120 122 120 122 120 Z M123 118 C124 120 124 120 124 120 Z M-6 119 C-6 119.33 -6 119.66 -6 120 C-4.35 120 -2.7 120 -1 120 C-1 119.67 -1 119.34 -1 119 C-2.65 119 -4.3 119 -6 119 Z M41 119 C42 121 42 121 42 121 Z M106 136 C105.34 136.66 104.68 137.32 104 138 C105.32 137.67 106.64 137.34 108 137 C107.34 136.67 106.68 136.34 106 136 Z M-110 145 C-106 146 -106 146 -106 146 Z M77 145 C77 145.33 77 145.66 77 146 C81.95 146 86.9 146 92 146 C92 145.67 92 145.34 92 145 C87.05 145 82.1 145 77 145 Z M47 146 C47.33 146.66 47.66 147.32 48 148 C48.33 147.34 48.66 146.68 49 146 C48.34 146 47.68 146 47 146 Z M6 147 C6 147.33 6 147.66 6 148 C9.63 148 13.26 148 17 148 C17 147.67 17 147.34 17 147 C13.37 147 9.74 147 6 147 Z M-44 148 C-47.21 157.85 -47.15 167.71 -47 178 C-43.63 179.08 -42.7 178.93 -39 178 C-39 168.43 -39 158.86 -39 149 C-40.65 148.67 -42.3 148.34 -44 148 Z M-29 150 C-29.28 152.82 -29.28 152.82 -29.2 156.1 C-29.19 157.31 -29.18 158.52 -29.18 159.77 C-29.16 161.04 -29.14 162.32 -29.12 163.62 C-29.12 164.9 -29.11 166.18 -29.1 167.5 C-29.07 170.67 -29.04 173.83 -29 177 C-26.04 178.69 -23.93 179.25 -20.54 179.24 C-19.23 179.25 -19.23 179.25 -17.89 179.25 C-16.95 179.25 -16.02 179.24 -15.05 179.23 C-14.09 179.23 -13.12 179.23 -12.13 179.23 C-10.09 179.23 -8.05 179.22 -6.01 179.21 C-2.88 179.19 0.25 179.19 3.38 179.19 C5.36 179.18 7.34 179.17 9.32 179.17 C10.26 179.17 11.2 179.17 12.17 179.16 C13.04 179.16 13.9 179.15 14.8 179.15 C15.56 179.14 16.33 179.14 17.12 179.13 C19.09 179.11 19.09 179.11 21 178 C21.06 173.54 21.09 169.08 21.12 164.62 C21.14 163.35 21.16 162.08 21.18 160.77 C21.18 159.56 21.19 158.35 21.2 157.1 C21.21 155.98 21.22 154.86 21.23 153.71 C21.28 150.85 21.28 150.85 19 149 C15.97 148.53 15.97 148.53 12.39 148.39 C11.73 148.35 11.07 148.31 10.38 148.27 C3.5 147.92 -3.38 147.81 -10.27 147.81 C-12.36 147.81 -14.45 147.79 -16.54 147.78 C-17.87 147.77 -19.21 147.77 -20.55 147.77 C-22.34 147.76 -22.34 147.76 -24.17 147.76 C-27.13 147.7 -27.13 147.7 -29 150 Z M30 148 C30 150.64 30 153.28 30 156 C30.33 156 30.66 156 31 156 C31 153.36 31 150.72 31 148 C30.67 148 30.34 148 30 148 Z M-47 150 C-47 151.65 -47 153.3 -47 155 C-46.67 155 -46.34 155 -46 155 C-46 153.35 -46 151.7 -46 150 C-46.33 150 -46.66 150 -47 150 Z M47 152 C47 154.64 47 157.28 47 160 C47.33 160 47.66 160 48 160 C48 157.36 48 154.72 48 152 C47.67 152 47.34 152 47 152 Z M29 164 C30 166 30 166 30 166 Z M-59 189 C-58.67 189.66 -58.34 190.32 -58 191 C-58.74 191.68 -58.74 191.68 -59.5 192.38 C-61.23 193.88 -61.23 193.88 -61 196 C-56.38 196 -51.76 196 -47 196 C-47.05 199.08 -47.05 199.08 -47.1 202.15 C-47.21 204.02 -47.21 204.02 -46 205 C-46.99 205.06 -47.97 205.12 -48.99 205.18 C-50.27 205.27 -51.55 205.35 -52.88 205.44 C-54.15 205.52 -55.43 205.6 -56.74 205.68 C-59.88 205.79 -59.88 205.79 -62 207 C-62 217.23 -62 227.46 -62 238 C-57.71 238.33 -53.42 238.66 -49 239 C-48.01 239.33 -47.02 239.66 -46 240 C-46 241.98 -46 243.96 -46 246 C-49.47 247.74 -53.43 247.01 -57.25 246.94 C-59.96 246.8 -59.96 246.8 -62 248 C-62 249.65 -62 251.3 -62 253 C-59.07 254.67 -56.97 255.25 -53.61 255.25 C-52.74 255.26 -51.87 255.27 -50.97 255.27 C-50.02 255.27 -49.07 255.26 -48.09 255.26 C-47.09 255.26 -46.08 255.27 -45.05 255.27 C-41.72 255.28 -38.4 255.27 -35.07 255.27 C-32.76 255.27 -30.45 255.27 -28.14 255.27 C-23.29 255.27 -18.44 255.27 -13.59 255.26 C-7.38 255.25 -1.17 255.26 5.03 255.27 C9.81 255.28 14.58 255.27 19.36 255.27 C21.65 255.27 23.94 255.27 26.23 255.27 C29.43 255.28 32.63 255.27 35.84 255.26 C37.25 255.26 37.25 255.26 38.7 255.27 C46.41 255.42 46.41 255.42 53 252 C53.33 251.01 53.66 250.02 54 249 C51.12 247.56 48.58 247.91 45.38 247.94 C43.59 247.95 43.59 247.95 41.77 247.96 C40.4 247.98 40.4 247.98 39 248 C37.88 242.38 37.88 242.38 39 239 C40 239.01 41 239.02 42.03 239.04 C43.96 239.05 43.96 239.05 45.94 239.06 C47.23 239.07 48.51 239.09 49.84 239.1 C52.86 239.37 52.86 239.37 54 238 C54.09 235.71 54.11 233.41 54.1 231.12 C54.1 230.43 54.09 229.75 54.09 229.04 C54.09 226.84 54.08 224.64 54.06 222.44 C54.06 220.95 54.05 219.46 54.05 217.97 C54.04 214.31 54.02 210.66 54 207 C51.17 205.58 48.53 205.65 45.38 205.44 C44.19 205.35 43 205.27 41.77 205.18 C40.4 205.09 40.4 205.09 39 205 C37.88 202.69 37.88 202.69 37 200 C37.66 199.01 38.32 198.02 39 197 C41.61 196.62 44.01 196.4 46.62 196.31 C47.68 196.26 47.68 196.26 48.77 196.21 C50.51 196.13 52.25 196.06 54 196 C53.35 192.79 53.35 192.79 51.25 190.31 C46.23 187.38 40.59 187.86 34.95 187.87 C34.04 187.87 33.14 187.87 32.21 187.87 C29.23 187.86 26.25 187.86 23.27 187.87 C21.19 187.87 19.11 187.87 17.03 187.86 C12.67 187.86 8.31 187.86 3.96 187.87 C-1.61 187.88 -7.18 187.87 -12.75 187.87 C-17.05 187.86 -21.34 187.86 -25.64 187.87 C-27.69 187.87 -29.74 187.87 -31.79 187.86 C-34.67 187.86 -37.55 187.87 -40.43 187.87 C-41.27 187.87 -42.11 187.87 -42.97 187.86 C-48.38 187.88 -53.63 188.32 -59 189 Z M-58 204 C-58 204.33 -58 204.66 -58 205 C-56.02 205 -54.04 205 -52 205 C-52 204.67 -52 204.34 -52 204 C-53.98 204 -55.96 204 -58 204 Z M-51 204 C-47 205 -47 205 -47 205 Z M47 204 C47 204.33 47 204.66 47 205 C48.65 205 50.3 205 52 205 C52 204.67 52 204.34 52 204 C50.35 204 48.7 204 47 204 Z M-64 207 C-64 216.9 -64 226.8 -64 237 C-63.67 237 -63.34 237 -63 237 C-63 227.1 -63 217.2 -63 207 C-63.33 207 -63.66 207 -64 207 Z M-47 241 C-46 243 -46 243 -46 243 Z M62 246 C62 248.64 62 251.28 62 254 C62.33 254 62.66 254 63 254 C63 251.36 63 248.72 63 246 C62.67 246 62.34 246 62 246 Z M60 257 C59.34 257.66 58.68 258.32 58 259 C58.99 259 59.98 259 61 259 C60.67 258.34 60.34 257.68 60 257 Z " fill="#2A82AE" transform="translate(641,211)"/>
<path d="M0 0 C19.41 -0.02 38.82 -0.04 58.23 -0.05 C67.24 -0.06 76.25 -0.06 85.26 -0.08 C93.12 -0.09 100.97 -0.09 108.82 -0.09 C112.98 -0.1 117.14 -0.1 121.3 -0.11 C125.21 -0.11 129.12 -0.11 133.03 -0.11 C134.47 -0.11 135.91 -0.12 137.35 -0.12 C139.31 -0.12 141.27 -0.12 143.22 -0.12 C144.32 -0.12 145.42 -0.12 146.55 -0.12 C149 0 149 0 150 1 C150.1 3.36 150.14 5.7 150.13 8.06 C150.13 8.77 150.13 9.48 150.14 10.2 C150.14 11.7 150.13 13.2 150.13 14.69 C150.13 16.99 150.13 19.29 150.14 21.59 C150.14 23.04 150.13 24.49 150.13 25.94 C150.13 26.63 150.14 27.32 150.14 28.03 C150.11 32.89 150.11 32.89 149 34 C146.48 34.09 143.99 34.12 141.46 34.1 C140.33 34.1 140.33 34.1 139.18 34.09 C136.77 34.09 134.35 34.08 131.94 34.06 C130.3 34.06 128.67 34.05 127.04 34.05 C123.02 34.04 119.01 34.02 115 34 C115 34.76 115 35.53 115.01 36.31 C115.03 46.19 115.05 56.06 115.06 65.94 C115.06 66.73 115.06 67.53 115.07 68.35 C115.09 99.57 114.7 130.78 114 162 C117.98 162.57 121.94 163.13 125.94 163.56 C126.71 163.65 127.48 163.73 128.28 163.82 C128.85 163.88 129.41 163.94 130 164 C130 165.65 130 167.3 130 169 C128.93 169.06 127.86 169.12 126.75 169.18 C125.36 169.27 123.96 169.35 122.56 169.44 C121.86 169.48 121.15 169.52 120.42 169.56 C116.91 169.48 116.91 169.48 114 171 C113.95 173 113.96 175 114 177 C114.04 179 114.05 181 114 183 C113 184 113 184 111.15 184.1 C109.1 184.07 107.05 184.03 105 184 C107.05 186.25 108.01 187 111 188 C111 189.32 111 190.64 111 192 C107.99 193.5 105.22 193.13 101.88 193.13 C101.17 193.13 100.47 193.13 99.75 193.14 C98.26 193.14 96.77 193.13 95.29 193.13 C93.01 193.13 90.73 193.13 88.45 193.14 C87.01 193.14 85.57 193.13 84.12 193.13 C82.81 193.13 81.49 193.13 80.13 193.13 C77 193 77 193 75 192 C74.04 187.84 73.87 183.8 73.84 179.55 C73.83 178.27 73.82 176.99 73.81 175.67 C73.81 174.27 73.8 172.86 73.79 171.46 C73.79 169.97 73.78 168.48 73.76 166.99 C73.74 162.96 73.72 158.93 73.7 154.9 C73.67 150.68 73.65 146.47 73.62 142.25 C73.57 134.27 73.53 126.29 73.48 118.32 C73.43 109.23 73.38 100.14 73.32 91.06 C73.21 72.37 73.1 53.69 73 35 C61.78 34.67 50.56 34.34 39 34 C39.03 38.3 39.07 42.59 39.11 47.02 C39.12 50.44 39.14 53.87 39.16 57.29 C39.17 60.91 39.19 64.52 39.23 68.14 C39.26 71.62 39.28 75.1 39.28 78.58 C39.29 80.56 39.32 82.54 39.34 84.51 C39.34 85.71 39.34 86.91 39.34 88.15 C39.35 89.21 39.35 90.27 39.36 91.36 C38.96 94.33 38.34 95.21 36 97 C35.01 96.5 35.01 96.5 34 96 C34 95.67 34 95.34 34 95 C34.05 107.48 34.08 119.96 34.1 132.45 C34.11 138.24 34.13 144.04 34.15 149.83 C34.17 155.42 34.18 161.01 34.19 166.6 C34.19 168.74 34.2 170.87 34.21 173.01 C34.23 175.99 34.23 178.98 34.23 181.96 C34.23 182.85 34.24 183.74 34.25 184.66 C34.23 190.77 34.23 190.77 32 193 C27.88 193.4 23.76 193.33 19.62 193.32 C17.57 193.31 15.52 193.34 13.47 193.36 C12.18 193.36 10.9 193.36 9.57 193.36 C8.38 193.37 7.19 193.37 5.97 193.37 C3 193 3 193 1.15 191.91 C-1.85 186.92 -1.14 180.03 -1.1 174.34 C-1.1 173.51 -1.09 172.67 -1.09 171.81 C-1.09 170 -1.08 168.2 -1.08 166.39 C-1.06 163.54 -1.06 160.69 -1.05 157.83 C-1.04 151.79 -1.02 145.74 -1 139.69 C-0.98 132.66 -0.96 125.63 -0.94 118.6 C-0.94 115.79 -0.93 112.97 -0.91 110.16 C-0.91 108.44 -0.91 106.73 -0.9 105.01 C-0.9 104.22 -0.89 103.44 -0.89 102.63 C-0.8 98.69 -0.8 98.69 -2 95 C-3.88 94.1 -3.88 94.1 -6.06 93.38 C-6.8 93.11 -7.53 92.85 -8.29 92.59 C-8.85 92.39 -9.42 92.2 -10 92 C-9.67 89.69 -9.34 87.38 -9 85 C-7.89 85.16 -6.77 85.33 -5.62 85.5 C-2.28 86.05 -2.28 86.05 0 86 C-0.33 84.95 -0.66 83.9 -1 82.81 C-2.86 75.72 -2.86 75.72 -1 72 C-0.91 69.79 -0.89 67.59 -0.9 65.38 C-0.9 64.7 -0.91 64.02 -0.91 63.32 C-0.91 61.84 -0.92 60.36 -0.92 58.89 C-0.94 56.55 -0.94 54.21 -0.95 51.88 C-0.96 46.92 -0.98 41.96 -1 37 C-1.02 31.25 -1.04 25.51 -1.06 19.76 C-1.06 17.46 -1.07 15.15 -1.09 12.85 C-1.09 11.44 -1.09 10.03 -1.1 8.62 C-1.1 7.39 -1.11 6.15 -1.11 4.88 C-1 2 -1 2 0 0 Z M113 33 C113 33.99 113 34.98 113 36 C113.66 35.01 114.32 34.02 115 33 C114.34 33 113.68 33 113 33 Z M112 38 C112 39.98 112 41.96 112 44 C112.33 44 112.66 44 113 44 C113 42.02 113 40.04 113 38 C112.67 38 112.34 38 112 38 Z M112 48 C113 50 113 50 113 50 Z M112 85 C113 87 113 87 113 87 Z M3 88 C3 88.99 3 89.98 3 91 C5.94 92.47 8.37 91.85 11.62 91.56 C13.41 91.41 13.41 91.41 15.23 91.25 C16.6 91.13 16.6 91.13 18 91 C18 90.01 18 89.02 18 88 C13.05 88 8.1 88 3 88 Z M112 90 C112 93.96 112 97.92 112 102 C112.33 102 112.66 102 113 102 C113 98.04 113 94.08 113 90 C112.67 90 112.34 90 112 90 Z M112 104 C112 120.5 112 137 112 154 C112.33 154 112.66 154 113 154 C113 137.5 113 121 113 104 C112.67 104 112.34 104 112 104 Z M112 156 C113 158 113 158 113 158 Z M102 167 C104.97 167 107.94 167 111 167 C110.67 166.34 110.34 165.68 110 165 C106.28 164.8 105.23 164.85 102 167 Z M111 180 C112 182 112 182 112 182 Z " fill="#CBDCDA" transform="translate(815,512)"/>
<path d="M0 0 C0.74 -0 1.48 -0.01 2.24 -0.01 C3.81 -0.02 5.38 -0.02 6.95 -0.02 C9.34 -0.02 11.73 -0.04 14.12 -0.06 C15.64 -0.06 17.16 -0.06 18.69 -0.06 C19.75 -0.07 19.75 -0.07 20.84 -0.08 C24.86 -0.07 27.93 0.4 31.54 2.17 C31.59 3.29 31.65 4.42 31.7 5.58 C32.48 17.24 35.45 25.29 41.54 35.17 C43.11 37.97 43.54 38.89 43.54 42.17 C44.53 42.5 45.52 42.83 46.54 43.17 C48.76 46.86 49.54 48.8 49.54 53.17 C50.2 53.17 50.86 53.17 51.54 53.17 C52.53 56.14 52.53 56.14 53.54 59.17 C54.53 59.17 55.52 59.17 56.54 59.17 C56.87 56.86 57.2 54.55 57.54 52.17 C58.2 52.17 58.86 52.17 59.54 52.17 C59.65 51.65 59.75 51.14 59.86 50.61 C61.29 45.53 63.38 41.34 66.54 37.17 C66.89 35.84 67.22 34.5 67.54 33.17 C68.54 31.5 69.54 29.83 70.54 28.17 C70.54 27.51 70.54 26.85 70.54 26.17 C71.2 26.17 71.86 26.17 72.54 26.17 C72.54 25.51 72.54 24.85 72.54 24.17 C73.2 24.17 73.86 24.17 74.54 24.17 C74.05 22.68 74.05 22.68 73.54 21.17 C74.53 19.68 74.53 19.68 75.54 18.17 C75.82 15.27 76.01 12.45 76.11 9.54 C76.42 1.29 76.42 1.29 77.54 0.17 C80.03 0.07 82.49 0.03 84.97 0.04 C86.09 0.03 86.09 0.03 87.23 0.03 C88.82 0.03 90.4 0.03 91.98 0.04 C94.4 0.04 96.82 0.04 99.24 0.03 C100.78 0.03 102.31 0.03 103.85 0.04 C104.57 0.03 105.3 0.03 106.04 0.03 C109.15 0.04 111.57 0.18 114.54 1.17 C118.43 10.22 114.02 24.5 110.67 33.36 C109.02 37.32 106.99 40.64 104.54 44.17 C103 47.06 101.49 49.96 100.01 52.88 C98.54 55.17 98.54 55.17 95.54 56.17 C95.45 56.89 95.35 57.61 95.25 58.36 C94.44 61.57 93.18 63.49 91.23 66.17 C90.6 67.04 89.97 67.91 89.32 68.8 C87.44 71.3 85.49 73.73 83.54 76.17 C82.51 77.81 81.51 79.48 80.54 81.17 C80.18 81.72 79.81 82.26 79.43 82.83 C77.55 85.77 76.53 87.71 76.61 91.23 C77.62 94.41 78.94 97.24 80.54 100.17 C78.96 101.75 77.16 101.52 74.98 101.73 C74.15 101.81 73.33 101.9 72.48 101.98 C71.84 102.04 71.2 102.11 70.54 102.17 C70.54 102.5 70.54 102.83 70.54 103.17 C71.35 103.17 72.16 103.17 72.99 103.18 C81.77 103.49 81.77 103.49 85.42 106.67 C86.15 107.82 86.86 108.99 87.54 110.17 C88.08 110.91 88.61 111.66 89.16 112.43 C93.54 118.55 93.54 118.55 93.54 123.17 C94.2 123.5 94.86 123.83 95.54 124.17 C95.05 125.65 95.05 125.65 94.54 127.17 C95.53 126.84 96.52 126.51 97.54 126.17 C97.54 127.16 97.54 128.15 97.54 129.17 C98.2 129.17 98.86 129.17 99.54 129.17 C104.6 136.31 105.19 142.13 104.86 150.73 C104.83 151.83 104.81 152.94 104.79 154.08 C104.73 156.77 104.65 159.47 104.54 162.17 C105.16 161.96 105.78 161.76 106.42 161.54 C107.12 161.42 107.82 161.3 108.54 161.17 C110.54 163.17 110.54 163.17 110.74 166.64 C110.72 168.03 110.7 169.41 110.67 170.79 C110.66 171.5 110.65 172.21 110.64 172.93 C110.62 174.68 110.58 176.42 110.54 178.17 C106.91 178.5 103.28 178.83 99.54 179.17 C101.17 179.48 102.8 179.79 104.48 180.11 C109.42 181.04 109.42 181.04 110.54 182.17 C110.54 184.81 110.54 187.45 110.54 190.17 C96.35 190.17 82.16 190.17 67.54 190.17 C65.29 184.55 65.29 184.55 65.29 180.61 C65.28 179.74 65.27 178.87 65.27 177.97 C65.27 177.04 65.27 176.12 65.27 175.16 C65.25 173.18 65.23 171.21 65.21 169.23 C65.18 166.13 65.17 163.02 65.16 159.92 C65.15 156.92 65.12 153.91 65.08 150.91 C65.09 149.51 65.09 149.51 65.1 148.09 C65.21 143.09 65.21 143.09 62.51 139.18 C61.86 138.85 61.21 138.51 60.54 138.17 C60.54 137.51 60.54 136.85 60.54 136.17 C59.88 135.84 59.22 135.51 58.54 135.17 C57.76 133.34 57.07 131.48 56.42 129.61 C56.06 128.59 55.71 127.58 55.35 126.54 C55.08 125.76 54.82 124.97 54.54 124.17 C53.88 124.17 53.22 124.17 52.54 124.17 C51.55 126.15 50.56 128.13 49.54 130.17 C48.88 130.17 48.22 130.17 47.54 130.17 C47.42 130.89 47.3 131.61 47.17 132.36 C46.54 135.17 46.54 135.17 45.51 137.33 C44.24 141.04 44.33 144.55 44.42 148.42 C44.43 149.15 44.44 149.88 44.45 150.64 C44.47 152.48 44.51 154.32 44.54 156.17 C44.54 159.17 44.54 162.17 44.54 165.17 C43.55 165.5 42.56 165.83 41.54 166.17 C41.39 167.81 41.39 167.81 41.23 169.48 C40.52 173.31 40.14 173.69 37.54 176.17 C37.77 178.33 37.77 178.33 38.54 180.17 C37.37 180.79 37.37 180.79 36.17 181.42 C32.54 183.84 31.86 185.76 30.92 189.92 C30.79 190.66 30.67 191.4 30.54 192.17 C25.95 193.06 21.51 193.31 16.84 193.3 C16.13 193.3 15.41 193.3 14.67 193.3 C13.17 193.3 11.66 193.3 10.16 193.3 C7.85 193.29 5.55 193.3 3.24 193.3 C1.78 193.3 0.31 193.3 -1.16 193.3 C-2.19 193.3 -2.19 193.3 -3.24 193.31 C-6.26 193.29 -8.57 193.13 -11.46 192.17 C-12.59 188.77 -12.59 186.15 -12.59 182.57 C-12.59 181.27 -12.59 179.98 -12.59 178.64 C-12.59 177.97 -12.59 177.3 -12.59 176.61 C-12.58 174.54 -12.59 172.48 -12.59 170.42 C-12.59 169.13 -12.59 167.83 -12.59 166.5 C-12.59 165.31 -12.59 164.12 -12.59 162.9 C-12.46 160.17 -12.46 160.17 -11.46 159.17 C-9.79 159.13 -8.12 159.13 -6.46 159.17 C-6.4 158.14 -6.34 157.11 -6.27 156.05 C-5.79 148.08 -5.23 140.12 -4.46 132.17 C0.49 131.84 5.44 131.51 10.54 131.17 C9.88 130.18 9.22 129.19 8.54 128.17 C8.22 126.08 8.22 126.08 8.13 123.72 C8.09 122.87 8.05 122.02 8.01 121.15 C7.98 120.27 7.95 119.39 7.92 118.48 C7.88 117.59 7.84 116.7 7.8 115.78 C7.71 113.57 7.62 111.37 7.54 109.17 C11.5 109.17 15.46 109.17 19.54 109.17 C20.2 107.85 20.86 106.53 21.54 105.17 C22.5 104.49 22.5 104.49 23.48 103.79 C26.19 101.66 27.07 99.25 28.54 96.17 C29.12 95.63 29.7 95.1 30.29 94.54 C31.75 93.26 31.75 93.26 31.48 91.42 C30.36 88.74 28.94 86.33 27.45 83.85 C26.54 82.17 26.54 82.17 25.98 79.79 C25.84 79.26 25.69 78.72 25.54 78.17 C24.55 77.84 23.56 77.51 22.54 77.17 C20.94 74.95 20.94 74.95 19.36 72.23 C18.83 71.33 18.3 70.44 17.75 69.52 C16.54 67.17 16.54 67.17 16.54 65.17 C15.06 64.67 15.06 64.67 13.54 64.17 C12.61 62.65 11.7 61.12 10.86 59.54 C8.49 55.27 5.78 51.18 3.15 47.06 C1.54 44.17 1.54 44.17 1.54 41.17 C0.55 40.84 -0.44 40.51 -1.46 40.17 C-2.59 38.21 -2.59 38.21 -3.58 35.79 C-3.91 35 -4.25 34.21 -4.59 33.39 C-8.53 23.29 -9.46 11.94 -9.46 1.17 C-6.44 -0.34 -3.31 0.01 0 0 Z M102.54 41.17 C102.87 42.16 103.2 43.15 103.54 44.17 C103.87 43.18 104.2 42.19 104.54 41.17 C103.88 41.17 103.22 41.17 102.54 41.17 Z M91.54 58.17 C91.87 59.16 92.2 60.15 92.54 61.17 C92.87 60.18 93.2 59.19 93.54 58.17 C92.88 58.17 92.22 58.17 91.54 58.17 Z M87.54 65.17 C87.87 65.83 88.2 66.49 88.54 67.17 C88.87 66.51 89.2 65.85 89.54 65.17 C88.88 65.17 88.22 65.17 87.54 65.17 Z M78.54 78.17 C79.54 80.17 79.54 80.17 79.54 80.17 Z M22.54 106.17 C22.21 106.83 21.88 107.49 21.54 108.17 C22.2 108.17 22.86 108.17 23.54 108.17 C23.21 107.51 22.88 106.85 22.54 106.17 Z M87.54 113.17 C88.54 115.17 88.54 115.17 88.54 115.17 Z M51.54 120.17 C52.54 122.17 52.54 122.17 52.54 122.17 Z M50.54 122.17 C51.54 124.17 51.54 124.17 51.54 124.17 Z M12.54 129.17 C12.54 129.83 12.54 130.49 12.54 131.17 C15.02 131.66 15.02 131.66 17.54 132.17 C17.54 131.18 17.54 130.19 17.54 129.17 C15.89 129.17 14.24 129.17 12.54 129.17 Z M100.54 135.17 C101.54 137.17 101.54 137.17 101.54 137.17 Z M-5.46 157.17 C-4.46 159.17 -4.46 159.17 -4.46 159.17 Z M97.54 179.17 C98.54 181.17 98.54 181.17 98.54 181.17 Z M28.54 186.17 C28.54 187.82 28.54 189.47 28.54 191.17 C29.2 190.51 29.86 189.85 30.54 189.17 C30.21 188.18 29.88 187.19 29.54 186.17 C29.21 186.17 28.88 186.17 28.54 186.17 Z " fill="#CADCDA" transform="translate(483.45703125,511.83203125)"/>
<path d="M0 0 C1.29 0 1.29 0 2.61 0.01 C3.51 0 4.41 0 5.34 0 C8.34 -0 11.34 -0 14.34 0 C16.42 0 18.5 0 20.57 -0 C24.93 -0 29.29 0 33.65 0.01 C39.25 0.01 44.84 0.01 50.44 0 C54.73 -0 59.02 -0 63.31 0 C65.37 0 67.43 0 69.5 -0 C72.38 -0 75.26 0 78.15 0.01 C79 0 79.86 0 80.74 0 C84.08 0.01 86.82 0.07 90.01 1.14 C90.39 3.13 90.72 5.13 91.01 7.14 C90.68 7.47 90.35 7.8 90.01 8.14 C90.34 8.14 90.67 8.14 91.01 8.14 C91.01 16.39 91.01 24.64 91.01 33.14 C88.44 34.42 86.61 34.26 83.73 34.25 C82.08 34.25 82.08 34.25 80.39 34.25 C79.2 34.24 78.01 34.24 76.78 34.23 C75.56 34.23 74.34 34.23 73.09 34.23 C69.19 34.22 65.28 34.21 61.38 34.2 C58.74 34.19 56.1 34.19 53.46 34.18 C46.98 34.17 40.49 34.15 34.01 34.14 C33.68 48 33.35 61.86 33.01 76.14 C33.67 76.14 34.33 76.14 35.01 76.14 C35.01 76.8 35.01 77.46 35.01 78.14 C50.52 77.81 66.03 77.48 82.01 77.14 C83.32 79.76 83.14 81.77 83.13 84.7 C83.14 86.18 83.14 86.18 83.14 87.7 C83.01 90.14 83.01 90.14 82.01 91.14 C80.36 91.14 78.71 91.14 77.01 91.14 C77.5 97.57 77.5 97.57 78.01 104.14 C79.49 104.63 79.49 104.63 81.01 105.14 C81.01 106.79 81.01 108.44 81.01 110.14 C80.68 109.48 80.35 108.82 80.01 108.14 C79.02 108.14 78.03 108.14 77.01 108.14 C77.01 109.13 77.01 110.12 77.01 111.14 C77.67 111.47 78.33 111.8 79.01 112.14 C67.79 112.47 56.57 112.8 45.01 113.14 C45.34 114.46 45.67 115.78 46.01 117.14 C40.31 117.78 34.74 118.26 29.01 118.14 C29.01 118.8 29.01 119.46 29.01 120.14 C30.33 120.47 31.65 120.8 33.01 121.14 C33.01 122.06 33.01 122.06 33.01 123 C33.13 125.51 33.32 127.72 34.01 130.14 C36.91 132.3 36.91 132.3 40.01 133.14 C40.01 134.13 40.01 135.12 40.01 136.14 C42.65 136.47 45.29 136.8 48.01 137.14 C48.01 138.46 48.01 139.78 48.01 141.14 C43.39 141.47 38.77 141.8 34.01 142.14 C33.68 157.65 33.35 173.16 33.01 189.14 C27.25 189.96 22.32 190.16 16.58 189.98 C13.84 189.86 13.84 189.86 12.01 192.14 C9.1 192.28 6.29 192.32 3.38 192.26 C2.58 192.25 1.78 192.24 0.95 192.23 C-1.03 192.21 -3.01 192.17 -4.99 192.14 C-6.86 187.95 -7.04 185.63 -5.99 181.14 C-3.68 181.47 -1.37 181.8 1.01 182.14 C1.34 181.15 1.67 180.16 2.01 179.14 C-0.63 178.81 -3.27 178.48 -5.99 178.14 C-6.83 174.52 -7.1 171.21 -7.06 167.51 C-7.05 166.57 -7.04 165.63 -7.03 164.66 C-7.02 163.83 -7 162.99 -6.99 162.14 C-6.99 161.15 -6.99 160.16 -6.99 159.14 C-7.65 158.81 -8.31 158.48 -8.99 158.14 C-10.15 154.67 -10.04 151.65 -9.7 148.03 C-8.82 138.89 -8.82 138.89 -10.99 130.14 C-10 129.15 -9.01 128.16 -7.99 127.14 C-6.34 127.8 -4.69 128.46 -2.99 129.14 C-3.32 128.15 -3.65 127.16 -3.99 126.14 C-3.33 125.15 -2.67 124.16 -1.99 123.14 C-1.63 121.11 -1.63 121.11 -1.58 118.91 C-1.54 118.1 -1.5 117.3 -1.46 116.47 C-1.43 115.64 -1.4 114.81 -1.37 113.95 C-1.33 113.1 -1.29 112.26 -1.25 111.39 C-1.16 109.3 -1.07 107.22 -0.99 105.14 C-1.65 105.14 -2.31 105.14 -2.99 105.14 C-3.07 103.18 -3.13 101.22 -3.18 99.26 C-3.22 98.17 -3.25 97.08 -3.29 95.96 C-3.19 95.03 -3.09 94.09 -2.99 93.14 C-1.51 92.15 -1.51 92.15 0.01 91.14 C-0.96 90.7 -1.93 90.27 -2.93 89.82 C-5.99 88.14 -5.99 88.14 -6.99 85.14 C-7.09 82.45 -7.13 79.79 -7.12 77.1 C-7.12 76.28 -7.13 75.46 -7.13 74.62 C-7.13 71.91 -7.13 69.21 -7.13 66.5 C-7.13 64.63 -7.13 62.75 -7.13 60.87 C-7.13 56.94 -7.13 53.01 -7.12 49.08 C-7.12 44.02 -7.12 38.97 -7.13 33.92 C-7.13 30.04 -7.13 26.17 -7.13 22.3 C-7.13 20.43 -7.13 18.57 -7.13 16.71 C-7.13 14.11 -7.13 11.51 -7.12 8.91 C-7.12 8.14 -7.13 7.36 -7.13 6.56 C-7.1 -0.08 -6.58 0.02 0 0 Z M89.01 23.14 C89.01 26.11 89.01 29.08 89.01 32.14 C89.34 32.14 89.67 32.14 90.01 32.14 C90.01 29.17 90.01 26.2 90.01 23.14 C89.68 23.14 89.35 23.14 89.01 23.14 Z M1.01 89.14 C1.67 89.8 2.33 90.46 3.01 91.14 C3.34 90.48 3.67 89.82 4.01 89.14 C3.02 89.14 2.03 89.14 1.01 89.14 Z M-3.99 137.14 C-3.99 137.8 -3.99 138.46 -3.99 139.14 C-3 138.81 -2.01 138.48 -0.99 138.14 C-1.98 137.81 -2.97 137.48 -3.99 137.14 Z M18.01 139.14 C22.3 139.14 26.59 139.14 31.01 139.14 C30.68 138.48 30.35 137.82 30.01 137.14 C28.38 137.08 26.76 137.04 25.13 137.01 C24.23 136.99 23.32 136.96 22.39 136.94 C19.82 136.89 19.82 136.89 18.01 139.14 Z M32.01 138.14 C33.01 140.14 33.01 140.14 33.01 140.14 Z M-8.99 148.14 C-8.99 148.8 -8.99 149.46 -8.99 150.14 C-7.67 149.81 -6.35 149.48 -4.99 149.14 C-6.31 148.81 -7.63 148.48 -8.99 148.14 Z M11.01 188.14 C11.34 188.8 11.67 189.46 12.01 190.14 C12.34 189.48 12.67 188.82 13.01 188.14 C12.35 188.14 11.69 188.14 11.01 188.14 Z " fill="#CADCDA" transform="translate(318.9929962158203,511.8644714355469)"/>
<path d="M0 0 C1.65 0.02 1.65 0.02 3.34 0.04 C4.44 0.04 5.55 0.05 6.69 0.06 C7.54 0.07 8.4 0.09 9.28 0.1 C9.28 0.43 9.28 0.76 9.28 1.1 C10.43 1.06 11.59 1.02 12.78 0.97 C17.24 0.96 21.01 1.83 25.28 3.1 C26.28 4.1 26.28 4.1 26.39 6.95 C26.39 8.19 26.38 9.44 26.38 10.72 C26.37 11.38 26.37 12.05 26.37 12.73 C26.37 14.85 26.35 16.97 26.34 19.1 C26.33 20.53 26.33 21.96 26.33 23.39 C26.32 26.96 26.3 30.53 26.28 34.1 C26.28 36.27 26.33 38.45 26.36 40.62 C26.44 46.53 26.49 52.43 26.54 58.34 C26.56 61.91 26.6 65.49 26.65 69.07 C26.71 72.52 26.74 75.98 26.75 79.44 C26.77 81.39 26.8 83.34 26.84 85.3 C26.84 86.49 26.84 87.69 26.84 88.92 C26.86 90.5 26.86 90.5 26.88 92.11 C26.19 95.55 24.72 96.88 22.41 99.42 C20.2 102.69 20.6 106.37 20.65 110.19 C20.64 111.53 20.64 111.53 20.63 112.9 C20.61 115.85 20.63 118.79 20.64 121.74 C20.63 123.79 20.62 125.84 20.61 127.89 C20.58 133.27 20.58 138.66 20.59 144.04 C20.59 152.67 20.56 161.31 20.52 169.94 C20.52 172.96 20.52 175.98 20.53 179 C20.52 180.84 20.52 182.68 20.52 184.52 C20.53 185.79 20.53 185.79 20.53 187.08 C20.5 192.87 20.5 192.87 18.28 195.1 C15.42 195.36 15.42 195.36 11.81 195.36 C10.52 195.37 9.22 195.37 7.89 195.37 C7.22 195.37 6.54 195.36 5.85 195.36 C3.79 195.35 1.73 195.36 -0.34 195.37 C-1.63 195.37 -2.92 195.37 -4.25 195.36 C-5.45 195.36 -6.64 195.36 -7.87 195.36 C-10.72 195.1 -10.72 195.1 -12.72 193.1 C-13.91 188.12 -13.89 183.15 -13.93 178.06 C-13.94 177.17 -13.95 176.29 -13.96 175.37 C-13.99 172.45 -14.01 169.53 -14.04 166.61 C-14.06 164.57 -14.08 162.54 -14.1 160.51 C-14.16 155.17 -14.21 149.84 -14.25 144.5 C-14.31 139.05 -14.36 133.6 -14.42 128.15 C-14.52 117.47 -14.62 106.78 -14.72 96.1 C-17.36 95.44 -20 94.78 -22.72 94.1 C-23.35 91.72 -23.35 91.72 -23.72 89.1 C-21.72 87.1 -21.72 87.1 -19.78 86.9 C-16.75 87 -16.75 87 -13.72 87.1 C-13.72 86.05 -13.73 85 -13.73 83.92 C-13.75 74.04 -13.76 64.17 -13.77 54.29 C-13.78 49.22 -13.79 44.14 -13.8 39.06 C-13.81 34.17 -13.81 29.27 -13.82 24.38 C-13.82 22.5 -13.82 20.63 -13.83 18.76 C-13.84 16.15 -13.84 13.53 -13.84 10.92 C-13.84 10.14 -13.84 9.36 -13.85 8.55 C-13.84 3.21 -13.84 3.21 -12.72 2.1 C-10.4 1.78 -8.08 1.59 -5.75 1.38 C-3.01 1 -3.01 0.11 0 0 Z M24.28 6.1 C24.28 7.75 24.28 9.4 24.28 11.1 C24.61 11.1 24.94 11.1 25.28 11.1 C25.28 9.45 25.28 7.8 25.28 6.1 C24.95 6.1 24.62 6.1 24.28 6.1 Z M24.28 12.1 C24.28 17.05 24.28 22 24.28 27.1 C24.61 27.1 24.94 27.1 25.28 27.1 C25.28 22.15 25.28 17.2 25.28 12.1 C24.95 12.1 24.62 12.1 24.28 12.1 Z M23.28 67.1 C24.28 69.1 24.28 69.1 24.28 69.1 Z M23.28 85.1 C23.28 85.76 23.28 86.42 23.28 87.1 C23.94 86.77 24.6 86.44 25.28 86.1 C24.62 85.77 23.96 85.44 23.28 85.1 Z M-21.72 88.1 C-21.72 88.43 -21.72 88.76 -21.72 89.1 C-19.08 89.1 -16.44 89.1 -13.72 89.1 C-13.72 88.77 -13.72 88.44 -13.72 88.1 C-16.36 88.1 -19 88.1 -21.72 88.1 Z M-3.29 89.6 C-4.35 89.67 -4.35 89.67 -5.44 89.74 C-7.2 89.86 -8.96 89.98 -10.72 90.1 C-10.72 91.09 -10.72 92.08 -10.72 93.1 C-5.77 93.1 -0.82 93.1 4.28 93.1 C4.61 91.78 4.94 90.46 5.28 89.1 C2.43 89.1 -0.44 89.41 -3.29 89.6 Z M23.28 93.1 C23.61 93.76 23.94 94.42 24.28 95.1 C24.61 94.44 24.94 93.78 25.28 93.1 C24.62 93.1 23.96 93.1 23.28 93.1 Z M21.28 95.1 C20.29 96.58 20.29 96.58 19.28 98.1 C20.6 97.77 21.92 97.44 23.28 97.1 C23.28 96.44 23.28 95.78 23.28 95.1 C22.62 95.1 21.96 95.1 21.28 95.1 Z " fill="#C9DCDA" transform="translate(440.72265625,509.90234375)"/>
<path d="M0 0 C12.05 1.36 27.15 3.36 37 11 C37.5 12.49 37.5 12.49 38 14 C38.99 13.67 39.98 13.34 41 13 C41 13.66 41 14.32 41 15 C41.56 15.23 42.11 15.45 42.69 15.69 C45.65 17.37 47.66 19.54 50 22 C50.58 22.5 51.15 22.99 51.75 23.5 C53.44 25.53 53.65 27.42 54 30 C54.66 30 55.32 30 56 30 C56.1 30.95 56.21 31.9 56.31 32.88 C56.69 36.29 56.69 36.29 60 38 C61.13 40.43 61.13 40.43 62.12 43.31 C62.62 44.73 62.62 44.73 63.13 46.18 C63.93 48.78 64.52 51.32 65 54 C66.46 53.86 67.92 53.71 69.38 53.56 C70.19 53.48 71 53.4 71.84 53.32 C74.04 53.11 74.04 53.11 76 52 C90.7 51.91 101.74 55.35 113 65 C115.52 67.54 117.81 70.17 120 73 C120.77 73.96 120.77 73.96 121.56 74.93 C127.73 83.8 130.06 97.16 128.38 107.69 C127.96 109.47 127.5 111.24 127 113 C126.73 114.01 126.46 115.02 126.18 116.05 C125.31 118.88 124.44 121.41 123 124 C119.75 125.69 119.75 125.69 117 126 C117.31 126.68 117.62 127.36 117.94 128.06 C118 131 118 131 116.72 132.79 C113.18 136.44 109.75 139.03 105 141 C105 140.34 105 139.68 105 139 C101.7 138.67 98.4 138.34 95 138 C95 137.34 95 136.68 95 136 C93.02 136.33 91.04 136.66 89 137 C89 136.34 89 135.68 89 135 C89.66 135 90.32 135 91 135 C91 134.34 91 133.68 91 133 C91.56 133.27 92.11 133.54 92.69 133.81 C93.45 133.87 94.21 133.94 95 134 C96.71 132.38 98.37 130.71 100 129 C100.99 128.78 100.99 128.78 102 128.56 C104.48 127.86 105.04 126.93 106.62 124.94 C107.41 123.97 108.19 123 109 122 C109.66 122 110.32 122 111 122 C111.18 121.12 111.18 121.12 111.37 120.23 C112 117.99 112.86 116.36 114.02 114.36 C116.42 109.66 116.69 105.47 116.62 100.25 C116.61 98.93 116.61 98.93 116.6 97.59 C116.28 88.05 113.05 81 106.56 74 C102.76 70.53 98.59 68.29 94 66 C91 64 91 64 89 62 C86.86 61.68 86.86 61.68 84.5 61.75 C83.71 61.74 82.91 61.74 82.09 61.73 C79.78 61.81 79.78 61.81 78 64 C76.05 64.02 76.05 64.02 73.75 63.81 C70.32 63.67 70.32 63.67 67.32 65.14 C66.6 65.84 66.6 65.84 65.88 66.56 C63 69 63 69 59.12 68.81 C58.09 68.54 57.06 68.28 56 68 C56 67.01 56 66.02 56 65 C55.34 64.67 54.68 64.34 54 64 C53.59 62.14 53.59 62.14 53.37 59.75 C53.28 58.89 53.2 58.04 53.11 57.16 C53.03 56.26 52.96 55.36 52.88 54.44 C52.79 53.54 52.7 52.63 52.61 51.71 C52.4 49.47 52.2 47.24 52 45 C51.34 45 50.68 45 50 45 C49.9 44.46 49.8 43.92 49.69 43.37 C47.37 35.41 42.57 28.52 35.6 24.09 C34 23 34 23 33 21 C30.78 19.91 28.52 19.02 26.23 18.1 C23.97 16.98 22.73 15.79 21 14 C17.67 13 16.35 12.88 13 14 C11.27 14.06 9.54 14.06 7.82 14.03 C6.3 14.01 6.3 14.01 4.76 13.99 C2.63 13.96 0.51 13.92 -1.62 13.87 C-3.14 13.86 -3.14 13.86 -4.68 13.84 C-5.61 13.82 -6.53 13.81 -7.48 13.79 C-10.17 14.01 -11.69 14.66 -14 16 C-16.62 17.19 -16.62 17.19 -19 18 C-19.66 17.67 -20.32 17.34 -21 17 C-21.08 17.62 -21.16 18.24 -21.25 18.88 C-22 21 -22 21 -23.94 22.12 C-24.62 22.41 -25.3 22.7 -26 23 C-26.66 23.66 -27.32 24.32 -28 25 C-29.81 26.46 -31.62 27.92 -33.44 29.37 C-35.21 31.22 -35.6 32.5 -36 35 C-36.66 35 -37.32 35 -38 35 C-38.33 35.99 -38.66 36.98 -39 38 C-39.75 39.99 -40.52 41.98 -41.28 43.96 C-41.99 45.96 -42.49 47.95 -43 50 C-44.13 52.56 -45 54 -47 56 C-50.44 55.65 -52.07 54.95 -55 53 C-57.05 52.34 -57.05 52.34 -59.19 51.88 C-60.45 51.59 -61.7 51.3 -63 51 C-60.33 50.33 -57.67 49.67 -55 49 C-54.67 47.68 -54.34 46.36 -54 45 C-55.65 44.34 -57.3 43.68 -59 43 C-58.4 42.86 -57.8 42.71 -57.19 42.56 C-55.44 42.11 -53.71 41.57 -52 41 C-51.9 40.28 -51.79 39.56 -51.69 38.81 C-50.92 35.68 -49.77 33.68 -48 31 C-47.17 29.66 -47.17 29.66 -46.33 28.3 C-43.67 24.32 -40.38 21.01 -37 17.62 C-36.38 16.98 -35.77 16.34 -35.13 15.68 C-34.53 15.08 -33.93 14.47 -33.31 13.85 C-32.77 13.3 -32.23 12.75 -31.68 12.19 C-30 11 -30 11 -26 11 C-26 10.34 -26 9.68 -26 9 C-24.76 8.3 -23.51 7.61 -22.25 6.94 C-21.55 6.55 -20.86 6.17 -20.14 5.78 C-17.64 4.87 -16.47 5.12 -14 6 C-14 5.34 -14 4.68 -14 4 C-13.07 3.8 -12.15 3.59 -11.19 3.38 C-9.99 3.11 -8.8 2.84 -7.56 2.56 C-5.77 2.16 -5.77 2.16 -3.94 1.75 C-1.13 1.3 -1.13 1.3 0 0 Z M-5 11 C-5 11.33 -5 11.66 -5 12 C-2.69 12 -0.38 12 2 12 C2 11.67 2 11.34 2 11 C-0.31 11 -2.62 11 -5 11 Z M58 38 C59 40 59 40 59 40 Z M-42 39 C-41 42 -41 42 -41 42 Z M61 47 C62 49 62 49 62 49 Z M121 78 C122 80 122 80 122 80 Z M126 101 C127 103 127 103 127 103 Z M124 108 C125 110 125 110 125 110 Z M121 118 C122 120 122 120 122 120 Z M123 118 C124 120 124 120 124 120 Z M106 136 C105.34 136.66 104.68 137.32 104 138 C105.32 137.67 106.64 137.34 108 137 C107.34 136.67 106.68 136.34 106 136 Z " fill="#2E82AC" transform="translate(641,211)"/>
<path d="M0 0 C0.5 0.99 0.5 0.99 1 2 C3.53 2.66 3.53 2.66 6 3 C5.19 5.94 5.19 5.94 4 9 C-0.49 10.5 -5.07 10 -9.75 9.87 C-16.29 9.78 -19.39 11.37 -24.56 15.38 C-25.33 15.96 -26.09 16.55 -26.88 17.15 C-28.94 18.95 -30.39 20.8 -32 23 C-32.99 23.5 -32.99 23.5 -34 24 C-34.66 26.64 -34.66 26.64 -35.06 29.75 C-35.62 33.52 -36.22 37.26 -37 41 C-37.28 42.39 -37.28 42.39 -37.56 43.81 C-37.71 44.53 -37.85 45.26 -38 46 C-41 47 -42.17 47.01 -45.19 46.56 C-47.07 46.28 -47.07 46.28 -49 46 C-49 46.66 -49 47.32 -49 48 C-50.49 48.25 -50.49 48.25 -52 48.5 C-57.27 49.94 -60.46 54.05 -64 58 C-63.67 58.66 -63.34 59.32 -63 60 C-63.66 60.99 -64.32 61.98 -65 63 C-65 63.99 -65 64.98 -65 66 C-65.06 67.34 -65.14 68.67 -65.22 70.01 C-65.26 70.77 -65.31 71.53 -65.36 72.31 C-65.4 73.09 -65.45 73.88 -65.5 74.69 C-65.57 75.88 -65.57 75.88 -65.64 77.1 C-65.76 79.07 -65.88 81.03 -66 83 C-65.34 83 -64.68 83 -64 83 C-62.45 84.64 -62.45 84.64 -60.69 86.81 C-58.02 89.97 -55.65 92.01 -52 94 C-52 94.66 -52 95.32 -52 96 C-17.85 96.5 -17.85 96.5 17 97 C17 97.33 17 97.66 17 98 C15.02 98 13.04 98 11 98 C11 98.66 11 99.32 11 100 C7.53 100.99 7.53 100.99 4 102 C4.49 102.67 4.99 103.34 5.5 104.03 C7.4 107.79 7.26 110.29 7.07 114.49 C7.03 115.54 7.03 115.54 6.99 116.62 C6.91 118.85 6.8 121.08 6.69 123.31 C6.62 124.83 6.56 126.35 6.5 127.87 C6.35 131.58 6.18 135.29 6 139 C5.67 139 5.34 139 5 139 C4.67 128.77 4.34 118.54 4 108 C0.38 106.79 -2.93 106.89 -6.69 106.94 C-7.39 106.94 -8.09 106.95 -8.81 106.95 C-10.54 106.96 -12.27 106.98 -14 107 C-14 107.33 -14 107.66 -14 108 C-22.25 108 -30.5 108 -39 108 C-39 107.67 -39 107.34 -39 107 C-40.32 106.93 -40.32 106.93 -41.67 106.85 C-42.83 106.78 -43.99 106.7 -45.19 106.62 C-46.34 106.56 -47.48 106.49 -48.67 106.41 C-51.8 106.02 -54.15 105.32 -57 104 C-57 103.34 -57 102.68 -57 102 C-57.56 101.92 -58.12 101.83 -58.69 101.75 C-65.16 99.65 -70.73 93.05 -74.06 87.31 C-78.4 78.45 -77.41 68.52 -76 59 C-75.34 59 -74.68 59 -74 59 C-74 57.68 -74 56.36 -74 55 C-73.34 55 -72.68 55 -72 55 C-71.91 54.26 -71.83 53.53 -71.74 52.77 C-70.86 49.46 -69.61 48.08 -67.19 45.69 C-66.5 44.99 -65.81 44.29 -65.11 43.57 C-63 42 -63 42 -59 42 C-59 41.34 -59 40.68 -59 40 C-57.73 39.49 -56.46 39 -55.19 38.5 C-54.48 38.22 -53.77 37.94 -53.04 37.66 C-51 37 -51 37 -48 37 C-47.9 35.87 -47.79 34.73 -47.69 33.56 C-46.76 26.29 -44.82 20.59 -40 15 C-39.47 13.64 -39.47 13.64 -38.94 12.25 C-38.63 11.51 -38.32 10.76 -38 10 C-37.01 9.67 -36.02 9.34 -35 9 C-34.67 8.34 -34.34 7.68 -34 7 C-32.36 5.95 -30.69 4.96 -29 4 C-28.26 3.48 -27.51 2.97 -26.75 2.44 C-19.04 -1.59 -8.26 -2.75 0 0 Z M-12 7 C-12 7.33 -12 7.66 -12 8 C-9.69 8 -7.38 8 -5 8 C-5 7.67 -5 7.34 -5 7 C-7.31 7 -9.62 7 -12 7 Z M-37 26 C-36 30 -36 30 -36 30 Z M-38 31 C-37 34 -37 34 -37 34 Z M-68 65 C-68 69.62 -68 74.24 -68 79 C-67.67 79 -67.34 79 -67 79 C-67 74.38 -67 69.76 -67 65 C-67.33 65 -67.66 65 -68 65 Z M-51 104 C-47 105 -47 105 -47 105 Z " fill="#355B74" transform="translate(582,252)"/>
<path d="M0 0 C0.85 0.58 1.69 1.15 2.56 1.75 C3.57 2.31 4.58 2.86 5.62 3.44 C10.08 6.94 12.1 10.67 12.95 16.28 C13.2 21.9 12.44 25.43 8.56 29.75 C7.57 30.08 6.58 30.41 5.56 30.75 C4.65 32.66 4.65 32.66 4.56 34.75 C5.22 35.41 5.88 36.07 6.56 36.75 C7.13 39.41 7.3 42.04 7.56 44.75 C7.89 44.75 8.22 44.75 8.56 44.75 C8.93 49.25 8.93 49.25 7.37 51.4 C4.95 53.21 3.45 53.09 0.46 53.04 C-0.53 53.03 -1.51 53.02 -2.52 53.01 C-4.06 52.98 -4.06 52.98 -5.62 52.94 C-6.66 52.92 -7.7 52.91 -8.76 52.9 C-11.32 52.86 -13.88 52.81 -16.44 52.75 C-19.53 46.2 -19.53 46.2 -18.69 42.19 C-18.07 40.49 -18.07 40.49 -17.44 38.75 C-16.36 35.8 -16.36 35.8 -16.44 32.75 C-17.53 30.87 -18.81 29.24 -20.16 27.54 C-23.5 22.88 -23.94 17.3 -23.44 11.75 C-21.44 6.38 -18.71 3.3 -13.51 0.84 C-8.71 -1.1 -4.85 -2.49 0 0 Z M6.56 5.75 C7.56 7.75 7.56 7.75 7.56 7.75 Z M-9.44 8.75 C-9.44 9.08 -9.44 9.41 -9.44 9.75 C-7.13 9.75 -4.82 9.75 -2.44 9.75 C-2.44 9.42 -2.44 9.09 -2.44 8.75 C-4.75 8.75 -7.06 8.75 -9.44 8.75 Z M8.56 9.75 C9.56 11.75 9.56 11.75 9.56 11.75 Z M-15.44 13.75 C-15.09 16.22 -15.09 16.22 -14.44 18.75 C-13.78 19.08 -13.12 19.41 -12.44 19.75 C-12.11 20.74 -11.78 21.73 -11.44 22.75 C-10.78 22.75 -10.12 22.75 -9.44 22.75 C-9.44 23.41 -9.44 24.07 -9.44 24.75 C-6.69 25.7 -6.69 25.7 -3.44 25.75 C-0.6 23.42 -0.6 23.42 1.56 20.75 C1.89 20.75 2.22 20.75 2.56 20.75 C2.37 15.68 2.37 15.68 -0.56 11.81 C-6.31 9.69 -10.49 10.16 -15.44 13.75 Z M10.56 14.75 C10.56 17.39 10.56 20.03 10.56 22.75 C10.89 22.75 11.22 22.75 11.56 22.75 C11.56 20.11 11.56 17.47 11.56 14.75 C11.23 14.75 10.9 14.75 10.56 14.75 Z M-5.44 37.75 C-5.44 39.4 -5.44 41.05 -5.44 42.75 C-5.11 42.75 -4.78 42.75 -4.44 42.75 C-4.44 41.1 -4.44 39.45 -4.44 37.75 C-4.77 37.75 -5.1 37.75 -5.44 37.75 Z M-14.44 50.75 C-10.44 51.75 -10.44 51.75 -10.44 51.75 Z M-9.44 50.75 C-5.44 51.75 -5.44 51.75 -5.44 51.75 Z " fill="#2C84AF" transform="translate(642.4375,407.25)"/>
<path d="M0 0 C2 0.12 2 0.12 4 1 C5.06 2.94 5.06 2.94 6 5 C6.99 5.66 7.98 6.32 9 7 C7.68 7.33 6.36 7.66 5 8 C4.67 9.32 4.34 10.64 4 12 C5.63 11.86 7.25 11.71 8.88 11.56 C9.78 11.48 10.68 11.4 11.62 11.32 C14.01 11.13 14.01 11.13 16 10 C16 10.66 16 11.32 16 12 C16.66 12 17.32 12 18 12 C20 14 20 14 20.19 17.56 C20 21 20 21 19 22 C16.31 22.24 13.64 22.42 10.94 22.56 C8.32 22.71 5.7 22.85 3 23 C3.33 32.9 3.66 42.8 4 53 C7.96 53.33 11.92 53.66 16 54 C17.32 54.66 18.64 55.32 20 56 C20 58.64 20 61.28 20 64 C14.33 64 8.67 64 3 64 C3.77 66.99 3.77 66.99 5 70 C5.99 70.33 6.98 70.66 8 71 C7.81 71.89 7.63 72.77 7.44 73.69 C7.02 76.85 7.19 78.95 8 82 C2.36 80.76 -0.93 79.16 -5 75 C-5 73.68 -5 72.36 -5 71 C-5.66 71 -6.32 71 -7 71 C-7 49.22 -7 27.44 -7 5 C-6.01 5.33 -5.02 5.66 -4 6 C-3.71 5.38 -3.42 4.76 -3.12 4.12 C-2 2 -2 2 0 0 Z M7 20 C7 20.33 7 20.66 7 21 C8.98 21 10.96 21 13 21 C13 20.67 13 20.34 13 20 C11.02 20 9.04 20 7 20 Z M14 20 C18 21 18 21 18 21 Z M1 23 C1 32.9 1 42.8 1 53 C1.33 53 1.66 53 2 53 C2 43.1 2 33.2 2 23 C1.67 23 1.34 23 1 23 Z M18 57 C19 59 19 59 19 59 Z " fill="#365C77" transform="translate(576,395)"/>
<path d="M0 0 C4.72 3.61 8.62 7.56 12.25 12.25 C12.76 12.89 13.28 13.52 13.81 14.18 C19.98 23.05 22.31 36.41 20.62 46.94 C20.21 48.72 19.75 50.49 19.25 52.25 C18.98 53.26 18.71 54.27 18.43 55.3 C17.56 58.13 16.69 60.66 15.25 63.25 C12 64.94 12 64.94 9.25 65.25 C9.56 65.93 9.87 66.61 10.19 67.31 C10.25 70.25 10.25 70.25 8.97 72.04 C5.43 75.69 2 78.28 -2.75 80.25 C-2.75 79.59 -2.75 78.93 -2.75 78.25 C-6.05 77.92 -9.35 77.59 -12.75 77.25 C-12.75 76.59 -12.75 75.93 -12.75 75.25 C-15.72 75.75 -15.72 75.75 -18.75 76.25 C-18.75 75.59 -18.75 74.93 -18.75 74.25 C-18.09 74.25 -17.43 74.25 -16.75 74.25 C-16.75 73.59 -16.75 72.93 -16.75 72.25 C-16.19 72.52 -15.64 72.79 -15.06 73.06 C-13.92 73.16 -13.92 73.16 -12.75 73.25 C-11.04 71.63 -9.38 69.96 -7.75 68.25 C-6.76 68.03 -6.76 68.03 -5.75 67.81 C-3.27 67.11 -2.71 66.18 -1.12 64.19 C-0.34 63.22 0.44 62.25 1.25 61.25 C1.91 61.25 2.57 61.25 3.25 61.25 C3.37 60.67 3.5 60.08 3.62 59.48 C4.25 57.24 5.11 55.61 6.27 53.61 C8.67 48.91 8.94 44.72 8.88 39.5 C8.87 38.62 8.86 37.75 8.85 36.84 C8.53 27.3 5.3 20.25 -1.19 13.25 C-4.99 9.78 -9.16 7.54 -13.75 5.25 C-14.74 4.59 -15.73 3.93 -16.75 3.25 C-15.1 3.25 -13.45 3.25 -11.75 3.25 C-11.42 -0.29 -11.42 -0.29 -12.9 -3.39 C-15.47 -5.28 -17.34 -5.18 -20.51 -5.26 C-22.19 -5.31 -22.19 -5.31 -23.9 -5.37 C-25.07 -5.39 -26.23 -5.41 -27.44 -5.44 C-29.21 -5.49 -29.21 -5.49 -31.01 -5.54 C-33.92 -5.62 -36.84 -5.69 -39.75 -5.75 C-39.75 -6.08 -39.75 -6.41 -39.75 -6.75 C-26.13 -11.48 -11.57 -8 0 0 Z M13.25 17.25 C14.25 19.25 14.25 19.25 14.25 19.25 Z M18.25 40.25 C19.25 42.25 19.25 42.25 19.25 42.25 Z M16.25 47.25 C17.25 49.25 17.25 49.25 17.25 49.25 Z M13.25 57.25 C14.25 59.25 14.25 59.25 14.25 59.25 Z M15.25 57.25 C16.25 59.25 16.25 59.25 16.25 59.25 Z M-1.75 75.25 C-2.41 75.91 -3.07 76.57 -3.75 77.25 C-2.43 76.92 -1.11 76.59 0.25 76.25 C-0.41 75.92 -1.07 75.59 -1.75 75.25 Z " fill="#6AAEB6" transform="translate(748.75,271.75)"/>
<path d="M0 0 C0.88 0.37 1.77 0.74 2.68 1.12 C3.34 1.41 4 1.7 4.69 2 C4.69 2.66 4.69 3.32 4.69 4 C5.35 4 6.01 4 6.69 4 C6.69 4.99 6.69 5.98 6.69 7 C7.35 7.33 8.01 7.66 8.69 8 C8.69 8.99 8.69 9.98 8.69 11 C9.35 11 10.01 11 10.69 11 C10.69 11.66 10.69 12.32 10.69 13 C15.97 13.33 21.25 13.66 26.69 14 C26.69 14.33 26.69 14.66 26.69 15 C25.99 15.03 25.29 15.05 24.57 15.08 C23.66 15.13 22.75 15.19 21.81 15.25 C20.91 15.3 20 15.34 19.07 15.39 C16.52 15.76 16.52 15.76 15.37 18.05 C15.03 19.01 15.03 19.01 14.69 20 C13.7 19.34 12.71 18.68 11.69 18 C8.22 20.97 8.22 20.97 4.69 24 C6.34 23.67 7.99 23.34 9.69 23 C9.36 24.32 9.03 25.64 8.69 27 C7.7 27 6.71 27 5.69 27 C6.02 27.99 6.35 28.98 6.69 30 C3.8 32.89 1.75 34.27 -2.3 34.39 C-3.74 34.36 -5.18 34.32 -6.62 34.25 C-7.37 34.23 -8.11 34.21 -8.87 34.2 C-10.68 34.15 -12.5 34.08 -14.31 34 C-14.64 33.34 -14.97 32.68 -15.31 32 C-16.3 31.67 -17.29 31.34 -18.31 31 C-22.54 26.52 -24.36 22.11 -24.62 16 C-24.42 9.67 -21.32 5.47 -16.86 1.26 C-11.45 -3.15 -6.1 -2.6 0 0 Z M-9.31 8 C-9.31 8.33 -9.31 8.66 -9.31 9 C-7.66 9 -6.01 9 -4.31 9 C-4.31 8.67 -4.31 8.34 -4.31 8 C-5.96 8 -7.61 8 -9.31 8 Z M-12.31 11 C-13.44 16.86 -13.44 16.86 -12.31 22.56 C-9.21 24.79 -7.03 24.51 -3.31 24 C-0.3 22.48 -0.3 22.48 1.69 20 C2.52 17.54 2.52 17.54 1.69 15 C-1.34 11.09 -1.34 11.09 -5.88 9.62 C-8.07 9.96 -10.16 10.45 -12.31 11 Z M-15.31 13 C-14.98 14.32 -14.65 15.64 -14.31 17 C-13.98 15.68 -13.65 14.36 -13.31 13 C-13.97 13 -14.63 13 -15.31 13 Z M-7.31 32 C-7.31 32.33 -7.31 32.66 -7.31 33 C-4.34 33 -1.37 33 1.69 33 C1.69 32.67 1.69 32.34 1.69 32 C-1.28 32 -4.25 32 -7.31 32 Z " fill="#325771" transform="translate(571.3125,294)"/>
<path d="M0 0 C1.33 0.93 1.33 0.93 2.69 1.88 C5.46 3.65 7.91 4.91 11 6 C11 6.66 11 7.32 11 8 C33.77 8.33 56.54 8.66 80 9 C80 9.33 80 9.66 80 10 C78.02 10 76.04 10 74 10 C74 10.66 74 11.32 74 12 C71.69 12.66 69.38 13.32 67 14 C67.49 14.67 67.99 15.34 68.5 16.03 C70.4 19.79 70.26 22.29 70.07 26.49 C70.03 27.54 70.03 27.54 69.99 28.62 C69.91 30.85 69.8 33.08 69.69 35.31 C69.62 36.83 69.56 38.35 69.5 39.87 C69.35 43.58 69.18 47.29 69 51 C68.67 51 68.34 51 68 51 C67.67 40.77 67.34 30.54 67 20 C63.38 18.79 60.07 18.89 56.31 18.94 C55.61 18.94 54.91 18.95 54.19 18.95 C52.46 18.96 50.73 18.98 49 19 C49 19.33 49 19.66 49 20 C40.75 20 32.5 20 24 20 C24 19.67 24 19.34 24 19 C23.12 18.95 22.24 18.9 21.33 18.85 C19.59 18.74 19.59 18.74 17.81 18.62 C16.66 18.56 15.52 18.49 14.33 18.41 C11.2 18.02 8.85 17.32 6 16 C6 15.34 6 14.68 6 14 C4.68 13.67 3.36 13.34 2 13 C2 12.01 2 11.02 2 10 C1.36 9.75 0.72 9.5 0.06 9.25 C-2 8 -2 8 -2.81 6 C-3 4 -3 4 -2 2 C-1.34 2 -0.68 2 0 2 C0 1.34 0 0.68 0 0 Z M12 16 C16 17 16 17 16 17 Z " fill="#2D5570" transform="translate(519,340)"/>
<path d="M0 0 C-0.8 0.84 -0.8 0.84 -1.62 1.69 C-2.08 2.45 -2.53 3.21 -3 4 C-2.29 6.73 -2.29 6.73 -1 9 C-2.98 9.99 -2.98 9.99 -5 11 C-4.5 15.97 -3.45 19.64 -1 24 C-1.66 24.99 -2.32 25.98 -3 27 C-3.12 29.58 -3.14 32.05 -3.06 34.62 C-3 37.09 -2.98 39.53 -3 42 C-3.5 42.5 -3.5 42.5 -4 43 C-4.04 44.67 -4.04 46.33 -4 48 C-4.99 48.5 -4.99 48.5 -6 49 C-9 47 -9 47 -9.88 44.94 C-10 41.9 -9.52 40.32 -8.5 37.5 C-7.21 33.91 -6.47 31.66 -8 28 C-8.64 27.22 -9.28 26.43 -9.94 25.62 C-13.82 20.68 -14.56 15.15 -14 9 C-10.71 0.86 -8.46 -0.42 0 0 Z " fill="#33566D" transform="translate(633,410)"/>
<path d="M0 0 C0.33 0 0.66 0 1 0 C1.33 9.9 1.66 19.8 2 30 C5.96 30.33 9.92 30.66 14 31 C15.32 31.66 16.64 32.32 18 33 C18 35.64 18 38.28 18 41 C13.33 41 8.67 41 4 41 C4.25 39.12 4.25 39.12 5 37 C6.32 36.34 7.64 35.68 9 35 C6.03 34.34 3.06 33.68 0 33 C0 22.11 0 11.22 0 0 Z M16 34 C17 36 17 36 17 36 Z " fill="#1B6C9A" transform="translate(578,418)"/>
<path d="M0 0 C0.9 0 1.8 0 2.73 0 C4.18 0.02 4.18 0.02 5.67 0.05 C7.16 0.05 7.16 0.05 8.68 0.06 C11.86 0.08 15.04 0.11 18.22 0.15 C20.37 0.17 22.52 0.18 24.68 0.19 C29.96 0.23 35.25 0.28 40.53 0.34 C40.53 1 40.53 1.66 40.53 2.34 C39.18 2.38 39.18 2.38 37.8 2.42 C34.39 2.51 30.98 2.61 27.57 2.71 C26.11 2.76 24.64 2.8 23.18 2.84 C13.94 3.09 4.74 3.53 -4.47 4.34 C-4.46 5.29 -4.45 6.24 -4.44 7.22 C-4.39 12.44 -4.43 17.22 -5.47 22.34 C-5.14 22.67 -4.81 23 -4.47 23.34 C-4.24 27.88 -4.24 27.88 -5.47 30.34 C-5.19 32.02 -4.86 33.69 -4.47 35.34 C-6.53 33.03 -6.53 33.03 -8.47 30.34 C-7.98 28.86 -7.98 28.86 -7.47 27.34 C-6.81 27.34 -6.15 27.34 -5.47 27.34 C-5.47 26.35 -5.47 25.36 -5.47 24.34 C-6.13 24.34 -6.79 24.34 -7.47 24.34 C-8.1 20.97 -8.1 20.97 -8.47 17.34 C-7.81 16.68 -7.15 16.02 -6.47 15.34 C-6.19 12.97 -6.19 12.97 -6.28 10.34 C-6.29 9.45 -6.3 8.57 -6.3 7.65 C-6.33 5.31 -6.33 5.31 -7.47 3.34 C-5.1 0.47 -3.69 -0.03 0 0 Z " fill="#ADCFD0" transform="translate(694.471435546875,355.659423828125)"/>
<path d="M0 0 C0.33 0 0.66 0 1 0 C1.84 5.21 2.2 10.29 2.32 15.56 C2.34 16.35 2.36 17.14 2.38 17.95 C2.44 20.45 2.5 22.94 2.56 25.44 C2.61 27.14 2.65 28.84 2.69 30.54 C2.8 34.7 2.9 38.85 3 43 C2.34 43 1.68 43 1 43 C-1.14 39.8 -1.24 39 -1.2 35.33 C-1.19 33.99 -1.19 33.99 -1.18 32.63 C-1.16 31.7 -1.14 30.77 -1.12 29.81 C-1.12 28.87 -1.11 27.93 -1.1 26.96 C-1.07 24.64 -1.04 22.32 -1 20 C-0.34 20 0.32 20 1 20 C0.5 14.94 0.5 14.94 -0.62 10 C-1.26 6.62 -0.51 3.38 0 0 Z " fill="#67B4B7" transform="translate(671,347)"/>
<path d="M0 0 C0.33 0.66 0.66 1.32 1 2 C0.67 2.66 0.34 3.32 0 4 C1.63 3.86 3.25 3.71 4.88 3.56 C5.78 3.48 6.68 3.4 7.62 3.32 C10.01 3.13 10.01 3.13 12 2 C12 2.66 12 3.32 12 4 C12.66 4.33 13.32 4.66 14 5 C13.01 5.5 13.01 5.5 12 6 C12.28 6.96 12.28 6.96 12.56 7.94 C12.71 8.62 12.85 9.3 13 10 C12 11 12 11 9.71 11.1 C8.34 11.08 8.34 11.08 6.94 11.06 C6.02 11.05 5.1 11.04 4.15 11.04 C3.44 11.02 2.73 11.01 2 11 C1.34 9.35 0.68 7.7 0 6 C-0.66 6 -1.32 6 -2 6 C-1.34 4.02 -0.68 2.04 0 0 Z " fill="#3086B0" transform="translate(580,403)"/>
<path d="M0 0 C0.33 0 0.66 0 1 0 C1.94 18.41 1.99 36.7 1.56 55.12 C1.51 57.66 1.46 60.19 1.4 62.72 C1.28 68.81 1.14 74.91 1 81 C-0.81 77.89 -1.25 75.64 -1.24 72.06 C-1.25 71.08 -1.25 70.09 -1.25 69.08 C-1.25 68.02 -1.24 66.95 -1.23 65.86 C-1.23 64.75 -1.23 63.63 -1.23 62.48 C-1.23 60.11 -1.22 57.74 -1.21 55.37 C-1.19 51.83 -1.19 48.29 -1.19 44.75 C-1.16 29.81 -0.75 14.92 0 0 Z " fill="#6AB5B8" transform="translate(928,591)"/>
<path d="M0 0 C0.66 0.99 1.32 1.98 2 3 C1.52 3.34 1.03 3.68 0.53 4.03 C-4.83 7.91 -9.42 12.24 -14 17 C-15 18 -16 19 -17 20 C-17.66 18.68 -18.32 17.36 -19 16 C-16.97 13.89 -14.92 11.78 -12.88 9.69 C-12.31 9.09 -11.74 8.5 -11.15 7.88 C-7.69 4.37 -4.62 1.94 0 0 Z " fill="#88BAC8" transform="translate(643,517)"/>
<path d="M0 0 C0.66 0.33 1.32 0.66 2 1 C2.03 2.98 2.05 4.96 2.06 6.94 C2.07 8.04 2.09 9.14 2.1 10.28 C2 13 2 13 1 14 C0.96 15.67 0.96 17.33 1 19 C0.34 19.33 -0.32 19.66 -1 20 C-4 18 -4 18 -4.81 15.75 C-5.04 12.36 -4.32 10.11 -3 7 C-2.34 6.34 -1.68 5.68 -1 5 C-0.35 2.43 -0.35 2.43 0 0 Z " fill="#3A617A" transform="translate(628,439)"/>
<path d="M0 0 C8.58 0 17.16 0 26 0 C26 0.99 26 1.98 26 3 C28.31 3 30.62 3 33 3 C33 3.33 33 3.66 33 4 C24.75 4 16.5 4 8 4 C8 3.67 8 3.34 8 3 C9.65 2.67 11.3 2.34 13 2 C8.71 1.67 4.42 1.34 0 1 C0 0.67 0 0.34 0 0 Z " fill="#111F20" transform="translate(535,356)"/>
<path d="M0 0 C0.33 0 0.66 0 1 0 C1.33 9.9 1.66 19.8 2 30 C5.96 30.33 9.92 30.66 14 31 C15.32 31.66 16.64 32.32 18 33 C18 35.64 18 38.28 18 41 C17.67 41 17.34 41 17 41 C16.67 38.69 16.34 36.38 16 34 C10.72 33.67 5.44 33.34 0 33 C0 22.11 0 11.22 0 0 Z " fill="#AFC8CB" transform="translate(578,418)"/>
<path d="M0 0 C1.12 0.02 2.24 0.03 3.4 0.05 C6.24 0.23 8.85 0.61 11.62 1.25 C11.96 2.24 12.28 3.23 12.62 4.25 C6.68 4.25 0.75 4.25 -5.38 4.25 C-4.05 5.9 -2.74 7.55 -1.38 9.25 C-1.38 9.91 -1.38 10.57 -1.38 11.25 C-2.03 11.25 -2.7 11.25 -3.38 11.25 C-4.4 9.6 -5.4 7.93 -6.38 6.25 C-7.96 4.5 -7.96 4.5 -9.38 3.25 C-6.71 -0.34 -4.28 -0.1 0 0 Z " fill="#71B8BA" transform="translate(681.375,313.75)"/>
<path d="M0 0 C-3.75 3 -3.75 3 -6 3 C-5.5 4.49 -5.5 4.49 -5 6 C-9.75 9 -9.75 9 -12 9 C-12.33 9.66 -12.66 10.32 -13 11 C-21.25 11 -29.5 11 -38 11 C-38 10.67 -38 10.34 -38 10 C-36.7 9.95 -35.4 9.9 -34.05 9.85 C-32.33 9.78 -30.6 9.7 -28.88 9.62 C-27.59 9.58 -27.59 9.58 -26.28 9.53 C-18.25 9.16 -13.67 7.96 -8 2 C-3.55 -1.18 -3.55 -1.18 0 0 Z " fill="#83B0C0" transform="translate(704,296)"/>
<path d="M0 0 C0.99 0 1.98 0 3 0 C3.66 1.65 4.32 3.3 5 5 C5.93 5.06 6.85 5.12 7.81 5.18 C9.01 5.27 10.2 5.35 11.44 5.44 C12.63 5.52 13.83 5.6 15.06 5.68 C18 6 18 6 19 7 C19.09 9.38 19.12 11.72 19.1 14.1 C19.1 14.81 19.09 15.52 19.09 16.25 C19.09 18.52 19.08 20.79 19.06 23.06 C19.06 24.6 19.05 26.14 19.05 27.67 C19.04 31.45 19.02 35.22 19 39 C18.67 39 18.34 39 18 39 C17.97 38.1 17.95 37.19 17.92 36.26 C17.83 32.92 17.73 29.58 17.63 26.24 C17.58 24.79 17.54 23.34 17.5 21.89 C17.45 19.82 17.38 17.74 17.32 15.66 C17.28 14.41 17.24 13.16 17.21 11.87 C17.32 9.1 17.32 9.1 16 8 C13.82 7.77 11.63 7.59 9.44 7.44 C8.24 7.35 7.04 7.27 5.81 7.18 C4.88 7.12 3.95 7.06 3 7 C2.01 4.69 1.02 2.38 0 0 Z " fill="#BFD4D4" transform="translate(677,410)"/>
<path d="M0 0 C2 2 2 2 2.2 3.95 C2.13 5.96 2.07 7.98 2 10 C1.34 10 0.68 10 0 10 C-1.34 10.31 -2.67 10.65 -4 11 C-5.86 7.87 -6.2 5.63 -6 2 C-4.02 2 -2.04 2 0 2 C0 1.34 0 0.68 0 0 Z " fill="#A3CBCD" transform="translate(697,632)"/>
<path d="M0 0 C-0.33 1.32 -0.66 2.64 -1 4 C-1.38 3.52 -1.75 3.03 -2.14 2.53 C-4.7 0.42 -6.47 0.57 -9.76 0.49 C-11.44 0.44 -11.44 0.44 -13.15 0.38 C-14.32 0.36 -15.48 0.34 -16.69 0.31 C-18.46 0.26 -18.46 0.26 -20.26 0.21 C-23.17 0.13 -26.09 0.06 -29 0 C-29 -0.33 -29 -0.66 -29 -1 C-19.65 -4.24 -9.2 -3.46 0 0 Z " fill="#8DBCC3" transform="translate(738,266)"/>
<path d="M0 0 C0.33 0 0.66 0 1 0 C1 16.83 1 33.66 1 51 C0.67 51 0.34 51 0 51 C0 34.17 0 17.34 0 0 Z " fill="#000102" transform="translate(706,408)"/>
<path d="M0 0 C1.98 1.65 3.96 3.3 6 5 C5.01 5.5 5.01 5.5 4 6 C3.34 5.67 2.68 5.34 2 5 C2.66 6.65 3.32 8.3 4 10 C-0.75 9.25 -0.75 9.25 -3 7 C-2.62 4.38 -2.62 4.38 -2 2 C-1.34 2 -0.68 2 0 2 C0 1.34 0 0.68 0 0 Z " fill="#122E3F" transform="translate(519,340)"/>
<path d="M0 0 C0.66 0 1.32 0 2 0 C2 5.61 2 11.22 2 17 C1.34 17 0.68 17 0 17 C-1.55 13.9 -0.83 10.74 -0.56 7.38 C-0.51 6.67 -0.46 5.96 -0.4 5.23 C-0.27 3.49 -0.14 1.74 0 0 Z " fill="#91C5C6" transform="translate(479,654)"/>
<path d="M0 0 C-0.55 3.77 -1.97 5.19 -4.88 7.56 C-7.86 10.03 -7.86 10.03 -10.63 12.71 C-12 14 -12 14 -14 14 C-13.45 10.23 -12.03 8.81 -9.12 6.44 C-6.14 3.97 -6.14 3.97 -3.37 1.29 C-2 0 -2 0 0 0 Z " fill="#59869C" transform="translate(623,284)"/>
<path d="M0 0 C0.66 0.66 1.32 1.32 2 2 C1.71 3.68 1.38 5.34 1 7 C1.33 7.33 1.66 7.66 2 8 C2.23 12.53 2.23 12.53 1 15 C1.28 16.68 1.61 18.35 2 20 C-0.06 17.69 -0.06 17.69 -2 15 C-1.67 14.01 -1.34 13.02 -1 12 C-0.34 12 0.32 12 1 12 C1 11.01 1 10.02 1 9 C0.34 9 -0.32 9 -1 9 C-1.62 5.62 -1.62 5.62 -2 2 C-1.34 1.34 -0.68 0.68 0 0 Z " fill="#73B7BC" transform="translate(688,371)"/>
<path d="M0 0 C0.66 0.99 1.32 1.98 2 3 C0.93 4.15 -0.16 5.3 -1.25 6.44 C-1.85 7.08 -2.46 7.71 -3.08 8.37 C-5.1 10.09 -6.41 10.59 -9 11 C-7.59 7.78 -5.9 5.68 -3.38 3.25 C-2.74 2.64 -2.11 2.02 -1.46 1.39 C-0.74 0.7 -0.74 0.7 0 0 Z " fill="#5BA0B7" transform="translate(757,339)"/>
<path d="M0 0 C0.99 0.99 1.98 1.98 3 3 C1.35 4.98 -0.3 6.96 -2 9 C-2.66 8.67 -3.32 8.34 -4 8 C-4 7.67 -4 7.34 -4 7 C-4.99 7 -5.98 7 -7 7 C-5.43 3.85 -2.72 2.2 0 0 Z " fill="#378BB3" transform="translate(583,311)"/>
<path d="M0 0 C0.33 0.99 0.66 1.98 1 3 C0.36 3.63 -0.28 4.25 -0.93 4.9 C-1.76 5.72 -2.59 6.53 -3.44 7.38 C-4.26 8.19 -5.08 9 -5.93 9.84 C-8.03 11.82 -8.03 11.82 -9 14 C-9.66 13.67 -10.32 13.34 -11 13 C-8.37 7.73 -4.2 4.02 0 0 Z " fill="#5A91A9" transform="translate(607,226)"/>
<path d="M0 0 C0.33 0 0.66 0 1 0 C1 10.23 1 20.46 1 31 C0.67 31 0.34 31 0 31 C0 20.77 0 10.54 0 0 Z " fill="#000102" transform="translate(462,654)"/>
<path d="M0 0 C2.97 0.5 2.97 0.5 6 1 C6 2.67 6 4.33 6 6 C3.06 5.62 3.06 5.62 0 5 C-0.33 4.34 -0.66 3.68 -1 3 C-0.67 2.01 -0.34 1.02 0 0 Z " fill="#88BAC1" transform="translate(352,643)"/>
<path d="M0 0 C0.99 0 1.98 0 3 0 C3 3.63 3 7.26 3 11 C0 8 0 8 -0.29 5.96 C-0.2 3.97 -0.1 1.99 0 0 Z " fill="#74A0A8" transform="translate(547,306)"/>
<path d="M0 0 C0.33 0 0.66 0 1 0 C2.15 6.34 2.1 12.57 2 19 C1.67 19 1.34 19 1 19 C0.78 17.39 0.78 17.39 0.56 15.75 C0.14 12.27 0.14 12.27 -0.62 10.06 C-1.25 6.65 -0.51 3.42 0 0 Z " fill="#6AB5B8" transform="translate(671,347)"/>
<path d="M0 0 C0.66 0.33 1.32 0.66 2 1 C0.85 3.47 -0.05 5.05 -2 7 C-5 7.25 -5 7.25 -8 7 C-8.66 6.34 -9.32 5.68 -10 5 C-8.91 4.92 -7.81 4.83 -6.69 4.75 C-2.97 4.36 -2.97 4.36 -1.06 1.94 C-0.71 1.3 -0.36 0.66 0 0 Z " fill="#5E899A" transform="translate(571,313)"/>
<path d="M0 0 C1.35 0.15 1.35 0.15 2.73 0.31 C3.42 0.39 4.1 0.48 4.81 0.56 C4.81 1.22 4.81 1.88 4.81 2.56 C0.52 2.56 -3.77 2.56 -8.19 2.56 C-8.19 1.9 -8.19 1.24 -8.19 0.56 C-4.99 -0.5 -3.3 -0.39 0 0 Z " fill="#67B4B7" transform="translate(639.1875,328.4375)"/>
<path d="M0 0 C3.62 1.76 5.8 3.64 8 7 C7.34 7.66 6.68 8.32 6 9 C4 7.19 4 7.19 2 5 C2 4.01 2 3.02 2 2 C0.68 1.67 -0.64 1.34 -2 1 C-1.34 0.67 -0.68 0.34 0 0 Z " fill="#6EA2B3" transform="translate(715,294)"/>
<path d="M0 0 C0.33 0 0.66 0 1 0 C1 8.25 1 16.5 1 25 C0.67 25 0.34 25 0 25 C0 16.75 0 8.5 0 0 Z " fill="#8BB9CA" transform="translate(660,362)"/>
<path d="M0 0 C0.33 0 0.66 0 1 0 C1 7.92 1 15.84 1 24 C0.67 24 0.34 24 0 24 C0 16.08 0 8.16 0 0 Z " fill="#B6D4D3" transform="translate(813,657)"/>
<path d="M0 0 C2 1.25 2 1.25 4 3 C4 4.32 4 5.64 4 7 C2.68 6.67 1.36 6.34 0 6 C-0.38 4.34 -0.71 2.68 -1 1 C-0.67 0.67 -0.34 0.34 0 0 Z " fill="#9AB4BC" transform="translate(598,646)"/>
<path d="M0 0 C0.33 0 0.66 0 1 0 C1 7.59 1 15.18 1 23 C0.67 23 0.34 23 0 23 C0 15.41 0 7.82 0 0 Z " fill="#BDD0D1" transform="translate(584,362)"/>
<path d="M0 0 C6.27 0 12.54 0 19 0 C19 0.33 19 0.66 19 1 C12.73 1 6.46 1 0 1 C0 0.67 0 0.34 0 0 Z " fill="#B9D2D6" transform="translate(692,346)"/>
<path d="M0 0 C0.33 0 0.66 0 1 0 C1 5.94 1 11.88 1 18 C0.67 18 0.34 18 0 18 C0 12.06 0 6.12 0 0 Z " fill="#000102" transform="translate(462,611)"/>
<path d="M0 0 C0.33 0 0.66 0 1 0 C1 5.94 1 11.88 1 18 C0.67 18 0.34 18 0 18 C0 12.06 0 6.12 0 0 Z " fill="#CCDDDB" transform="translate(697,604)"/>
<path d="M0 0 C0.33 0 0.66 0 1 0 C1 5.94 1 11.88 1 18 C0.67 18 0.34 18 0 18 C0 12.06 0 6.12 0 0 Z " fill="#CCDDDB" transform="translate(813,533)"/>
<path d="M0 0 C5.61 0 11.22 0 17 0 C17 0.33 17 0.66 17 1 C11.39 1 5.78 1 0 1 C0 0.67 0 0.34 0 0 Z " fill="#000102" transform="translate(703,359)"/>
<path d="M0 0 C2.97 0 5.94 0 9 0 C9.33 0.66 9.66 1.32 10 2 C6.37 2 2.74 2 -1 2 C-0.67 1.34 -0.34 0.68 0 0 Z " fill="#8CC3C4" transform="translate(721,273)"/>
<path d="M0 0 C0.72 0.1 1.44 0.21 2.19 0.31 C1.61 0.56 1.03 0.81 0.44 1.06 C-2.11 2.48 -3.83 4.19 -5.81 6.31 C-6.47 5.98 -7.13 5.65 -7.81 5.31 C-3.5 0.39 -3.5 0.39 0 0 Z " fill="#85AFBF" transform="translate(529.8125,300.6875)"/>
<path d="M0 0 C0.33 0 0.66 0 1 0 C1 4.62 1 9.24 1 14 C0.67 14 0.34 14 0 14 C0 9.38 0 4.76 0 0 Z " fill="#CCDDDB" transform="translate(490,623)"/>
<path d="M0 0 C0.33 1.32 0.66 2.64 1 4 C-1.97 6.48 -1.97 6.48 -5 9 C-3.5 5.89 -1.8 2.95 0 0 Z " fill="#76B0C3" transform="translate(800,601)"/>
<path d="M0 0 C4.62 0 9.24 0 14 0 C14 0.33 14 0.66 14 1 C9.38 1 4.76 1 0 1 C0 0.67 0 0.34 0 0 Z " fill="#CCDDDB" transform="translate(586,346)"/>
<path d="M0 0 C0.33 0 0.66 0 1 0 C1 4.29 1 8.58 1 13 C0.67 13 0.34 13 0 13 C0 8.71 0 4.42 0 0 Z " fill="#CCDDDB" transform="translate(813,634)"/>
<path d="M0 0 C0.33 0 0.66 0 1 0 C1 3.96 1 7.92 1 12 C0.67 12 0.34 12 0 12 C0 8.04 0 4.08 0 0 Z " fill="#CCDDDB" transform="translate(813,614)"/>
<path d="M0 0 C0.33 0 0.66 0 1 0 C1 3.96 1 7.92 1 12 C0.67 12 0.34 12 0 12 C0 8.04 0 4.08 0 0 Z " fill="#BBD6D5" transform="translate(612,587)"/>
<path d="M0 0 C0.33 0 0.66 0 1 0 C1 3.96 1 7.92 1 12 C0.67 12 0.34 12 0 12 C0 8.04 0 4.08 0 0 Z " fill="#CCDDDB" transform="translate(693,423)"/>
<path d="M0 0 C3.63 0 7.26 0 11 0 C11 0.33 11 0.66 11 1 C7.37 1 3.74 1 0 1 C0 0.67 0 0.34 0 0 Z " fill="#55A1B9" transform="translate(668,464)"/>
<path d="M0 0 C3.63 0 7.26 0 11 0 C11 0.33 11 0.66 11 1 C7.37 1 3.74 1 0 1 C0 0.67 0 0.34 0 0 Z " fill="#4399B2" transform="translate(613,346)"/>
<path d="M0 0 C0.33 0 0.66 0 1 0 C1 3.3 1 6.6 1 10 C0.67 10 0.34 10 0 10 C0 6.7 0 3.4 0 0 Z " fill="#CCDDDB" transform="translate(813,574)"/>
<path d="M0 0 C0.33 0 0.66 0 1 0 C1 3.3 1 6.6 1 10 C0.67 10 0.34 10 0 10 C0 6.7 0 3.4 0 0 Z " fill="#CCDDDB" transform="translate(813,553)"/>
<path d="M0 0 C3.3 0 6.6 0 10 0 C10 0.33 10 0.66 10 1 C6.7 1 3.4 1 0 1 C0 0.67 0 0.34 0 0 Z " fill="#CCDDDB" transform="translate(556,346)"/>
<path d="M0 0 C0.33 0 0.66 0 1 0 C1 2.97 1 5.94 1 9 C0.67 9 0.34 9 0 9 C0 6.03 0 3.06 0 0 Z " fill="#000102" transform="translate(730,685)"/>
<path d="M0 0 C0.33 0 0.66 0 1 0 C1 2.97 1 5.94 1 9 C0.67 9 0.34 9 0 9 C0 6.03 0 3.06 0 0 Z " fill="#CCDDDB" transform="translate(697,593)"/>
<path d="M0 0 C2.97 0 5.94 0 9 0 C9 0.33 9 0.66 9 1 C6.03 1 3.06 1 0 1 C0 0.67 0 0.34 0 0 Z " fill="#CCDDDB" transform="translate(355,588)"/>
<path d="M0 0 C2.97 0 5.94 0 9 0 C9 0.33 9 0.66 9 1 C6.03 1 3.06 1 0 1 C0 0.67 0 0.34 0 0 Z " fill="#CCDDDB" transform="translate(680,477)"/>
<path d="M0 0 C0.33 0 0.66 0 1 0 C1 2.64 1 5.28 1 8 C0.67 8 0.34 8 0 8 C0 5.36 0 2.72 0 0 Z " fill="#CCDDDB" transform="translate(316,619)"/>
<path d="M0 0 C0.33 0 0.66 0 1 0 C1 2.64 1 5.28 1 8 C0.67 8 0.34 8 0 8 C0 5.36 0 2.72 0 0 Z " fill="#CCDDDB" transform="translate(813,517)"/>
<path d="M0 0 C0.33 0.66 0.66 1.32 1 2 C-1.31 2 -3.62 2 -6 2 C-6 1.67 -6 1.34 -6 1 C-4.02 0.67 -2.04 0.34 0 0 Z " fill="#67B4B7" transform="translate(625,463)"/>
<path d="M0 0 C0.99 0 1.98 0 3 0 C2 3 2 3 0 4 C0 2.68 0 1.36 0 0 Z " fill="#447A80" transform="translate(628,421)"/>
<path d="M0 0 C2.64 0 5.28 0 8 0 C8 0.33 8 0.66 8 1 C5.36 1 2.72 1 0 1 C0 0.67 0 0.34 0 0 Z " fill="#CCDDDB" transform="translate(603,346)"/>
<path d="M0 0 C2.64 0 5.28 0 8 0 C8 0.33 8 0.66 8 1 C5.36 1 2.72 1 0 1 C0 0.67 0 0.34 0 0 Z " fill="#A2B8BE" transform="translate(567,346)"/>
<path d="M0 0 C0.66 0.33 1.32 0.66 2 1 C1.34 2.32 0.68 3.64 0 5 C-0.33 4.01 -0.66 3.02 -1 2 C-0.67 1.34 -0.34 0.68 0 0 Z " fill="#62A8BC" transform="translate(759,336)"/>
<path d="M0 0 C0.33 0 0.66 0 1 0 C1 2.31 1 4.62 1 7 C0.67 7 0.34 7 0 7 C0 4.69 0 2.38 0 0 Z " fill="#000102" transform="translate(739,664)"/>
<path d="M0 0 C2.31 0 4.62 0 7 0 C7 0.33 7 0.66 7 1 C4.69 1 2.38 1 0 1 C0 0.67 0 0.34 0 0 Z " fill="#CCDDDB" transform="translate(376,588)"/>
<path d="M0 0 C0.33 0 0.66 0 1 0 C1 2.31 1 4.62 1 7 C0.67 7 0.34 7 0 7 C0 4.69 0 2.38 0 0 Z " fill="#CCDDDB" transform="translate(813,565)"/>
<path d="M0 0 C2.31 0 4.62 0 7 0 C7 0.33 7 0.66 7 1 C4.69 1 2.38 1 0 1 C0 0.67 0 0.34 0 0 Z " fill="#CCDDDB" transform="translate(643,401)"/>
<path d="M0 0 C2.31 0 4.62 0 7 0 C7 0.33 7 0.66 7 1 C4.69 1 2.38 1 0 1 C0 0.67 0 0.34 0 0 Z " fill="#000102" transform="translate(571,359)"/>
<path d="M0 0 C2.31 0 4.62 0 7 0 C7 0.33 7 0.66 7 1 C4.69 1 2.38 1 0 1 C0 0.67 0 0.34 0 0 Z " fill="#CCDDDB" transform="translate(534,299)"/>
<path d="M0 0 C0.33 0 0.66 0 1 0 C1 1.98 1 3.96 1 6 C0.67 6 0.34 6 0 6 C0 4.02 0 2.04 0 0 Z " fill="#BBD6D5" transform="translate(612,624)"/>
<path d="M0 0 C1.98 0 3.96 0 6 0 C6 0.33 6 0.66 6 1 C4.02 1 2.04 1 0 1 C0 0.67 0 0.34 0 0 Z " fill="#CCDDDB" transform="translate(388,588)"/>
<path d="M0 0 C1.98 0 3.96 0 6 0 C6 0.33 6 0.66 6 1 C4.02 1 2.04 1 0 1 C0 0.67 0 0.34 0 0 Z " fill="#CCDDDB" transform="translate(368,588)"/>
<path d="M0 0 C1.98 0 3.96 0 6 0 C6 0.33 6 0.66 6 1 C4.02 1 2.04 1 0 1 C0 0.67 0 0.34 0 0 Z " fill="#328DB1" transform="translate(653,464)"/>
<path d="M0 0 C0 0.99 0 1.98 0 3 C-0.99 3.5 -0.99 3.5 -2 4 C-1.34 2.68 -0.68 1.36 0 0 Z " fill="#8CBEC7" transform="translate(521,307)"/>
<path d="M0 0 C0.33 0 0.66 0 1 0 C1 1.65 1 3.3 1 5 C0.67 5 0.34 5 0 5 C0 3.35 0 1.7 0 0 Z " fill="#A3CCCC" transform="translate(477,658)"/>
<path d="M0 0 C0.33 0 0.66 0 1 0 C1 1.65 1 3.3 1 5 C0.67 5 0.34 5 0 5 C0 3.35 0 1.7 0 0 Z " fill="#CCDDDB" transform="translate(813,648)"/>
<path d="M0 0 C1.65 0 3.3 0 5 0 C5 0.33 5 0.66 5 1 C3.35 1 1.7 1 0 1 C0 0.67 0 0.34 0 0 Z " fill="#CCDDDB" transform="translate(488,642)"/>
<path d="M0 0 C0.33 0 0.66 0 1 0 C1 1.65 1 3.3 1 5 C0.67 5 0.34 5 0 5 C0 3.35 0 1.7 0 0 Z " fill="#CCDDDB" transform="translate(612,605)"/>
<path d="M0 0 C1.65 0 3.3 0 5 0 C5 0.33 5 0.66 5 1 C3.35 1 1.7 1 0 1 C0 0.67 0 0.34 0 0 Z " fill="#000102" transform="translate(419,605)"/>
<path d="M0 0 C0.33 0 0.66 0 1 0 C1 1.65 1 3.3 1 5 C0.67 5 0.34 5 0 5 C0 3.35 0 1.7 0 0 Z " fill="#CCDDDB" transform="translate(311,552)"/>
<path d="M0 0 C1.32 0.33 2.64 0.66 4 1 C2.68 1.33 1.36 1.66 0 2 C0 1.34 0 0.68 0 0 Z " fill="#57A8B5" transform="translate(678,405)"/>
<path d="M0 0 C1.65 0 3.3 0 5 0 C5 0.33 5 0.66 5 1 C3.35 1 1.7 1 0 1 C0 0.67 0 0.34 0 0 Z " fill="#CCDDDB" transform="translate(666,400)"/>
<path d="M0 0 C0.33 0 0.66 0 1 0 C1 1.65 1 3.3 1 5 C0.67 5 0.34 5 0 5 C0 3.35 0 1.7 0 0 Z " fill="#CCDDDB" transform="translate(595,371)"/>
<path d="M0 0 C1.65 0 3.3 0 5 0 C5 0.33 5 0.66 5 1 C3.35 1 1.7 1 0 1 C0 0.67 0 0.34 0 0 Z " fill="#2785AF" transform="translate(646,346)"/>
<path d="M0 0 C1 4 1 4 1 4 Z " fill="#CCDDDB" transform="translate(316,629)"/>
<path d="M0 0 C4 1 4 1 4 1 Z " fill="#CCDDDB" transform="translate(742,594)"/>
<path d="M0 0 C4 1 4 1 4 1 Z " fill="#3F97B2" transform="translate(662,464)"/>
<path d="M0 0 C1 4 1 4 1 4 Z " fill="#CCDDDB" transform="translate(693,438)"/>
<path d="M0 0 C0.33 0.66 0.66 1.32 1 2 C0.01 1.67 -0.98 1.34 -2 1 C-1.34 0.67 -0.68 0.34 0 0 Z " fill="#3F97B2" transform="translate(693,404)"/>
<path d="M0 0 C4 1 4 1 4 1 Z " fill="#CCDDDB" transform="translate(581,405)"/>
<path d="M0 0 C4 1 4 1 4 1 Z " fill="#5699A3" transform="translate(652,388)"/>
<path d="M0 0 C1 4 1 4 1 4 Z " fill="#CCDDDB" transform="translate(595,379)"/>
<path d="M0 0 C1 4 1 4 1 4 Z " fill="#000102" transform="translate(689,374)"/>
<path d="M0 0 C4 1 4 1 4 1 Z " fill="#72ABC4" transform="translate(712,346)"/>
<path d="M0 0 C4 1 4 1 4 1 Z " fill="#CCDDDB" transform="translate(548,346)"/>
<path d="M0 0 C4 1 4 1 4 1 Z " fill="#CCDDDB" transform="translate(628,312)"/>
<path d="M0 0 C0.66 0.33 1.32 0.66 2 1 C1.01 1 0.02 1 -1 1 C-0.67 0.67 -0.34 0.34 0 0 Z " fill="#99C8C9" transform="translate(705,304)"/>
<path d="M0 0 C0.66 0.33 1.32 0.66 2 1 C1.01 1 0.02 1 -1 1 C-0.67 0.67 -0.34 0.34 0 0 Z " fill="#B2D2D2" transform="translate(710,275)"/>
<path d="M0 0 C0.99 0.5 0.99 0.5 2 1 C1.34 1.66 0.68 2.32 0 3 C0 2.01 0 1.02 0 0 Z " fill="#B2D2D2" transform="translate(642,264)"/>
<path d="" fill="#CCDDDB" transform="translate(0,0)"/>
<path d="" fill="#CCDDDB" transform="translate(0,0)"/>
<path d="" fill="#CCDDDB" transform="translate(0,0)"/>
<path d="" fill="#CCDDDB" transform="translate(0,0)"/>
<path d="M0 0 C3 1 3 1 3 1 Z " fill="#CCDDDB" transform="translate(748,594)"/>
<path d="M0 0 C3 1 3 1 3 1 Z " fill="#328DB1" transform="translate(649,464)"/>
<path d="M0 0 C3 1 3 1 3 1 Z " fill="#67B4B7" transform="translate(643,464)"/>
<path d="M0 0 C3 1 3 1 3 1 Z " fill="#67B4B7" transform="translate(632,400)"/>
<path d="" fill="#CCDDDB" transform="translate(0,0)"/>
<path d="M0 0 C3 1 3 1 3 1 Z " fill="#549BBD" transform="translate(718,346)"/>
<path d="M0 0 C3 1 3 1 3 1 Z " fill="#5C7B8F" transform="translate(541,346)"/>
<path d="M0 0 C3 1 3 1 3 1 Z " fill="#AACFCF" transform="translate(643,340)"/>
<path d="" fill="#000102" transform="translate(0,0)"/>
<path d="" fill="#000102" transform="translate(0,0)"/>
<path d="" fill="#000102" transform="translate(0,0)"/>
<path d="" fill="#CCDDDB" transform="translate(0,0)"/>
<path d="M0 0 C2 1 2 1 2 1 Z " fill="#CCDDDB" transform="translate(360,647)"/>
<path d="M0 0 C2 1 2 1 2 1 Z " fill="#CCDDDB" transform="translate(483,642)"/>
<path d="" fill="#CCDDDB" transform="translate(0,0)"/>
<path d="" fill="#67B4B7" transform="translate(0,0)"/>
<path d="" fill="#99C8C9" transform="translate(0,0)"/>
<path d="" fill="#CCDDDB" transform="translate(0,0)"/>
<path d="" fill="#CCDDDB" transform="translate(0,0)"/>
<path d="M0 0 C2 1 2 1 2 1 Z " fill="#CCDDDB" transform="translate(809,597)"/>
<path d="" fill="#CCDDDB" transform="translate(0,0)"/>
<path d="M0 0 C2 1 2 1 2 1 Z " fill="#CCDDDB" transform="translate(385,588)"/>
<path d="" fill="#CCDDDB" transform="translate(0,0)"/>
<path d="" fill="#000102" transform="translate(0,0)"/>
<path d="" fill="#457F90" transform="translate(0,0)"/>
<path d="M0 0 C2 1 2 1 2 1 Z " fill="#CCDDDB" transform="translate(593,459)"/>
<path d="" fill="#CCDDDB" transform="translate(0,0)"/>
<path d="" fill="#67B4B7" transform="translate(0,0)"/>
<path d="" fill="#67B4B7" transform="translate(0,0)"/>
<path d="M0 0 C2 1 2 1 2 1 Z " fill="#CCDDDB" transform="translate(582,346)"/>
<path d="M0 0 C2 1 2 1 2 1 Z " fill="#244A69" transform="translate(579,346)"/>
<path d="" fill="#187AAE" transform="translate(0,0)"/>
<path d="M0 0 C2 1 2 1 2 1 Z " fill="#CCDDDB" transform="translate(652,337)"/>
<path d="M0 0 C2 1 2 1 2 1 Z " fill="#CCDDDB" transform="translate(626,313)"/>
<path d="" fill="#CCDDDB" transform="translate(0,0)"/>
<path d="M0 0 C2 1 2 1 2 1 Z " fill="#187AAE" transform="translate(626,301)"/>
<path d="" fill="#000102" transform="translate(0,0)"/>
<path d="" fill="#CCDDDB" transform="translate(0,0)"/>
<path d="" fill="#67B4B7" transform="translate(0,0)"/>
<path d="M0 0 C2 1 2 1 2 1 Z " fill="#67B4B7" transform="translate(633,241)"/>
<path d="M0 0 C2 1 2 1 2 1 Z " fill="#187AAE" transform="translate(624,231)"/>
<path d="M0 0 C2 1 2 1 2 1 Z " fill="#CCDDDB" transform="translate(661,226)"/>
<path d="" fill="#000102" transform="translate(0,0)"/>
<path d="" fill="#244A69" transform="translate(0,0)"/>
<path d="" fill="#CCDDDB" transform="translate(0,0)"/>
<path d="" fill="#000102" transform="translate(0,0)"/>
<path d="" fill="#244A69" transform="translate(0,0)"/>
<path d="" fill="#CCDDDB" transform="translate(0,0)"/>
<path d="" fill="#187AAE" transform="translate(0,0)"/>
<path d="" fill="#CCDDDB" transform="translate(0,0)"/>
<path d="" fill="#67B4B7" transform="translate(0,0)"/>
<path d="" fill="#CCDDDB" transform="translate(0,0)"/>
<path d="" fill="#000102" transform="translate(0,0)"/>
<path d="" fill="#CCDDDB" transform="translate(0,0)"/>
<path d="" fill="#67B4B7" transform="translate(0,0)"/>
<path d="" fill="#CCDDDB" transform="translate(0,0)"/>
<path d="" fill="#187AAE" transform="translate(0,0)"/>
<path d="" fill="#CCDDDB" transform="translate(0,0)"/>
<path d="" fill="#CCDDDB" transform="translate(0,0)"/>
<path d="" fill="#67B4B7" transform="translate(0,0)"/>
<path d="" fill="#CCDDDB" transform="translate(0,0)"/>
<path d="" fill="#000102" transform="translate(0,0)"/>
<path d="" fill="#000102" transform="translate(0,0)"/>
<path d="" fill="#244A69" transform="translate(0,0)"/>
<path d="" fill="#000102" transform="translate(0,0)"/>
<path d="" fill="#CCDDDB" transform="translate(0,0)"/>
<path d="" fill="#CCDDDB" transform="translate(0,0)"/>
<path d="" fill="#67B4B7" transform="translate(0,0)"/>
<path d="" fill="#67B4B7" transform="translate(0,0)"/>
<path d="" fill="#CCDDDB" transform="translate(0,0)"/>
<path d="" fill="#67B4B7" transform="translate(0,0)"/>
<path d="" fill="#244A69" transform="translate(0,0)"/>
<path d="" fill="#67B4B7" transform="translate(0,0)"/>
<path d="" fill="#CCDDDB" transform="translate(0,0)"/>
<path d="" fill="#67B4B7" transform="translate(0,0)"/>
<path d="" fill="#67B4B7" transform="translate(0,0)"/>
<path d="" fill="#244A69" transform="translate(0,0)"/>
<path d="" fill="#67B4B7" transform="translate(0,0)"/>
<path d="" fill="#67B4B7" transform="translate(0,0)"/>
<path d="" fill="#187AAE" transform="translate(0,0)"/>
<path d="" fill="#187AAE" transform="translate(0,0)"/>
<path d="" fill="#000102" transform="translate(0,0)"/>
<path d="" fill="#67B4B7" transform="translate(0,0)"/>
<path d="" fill="#244A69" transform="translate(0,0)"/>
<path d="" fill="#244A69" transform="translate(0,0)"/>
<path d="" fill="#244A69" transform="translate(0,0)"/>
<path d="" fill="#CCDDDB" transform="translate(0,0)"/>
<path d="" fill="#CCDDDB" transform="translate(0,0)"/>
<path d="" fill="#CCDDDB" transform="translate(0,0)"/>
<path d="" fill="#CCDDDB" transform="translate(0,0)"/>
<path d="" fill="#000102" transform="translate(0,0)"/>
<path d="" fill="#CCDDDB" transform="translate(0,0)"/>
<path d="" fill="#CCDDDB" transform="translate(0,0)"/>
<path d="" fill="#187AAE" transform="translate(0,0)"/>
<path d="" fill="#CCDDDB" transform="translate(0,0)"/>
<path d="" fill="#187AAE" transform="translate(0,0)"/>
<path d="" fill="#CCDDDB" transform="translate(0,0)"/>
<path d="" fill="#244A69" transform="translate(0,0)"/>
<path d="" fill="#67B4B7" transform="translate(0,0)"/>
<path d="" fill="#187AAE" transform="translate(0,0)"/>
<path d="" fill="#244A69" transform="translate(0,0)"/>
<path d="" fill="#CCDDDB" transform="translate(0,0)"/>
<path d="" fill="#187AAE" transform="translate(0,0)"/>
<path d="" fill="#CCDDDB" transform="translate(0,0)"/>
<path d="" fill="#244A69" transform="translate(0,0)"/>
<path d="" fill="#CCDDDB" transform="translate(0,0)"/>
<path d="" fill="#CCDDDB" transform="translate(0,0)"/>
<path d="" fill="#244A69" transform="translate(0,0)"/>
<path d="" fill="#CCDDDB" transform="translate(0,0)"/>
<path d="" fill="#67B4B7" transform="translate(0,0)"/>
<path d="" fill="#67B4B7" transform="translate(0,0)"/>
<path d="" fill="#000102" transform="translate(0,0)"/>
<path d="" fill="#67B4B7" transform="translate(0,0)"/>
<path d="" fill="#244A69" transform="translate(0,0)"/>
<path d="" fill="#CCDDDB" transform="translate(0,0)"/>
<path d="" fill="#67B4B7" transform="translate(0,0)"/>
<path d="" fill="#67B4B7" transform="translate(0,0)"/>
<path d="" fill="#CCDDDB" transform="translate(0,0)"/>
<path d="" fill="#187AAE" transform="translate(0,0)"/>
<path d="" fill="#CCDDDB" transform="translate(0,0)"/>
<path d="" fill="#000102" transform="translate(0,0)"/>
</svg>
