<?xml version="1.0" encoding="UTF-8"?>
<!-- Generator: visioncortex VTracer 0.6.3 -->
<svg version="1.1" xmlns="http://www.w3.org/2000/svg" width="1280" height="1280">
<path d="M0 0 C6.27 0 12.54 0 19 0 C19.33 0.66 19.66 1.32 20 2 C20.73 2.42 21.45 2.84 22.2 3.27 C25.54 5.33 28.1 7.89 30.82 10.69 C31.35 11.24 31.89 11.78 32.45 12.35 C34.16 14.08 35.86 15.82 37.56 17.56 C39.81 19.86 42.06 22.15 44.32 24.44 C44.83 24.97 45.34 25.5 45.86 26.04 C48.41 28.62 50.65 30.6 54 32 C56.25 33.5 56.25 33.5 58 35 C58 35.66 58 36.32 58 37 C58.56 37.25 59.11 37.49 59.69 37.75 C63.5 39.81 66.49 42.47 69.5 45.56 C71.85 48.05 71.85 48.05 74.56 49.5 C77.43 51.27 78.91 53.38 81 56 C82.66 57.02 84.32 58.02 86 59 C86 59.66 86 60.32 86 61 C86.72 61.24 87.45 61.48 88.19 61.73 C91.4 63.18 93.39 64.95 95.94 67.38 C99.47 70.65 102.93 73.4 107 76 C108.49 77.16 109.96 78.32 111.44 79.5 C114.16 81.66 116.81 83.55 119.88 85.19 C122.98 86.99 123.92 88.23 126 91 C128.32 92.42 130.6 93.73 133 95 C135.62 96.5 137.96 97.97 140.3 99.87 C143.84 102.67 147.63 104.95 151.48 107.32 C153.63 108.75 155.21 110.16 157 112 C158.99 113.02 160.99 114.02 163 115 C168.87 118.48 174.54 122.28 180.12 126.19 C182.57 127.73 184.19 128.57 187 129 C187 129.66 187 130.32 187 131 C187.76 131.21 188.53 131.41 189.31 131.62 C195.44 133.91 201.08 137.23 206.66 140.62 C209.04 142.03 211.41 143.04 214 144 C214 144.66 214 145.32 214 146 C215.07 146.29 216.14 146.58 217.25 146.88 C220.11 147.73 222.42 148.57 225 150 C225.66 150.33 226.32 150.66 227 151 C227.99 151.66 228.98 152.32 230 153 C233.23 154.51 236.47 155.99 239.73 157.43 C244.89 159.78 244.89 159.78 246 162 C247.65 162.39 249.32 162.72 251 163 C251.99 163.33 252.98 163.66 254 164 C254 164.66 254 165.32 254 166 C255.01 166.27 256.02 166.54 257.06 166.81 C260.86 167.89 264.39 169.4 268 171 C268.85 171.33 269.69 171.66 270.56 172 C273 173 273 173 275.94 174.5 C278.9 176.03 278.9 176.03 281.77 176.92 C285.18 178.06 288.47 179.39 291.79 180.79 C293.07 181.32 294.36 181.86 295.64 182.39 C297.64 183.23 299.64 184.07 301.64 184.91 C303.58 185.72 305.53 186.54 307.48 187.35 C308.63 187.83 309.79 188.32 310.98 188.82 C313.35 189.74 315.54 190.44 318 191 C320.01 191.77 322.01 192.57 324 193.38 C329.34 195.46 334.61 196.96 340.19 198.26 C342.82 198.95 345.19 199.82 347.69 200.88 C358.12 205.25 369.28 207.89 380.26 210.55 C384.42 211.57 388.49 212.75 392.56 214.06 C398.35 215.89 404.15 217.09 410.11 218.21 C414.16 219.03 418.13 220.02 422.12 221.06 C433.42 223.99 433.42 223.99 445 225 C445 225.66 445 226.32 445 227 C445.97 226.97 446.93 226.94 447.93 226.91 C452.41 226.92 456.71 227.63 461.12 228.38 C462.83 228.65 464.54 228.93 466.25 229.21 C467.83 229.47 469.42 229.74 471 230 C480.62 231.58 490.27 232.81 499.95 233.95 C501.47 234.13 501.47 234.13 503.01 234.32 C503.92 234.42 504.84 234.53 505.78 234.64 C508 235 508 235 510 236 C512.88 236.37 515.74 236.7 518.62 237 C520.98 237.25 523.34 237.5 525.7 237.75 C527.22 237.92 528.74 238.07 530.26 238.22 C537.72 239.03 542.1 242.44 547 248 C548.81 251.31 548.81 251.31 550 254 C550.33 254 550.66 254 551 254 C551 334.85 551 415.7 551 499 C575.09 499 599.18 499 624 499 C634.42 502.47 642.56 506.84 648.2 516.48 C650.77 521.85 650.44 527.17 650.25 533 C650.23 534.06 650.21 535.12 650.2 536.21 C650.15 538.81 650.08 541.4 650 544 C649.34 544.33 648.68 544.66 648 545 C647.13 546.57 646.33 548.19 645.56 549.81 C644.37 552.35 643.27 554.65 641.56 556.88 C639.05 560.29 637.4 564.15 635.61 567.96 C634.06 571.14 632.63 573.63 630 576 C628.96 577.98 627.97 579.99 627 582 C626.3 583.28 625.59 584.55 624.88 585.81 C623.12 588.93 621.43 592.08 619.78 595.25 C619.39 596.01 618.99 596.77 618.58 597.55 C617.79 599.08 617 600.61 616.21 602.15 C615.84 602.86 615.47 603.57 615.09 604.3 C614.59 605.26 614.59 605.26 614.09 606.24 C612.92 608.12 611.56 609.44 610 611 C608.77 613.3 607.61 615.58 606.5 617.94 C604.61 621.9 602.64 625.48 600 629 C598.48 631.96 597.03 634.94 595.61 637.96 C593.31 642.7 593.31 642.7 591.53 644.44 C589.76 646.25 588.9 647.94 587.84 650.24 C587.27 651.47 587.27 651.47 586.68 652.72 C586.29 653.58 585.9 654.43 585.5 655.31 C584.72 657 583.94 658.68 583.16 660.36 C582.79 661.17 582.42 661.97 582.04 662.8 C581.19 664.6 580.24 666.35 579.26 668.08 C576.3 674.92 576.45 684.18 578.72 691.24 C580.48 695.44 582.68 699.37 585 703.29 C586.35 705.61 587.48 708.01 588.62 710.44 C590.63 714.48 593.03 718.13 595.59 721.84 C597.35 724.53 598.74 727.32 600.13 730.22 C601.74 733.51 603.71 736.55 605.69 739.62 C607 742 607 742 607 745 C607.66 745 608.32 745 609 745 C609.28 745.75 609.56 746.5 609.84 747.27 C610.88 749.72 611.95 751.54 613.5 753.69 C616.74 758.43 619.57 763.37 622.38 768.38 C623.05 769.57 623.05 769.57 623.75 770.79 C624.17 771.55 624.59 772.31 625.02 773.09 C625.4 773.77 625.78 774.45 626.18 775.15 C627 777 627 777 627 780 C627.66 780 628.32 780 629 780 C629.41 781.1 629.41 781.1 629.82 782.23 C630.95 784.88 632.22 786.97 633.88 789.31 C636.25 792.79 638.26 796.26 640.04 800.08 C641.64 803.29 643.46 806.28 645.61 809.16 C649.88 815.49 650.61 821.17 650.69 828.62 C650.71 829.51 650.73 830.39 650.74 831.3 C650.6 839.81 647.18 846.42 641.12 852.38 C640.51 853 639.89 853.63 639.26 854.27 C634.18 858.16 629.45 859.37 623.14 859.39 C622.16 859.4 622.16 859.4 621.16 859.41 C618.99 859.43 616.83 859.42 614.66 859.42 C613.09 859.42 611.53 859.43 609.97 859.44 C605.74 859.47 601.51 859.47 597.28 859.47 C592.85 859.48 588.43 859.5 584 859.52 C575.62 859.56 567.23 859.59 558.85 859.6 C543.82 859.64 528.8 859.7 513.77 859.76 C508.5 859.78 503.23 859.8 497.95 859.81 C494.68 859.81 491.4 859.82 488.13 859.84 C486.61 859.84 485.09 859.84 483.57 859.84 C481.49 859.85 479.42 859.85 477.35 859.86 C476.19 859.86 475.03 859.87 473.83 859.87 C470.92 859.87 470.92 859.87 468 861 C466.77 864.01 466.77 864.01 466 867 C465.34 867 464.68 867 464 867 C463.81 868.08 463.81 868.08 463.62 869.19 C463.01 871.96 462.12 874.4 461 877 C460.34 877 459.68 877 459 877 C458.81 878.08 458.81 878.08 458.62 879.19 C458.01 881.96 457.12 884.4 456 887 C455.34 887 454.68 887 454 887 C453.9 887.7 453.79 888.4 453.69 889.12 C452.53 893.97 450.58 897.58 447 901 C446.67 901.99 446.34 902.98 446 904 C445.34 904 444.68 904 444 904 C444.12 905.08 444.12 905.08 444.25 906.19 C443.92 909.85 442.34 911.23 440 914 C439.22 916.18 439.22 916.18 439 918 C437.68 917.67 436.36 917.34 435 917 C435 917.99 435 918.98 435 920 C435.99 920.5 435.99 920.5 437 921 C436.24 922.17 435.47 923.34 434.69 924.5 C434.04 925.47 434.04 925.47 433.39 926.47 C432.93 926.97 432.47 927.48 432 928 C431.01 928 430.02 928 429 928 C429 928.66 429 929.32 429 930 C428.34 930 427.68 930 427 930 C427.39 930.56 427.78 931.11 428.19 931.69 C429 934 429 934 427.75 936.75 C427.17 937.49 426.6 938.24 426 939 C425.34 939 424.68 939 424 939 C423.92 939.95 423.84 940.9 423.75 941.88 C423.5 942.91 423.26 943.94 423 945 C421 946.13 421 946.13 419 947 C418.19 949.05 418.19 949.05 418 951 C417.01 950.34 416.02 949.68 415 949 C415 949.99 415 950.98 415 952 C415.66 952 416.32 952 417 952 C417 952.66 417 953.32 417 954 C416.01 954 415.02 954 414 954 C413.98 954.8 413.96 955.61 413.94 956.44 C412.6 961.52 409.62 965.23 406 969 C405.34 969 404.68 969 404 969 C403.92 969.95 403.84 970.9 403.75 971.88 C403.5 972.91 403.26 973.94 403 975 C401.68 975.7 400.35 976.37 399 977 C398.19 979.56 398.19 979.56 398 982 C397.01 982 396.02 982 395 982 C393.85 982.97 393.85 982.97 393.62 984.69 C392.11 990.3 389.07 994.93 385 999 C385 998.34 385 997.68 385 997 C384.01 997.66 383.02 998.32 382 999 C382.66 999.66 383.32 1000.32 384 1001 C382.68 1001.99 381.36 1002.98 380 1004 C379.67 1003.67 379.34 1003.34 379 1003 C378.88 1003.56 378.75 1004.11 378.62 1004.69 C377.94 1007.22 377.01 1009.58 376 1012 C375.67 1011.34 375.34 1010.68 375 1010 C373.35 1010.66 371.7 1011.32 370 1012 C370 1012.99 370 1013.98 370 1015 C370.66 1015.33 371.32 1015.66 372 1016 C369.08 1019.99 366.14 1023.91 362.88 1027.62 C360.28 1030.6 358.11 1033.67 356 1037 C355.67 1036.34 355.34 1035.68 355 1035 C354.01 1035 353.02 1035 352 1035 C352 1035.66 352 1036.32 352 1037 C351.34 1037 350.68 1037 350 1037 C350.66 1038.32 351.32 1039.64 352 1041 C349 1041 349 1041 347 1040 C347 1040.66 347 1041.32 347 1042 C346.34 1042 345.68 1042 345 1042 C345 1042.99 345 1043.98 345 1045 C345.66 1045.33 346.32 1045.66 347 1046 C346.01 1046.33 345.02 1046.66 344 1047 C343.96 1048.03 343.96 1048.03 343.91 1049.07 C342.56 1053.4 339.68 1055.75 336.44 1058.81 C335.82 1059.41 335.21 1060.01 334.57 1060.62 C333.06 1062.09 331.53 1063.55 330 1065 C329.67 1064.34 329.34 1063.68 329 1063 C328.01 1063.99 327.02 1064.98 326 1066 C326.66 1066.33 327.32 1066.66 328 1067 C326.93 1068.15 325.84 1069.3 324.75 1070.44 C324.15 1071.08 323.54 1071.71 322.92 1072.37 C320.9 1074.09 319.59 1074.59 317 1075 C317.66 1075.33 318.32 1075.66 319 1076 C317.68 1078.31 316.36 1080.62 315 1083 C314.34 1083 313.68 1083 313 1083 C313 1083.66 313 1084.32 313 1085 C310 1086 310 1086 307 1085 C307 1085.66 307 1086.32 307 1087 C306.34 1087 305.68 1087 305 1087 C305 1087.99 305 1088.98 305 1090 C305.66 1090.33 306.32 1090.66 307 1091 C304 1091 304 1091 302 1090 C301.67 1091.32 301.34 1092.64 301 1094 C301.66 1094.33 302.32 1094.66 303 1095 C302.01 1095.33 301.02 1095.66 300 1096 C299.67 1096.66 299.34 1097.32 299 1098 C299 1097.34 299 1096.68 299 1096 C295.88 1097.31 295.88 1097.31 294 1100 C294.66 1100.33 295.32 1100.66 296 1101 C294.7 1101.82 294.7 1101.82 293.36 1102.65 C289.93 1104.94 287.05 1107.7 284.16 1110.64 C283.64 1111.17 283.12 1111.69 282.58 1112.24 C280.92 1113.9 279.27 1115.58 277.62 1117.25 C276.5 1118.39 275.37 1119.53 274.24 1120.66 C271.49 1123.44 268.74 1126.22 266 1129 C265.01 1128.34 264.02 1127.68 263 1127 C262.67 1127.99 262.34 1128.98 262 1130 C262.66 1130.33 263.32 1130.66 264 1131 C262.02 1131.99 260.04 1132.98 258 1134 C257.01 1133.34 256.02 1132.68 255 1132 C255.66 1133.32 256.32 1134.64 257 1136 C254 1136 254 1136 252 1135 C252 1135.66 252 1136.32 252 1137 C251.34 1137 250.68 1137 250 1137 C250 1137.66 250 1138.32 250 1139 C249.34 1139 248.68 1139 248 1139 C248.66 1140.32 249.32 1141.64 250 1143 C248.71 1143.81 247.42 1144.63 246.12 1145.44 C245.41 1145.89 244.69 1146.34 243.95 1146.81 C242 1148 242 1148 240 1149 C240 1148.34 240 1147.68 240 1147 C239.01 1147.33 238.02 1147.66 237 1148 C237.33 1149.32 237.66 1150.64 238 1152 C235.36 1153.65 232.72 1155.3 230 1157 C230 1156.34 230 1155.68 230 1155 C229.01 1155 228.02 1155 227 1155 C226.67 1156.65 226.34 1158.3 226 1160 C225.01 1159.67 224.02 1159.34 223 1159 C223 1159.99 223 1160.98 223 1162 C222.34 1162 221.68 1162 221 1162 C221 1162.99 221 1163.98 221 1165 C217.42 1169.07 212.93 1171.84 208 1174 C207.01 1173.34 206.02 1172.68 205 1172 C205 1172.99 205 1173.98 205 1175 C205.66 1175.33 206.32 1175.66 207 1176 C205.13 1177.06 205.13 1177.06 203 1178 C202.34 1177.67 201.68 1177.34 201 1177 C200.86 1177.72 200.71 1178.44 200.56 1179.19 C198.19 1183.47 194.3 1184.92 190 1187 C190 1186.34 190 1185.68 190 1185 C189.01 1185 188.02 1185 187 1185 C187 1185.66 187 1186.32 187 1187 C187.66 1187.66 188.32 1188.32 189 1189 C184.33 1191.67 179.67 1194.33 175 1197 C175 1196.34 175 1195.68 175 1195 C174.01 1195 173.02 1195 172 1195 C171.79 1195.9 171.57 1196.81 171.35 1197.74 C169.69 1201.75 168.03 1202.84 164.38 1205.12 C163.3 1205.8 162.23 1206.48 161.12 1207.18 C158.59 1208.66 156.07 1210.03 153.44 1211.31 C150.12 1212.71 150.12 1212.71 148.45 1214.56 C146.48 1216.51 144.69 1216.64 142 1217 C141.67 1217.99 141.34 1218.98 141 1220 C137.72 1221.58 134.45 1222.85 131 1224 C130.67 1224.66 130.34 1225.32 130 1226 C128.34 1226.68 126.67 1227.34 125 1228 C122.67 1229.52 120.43 1231.13 118.18 1232.76 C116 1234 116 1234 112 1234 C112 1234.66 112 1235.32 112 1236 C110.83 1236.55 109.65 1237.09 108.44 1237.65 C100.32 1241.45 92.27 1245.31 84.38 1249.56 C78.55 1252.7 72.67 1255.67 66.69 1258.5 C65.98 1258.84 65.26 1259.18 64.53 1259.53 C60.65 1261.34 57.08 1262.63 52.88 1263.38 C50.61 1263.92 50.61 1263.92 49 1267 C47.12 1267.56 47.12 1267.56 45 1268 C43.67 1268.66 42.36 1269.35 41.06 1270.06 C37.89 1271.71 35.64 1272.45 32 1272 C32 1272.66 32 1273.32 32 1274 C30.35 1274 28.7 1274 27 1274 C27 1274.66 27 1275.32 27 1276 C24.69 1276.33 22.38 1276.66 20 1277 C19.67 1277.99 19.34 1278.98 19 1280 C12.73 1280 6.46 1280 0 1280 C-0.33 1279.01 -0.66 1278.02 -1 1277 C-1.95 1276.88 -2.9 1276.75 -3.88 1276.62 C-7 1276 -7 1276 -9 1274 C-10.63 1273.46 -12.26 1272.92 -13.91 1272.42 C-18.99 1270.84 -23.57 1268.81 -28.25 1266.28 C-30.59 1265.19 -32.79 1264.41 -35.25 1263.64 C-40.15 1262.05 -44.5 1259.79 -49 1257.31 C-55.13 1254.01 -61.29 1250.85 -67.62 1247.94 C-77.51 1243.37 -87.18 1238.36 -96.62 1232.93 C-100.62 1230.65 -104.67 1228.51 -108.74 1226.37 C-111 1225 -111 1225 -112 1223 C-113.33 1222.65 -114.66 1222.32 -116 1222 C-117.96 1220.91 -117.96 1220.91 -119.94 1219.62 C-122.23 1218.14 -124.52 1216.7 -126.88 1215.31 C-129 1214 -129 1214 -131 1212 C-131.85 1211.67 -132.69 1211.34 -133.56 1211 C-136 1210 -136 1210 -137 1208 C-137.58 1207.86 -138.16 1207.73 -138.75 1207.59 C-141.66 1206.83 -143.52 1205.39 -145.94 1203.62 C-149.22 1201.24 -152.5 1199.05 -156 1197 C-158.17 1195.69 -160.34 1194.38 -162.5 1193.06 C-163.6 1192.39 -164.71 1191.72 -165.84 1191.04 C-168.74 1189.17 -171.33 1187.16 -174 1185 C-175.97 1183.67 -177.95 1182.36 -179.94 1181.06 C-184.97 1177.73 -189.47 1174.31 -193.92 1170.25 C-197.81 1166.75 -201.28 1164.31 -206 1162 C-207.69 1160.36 -209.35 1158.69 -211 1157 C-212.3 1156 -213.61 1155.02 -214.94 1154.06 C-217.58 1152.14 -219.88 1150.19 -222.12 1147.81 C-224.07 1145.78 -225.18 1144.92 -227.81 1143.69 C-231.92 1141.51 -234.6 1138.53 -237.75 1135.16 C-240.03 1132.97 -242.3 1131.61 -245 1130 C-246.54 1128.59 -248.04 1127.13 -249.5 1125.62 C-250.23 1124.87 -250.96 1124.12 -251.72 1123.35 C-252.47 1122.58 -253.22 1121.8 -254 1121 C-254.8 1120.2 -255.61 1119.39 -256.44 1118.57 C-258.21 1116.79 -259.97 1114.99 -261.72 1113.18 C-263.1 1111.76 -263.1 1111.76 -264.5 1110.31 C-264.96 1109.83 -265.42 1109.34 -265.89 1108.84 C-268.76 1105.92 -271.18 1104.37 -275 1103 C-276.12 1100.94 -276.12 1100.94 -277 1099 C-277.99 1098.67 -278.98 1098.34 -280 1098 C-281.69 1096.56 -281.69 1096.56 -283 1095 C-283 1094.34 -283 1093.68 -283 1093 C-283.64 1092.73 -284.28 1092.46 -284.94 1092.19 C-287 1091 -287 1091 -288 1088 C-288.66 1088 -289.32 1088 -290 1088 C-291.73 1086.32 -291.73 1086.32 -293.62 1084.12 C-294.57 1083.05 -294.57 1083.05 -295.54 1081.95 C-297 1080 -297 1080 -297 1078 C-297.99 1077.67 -298.98 1077.34 -300 1077 C-300.69 1074.94 -300.69 1074.94 -301 1073 C-301.99 1073 -302.98 1073 -304 1073 C-304.33 1072.01 -304.66 1071.02 -305 1070 C-306.62 1068.29 -308.3 1066.63 -310 1065 C-313.33 1061.67 -316.67 1058.33 -320 1055 C-320.69 1054.33 -321.38 1053.66 -322.09 1052.97 C-324.06 1050.94 -325.74 1048.82 -327.44 1046.56 C-330.08 1043.11 -332.87 1040.04 -336 1037 C-339 1033.48 -339 1033.48 -339 1030 C-339.89 1029.63 -339.89 1029.63 -340.79 1029.26 C-343.38 1027.78 -344.56 1026.27 -346.31 1023.88 C-348.67 1020.71 -351.09 1017.73 -353.75 1014.81 C-355.82 1012.49 -357.11 1010.77 -358.5 1007.94 C-360.26 1004.49 -362.45 1002.4 -365.28 999.81 C-367.28 997.71 -368.55 995.5 -370 993 C-371.17 991.36 -372.36 989.74 -373.56 988.12 C-378.15 981.86 -382.44 975.42 -386.71 968.94 C-387.98 967.02 -389.26 965.11 -390.54 963.2 C-406.03 940.08 -406.03 940.08 -412.69 928.31 C-413.34 927.16 -413.34 927.16 -414.01 925.99 C-415 924 -415 924 -415 922 C-415.99 921.67 -416.98 921.34 -418 921 C-418.99 919.16 -419.96 917.32 -420.84 915.43 C-422.1 912.8 -423.47 910.25 -424.88 907.69 C-425.38 906.76 -425.89 905.84 -426.41 904.89 C-427.5 902.9 -428.61 900.91 -429.72 898.92 C-430.27 897.94 -430.81 896.95 -431.38 895.94 C-431.88 895.04 -432.38 894.14 -432.9 893.21 C-434 891 -434 891 -434 889 C-434.66 889 -435.32 889 -436 889 C-436.5 887.71 -437 886.42 -437.5 885.12 C-437.78 884.41 -438.06 883.69 -438.34 882.95 C-439 881 -439 881 -439 879 C-439.66 879 -440.32 879 -441 879 C-441.5 877.71 -442 876.42 -442.5 875.12 C-442.78 874.41 -443.06 873.69 -443.34 872.95 C-444 871 -444 871 -444 869 C-444.66 869 -445.32 869 -446 869 C-448 863.25 -448 863.25 -448 861 C-451.34 859.89 -453.83 859.87 -457.34 859.87 C-457.99 859.87 -458.64 859.86 -459.3 859.86 C-461.47 859.86 -463.64 859.86 -465.81 859.86 C-467.36 859.86 -468.92 859.85 -470.47 859.85 C-473.82 859.84 -477.17 859.83 -480.52 859.83 C-485.82 859.83 -491.12 859.81 -496.42 859.79 C-498.23 859.78 -500.05 859.78 -501.86 859.77 C-503.22 859.77 -503.22 859.77 -504.61 859.76 C-516.95 859.72 -529.29 859.69 -541.63 859.67 C-549.95 859.67 -558.27 859.64 -566.59 859.6 C-571 859.58 -575.4 859.57 -579.8 859.58 C-583.94 859.58 -588.09 859.57 -592.23 859.54 C-593.75 859.53 -595.27 859.53 -596.78 859.54 C-606.15 859.58 -612.77 859.07 -620.39 853.14 C-621.31 852.2 -621.31 852.2 -622.25 851.25 C-622.87 850.64 -623.5 850.02 -624.14 849.39 C-629.68 842.27 -630.55 836.42 -630.25 827.5 C-630.23 826.49 -630.21 825.47 -630.2 824.43 C-630.15 821.95 -630.08 819.48 -630 817 C-629.34 817 -628.68 817 -628 817 C-628 815.35 -628 813.7 -628 812 C-627.34 812 -626.68 812 -626 812 C-626.5 810.51 -626.5 810.51 -627 809 C-625 806 -625 806 -624 805 C-623.29 803.66 -622.61 802.3 -621.94 800.94 C-621.58 800.2 -621.21 799.47 -620.84 798.71 C-620.42 797.87 -620.42 797.87 -620 797 C-619.34 797 -618.68 797 -618 797 C-617.78 796.1 -617.78 796.1 -617.56 795.19 C-616.77 792.11 -616.28 790.28 -614 788 C-613.67 787.01 -613.34 786.02 -613 785 C-612.34 785 -611.68 785 -611 785 C-611 784.01 -611 783.02 -611 782 C-610.34 781.34 -609.68 780.68 -609 780 C-608.5 778.82 -608.01 777.65 -607.5 776.44 C-606 773 -606 773 -604 772 C-602.87 769.66 -602.87 769.66 -601.88 766.94 C-601.52 766.02 -601.17 765.1 -600.8 764.15 C-600.54 763.44 -600.27 762.73 -600 762 C-599.34 762 -598.68 762 -598 762 C-597.81 761.13 -597.81 761.13 -597.62 760.25 C-596.99 757.96 -596.11 756.1 -595 754 C-594.63 753.26 -594.26 752.51 -593.88 751.75 C-593.44 750.88 -593.44 750.88 -593 750 C-592.34 750 -591.68 750 -591 750 C-591 749.01 -591 748.02 -591 747 C-590.34 746.34 -589.68 745.68 -589 745 C-588.5 743.82 -588.01 742.65 -587.5 741.44 C-586 738 -586 738 -584 737 C-582.87 734.66 -582.87 734.66 -581.88 731.94 C-581.52 731.02 -581.17 730.1 -580.8 729.15 C-580.54 728.44 -580.27 727.73 -580 727 C-579.34 727 -578.68 727 -578 727 C-577.78 726.1 -577.78 726.1 -577.56 725.19 C-576.77 722.11 -576.28 720.28 -574 718 C-573.67 717.01 -573.34 716.02 -573 715 C-572.34 715 -571.68 715 -571 715 C-571 714.01 -571 713.02 -571 712 C-570.34 711.34 -569.68 710.68 -569 710 C-568.5 708.82 -568.01 707.65 -567.5 706.44 C-566 703 -566 703 -564 702 C-563.64 700.34 -563.31 698.67 -563 697 C-561.94 694.69 -561.94 694.69 -561 693 C-560.34 693 -559.68 693 -559 693 C-558.94 689.08 -558.91 685.17 -558.88 681.25 C-558.86 680.14 -558.84 679.03 -558.82 677.88 C-558.82 676.81 -558.81 675.74 -558.8 674.64 C-558.79 673.66 -558.78 672.67 -558.77 671.66 C-559.01 668.91 -559.71 667.4 -561 665 C-561 664.01 -561 663.02 -561 662 C-561.66 661.67 -562.32 661.34 -563 661 C-563.97 659.2 -564.88 657.36 -565.75 655.5 C-568.07 650.73 -570.63 646.41 -573.64 642.05 C-574.87 640.2 -575.86 638.38 -576.81 636.38 C-579.07 631.63 -581.84 627.21 -584.57 622.73 C-587.46 617.96 -590.15 613.12 -592.71 608.17 C-593.95 606.08 -595.28 604.7 -597 603 C-597.69 601.01 -598.36 599.01 -599 597 C-599.99 595.33 -600.99 593.66 -602 592 C-602 591.34 -602 590.68 -602 590 C-602.66 590 -603.32 590 -604 590 C-604.45 589.07 -604.45 589.07 -604.92 588.13 C-607.11 583.7 -609.34 579.29 -611.69 574.94 C-612.08 574.2 -612.48 573.47 -612.89 572.71 C-613.9 570.84 -613.9 570.84 -616 570 C-616.35 568.67 -616.68 567.34 -617 566 C-617.81 564.44 -618.67 562.89 -619.56 561.38 C-622 557.22 -622 557.22 -622 555 C-622.66 554.67 -623.32 554.34 -624 554 C-625.05 552.02 -626.05 550.03 -627 548 C-627.66 548 -628.32 548 -629 548 C-628.5 545.53 -628.5 545.53 -628 543 C-628.66 543 -629.32 543 -630 543 C-630.06 539.46 -630.09 535.92 -630.12 532.38 C-630.14 531.38 -630.16 530.38 -630.18 529.35 C-630.21 524.16 -630.1 519.85 -628 515 C-627.34 515 -626.68 515 -626 515 C-625.9 514.26 -625.8 513.53 -625.69 512.77 C-624.53 508.13 -621.67 504.99 -618 502 C-615.21 501.13 -612.96 501.1 -610 501 C-609.01 500.34 -608.02 499.68 -607 499 C-604.52 498.82 -602.16 498.75 -599.68 498.77 C-598.94 498.77 -598.2 498.77 -597.44 498.77 C-594.98 498.77 -592.53 498.79 -590.08 498.8 C-588.38 498.81 -586.68 498.81 -584.98 498.81 C-580.51 498.82 -576.04 498.84 -571.56 498.86 C-567 498.88 -562.43 498.89 -557.87 498.9 C-548.91 498.92 -539.96 498.96 -531 499 C-531 497.74 -531 496.48 -531 495.18 C-531.02 465.31 -531.04 435.44 -531.05 405.57 C-531.05 401.89 -531.05 398.22 -531.05 394.54 C-531.06 393.81 -531.06 393.08 -531.06 392.33 C-531.06 380.47 -531.07 368.62 -531.08 356.77 C-531.09 344.61 -531.09 332.45 -531.09 320.29 C-531.1 312.78 -531.1 305.28 -531.11 297.77 C-531.11 292.02 -531.11 286.27 -531.11 280.52 C-531.11 278.16 -531.12 275.8 -531.12 273.43 C-531.12 270.22 -531.12 267 -531.12 263.78 C-531.12 262.84 -531.13 261.9 -531.13 260.93 C-531.13 260.07 -531.13 259.21 -531.12 258.32 C-531.12 257.58 -531.12 256.83 -531.12 256.07 C-531 253.94 -530.58 252.05 -530 250 C-529.34 250 -528.68 250 -528 250 C-527.9 249.4 -527.79 248.8 -527.69 248.19 C-526.89 245.64 -526.1 244.63 -524 243 C-521.81 242.31 -521.81 242.31 -520 242 C-520 241.34 -520 240.68 -520 240 C-513.35 238.37 -506.88 237.49 -500.06 236.94 C-498.2 236.78 -496.34 236.63 -494.47 236.46 C-493.25 236.37 -493.25 236.37 -492.01 236.27 C-489.93 236.1 -489.93 236.1 -488 235 C-486.49 234.79 -484.98 234.63 -483.46 234.5 C-482.57 234.42 -481.68 234.34 -480.76 234.25 C-478.88 234.08 -476.99 233.92 -475.1 233.75 C-474.21 233.67 -473.32 233.59 -472.4 233.5 C-471.58 233.43 -470.76 233.36 -469.92 233.28 C-468 233.19 -468 233.19 -467 232 C-463.38 231.67 -459.76 231.49 -456.12 231.28 C-453.14 231.35 -453.14 231.35 -452 230 C-448.58 229.52 -445.16 229.13 -441.73 228.75 C-438.06 228.64 -438.06 228.64 -435 227 C-432.42 226.68 -429.84 226.49 -427.25 226.28 C-425.03 226.24 -425.03 226.24 -424 225 C-421.86 224.58 -419.71 224.21 -417.56 223.88 C-416.39 223.69 -415.21 223.5 -414 223.3 C-411 223 -411 223 -409 224 C-409 223.34 -409 222.68 -409 222 C-408.43 221.95 -407.86 221.9 -407.28 221.85 C-401.44 221.29 -396.02 220.35 -390.62 217.94 C-388.17 217.06 -386.32 216.78 -383.75 216.56 C-378.21 216.05 -372.98 214.49 -368 212 C-365.33 211.87 -362.68 211.96 -360 212 C-360 211.34 -360 210.68 -360 210 C-359.36 209.87 -358.72 209.73 -358.07 209.6 C-356.83 209.33 -356.83 209.33 -355.56 209.06 C-354.74 208.89 -353.92 208.71 -353.07 208.54 C-351.02 208.19 -351.02 208.19 -350 207 C-349.01 206.9 -348.02 206.79 -347 206.69 C-343.95 206.3 -341.58 205.45 -338.81 204.12 C-334.32 202 -329.82 200.91 -324.99 199.79 C-321.25 198.8 -317.79 197.4 -314.24 195.91 C-311.23 194.69 -308.13 193.87 -305 193 C-301.02 191.62 -297.14 190.07 -293.31 188.31 C-290.2 187.08 -288.29 186.7 -285 187 C-285 186.34 -285 185.68 -285 185 C-283.59 184.49 -282.17 183.99 -280.75 183.5 C-279.96 183.22 -279.17 182.94 -278.36 182.66 C-276 182 -276 182 -272 182 C-272 181.34 -272 180.68 -272 180 C-270.68 180 -269.36 180 -268 180 C-268 179.34 -268 178.68 -268 178 C-265.36 177.67 -262.72 177.34 -260 177 C-260 176.34 -260 175.68 -260 175 C-259.3 174.76 -258.6 174.52 -257.88 174.27 C-253.3 172.65 -248.86 171.02 -244.56 168.75 C-241 167 -241 167 -237 167 C-237 166.34 -237 165.68 -237 165 C-233.68 163.58 -230.56 162.61 -227 162 C-227 161.34 -227 160.68 -227 160 C-223.7 159.01 -220.4 158.02 -217 157 C-217 156.34 -217 155.68 -217 155 C-213.68 153.58 -210.56 152.61 -207 152 C-207 151.34 -207 150.68 -207 150 C-203.68 148.58 -200.56 147.61 -197 147 C-197 146.34 -197 145.68 -197 145 C-193.68 143.58 -190.56 142.61 -187 142 C-187 141.34 -187 140.68 -187 140 C-185.38 138.93 -183.69 137.95 -182 137 C-179.99 135.67 -177.97 134.33 -175.96 132.99 C-174 132 -174 132 -170 132 C-170 131.34 -170 130.68 -170 130 C-169.2 129.63 -168.39 129.26 -167.56 128.88 C-163.87 127.05 -160.59 124.7 -157.25 122.3 C-154.81 120.89 -152.77 120.4 -150 120 C-150 119.34 -150 118.68 -150 118 C-148.35 117.67 -146.7 117.34 -145 117 C-145 116.34 -145 115.68 -145 115 C-144.09 114.57 -143.19 114.13 -142.25 113.69 C-138.64 111.81 -135.86 109.86 -133 107 C-132.01 107 -131.02 107 -130 107 C-129.66 106.04 -129.66 106.04 -129.31 105.06 C-128 103 -128 103 -125.38 102.25 C-124.59 102.17 -123.81 102.08 -123 102 C-123 101.34 -123 100.68 -123 100 C-120.09 97.96 -118.6 97 -115 97 C-114.77 96.36 -114.55 95.72 -114.31 95.06 C-113 93 -113 93 -110.38 92.25 C-109.59 92.17 -108.81 92.08 -108 92 C-108 91.34 -108 90.68 -108 90 C-104.89 86.45 -102.38 84.61 -98 83 C-97.48 82.48 -96.97 81.97 -96.44 81.44 C-95 80 -95 80 -93.12 79.62 C-89.89 78.67 -88.25 76.43 -86 74 C-85.34 73.34 -84.68 72.68 -84 72 C-82.68 72 -81.36 72 -80 72 C-79.74 71.41 -79.48 70.81 -79.21 70.2 C-77.91 67.84 -76.61 66.49 -74.56 64.75 C-73.97 64.23 -73.37 63.71 -72.75 63.17 C-71 62 -71 62 -68 62 C-67.63 61.11 -67.63 61.11 -67.25 60.2 C-65.8 57.65 -64.34 56.54 -61.94 54.88 C-58.95 52.89 -58.95 52.89 -57 50 C-56.3 49.61 -55.6 49.22 -54.88 48.82 C-50.3 45.93 -46.87 41.92 -43.17 38.01 C-39.91 34.64 -37.5 32.57 -33 31 C-31.24 29.39 -31.24 29.39 -29.75 27.44 C-25.78 22.66 -21.42 18.36 -17 14 C-16.11 13.09 -15.23 12.19 -14.31 11.25 C-9.93 6.99 -6.06 3.41 0 2 C0 1.34 0 0.68 0 0 Z M410 957 C410 957.99 410 958.98 410 960 C410.66 959.67 411.32 959.34 412 959 C412 958.34 412 957.68 412 957 C411.34 957 410.68 957 410 957 Z M400 972 C400 972.99 400 973.98 400 975 C400.66 974.67 401.32 974.34 402 974 C402 973.34 402 972.68 402 972 C401.34 972 400.68 972 400 972 Z M361 1024 C361 1024.66 361 1025.32 361 1026 C361.66 1025.67 362.32 1025.34 363 1025 C362.34 1024.67 361.68 1024.34 361 1024 Z M143 1214 C143.33 1214.66 143.66 1215.32 144 1216 C144.66 1215.34 145.32 1214.68 146 1214 C145.01 1214 144.02 1214 143 1214 Z M40 1267 C44 1268 44 1268 44 1268 Z " fill="#F8AA00" transform="translate(630,0)"/>
<path d="M0 0 C6.27 0 12.54 0 19 0 C19.33 0.66 19.66 1.32 20 2 C20.73 2.42 21.45 2.84 22.2 3.27 C25.54 5.33 28.1 7.89 30.82 10.69 C31.35 11.24 31.89 11.78 32.45 12.35 C34.16 14.08 35.86 15.82 37.56 17.56 C39.81 19.86 42.06 22.15 44.32 24.44 C44.83 24.97 45.34 25.5 45.86 26.04 C48.41 28.62 50.65 30.6 54 32 C56.25 33.5 56.25 33.5 58 35 C58 35.66 58 36.32 58 37 C58.56 37.25 59.11 37.49 59.69 37.75 C63.5 39.81 66.49 42.47 69.5 45.56 C71.85 48.05 71.85 48.05 74.56 49.5 C77.43 51.27 78.91 53.38 81 56 C82.66 57.02 84.32 58.02 86 59 C86 59.66 86 60.32 86 61 C86.72 61.24 87.45 61.48 88.19 61.73 C91.4 63.18 93.39 64.95 95.94 67.38 C99.47 70.65 102.93 73.4 107 76 C108.49 77.16 109.96 78.32 111.44 79.5 C114.16 81.66 116.81 83.55 119.88 85.19 C122.98 86.99 123.92 88.23 126 91 C128.32 92.42 130.6 93.73 133 95 C135.62 96.5 137.96 97.97 140.3 99.87 C143.84 102.67 147.63 104.95 151.48 107.32 C153.63 108.75 155.21 110.16 157 112 C158.99 113.02 160.99 114.02 163 115 C168.87 118.48 174.54 122.28 180.12 126.19 C182.57 127.73 184.19 128.57 187 129 C187 129.66 187 130.32 187 131 C187.76 131.21 188.53 131.41 189.31 131.62 C195.44 133.91 201.08 137.23 206.66 140.62 C209.04 142.03 211.41 143.04 214 144 C214 144.66 214 145.32 214 146 C215.07 146.29 216.14 146.58 217.25 146.88 C220.11 147.73 222.42 148.57 225 150 C225.66 150.33 226.32 150.66 227 151 C227.99 151.66 228.98 152.32 230 153 C233.23 154.51 236.47 155.99 239.73 157.43 C244.89 159.78 244.89 159.78 246 162 C247.65 162.39 249.32 162.72 251 163 C251.99 163.33 252.98 163.66 254 164 C254 164.66 254 165.32 254 166 C255.01 166.27 256.02 166.54 257.06 166.81 C260.86 167.89 264.39 169.4 268 171 C268.85 171.33 269.69 171.66 270.56 172 C273 173 273 173 275.94 174.5 C278.9 176.03 278.9 176.03 281.77 176.92 C285.18 178.06 288.47 179.39 291.79 180.79 C293.07 181.32 294.36 181.86 295.64 182.39 C297.64 183.23 299.64 184.07 301.64 184.91 C303.58 185.72 305.53 186.54 307.48 187.35 C308.63 187.83 309.79 188.32 310.98 188.82 C313.35 189.74 315.54 190.44 318 191 C320.01 191.77 322.01 192.57 324 193.38 C329.34 195.46 334.61 196.96 340.19 198.26 C342.82 198.95 345.19 199.82 347.69 200.88 C358.12 205.25 369.28 207.89 380.26 210.55 C384.42 211.57 388.49 212.75 392.56 214.06 C398.35 215.89 404.15 217.09 410.11 218.21 C414.16 219.03 418.13 220.02 422.12 221.06 C433.42 223.99 433.42 223.99 445 225 C445 225.66 445 226.32 445 227 C445.97 226.97 446.93 226.94 447.93 226.91 C452.41 226.92 456.71 227.63 461.12 228.38 C462.83 228.65 464.54 228.93 466.25 229.21 C467.83 229.47 469.42 229.74 471 230 C480.62 231.58 490.27 232.81 499.95 233.95 C501.47 234.13 501.47 234.13 503.01 234.32 C503.92 234.42 504.84 234.53 505.78 234.64 C508 235 508 235 510 236 C512.88 236.37 515.74 236.7 518.62 237 C520.98 237.25 523.34 237.5 525.7 237.75 C527.22 237.92 528.74 238.07 530.26 238.22 C537.82 239.04 541.93 242.51 547 248 C593.6 317.9 549.66 415.99 550 500 C193.6 500 -162.8 500 -530 500 C-531.14 497.72 -531.13 496.48 -531.13 493.95 C-531.13 493.1 -531.13 492.25 -531.13 491.37 C-531.13 490.43 -531.13 489.49 -531.13 488.52 C-531.13 487.53 -531.13 486.53 -531.13 485.51 C-531.14 482.15 -531.13 478.79 -531.13 475.44 C-531.13 473.04 -531.13 470.64 -531.13 468.24 C-531.14 462.4 -531.14 456.55 -531.14 450.7 C-531.13 445.94 -531.13 441.19 -531.13 436.43 C-531.13 435.76 -531.13 435.08 -531.13 434.39 C-531.13 433.01 -531.13 431.64 -531.14 430.27 C-531.14 417.38 -531.13 404.5 -531.13 391.62 C-531.12 380.56 -531.13 369.5 -531.13 358.44 C-531.14 345.61 -531.14 332.77 -531.13 319.94 C-531.13 318.57 -531.13 317.2 -531.13 315.83 C-531.13 315.16 -531.13 314.49 -531.13 313.79 C-531.13 309.05 -531.13 304.3 -531.14 299.55 C-531.14 293.16 -531.14 286.77 -531.13 280.38 C-531.13 278.03 -531.13 275.68 -531.13 273.33 C-531.14 270.13 -531.13 266.93 -531.13 263.73 C-531.13 262.33 -531.13 262.33 -531.13 260.89 C-531.13 260.04 -531.13 259.18 -531.13 258.3 C-531.13 257.56 -531.13 256.82 -531.13 256.06 C-531 253.93 -530.58 252.05 -530 250 C-529.34 250 -528.68 250 -528 250 C-527.9 249.4 -527.79 248.8 -527.69 248.19 C-526.89 245.64 -526.1 244.63 -524 243 C-521.81 242.31 -521.81 242.31 -520 242 C-520 241.34 -520 240.68 -520 240 C-513.35 238.37 -506.88 237.49 -500.06 236.94 C-498.2 236.78 -496.34 236.63 -494.47 236.46 C-493.25 236.37 -493.25 236.37 -492.01 236.27 C-489.93 236.1 -489.93 236.1 -488 235 C-486.49 234.79 -484.98 234.63 -483.46 234.5 C-482.57 234.42 -481.68 234.34 -480.76 234.25 C-478.88 234.08 -476.99 233.92 -475.1 233.75 C-474.21 233.67 -473.32 233.59 -472.4 233.5 C-471.58 233.43 -470.76 233.36 -469.92 233.28 C-468 233.19 -468 233.19 -467 232 C-463.38 231.67 -459.76 231.49 -456.12 231.28 C-453.14 231.35 -453.14 231.35 -452 230 C-448.58 229.52 -445.16 229.13 -441.73 228.75 C-438.06 228.64 -438.06 228.64 -435 227 C-432.42 226.68 -429.84 226.49 -427.25 226.28 C-425.03 226.24 -425.03 226.24 -424 225 C-421.86 224.58 -419.71 224.21 -417.56 223.88 C-415.8 223.59 -415.8 223.59 -414 223.3 C-411 223 -411 223 -409 224 C-409 223.34 -409 222.68 -409 222 C-408.43 221.95 -407.86 221.9 -407.28 221.85 C-401.44 221.29 -396.02 220.35 -390.62 217.94 C-388.17 217.06 -386.32 216.78 -383.75 216.56 C-378.21 216.05 -372.98 214.49 -368 212 C-365.33 211.87 -362.68 211.96 -360 212 C-360 211.34 -360 210.68 -360 210 C-359.36 209.87 -358.72 209.73 -358.07 209.6 C-356.83 209.33 -356.83 209.33 -355.56 209.06 C-354.74 208.89 -353.92 208.71 -353.07 208.54 C-351.02 208.19 -351.02 208.19 -350 207 C-348.51 206.85 -348.51 206.85 -347 206.69 C-343.95 206.3 -341.58 205.45 -338.81 204.12 C-334.32 202 -329.82 200.91 -324.99 199.79 C-321.25 198.8 -317.79 197.4 -314.24 195.91 C-311.23 194.69 -308.13 193.87 -305 193 C-301.02 191.62 -297.14 190.07 -293.31 188.31 C-290.2 187.08 -288.29 186.7 -285 187 C-285 186.34 -285 185.68 -285 185 C-283.59 184.49 -282.17 183.99 -280.75 183.5 C-279.57 183.08 -279.57 183.08 -278.36 182.66 C-276 182 -276 182 -272 182 C-272 181.34 -272 180.68 -272 180 C-270.68 180 -269.36 180 -268 180 C-268 179.34 -268 178.68 -268 178 C-265.36 177.67 -262.72 177.34 -260 177 C-260 176.34 -260 175.68 -260 175 C-259.3 174.76 -258.6 174.52 -257.88 174.27 C-253.3 172.65 -248.86 171.02 -244.56 168.75 C-241 167 -241 167 -237 167 C-237 166.34 -237 165.68 -237 165 C-233.68 163.58 -230.56 162.61 -227 162 C-227 161.34 -227 160.68 -227 160 C-223.7 159.01 -220.4 158.02 -217 157 C-217 156.34 -217 155.68 -217 155 C-213.68 153.58 -210.56 152.61 -207 152 C-207 151.34 -207 150.68 -207 150 C-203.68 148.58 -200.56 147.61 -197 147 C-197 146.34 -197 145.68 -197 145 C-193.68 143.58 -190.56 142.61 -187 142 C-187 141.34 -187 140.68 -187 140 C-185.38 138.93 -183.69 137.95 -182 137 C-179.99 135.67 -177.97 134.33 -175.96 132.99 C-174 132 -174 132 -170 132 C-170 131.34 -170 130.68 -170 130 C-169.2 129.63 -168.39 129.26 -167.56 128.88 C-163.87 127.05 -160.59 124.7 -157.25 122.3 C-154.81 120.89 -152.77 120.4 -150 120 C-150 119.34 -150 118.68 -150 118 C-148.35 117.67 -146.7 117.34 -145 117 C-145 116.34 -145 115.68 -145 115 C-144.09 114.57 -143.19 114.13 -142.25 113.69 C-138.64 111.81 -135.86 109.86 -133 107 C-132.01 107 -131.02 107 -130 107 C-129.66 106.04 -129.66 106.04 -129.31 105.06 C-128 103 -128 103 -125.38 102.25 C-124.59 102.17 -123.81 102.08 -123 102 C-123 101.34 -123 100.68 -123 100 C-120.09 97.96 -118.6 97 -115 97 C-114.66 96.04 -114.66 96.04 -114.31 95.06 C-113 93 -113 93 -110.38 92.25 C-109.59 92.17 -108.81 92.08 -108 92 C-108 91.34 -108 90.68 -108 90 C-104.89 86.45 -102.38 84.61 -98 83 C-97.48 82.48 -96.97 81.97 -96.44 81.44 C-95 80 -95 80 -93.12 79.62 C-89.89 78.67 -88.25 76.43 -86 74 C-85.34 73.34 -84.68 72.68 -84 72 C-82.68 72 -81.36 72 -80 72 C-79.61 71.11 -79.61 71.11 -79.21 70.2 C-77.91 67.84 -76.61 66.49 -74.56 64.75 C-73.97 64.23 -73.37 63.71 -72.75 63.17 C-71 62 -71 62 -68 62 C-67.63 61.11 -67.63 61.11 -67.25 60.2 C-65.8 57.65 -64.34 56.54 -61.94 54.88 C-58.95 52.89 -58.95 52.89 -57 50 C-56.3 49.61 -55.6 49.22 -54.88 48.82 C-50.3 45.93 -46.87 41.92 -43.17 38.01 C-39.91 34.64 -37.5 32.57 -33 31 C-31.24 29.39 -31.24 29.39 -29.75 27.44 C-25.78 22.66 -21.42 18.36 -17 14 C-16.11 13.09 -15.23 12.19 -14.31 11.25 C-9.93 6.99 -6.06 3.41 0 2 C0 1.34 0 0.68 0 0 Z " fill="#93E8E5" transform="translate(630,0)"/>
<path d="M0 0 C303.6 0 607.2 0 920 0 C919.34 0.33 918.68 0.66 918 1 C917.27 2.98 916.6 4.98 916 7 C915.34 7 914.68 7 914 7 C913.88 7.72 913.75 8.44 913.62 9.19 C913.01 11.96 912.12 14.4 911 17 C910.34 17 909.68 17 909 17 C908.88 17.72 908.75 18.44 908.62 19.19 C908.01 21.96 907.12 24.4 906 27 C905.34 27 904.68 27 904 27 C903.9 27.7 903.79 28.4 903.69 29.12 C902.53 33.97 900.58 37.58 897 41 C896.67 41.99 896.34 42.98 896 44 C895.34 44 894.68 44 894 44 C894.12 45.08 894.12 45.08 894.25 46.19 C893.92 49.85 892.34 51.23 890 54 C889.22 56.18 889.22 56.18 889 58 C887.68 57.67 886.36 57.34 885 57 C885 57.99 885 58.98 885 60 C885.66 60.33 886.32 60.66 887 61 C886.24 62.17 885.47 63.34 884.69 64.5 C884.26 65.15 883.83 65.8 883.39 66.47 C882.93 66.97 882.47 67.48 882 68 C881.01 68 880.02 68 879 68 C879 68.66 879 69.32 879 70 C878.34 70 877.68 70 877 70 C877.59 70.84 877.59 70.84 878.19 71.69 C879 74 879 74 877.75 76.75 C877.17 77.49 876.6 78.24 876 79 C875.34 79 874.68 79 874 79 C873.92 79.95 873.84 80.9 873.75 81.88 C873.5 82.91 873.26 83.94 873 85 C871 86.12 871 86.12 869 87 C868.19 89.05 868.19 89.05 868 91 C867.01 90.34 866.02 89.68 865 89 C865 89.99 865 90.98 865 92 C865.66 92 866.32 92 867 92 C867 92.66 867 93.32 867 94 C866.01 94 865.02 94 864 94 C863.98 94.8 863.96 95.61 863.94 96.44 C862.6 101.52 859.62 105.23 856 109 C855.34 109 854.68 109 854 109 C853.92 109.95 853.84 110.9 853.75 111.88 C853.5 112.91 853.26 113.94 853 115 C851.68 115.7 850.35 116.37 849 117 C848.19 119.56 848.19 119.56 848 122 C847.01 122 846.02 122 845 122 C843.85 122.97 843.85 122.97 843.62 124.69 C842.11 130.3 839.07 134.93 835 139 C835 138.34 835 137.68 835 137 C833.51 137.99 833.51 137.99 832 139 C832.66 139.66 833.32 140.32 834 141 C832.68 141.99 831.36 142.98 830 144 C829.67 143.67 829.34 143.34 829 143 C828.81 143.84 828.81 143.84 828.62 144.69 C827.94 147.22 827.01 149.58 826 152 C825.67 151.34 825.34 150.68 825 150 C823.35 150.66 821.7 151.32 820 152 C820 152.99 820 153.98 820 155 C820.66 155.33 821.32 155.66 822 156 C819.08 159.99 816.14 163.91 812.88 167.62 C810.28 170.6 808.11 173.67 806 177 C805.67 176.34 805.34 175.68 805 175 C804.01 175 803.02 175 802 175 C802 175.66 802 176.32 802 177 C801.34 177 800.68 177 800 177 C800.66 178.32 801.32 179.64 802 181 C799 181 799 181 797 180 C797 180.66 797 181.32 797 182 C796.34 182 795.68 182 795 182 C795 182.99 795 183.98 795 185 C795.66 185.33 796.32 185.66 797 186 C796.01 186.33 795.02 186.66 794 187 C793.97 187.68 793.94 188.37 793.91 189.07 C792.56 193.4 789.68 195.75 786.44 198.81 C785.82 199.41 785.21 200.01 784.57 200.62 C783.06 202.09 781.53 203.55 780 205 C779.67 204.34 779.34 203.68 779 203 C778.01 203.99 777.02 204.98 776 206 C776.66 206.33 777.32 206.66 778 207 C776.93 208.15 775.84 209.3 774.75 210.44 C773.85 211.39 773.85 211.39 772.92 212.37 C770.9 214.09 769.59 214.59 767 215 C767.66 215.33 768.32 215.66 769 216 C767.68 218.31 766.36 220.62 765 223 C764.34 223 763.68 223 763 223 C763 223.66 763 224.32 763 225 C760 226 760 226 757 225 C757 225.66 757 226.32 757 227 C756.34 227 755.68 227 755 227 C755 227.99 755 228.98 755 230 C755.66 230.33 756.32 230.66 757 231 C754 231 754 231 752 230 C751.67 231.32 751.34 232.64 751 234 C751.66 234.33 752.32 234.66 753 235 C752.01 235.33 751.02 235.66 750 236 C749.67 236.66 749.34 237.32 749 238 C749 237.34 749 236.68 749 236 C745.88 237.31 745.88 237.31 744 240 C744.66 240.33 745.32 240.66 746 241 C745.13 241.54 744.26 242.09 743.36 242.65 C739.93 244.94 737.05 247.7 734.16 250.64 C733.64 251.17 733.12 251.69 732.58 252.24 C730.92 253.9 729.27 255.58 727.62 257.25 C726.5 258.39 725.37 259.53 724.24 260.66 C721.49 263.44 718.74 266.22 716 269 C715.01 268.34 714.02 267.68 713 267 C712.67 267.99 712.34 268.98 712 270 C712.66 270.33 713.32 270.66 714 271 C712.02 271.99 710.04 272.98 708 274 C707.01 273.34 706.02 272.68 705 272 C705.66 273.32 706.32 274.64 707 276 C704 276 704 276 702 275 C702 275.66 702 276.32 702 277 C701.34 277 700.68 277 700 277 C700 277.66 700 278.32 700 279 C699.34 279 698.68 279 698 279 C698.66 280.32 699.32 281.64 700 283 C698.71 283.81 697.42 284.63 696.12 285.44 C695.41 285.89 694.69 286.34 693.95 286.81 C692 288 692 288 690 289 C690 288.34 690 287.68 690 287 C689.01 287.33 688.02 287.66 687 288 C687.33 289.32 687.66 290.64 688 292 C685.36 293.65 682.72 295.3 680 297 C680 296.34 680 295.68 680 295 C679.01 295 678.02 295 677 295 C676.67 296.65 676.34 298.3 676 300 C675.01 299.67 674.02 299.34 673 299 C673 299.99 673 300.98 673 302 C672.34 302 671.68 302 671 302 C671 302.99 671 303.98 671 305 C667.42 309.07 662.93 311.84 658 314 C657.01 313.34 656.02 312.68 655 312 C655 312.99 655 313.98 655 315 C655.66 315.33 656.32 315.66 657 316 C655.13 317.06 655.13 317.06 653 318 C652.34 317.67 651.68 317.34 651 317 C650.86 317.72 650.71 318.44 650.56 319.19 C648.19 323.47 644.3 324.92 640 327 C640 326.34 640 325.68 640 325 C639.01 325 638.02 325 637 325 C637 325.66 637 326.32 637 327 C637.66 327.66 638.32 328.32 639 329 C634.33 331.67 629.67 334.33 625 337 C625 336.34 625 335.68 625 335 C624.01 335 623.02 335 622 335 C621.79 335.9 621.57 336.81 621.35 337.74 C619.69 341.75 618.03 342.84 614.38 345.12 C613.3 345.8 612.23 346.48 611.12 347.18 C608.59 348.66 606.07 350.03 603.44 351.31 C600.12 352.71 600.12 352.71 598.45 354.56 C596.48 356.51 594.69 356.64 592 357 C591.67 357.99 591.34 358.98 591 360 C587.72 361.58 584.45 362.85 581 364 C580.67 364.66 580.34 365.32 580 366 C578.34 366.68 576.67 367.34 575 368 C572.67 369.52 570.43 371.13 568.18 372.76 C566 374 566 374 562 374 C562 374.66 562 375.32 562 376 C560.24 376.82 560.24 376.82 558.44 377.65 C550.32 381.45 542.27 385.31 534.38 389.56 C528.55 392.7 522.67 395.67 516.69 398.5 C515.62 399.01 515.62 399.01 514.53 399.53 C510.65 401.34 507.08 402.63 502.88 403.38 C500.61 403.92 500.61 403.92 499 407 C497.12 407.56 497.12 407.56 495 408 C493.67 408.66 492.36 409.35 491.06 410.06 C487.89 411.71 485.64 412.45 482 412 C482 412.66 482 413.32 482 414 C480.35 414 478.7 414 477 414 C477 414.66 477 415.32 477 416 C474.69 416.33 472.38 416.66 470 417 C469.67 417.99 469.34 418.98 469 420 C462.73 420 456.46 420 450 420 C449.67 419.01 449.34 418.02 449 417 C448.05 416.88 447.1 416.75 446.12 416.62 C443 416 443 416 441 414 C439.37 413.46 437.74 412.92 436.09 412.42 C431.01 410.84 426.43 408.81 421.75 406.28 C419.41 405.19 417.21 404.41 414.75 403.64 C409.85 402.05 405.5 399.79 401 397.31 C394.87 394.01 388.71 390.85 382.38 387.94 C372.49 383.37 362.82 378.36 353.38 372.93 C349.38 370.65 345.33 368.51 341.26 366.37 C339 365 339 365 338 363 C336.67 362.65 335.34 362.32 334 362 C332.04 360.91 332.04 360.91 330.06 359.62 C327.77 358.14 325.48 356.7 323.12 355.31 C321 354 321 354 319 352 C318.15 351.67 317.31 351.34 316.44 351 C314 350 314 350 313 348 C312.42 347.86 311.84 347.73 311.25 347.59 C308.34 346.83 306.48 345.39 304.06 343.62 C300.78 341.24 297.5 339.05 294 337 C291.83 335.69 289.66 334.38 287.5 333.06 C286.4 332.39 285.29 331.72 284.16 331.04 C281.26 329.17 278.67 327.16 276 325 C274.03 323.67 272.05 322.36 270.06 321.06 C265.03 317.73 260.53 314.31 256.08 310.25 C252.19 306.75 248.72 304.31 244 302 C242.31 300.36 240.65 298.69 239 297 C237.7 296 236.39 295.02 235.06 294.06 C232.42 292.14 230.12 290.19 227.88 287.81 C225.93 285.78 224.82 284.92 222.19 283.69 C218.08 281.51 215.4 278.53 212.25 275.16 C209.97 272.97 207.7 271.61 205 270 C203.46 268.59 201.96 267.13 200.5 265.62 C199.77 264.87 199.04 264.12 198.28 263.35 C197.15 262.19 197.15 262.19 196 261 C195.2 260.2 194.39 259.39 193.56 258.57 C191.79 256.79 190.03 254.99 188.28 253.18 C186.9 251.76 186.9 251.76 185.5 250.31 C185.04 249.83 184.58 249.34 184.11 248.84 C181.24 245.92 178.82 244.37 175 243 C173.88 240.94 173.88 240.94 173 239 C172.01 238.67 171.02 238.34 170 238 C168.31 236.56 168.31 236.56 167 235 C167 234.34 167 233.68 167 233 C166.36 232.73 165.72 232.46 165.06 232.19 C163 231 163 231 162 228 C161.34 228 160.68 228 160 228 C158.27 226.32 158.27 226.32 156.38 224.12 C155.74 223.41 155.11 222.69 154.46 221.95 C153 220 153 220 153 218 C152.01 217.67 151.02 217.34 150 217 C149.31 214.94 149.31 214.94 149 213 C148.01 213 147.02 213 146 213 C145.67 212.01 145.34 211.02 145 210 C143.38 208.29 141.7 206.63 140 205 C136.67 201.67 133.33 198.33 130 195 C129.31 194.33 128.62 193.66 127.91 192.97 C125.94 190.94 124.26 188.82 122.56 186.56 C119.92 183.11 117.13 180.04 114 177 C111 173.48 111 173.48 111 170 C110.41 169.76 109.82 169.51 109.21 169.26 C106.62 167.78 105.44 166.27 103.69 163.88 C101.33 160.71 98.91 157.73 96.25 154.81 C94.18 152.49 92.89 150.77 91.5 147.94 C89.74 144.49 87.55 142.4 84.72 139.81 C82.72 137.71 81.45 135.5 80 133 C78.83 131.36 77.64 129.74 76.44 128.12 C71.85 121.86 67.56 115.42 63.29 108.94 C62.02 107.02 60.74 105.11 59.46 103.2 C43.97 80.08 43.97 80.08 37.31 68.31 C36.88 67.55 36.44 66.78 35.99 65.99 C35 64 35 64 35 62 C34.01 61.67 33.02 61.34 32 61 C31.01 59.16 30.04 57.32 29.16 55.43 C27.9 52.8 26.53 50.25 25.12 47.69 C24.62 46.76 24.11 45.84 23.59 44.89 C22.5 42.9 21.39 40.91 20.28 38.92 C19.73 37.94 19.19 36.95 18.62 35.94 C17.87 34.59 17.87 34.59 17.1 33.21 C16 31 16 31 16 29 C15.34 29 14.68 29 14 29 C13.5 27.71 13 26.42 12.5 25.12 C12.22 24.41 11.94 23.69 11.66 22.95 C11 21 11 21 11 19 C10.34 19 9.68 19 9 19 C8.5 17.71 8 16.42 7.5 15.12 C7.22 14.41 6.94 13.69 6.66 12.95 C6 11 6 11 6 9 C5.34 9 4.68 9 4 9 C2 3.25 2 3.25 2 1 C1.34 0.67 0.68 0.34 0 0 Z M860 97 C860 97.99 860 98.98 860 100 C860.66 99.67 861.32 99.34 862 99 C862 98.34 862 97.68 862 97 C861.34 97 860.68 97 860 97 Z M850 112 C850 112.99 850 113.98 850 115 C850.66 114.67 851.32 114.34 852 114 C852 113.34 852 112.68 852 112 C851.34 112 850.68 112 850 112 Z M811 164 C811 164.66 811 165.32 811 166 C811.66 165.67 812.32 165.34 813 165 C812.34 164.67 811.68 164.34 811 164 Z M593 354 C593.33 354.66 593.66 355.32 594 356 C594.66 355.34 595.32 354.68 596 354 C595.01 354 594.02 354 593 354 Z M490 407 C494 408 494 408 494 408 Z " fill="#93E8E5" transform="translate(180,860)"/>
<path d="M0 0 C6.27 0 12.54 0 19 0 C19.33 0.66 19.66 1.32 20 2 C20.73 2.42 21.45 2.84 22.2 3.27 C25.54 5.33 28.1 7.89 30.82 10.69 C31.35 11.24 31.89 11.78 32.45 12.35 C34.16 14.08 35.86 15.82 37.56 17.56 C39.81 19.86 42.06 22.15 44.32 24.44 C44.83 24.97 45.34 25.5 45.86 26.04 C48.41 28.62 50.65 30.6 54 32 C56.25 33.5 56.25 33.5 58 35 C58 35.66 58 36.32 58 37 C58.56 37.25 59.11 37.49 59.69 37.75 C63.5 39.81 66.49 42.47 69.5 45.56 C71.85 48.05 71.85 48.05 74.56 49.5 C77.43 51.27 78.91 53.38 81 56 C82.66 57.02 84.32 58.02 86 59 C86 59.66 86 60.32 86 61 C86.72 61.24 87.45 61.48 88.19 61.73 C91.4 63.18 93.39 64.95 95.94 67.38 C99.47 70.65 102.93 73.4 107 76 C108.49 77.16 109.96 78.32 111.44 79.5 C114.16 81.66 116.81 83.55 119.88 85.19 C122.98 86.99 123.92 88.23 126 91 C128.32 92.42 130.6 93.73 133 95 C135.62 96.5 137.96 97.97 140.3 99.87 C143.84 102.67 147.63 104.95 151.48 107.32 C153.63 108.75 155.21 110.16 157 112 C158.99 113.02 160.99 114.02 163 115 C168.87 118.48 174.54 122.28 180.12 126.19 C182.57 127.73 184.19 128.57 187 129 C187 129.66 187 130.32 187 131 C187.76 131.21 188.53 131.41 189.31 131.62 C195.44 133.91 201.08 137.23 206.66 140.62 C209.04 142.03 211.41 143.04 214 144 C214 144.66 214 145.32 214 146 C215.07 146.29 216.14 146.58 217.25 146.88 C220.11 147.73 222.42 148.57 225 150 C225.66 150.33 226.32 150.66 227 151 C227.99 151.66 228.98 152.32 230 153 C233.23 154.51 236.47 155.99 239.73 157.43 C244.89 159.78 244.89 159.78 246 162 C247.65 162.39 249.32 162.72 251 163 C251.99 163.33 252.98 163.66 254 164 C254 164.66 254 165.32 254 166 C255.01 166.27 256.02 166.54 257.06 166.81 C260.86 167.89 264.39 169.4 268 171 C268.85 171.33 269.69 171.66 270.56 172 C273 173 273 173 275.94 174.5 C278.9 176.03 278.9 176.03 281.77 176.92 C285.18 178.06 288.47 179.39 291.79 180.79 C293.07 181.32 294.36 181.86 295.64 182.39 C297.64 183.23 299.64 184.07 301.64 184.91 C303.58 185.72 305.53 186.54 307.48 187.35 C308.63 187.83 309.79 188.32 310.98 188.82 C313.35 189.74 315.54 190.44 318 191 C320.01 191.77 322.01 192.57 324 193.38 C329.34 195.46 334.61 196.96 340.19 198.26 C342.82 198.95 345.19 199.82 347.69 200.88 C358.12 205.25 369.28 207.89 380.26 210.55 C384.42 211.57 388.49 212.75 392.56 214.06 C398.35 215.89 404.15 217.09 410.11 218.21 C414.16 219.03 418.13 220.02 422.12 221.06 C433.42 223.99 433.42 223.99 445 225 C445 225.66 445 226.32 445 227 C445.97 226.97 446.93 226.94 447.93 226.91 C452.41 226.92 456.71 227.63 461.12 228.38 C462.83 228.65 464.54 228.93 466.25 229.21 C467.83 229.47 469.42 229.74 471 230 C480.62 231.58 490.27 232.81 499.95 233.95 C501.47 234.13 501.47 234.13 503.01 234.32 C503.92 234.42 504.84 234.53 505.78 234.64 C508 235 508 235 510 236 C512.88 236.37 515.74 236.7 518.62 237 C520.98 237.25 523.34 237.5 525.7 237.75 C527.22 237.92 528.74 238.07 530.26 238.22 C537.82 239.04 541.93 242.51 547 248 C593.6 317.9 549.66 415.99 550 500 C193.6 500 -162.8 500 -530 500 C-531.14 497.72 -531.13 496.48 -531.13 493.95 C-531.13 493.1 -531.13 492.25 -531.13 491.37 C-531.13 490.43 -531.13 489.49 -531.13 488.52 C-531.13 487.53 -531.13 486.53 -531.13 485.51 C-531.14 482.15 -531.13 478.79 -531.13 475.44 C-531.13 473.04 -531.13 470.64 -531.13 468.24 C-531.14 462.4 -531.14 456.55 -531.14 450.7 C-531.13 445.94 -531.13 441.19 -531.13 436.43 C-531.13 435.76 -531.13 435.08 -531.13 434.39 C-531.13 433.01 -531.13 431.64 -531.14 430.27 C-531.14 417.38 -531.13 404.5 -531.13 391.62 C-531.12 380.56 -531.13 369.5 -531.13 358.44 C-531.14 345.61 -531.14 332.77 -531.13 319.94 C-531.13 318.57 -531.13 317.2 -531.13 315.83 C-531.13 315.16 -531.13 314.49 -531.13 313.79 C-531.13 309.05 -531.13 304.3 -531.14 299.55 C-531.14 293.16 -531.14 286.77 -531.13 280.38 C-531.13 278.03 -531.13 275.68 -531.13 273.33 C-531.14 270.13 -531.13 266.93 -531.13 263.73 C-531.13 262.33 -531.13 262.33 -531.13 260.89 C-531.13 260.04 -531.13 259.18 -531.13 258.3 C-531.13 257.56 -531.13 256.82 -531.13 256.06 C-531 253.93 -530.58 252.05 -530 250 C-529.34 250 -528.68 250 -528 250 C-527.9 249.4 -527.79 248.8 -527.69 248.19 C-526.89 245.64 -526.1 244.63 -524 243 C-521.81 242.31 -521.81 242.31 -520 242 C-520 241.34 -520 240.68 -520 240 C-513.35 238.37 -506.88 237.49 -500.06 236.94 C-498.2 236.78 -496.34 236.63 -494.47 236.46 C-493.25 236.37 -493.25 236.37 -492.01 236.27 C-489.93 236.1 -489.93 236.1 -488 235 C-486.49 234.79 -484.98 234.63 -483.46 234.5 C-482.57 234.42 -481.68 234.34 -480.76 234.25 C-478.88 234.08 -476.99 233.92 -475.1 233.75 C-474.21 233.67 -473.32 233.59 -472.4 233.5 C-471.58 233.43 -470.76 233.36 -469.92 233.28 C-468 233.19 -468 233.19 -467 232 C-463.38 231.67 -459.76 231.49 -456.12 231.28 C-453.14 231.35 -453.14 231.35 -452 230 C-448.58 229.52 -445.16 229.13 -441.73 228.75 C-438.06 228.64 -438.06 228.64 -435 227 C-432.42 226.68 -429.84 226.49 -427.25 226.28 C-425.03 226.24 -425.03 226.24 -424 225 C-421.86 224.58 -419.71 224.21 -417.56 223.88 C-415.8 223.59 -415.8 223.59 -414 223.3 C-411 223 -411 223 -409 224 C-409 223.34 -409 222.68 -409 222 C-408.43 221.95 -407.86 221.9 -407.28 221.85 C-401.44 221.29 -396.02 220.35 -390.62 217.94 C-388.17 217.06 -386.32 216.78 -383.75 216.56 C-378.21 216.05 -372.98 214.49 -368 212 C-365.33 211.87 -362.68 211.96 -360 212 C-360 211.34 -360 210.68 -360 210 C-359.36 209.87 -358.72 209.73 -358.07 209.6 C-356.83 209.33 -356.83 209.33 -355.56 209.06 C-354.74 208.89 -353.92 208.71 -353.07 208.54 C-351.02 208.19 -351.02 208.19 -350 207 C-348.51 206.85 -348.51 206.85 -347 206.69 C-343.95 206.3 -341.58 205.45 -338.81 204.12 C-334.32 202 -329.82 200.91 -324.99 199.79 C-321.25 198.8 -317.79 197.4 -314.24 195.91 C-311.23 194.69 -308.13 193.87 -305 193 C-301.02 191.62 -297.14 190.07 -293.31 188.31 C-290.2 187.08 -288.29 186.7 -285 187 C-285 186.34 -285 185.68 -285 185 C-283.59 184.49 -282.17 183.99 -280.75 183.5 C-279.57 183.08 -279.57 183.08 -278.36 182.66 C-276 182 -276 182 -272 182 C-272 181.34 -272 180.68 -272 180 C-270.68 180 -269.36 180 -268 180 C-268 179.34 -268 178.68 -268 178 C-265.36 177.67 -262.72 177.34 -260 177 C-260 176.34 -260 175.68 -260 175 C-259.3 174.76 -258.6 174.52 -257.88 174.27 C-253.3 172.65 -248.86 171.02 -244.56 168.75 C-241 167 -241 167 -237 167 C-237 166.34 -237 165.68 -237 165 C-233.68 163.58 -230.56 162.61 -227 162 C-227 161.34 -227 160.68 -227 160 C-223.7 159.01 -220.4 158.02 -217 157 C-217 156.34 -217 155.68 -217 155 C-213.68 153.58 -210.56 152.61 -207 152 C-207 151.34 -207 150.68 -207 150 C-203.68 148.58 -200.56 147.61 -197 147 C-197 146.34 -197 145.68 -197 145 C-193.68 143.58 -190.56 142.61 -187 142 C-187 141.34 -187 140.68 -187 140 C-185.38 138.93 -183.69 137.95 -182 137 C-179.99 135.67 -177.97 134.33 -175.96 132.99 C-174 132 -174 132 -170 132 C-170 131.34 -170 130.68 -170 130 C-169.2 129.63 -168.39 129.26 -167.56 128.88 C-163.87 127.05 -160.59 124.7 -157.25 122.3 C-154.81 120.89 -152.77 120.4 -150 120 C-150 119.34 -150 118.68 -150 118 C-148.35 117.67 -146.7 117.34 -145 117 C-145 116.34 -145 115.68 -145 115 C-144.09 114.57 -143.19 114.13 -142.25 113.69 C-138.64 111.81 -135.86 109.86 -133 107 C-132.01 107 -131.02 107 -130 107 C-129.66 106.04 -129.66 106.04 -129.31 105.06 C-128 103 -128 103 -125.38 102.25 C-124.59 102.17 -123.81 102.08 -123 102 C-123 101.34 -123 100.68 -123 100 C-120.09 97.96 -118.6 97 -115 97 C-114.66 96.04 -114.66 96.04 -114.31 95.06 C-113 93 -113 93 -110.38 92.25 C-109.59 92.17 -108.81 92.08 -108 92 C-108 91.34 -108 90.68 -108 90 C-104.89 86.45 -102.38 84.61 -98 83 C-97.48 82.48 -96.97 81.97 -96.44 81.44 C-95 80 -95 80 -93.12 79.62 C-89.89 78.67 -88.25 76.43 -86 74 C-85.34 73.34 -84.68 72.68 -84 72 C-82.68 72 -81.36 72 -80 72 C-79.61 71.11 -79.61 71.11 -79.21 70.2 C-77.91 67.84 -76.61 66.49 -74.56 64.75 C-73.97 64.23 -73.37 63.71 -72.75 63.17 C-71 62 -71 62 -68 62 C-67.63 61.11 -67.63 61.11 -67.25 60.2 C-65.8 57.65 -64.34 56.54 -61.94 54.88 C-58.95 52.89 -58.95 52.89 -57 50 C-56.3 49.61 -55.6 49.22 -54.88 48.82 C-50.3 45.93 -46.87 41.92 -43.17 38.01 C-39.91 34.64 -37.5 32.57 -33 31 C-31.24 29.39 -31.24 29.39 -29.75 27.44 C-25.78 22.66 -21.42 18.36 -17 14 C-16.11 13.09 -15.23 12.19 -14.31 11.25 C-9.93 6.99 -6.06 3.41 0 2 C0 1.34 0 0.68 0 0 Z M-3.19 58.62 C-4.33 59.7 -5.48 60.77 -6.63 61.84 C-7.2 62.37 -7.76 62.9 -8.35 63.45 C-15.1 69.77 -21.95 75.87 -29.15 81.68 C-31.6 83.67 -34 85.72 -36.38 87.78 C-44.04 94.39 -52.1 100.41 -60.21 106.43 C-64.04 109.28 -67.81 112.18 -71.56 115.12 C-79.77 121.47 -88.39 127.21 -97 133 C-97.74 133.5 -98.49 134.01 -99.25 134.52 C-126.37 152.84 -154.1 169.68 -183.24 184.58 C-186.34 186.17 -189.4 187.83 -192.46 189.49 C-224.06 206.61 -258.11 220.19 -292 232 C-292.65 232.23 -293.29 232.45 -293.96 232.68 C-316.05 240.42 -338.37 247.02 -361 253 C-362.86 253.49 -362.86 253.49 -364.76 254 C-399.53 263.17 -434.63 269.25 -470.25 273.97 C-471.79 274.17 -471.79 274.17 -473.36 274.38 C-475.17 274.62 -476.97 274.84 -478.77 275.06 C-482.78 275.57 -486.4 276.13 -490 278 C-491.48 280.97 -491.14 283.65 -491.16 286.96 C-491.16 287.68 -491.17 288.41 -491.17 289.16 C-491.19 291.6 -491.2 294.04 -491.21 296.48 C-491.21 298.22 -491.22 299.96 -491.24 301.71 C-491.26 306.45 -491.28 311.2 -491.3 315.94 C-491.33 320.9 -491.35 325.86 -491.38 330.81 C-491.43 340.2 -491.47 349.59 -491.52 358.98 C-491.57 369.66 -491.62 380.35 -491.68 391.04 C-491.79 413.02 -491.9 435.01 -492 457 C-502.89 457.33 -513.78 457.66 -525 458 C-525 458.33 -525 458.66 -525 459 C-499.2 459.82 -473.43 460.15 -447.62 460.12 C-442.51 460.12 -437.41 460.12 -432.3 460.12 C-423.38 460.12 -414.47 460.12 -405.56 460.12 C-392.31 460.11 -379.06 460.11 -365.8 460.11 C-343.5 460.12 -321.2 460.11 -298.9 460.11 C-276.84 460.1 -254.78 460.1 -232.73 460.09 C-232.04 460.09 -231.35 460.09 -230.64 460.09 C-224.36 460.09 -218.09 460.09 -211.81 460.09 C-196.21 460.09 -180.6 460.09 -165 460.09 C-164.29 460.09 -163.58 460.09 -162.85 460.09 C-128.38 460.09 -93.92 460.08 -59.45 460.08 C-47.5 460.07 -35.56 460.07 -23.61 460.07 C-22.87 460.07 -22.13 460.07 -21.36 460.07 C13.14 460.06 47.65 460.06 82.16 460.06 C84.4 460.05 86.65 460.05 88.89 460.05 C103.75 460.05 118.62 460.05 133.48 460.05 C163.06 460.05 192.63 460.05 222.2 460.04 C223.61 460.04 225.02 460.04 226.42 460.04 C313 460.03 399.57 460.02 507 460 C507.33 472.21 507.66 484.42 508 497 C508.33 497 508.66 497 509 497 C509 484.46 509 471.92 509 459 C520.55 459 532.1 459 544 459 C544 458.67 544 458.34 544 458 C532.78 457.67 521.56 457.34 510 457 C509.99 451.62 509.97 446.25 509.96 440.71 C509.91 422.98 509.84 405.26 509.76 387.53 C509.72 376.78 509.68 366.03 509.65 355.28 C509.63 345.91 509.6 336.54 509.55 327.17 C509.53 322.21 509.51 317.24 509.5 312.28 C509.5 307.61 509.48 302.95 509.45 298.28 C509.44 296.56 509.43 294.85 509.43 293.13 C509.44 290.79 509.42 288.46 509.4 286.12 C509.39 284.81 509.39 283.5 509.38 282.15 C509.26 279.05 509.26 279.05 507.67 277.1 C504.97 275.32 501.99 275.17 498.84 274.82 C498.12 274.73 497.4 274.64 496.66 274.55 C495.09 274.36 493.53 274.17 491.96 273.98 C487.75 273.48 483.54 272.93 479.33 272.38 C478.46 272.27 477.6 272.15 476.71 272.04 C403.32 262.4 331.11 241.8 190.96 178.13 C187.94 176.39 184.87 174.74 181.8 173.07 C154.83 158.42 128.94 141.87 104 124 C103.23 123.45 102.46 122.9 101.67 122.34 C87.13 111.98 72.85 101.27 59 90 C58.16 89.32 57.31 88.64 56.45 87.94 C49.37 82.19 42.43 76.28 35.54 70.32 C34.24 69.21 32.95 68.1 31.65 67 C28.06 63.91 24.69 60.7 21.38 57.31 C18.11 54 15.06 51.28 11 49 C5.67 49 0.48 55.14 -3.19 58.62 Z " fill="#4ED5D5" transform="translate(630,0)"/>
<path d="M0 0 C303.6 0 607.2 0 920 0 C919.34 0.33 918.68 0.66 918 1 C917.27 2.98 916.6 4.98 916 7 C915.34 7 914.68 7 914 7 C913.88 7.72 913.75 8.44 913.62 9.19 C913.01 11.96 912.12 14.4 911 17 C910.34 17 909.68 17 909 17 C908.88 17.72 908.75 18.44 908.62 19.19 C908.01 21.96 907.12 24.4 906 27 C905.34 27 904.68 27 904 27 C903.9 27.7 903.79 28.4 903.69 29.12 C902.53 33.97 900.58 37.58 897 41 C896.67 41.99 896.34 42.98 896 44 C895.34 44 894.68 44 894 44 C894.12 45.08 894.12 45.08 894.25 46.19 C893.92 49.85 892.34 51.23 890 54 C889.22 56.18 889.22 56.18 889 58 C887.68 57.67 886.36 57.34 885 57 C885 57.99 885 58.98 885 60 C885.66 60.33 886.32 60.66 887 61 C886.24 62.17 885.47 63.34 884.69 64.5 C884.26 65.15 883.83 65.8 883.39 66.47 C882.93 66.97 882.47 67.48 882 68 C881.01 68 880.02 68 879 68 C879 68.66 879 69.32 879 70 C878.34 70 877.68 70 877 70 C877.59 70.84 877.59 70.84 878.19 71.69 C879 74 879 74 877.75 76.75 C877.17 77.49 876.6 78.24 876 79 C875.34 79 874.68 79 874 79 C873.92 79.95 873.84 80.9 873.75 81.88 C873.5 82.91 873.26 83.94 873 85 C871 86.12 871 86.12 869 87 C868.19 89.05 868.19 89.05 868 91 C867.01 90.34 866.02 89.68 865 89 C865 89.99 865 90.98 865 92 C865.66 92 866.32 92 867 92 C867 92.66 867 93.32 867 94 C866.01 94 865.02 94 864 94 C863.98 94.8 863.96 95.61 863.94 96.44 C862.6 101.52 859.62 105.23 856 109 C855.34 109 854.68 109 854 109 C853.92 109.95 853.84 110.9 853.75 111.88 C853.5 112.91 853.26 113.94 853 115 C851.68 115.7 850.35 116.37 849 117 C848.19 119.56 848.19 119.56 848 122 C847.01 122 846.02 122 845 122 C843.85 122.97 843.85 122.97 843.62 124.69 C842.11 130.3 839.07 134.93 835 139 C835 138.34 835 137.68 835 137 C833.51 137.99 833.51 137.99 832 139 C832.66 139.66 833.32 140.32 834 141 C832.68 141.99 831.36 142.98 830 144 C829.67 143.67 829.34 143.34 829 143 C828.81 143.84 828.81 143.84 828.62 144.69 C827.94 147.22 827.01 149.58 826 152 C825.67 151.34 825.34 150.68 825 150 C823.35 150.66 821.7 151.32 820 152 C820 152.99 820 153.98 820 155 C820.66 155.33 821.32 155.66 822 156 C819.08 159.99 816.14 163.91 812.88 167.62 C810.28 170.6 808.11 173.67 806 177 C805.67 176.34 805.34 175.68 805 175 C804.01 175 803.02 175 802 175 C802 175.66 802 176.32 802 177 C801.34 177 800.68 177 800 177 C800.66 178.32 801.32 179.64 802 181 C799 181 799 181 797 180 C797 180.66 797 181.32 797 182 C796.34 182 795.68 182 795 182 C795 182.99 795 183.98 795 185 C795.66 185.33 796.32 185.66 797 186 C796.01 186.33 795.02 186.66 794 187 C793.97 187.68 793.94 188.37 793.91 189.07 C792.56 193.4 789.68 195.75 786.44 198.81 C785.82 199.41 785.21 200.01 784.57 200.62 C783.06 202.09 781.53 203.55 780 205 C779.67 204.34 779.34 203.68 779 203 C778.01 203.99 777.02 204.98 776 206 C776.66 206.33 777.32 206.66 778 207 C776.93 208.15 775.84 209.3 774.75 210.44 C773.85 211.39 773.85 211.39 772.92 212.37 C770.9 214.09 769.59 214.59 767 215 C767.66 215.33 768.32 215.66 769 216 C767.68 218.31 766.36 220.62 765 223 C764.34 223 763.68 223 763 223 C763 223.66 763 224.32 763 225 C760 226 760 226 757 225 C757 225.66 757 226.32 757 227 C756.34 227 755.68 227 755 227 C755 227.99 755 228.98 755 230 C755.66 230.33 756.32 230.66 757 231 C754 231 754 231 752 230 C751.67 231.32 751.34 232.64 751 234 C751.66 234.33 752.32 234.66 753 235 C752.01 235.33 751.02 235.66 750 236 C749.67 236.66 749.34 237.32 749 238 C749 237.34 749 236.68 749 236 C745.88 237.31 745.88 237.31 744 240 C744.66 240.33 745.32 240.66 746 241 C745.13 241.54 744.26 242.09 743.36 242.65 C739.93 244.94 737.05 247.7 734.16 250.64 C733.64 251.17 733.12 251.69 732.58 252.24 C730.92 253.9 729.27 255.58 727.62 257.25 C726.5 258.39 725.37 259.53 724.24 260.66 C721.49 263.44 718.74 266.22 716 269 C715.01 268.34 714.02 267.68 713 267 C712.67 267.99 712.34 268.98 712 270 C712.66 270.33 713.32 270.66 714 271 C712.02 271.99 710.04 272.98 708 274 C707.01 273.34 706.02 272.68 705 272 C705.66 273.32 706.32 274.64 707 276 C704 276 704 276 702 275 C702 275.66 702 276.32 702 277 C701.34 277 700.68 277 700 277 C700 277.66 700 278.32 700 279 C699.34 279 698.68 279 698 279 C698.66 280.32 699.32 281.64 700 283 C698.71 283.81 697.42 284.63 696.12 285.44 C695.41 285.89 694.69 286.34 693.95 286.81 C692 288 692 288 690 289 C690 288.34 690 287.68 690 287 C689.01 287.33 688.02 287.66 687 288 C687.33 289.32 687.66 290.64 688 292 C685.36 293.65 682.72 295.3 680 297 C680 296.34 680 295.68 680 295 C679.01 295 678.02 295 677 295 C676.67 296.65 676.34 298.3 676 300 C675.01 299.67 674.02 299.34 673 299 C673 299.99 673 300.98 673 302 C672.34 302 671.68 302 671 302 C671 302.99 671 303.98 671 305 C667.42 309.07 662.93 311.84 658 314 C657.01 313.34 656.02 312.68 655 312 C655 312.99 655 313.98 655 315 C655.66 315.33 656.32 315.66 657 316 C655.13 317.06 655.13 317.06 653 318 C652.34 317.67 651.68 317.34 651 317 C650.86 317.72 650.71 318.44 650.56 319.19 C648.19 323.47 644.3 324.92 640 327 C640 326.34 640 325.68 640 325 C639.01 325 638.02 325 637 325 C637 325.66 637 326.32 637 327 C637.66 327.66 638.32 328.32 639 329 C634.33 331.67 629.67 334.33 625 337 C625 336.34 625 335.68 625 335 C624.01 335 623.02 335 622 335 C621.79 335.9 621.57 336.81 621.35 337.74 C619.69 341.75 618.03 342.84 614.38 345.12 C613.3 345.8 612.23 346.48 611.12 347.18 C608.59 348.66 606.07 350.03 603.44 351.31 C600.12 352.71 600.12 352.71 598.45 354.56 C596.48 356.51 594.69 356.64 592 357 C591.67 357.99 591.34 358.98 591 360 C587.72 361.58 584.45 362.85 581 364 C580.67 364.66 580.34 365.32 580 366 C578.34 366.68 576.67 367.34 575 368 C572.67 369.52 570.43 371.13 568.18 372.76 C566 374 566 374 562 374 C562 374.66 562 375.32 562 376 C560.24 376.82 560.24 376.82 558.44 377.65 C550.32 381.45 542.27 385.31 534.38 389.56 C528.55 392.7 522.67 395.67 516.69 398.5 C515.62 399.01 515.62 399.01 514.53 399.53 C510.65 401.34 507.08 402.63 502.88 403.38 C500.61 403.92 500.61 403.92 499 407 C497.12 407.56 497.12 407.56 495 408 C493.67 408.66 492.36 409.35 491.06 410.06 C487.89 411.71 485.64 412.45 482 412 C482 412.66 482 413.32 482 414 C480.35 414 478.7 414 477 414 C477 414.66 477 415.32 477 416 C474.69 416.33 472.38 416.66 470 417 C469.67 417.99 469.34 418.98 469 420 C462.73 420 456.46 420 450 420 C449.67 419.01 449.34 418.02 449 417 C448.05 416.88 447.1 416.75 446.12 416.62 C443 416 443 416 441 414 C439.37 413.46 437.74 412.92 436.09 412.42 C431.01 410.84 426.43 408.81 421.75 406.28 C419.41 405.19 417.21 404.41 414.75 403.64 C409.85 402.05 405.5 399.79 401 397.31 C394.87 394.01 388.71 390.85 382.38 387.94 C372.49 383.37 362.82 378.36 353.38 372.93 C349.38 370.65 345.33 368.51 341.26 366.37 C339 365 339 365 338 363 C336.67 362.65 335.34 362.32 334 362 C332.04 360.91 332.04 360.91 330.06 359.62 C327.77 358.14 325.48 356.7 323.12 355.31 C321 354 321 354 319 352 C318.15 351.67 317.31 351.34 316.44 351 C314 350 314 350 313 348 C312.42 347.86 311.84 347.73 311.25 347.59 C308.34 346.83 306.48 345.39 304.06 343.62 C300.78 341.24 297.5 339.05 294 337 C291.83 335.69 289.66 334.38 287.5 333.06 C286.4 332.39 285.29 331.72 284.16 331.04 C281.26 329.17 278.67 327.16 276 325 C274.03 323.67 272.05 322.36 270.06 321.06 C265.03 317.73 260.53 314.31 256.08 310.25 C252.19 306.75 248.72 304.31 244 302 C242.31 300.36 240.65 298.69 239 297 C237.7 296 236.39 295.02 235.06 294.06 C232.42 292.14 230.12 290.19 227.88 287.81 C225.93 285.78 224.82 284.92 222.19 283.69 C218.08 281.51 215.4 278.53 212.25 275.16 C209.97 272.97 207.7 271.61 205 270 C203.46 268.59 201.96 267.13 200.5 265.62 C199.77 264.87 199.04 264.12 198.28 263.35 C197.15 262.19 197.15 262.19 196 261 C195.2 260.2 194.39 259.39 193.56 258.57 C191.79 256.79 190.03 254.99 188.28 253.18 C186.9 251.76 186.9 251.76 185.5 250.31 C185.04 249.83 184.58 249.34 184.11 248.84 C181.24 245.92 178.82 244.37 175 243 C173.88 240.94 173.88 240.94 173 239 C172.01 238.67 171.02 238.34 170 238 C168.31 236.56 168.31 236.56 167 235 C167 234.34 167 233.68 167 233 C166.36 232.73 165.72 232.46 165.06 232.19 C163 231 163 231 162 228 C161.34 228 160.68 228 160 228 C158.27 226.32 158.27 226.32 156.38 224.12 C155.74 223.41 155.11 222.69 154.46 221.95 C153 220 153 220 153 218 C152.01 217.67 151.02 217.34 150 217 C149.31 214.94 149.31 214.94 149 213 C148.01 213 147.02 213 146 213 C145.67 212.01 145.34 211.02 145 210 C143.38 208.29 141.7 206.63 140 205 C136.67 201.67 133.33 198.33 130 195 C129.31 194.33 128.62 193.66 127.91 192.97 C125.94 190.94 124.26 188.82 122.56 186.56 C119.92 183.11 117.13 180.04 114 177 C111 173.48 111 173.48 111 170 C110.41 169.76 109.82 169.51 109.21 169.26 C106.62 167.78 105.44 166.27 103.69 163.88 C101.33 160.71 98.91 157.73 96.25 154.81 C94.18 152.49 92.89 150.77 91.5 147.94 C89.74 144.49 87.55 142.4 84.72 139.81 C82.72 137.71 81.45 135.5 80 133 C78.83 131.36 77.64 129.74 76.44 128.12 C71.85 121.86 67.56 115.42 63.29 108.94 C62.02 107.02 60.74 105.11 59.46 103.2 C43.97 80.08 43.97 80.08 37.31 68.31 C36.88 67.55 36.44 66.78 35.99 65.99 C35 64 35 64 35 62 C34.01 61.67 33.02 61.34 32 61 C31.01 59.16 30.04 57.32 29.16 55.43 C27.9 52.8 26.53 50.25 25.12 47.69 C24.62 46.76 24.11 45.84 23.59 44.89 C22.5 42.9 21.39 40.91 20.28 38.92 C19.73 37.94 19.19 36.95 18.62 35.94 C17.87 34.59 17.87 34.59 17.1 33.21 C16 31 16 31 16 29 C15.34 29 14.68 29 14 29 C13.5 27.71 13 26.42 12.5 25.12 C12.22 24.41 11.94 23.69 11.66 22.95 C11 21 11 21 11 19 C10.34 19 9.68 19 9 19 C8.5 17.71 8 16.42 7.5 15.12 C7.22 14.41 6.94 13.69 6.66 12.95 C6 11 6 11 6 9 C5.34 9 4.68 9 4 9 C2 3.25 2 3.25 2 1 C1.34 0.67 0.68 0.34 0 0 Z M70 39 C68.68 42.68 68.68 42.68 69.7 44.86 C70.29 45.83 70.29 45.83 70.89 46.82 C71.35 47.57 71.8 48.32 72.26 49.09 C72.77 49.91 73.29 50.72 73.81 51.56 C74.34 52.43 74.87 53.29 75.42 54.18 C91.27 79.72 108.62 104.23 127 128 C127.53 128.69 128.06 129.38 128.61 130.08 C139.35 143.99 150.8 157.28 162.59 170.31 C163.88 171.75 165.16 173.19 166.42 174.66 C171.34 180.39 176.59 185.75 181.92 191.09 C182.87 192.04 183.82 193 184.77 193.95 C186.75 195.94 188.74 197.92 190.72 199.91 C193.24 202.42 195.74 204.94 198.25 207.46 C200.21 209.43 202.17 211.4 204.13 213.36 C205.5 214.73 206.86 216.1 208.22 217.48 C213.44 222.68 218.84 227.47 224.61 232.04 C226.74 233.79 228.66 235.58 230.56 237.56 C233.88 240.99 237.52 243.9 241.27 246.84 C244.17 249.13 246.99 251.5 249.81 253.88 C255.55 258.67 261.43 263.24 267.38 267.76 C268.96 268.97 270.54 270.2 272.11 271.43 C306.39 298.15 343.8 321.39 382 342 C383.02 342.55 384.04 343.11 385.09 343.67 C401.83 352.72 419 360.71 436.4 368.4 C439.46 369.76 442.51 371.14 445.56 372.54 C447.04 373.19 448.52 373.85 450 374.5 C451.18 375.03 452.35 375.55 453.56 376.09 C462.32 378.4 469.54 374.84 477.44 371.19 C478.53 370.7 479.61 370.2 480.73 369.7 C483.02 368.66 485.31 367.62 487.59 366.57 C490.85 365.07 494.12 363.6 497.39 362.13 C521.36 351.32 544.59 339.25 567.13 325.72 C569.99 324.01 572.86 322.31 575.72 320.61 C608.01 301.36 639.25 279.24 668 255 C668.52 254.56 669.04 254.13 669.58 253.68 C678.63 246.08 687.55 238.34 696.31 230.41 C697.75 229.12 699.19 227.84 700.65 226.59 C706.46 221.6 711.89 216.27 717.31 210.86 C718.28 209.89 719.26 208.91 720.24 207.94 C722.27 205.91 724.3 203.88 726.34 201.85 C728.91 199.28 731.49 196.71 734.07 194.14 C736.09 192.14 738.1 190.13 740.11 188.12 C741.51 186.72 742.92 185.32 744.32 183.93 C749.59 178.65 754.45 173.19 759.1 167.36 C761.49 164.4 764.01 161.64 766.62 158.88 C770.36 154.86 773.85 150.75 777.15 146.37 C778.93 144.09 780.79 141.9 782.69 139.71 C789.69 131.62 796 123.06 802.27 114.39 C803.88 112.16 805.51 109.94 807.15 107.73 C819.93 90.35 831.87 72.34 843.12 53.94 C843.72 52.96 844.32 51.99 844.94 50.98 C845.75 49.64 845.75 49.64 846.57 48.28 C847.04 47.5 847.51 46.71 848 45.91 C849.15 44.06 849.15 44.06 849 42 C849.66 41.67 850.32 41.34 851 41 C850.01 41 849.02 41 848 41 C848 40.34 848 39.68 848 39 C591.26 39 334.52 39 70 39 Z M860 97 C860 97.99 860 98.98 860 100 C860.66 99.67 861.32 99.34 862 99 C862 98.34 862 97.68 862 97 C861.34 97 860.68 97 860 97 Z M850 112 C850 112.99 850 113.98 850 115 C850.66 114.67 851.32 114.34 852 114 C852 113.34 852 112.68 852 112 C851.34 112 850.68 112 850 112 Z M811 164 C811 164.66 811 165.32 811 166 C811.66 165.67 812.32 165.34 813 165 C812.34 164.67 811.68 164.34 811 164 Z M593 354 C593.33 354.66 593.66 355.32 594 356 C594.66 355.34 595.32 354.68 596 354 C595.01 354 594.02 354 593 354 Z M490 407 C494 408 494 408 494 408 Z " fill="#4ED6D6" transform="translate(180,860)"/>
<path d="M0 0 C3.69 2.21 5.63 4.79 7.94 8.45 C8.55 9.39 8.55 9.39 9.17 10.36 C10.64 12.67 12.07 14.99 13.5 17.32 C14.11 18.3 14.72 19.28 15.34 20.29 C18.08 24.73 20.82 29.18 23.54 33.63 C27.76 40.52 32.06 47.35 36.49 54.11 C40.12 59.69 43.64 65.34 47.13 71.01 C55.7 84.94 55.7 84.94 64.75 98.57 C66.5 101.32 66.5 101.32 66.5 103.32 C67.16 103.32 67.82 103.32 68.5 103.32 C68.83 103.65 69.16 103.98 69.5 104.32 C69.5 103.24 69.49 102.16 69.48 101.05 C69.4 90.84 69.34 80.63 69.3 70.42 C69.28 65.17 69.25 59.92 69.2 54.67 C69.16 49.6 69.13 44.53 69.12 39.46 C69.12 37.53 69.1 35.6 69.08 33.67 C68.85 12.43 68.85 12.43 75.69 3.45 C80.74 -0.37 85.64 -3.14 92.13 -2.68 C97.42 -1.73 101.65 -0.06 105.01 4.26 C108.47 9.64 109.63 13.63 109.65 20.08 C109.65 20.77 109.66 21.46 109.66 22.18 C109.67 24.5 109.68 26.82 109.68 29.14 C109.69 30.8 109.69 32.46 109.7 34.13 C109.72 39.59 109.73 45.06 109.74 50.52 C109.75 52.4 109.75 54.28 109.75 56.16 C109.77 65.01 109.79 73.85 109.8 82.69 C109.81 92.89 109.83 103.09 109.87 113.29 C109.9 121.18 109.92 129.07 109.92 136.95 C109.92 141.66 109.93 146.37 109.96 151.08 C109.98 155.52 109.98 159.95 109.97 164.38 C109.97 166.01 109.98 167.63 109.99 169.25 C110.12 184.49 110.12 184.49 105.5 191.32 C103.69 193.16 103.69 193.16 101.94 194.26 C101.07 194.83 101.07 194.83 100.19 195.41 C95.19 198.11 90.01 198.08 84.5 197.32 C75.97 193.53 71.14 187.99 66.57 180.07 C65.37 178.09 64.17 176.12 62.97 174.14 C62.39 173.16 61.8 172.17 61.2 171.16 C58.74 167.04 56.15 162.99 53.57 158.95 C48.37 150.73 43.23 142.49 38.09 134.25 C33.61 127.08 29.11 119.94 24.59 112.81 C21.01 107.14 17.49 101.43 14.03 95.69 C12.58 93.26 12.58 93.26 10.5 91.32 C10.5 92.46 10.5 93.59 10.49 94.76 C10.46 105.47 10.4 116.18 10.32 126.89 C10.28 132.4 10.25 137.9 10.23 143.41 C10.22 148.73 10.18 154.04 10.14 159.36 C10.12 161.39 10.11 163.41 10.11 165.44 C10.11 168.28 10.08 171.12 10.05 173.97 C10.06 175.21 10.06 175.21 10.07 176.49 C9.95 182.93 8.31 188.48 3.69 193.16 C3.11 193.52 2.54 193.88 1.94 194.26 C1.07 194.83 1.07 194.83 0.19 195.41 C-4.5 197.94 -9.32 197.87 -14.5 197.32 C-19.84 195.62 -23.95 192.68 -27.5 188.32 C-29.95 183.41 -30.87 179.85 -30.88 174.28 C-30.89 173.61 -30.89 172.94 -30.9 172.24 C-30.91 170.01 -30.91 167.77 -30.9 165.54 C-30.91 163.93 -30.91 162.32 -30.92 160.71 C-30.94 156.34 -30.94 151.98 -30.93 147.62 C-30.93 143.97 -30.94 140.33 -30.94 136.68 C-30.96 128.07 -30.95 119.46 -30.94 110.85 C-30.93 101.98 -30.94 93.11 -30.97 84.25 C-30.99 76.62 -31 68.99 -30.99 61.37 C-30.99 56.82 -30.99 52.27 -31.01 47.72 C-31.03 43.44 -31.02 39.16 -31 34.88 C-31 33.31 -31 31.75 -31.01 30.19 C-31.08 20.2 -30.54 11.64 -24.31 3.45 C-16.28 -2.62 -9.26 -4.45 0 0 Z " fill="#EFF2F1" transform="translate(789.49609375,581.6796875)"/>
<path d="M0 0 C1.76 -0.01 1.76 -0.01 3.56 -0.03 C5.45 -0.02 5.45 -0.02 7.38 -0.01 C9.35 -0.01 9.35 -0.01 11.36 -0.02 C14.13 -0.02 16.91 -0.02 19.69 -0 C23.21 0.01 26.72 0 30.24 -0.01 C33.64 -0.03 37.04 -0.02 40.44 -0.01 C41.68 -0.02 42.93 -0.02 44.21 -0.03 C63.57 0.12 82.27 5.91 96.5 19.39 C110.81 34.33 118.34 52.5 118.24 73.27 C117.72 93.63 109.06 110.16 94.57 124.1 C78.02 138.51 59.32 140.64 38.38 140.95 C35.75 140.99 33.11 141.04 30.48 141.09 C28.85 141.13 27.22 141.15 25.59 141.17 C21.97 140.9 21.97 140.9 18.94 142.39 C18.84 143.73 18.81 145.07 18.8 146.41 C18.79 147.27 18.79 148.12 18.78 149 C18.77 149.94 18.77 150.87 18.77 151.83 C18.74 153.8 18.72 155.76 18.69 157.73 C18.66 160.83 18.63 163.94 18.62 167.04 C18.6 170.03 18.56 173.02 18.52 176.02 C18.52 176.94 18.52 177.85 18.52 178.8 C18.39 185.58 17.01 191.28 12.12 196.23 C11.55 196.59 10.97 196.95 10.38 197.33 C9.51 197.9 9.51 197.9 8.62 198.48 C3.94 201.01 -0.88 200.94 -6.06 200.39 C-11.41 198.69 -15.51 195.75 -19.06 191.39 C-21.54 186.44 -22.44 182.85 -22.45 177.23 C-22.46 176.54 -22.47 175.86 -22.47 175.15 C-22.49 172.87 -22.48 170.59 -22.48 168.31 C-22.49 166.67 -22.49 165.03 -22.5 163.39 C-22.53 158.94 -22.53 154.5 -22.53 150.05 C-22.53 146.33 -22.54 142.62 -22.54 138.9 C-22.56 130.12 -22.57 121.35 -22.56 112.58 C-22.55 103.54 -22.58 94.5 -22.61 85.46 C-22.64 77.69 -22.65 69.92 -22.65 62.15 C-22.65 57.51 -22.65 52.88 -22.68 48.24 C-22.7 43.88 -22.7 39.52 -22.68 35.15 C-22.68 33.56 -22.68 31.96 -22.69 30.37 C-22.77 21.75 -22.69 14.38 -17.06 7.39 C-12.15 2.6 -6.88 0.02 0 0 Z " fill="#EFF2F1" transform="translate(581.05859375,578.61181640625)"/>
<path d="M0 0 C7.73 6.87 11.72 18.07 16.27 27.25 C16.97 28.67 17.68 30.09 18.39 31.51 C20.24 35.23 22.09 38.95 23.94 42.67 C27.23 49.3 30.53 55.93 33.83 62.56 C34.18 63.27 34.53 63.98 34.9 64.71 C39.71 74.37 44.62 83.97 49.69 93.5 C53.05 99.8 56.24 106.18 59.44 112.56 C60.07 113.81 60.7 115.05 61.32 116.3 C61.91 117.47 62.5 118.64 63.1 119.85 C63.62 120.89 64.15 121.93 64.69 123 C65.81 125.5 65.81 125.5 65.81 127.5 C66.47 127.5 67.13 127.5 67.81 127.5 C67.81 128.16 67.81 128.82 67.81 129.5 C68.47 129.5 69.13 129.5 69.81 129.5 C70.07 128.65 70.33 127.81 70.6 126.94 C71.88 123.31 73.46 119.93 75.19 116.51 C75.52 115.84 75.86 115.17 76.2 114.47 C77.31 112.26 78.42 110.04 79.53 107.83 C80.31 106.27 81.09 104.71 81.87 103.15 C83.51 99.88 85.15 96.6 86.79 93.33 C88.87 89.19 90.94 85.05 93.01 80.91 C107.67 51.59 107.67 51.59 114.68 38.44 C117.1 33.89 119.42 29.3 121.68 24.66 C122.25 23.48 122.83 22.29 123.42 21.07 C124.29 19.29 125.15 17.51 126 15.72 C126.86 13.92 127.74 12.14 128.61 10.35 C129.11 9.32 129.61 8.29 130.12 7.22 C133.86 1.21 140.07 -1.88 146.81 -3.5 C152.57 -3.37 157.51 -1.31 161.81 2.5 C166.44 8.16 167.48 13.59 167.34 20.78 C166.31 28.07 162.77 34.3 159.44 40.77 C158.65 42.36 157.86 43.95 157.07 45.54 C154.93 49.83 152.76 54.1 150.59 58.37 C148.31 62.85 146.07 67.34 143.82 71.84 C140.04 79.37 136.24 86.9 132.43 94.42 C127.05 105.02 121.72 115.64 116.39 126.26 C112.69 133.63 108.98 141 105.27 148.36 C104.37 150.14 103.47 151.93 102.57 153.71 C100.02 158.79 97.46 163.86 94.88 168.94 C94.11 170.47 93.33 172.01 92.56 173.54 C91.5 175.64 90.44 177.74 89.37 179.84 C88.77 181.01 88.18 182.18 87.57 183.39 C84.07 189.58 80.59 193.32 73.81 195.5 C66.96 196.58 61.46 195.5 55.81 191.5 C49.91 185.97 46.58 179.62 43.28 172.32 C42.24 170.08 41.19 167.83 40.14 165.59 C39.59 164.42 39.05 163.26 38.49 162.06 C35.7 156.15 32.78 150.31 29.85 144.47 C29.24 143.25 28.63 142.03 28.02 140.81 C26.44 137.64 24.86 134.48 23.27 131.32 C21.59 127.95 19.9 124.58 18.21 121.21 C15.04 114.86 11.85 108.5 8.67 102.15 C5.07 94.95 1.46 87.75 -2.14 80.55 C-8.3 68.23 -14.47 55.9 -20.64 43.58 C-21.66 41.56 -22.67 39.53 -23.68 37.5 C-24.73 35.4 -25.8 33.31 -26.88 31.23 C-27.43 30.17 -27.97 29.11 -28.53 28.02 C-29.02 27.07 -29.52 26.12 -30.03 25.14 C-32.27 20.04 -32.05 16.11 -30.33 10.9 C-27.61 4.6 -24.38 1.34 -18.19 -1.5 C-17.22 -1.97 -16.25 -2.45 -15.25 -2.94 C-9.68 -3.96 -5.04 -2.37 0 0 Z " fill="#EFF2F1" transform="translate(331.1875,583.5)"/>
<path d="M0 0 C0.75 0 1.5 0 2.28 0 C4.53 -0 6.78 -0.04 9.03 -0.08 C19.64 -0.16 29.98 0.84 38.06 8.46 C45.61 17.66 47.6 26.74 46.63 38.37 C44.76 45.5 40.51 51.81 34.35 55.88 C28.16 59.4 23.4 60.52 16.28 60.5 C15.46 60.5 14.65 60.51 13.81 60.51 C12.09 60.51 10.37 60.51 8.65 60.5 C6.01 60.5 3.37 60.5 0.72 60.51 C-0.94 60.51 -2.61 60.51 -4.28 60.5 C-5.48 60.51 -5.48 60.51 -6.69 60.51 C-12.25 60.49 -12.25 60.49 -13.37 59.37 C-13.47 57.6 -13.51 55.83 -13.51 54.06 C-13.52 52.92 -13.53 51.79 -13.53 50.62 C-13.53 49.38 -13.54 48.15 -13.54 46.88 C-13.54 45.62 -13.54 44.36 -13.55 43.06 C-13.55 40.39 -13.56 37.72 -13.55 35.05 C-13.55 31.63 -13.57 28.2 -13.59 24.78 C-13.6 21.52 -13.6 18.26 -13.6 15 C-13.61 13.77 -13.61 12.53 -13.62 11.26 C-13.62 10.12 -13.62 8.99 -13.61 7.81 C-13.61 6.31 -13.61 6.31 -13.62 4.77 C-12.92 -1.94 -5.13 0.03 0 0 Z " fill="#F9AB01" transform="translate(612.369140625,618.62890625)"/>
<path d="M0 0 C50.82 0 101.64 0 154 0 C154 0.33 154 0.66 154 1 C103.18 1 52.36 1 0 1 C0 0.67 0 0.34 0 0 Z " fill="#000100" transform="translate(1101,860)"/>
<path d="M0 0 C50.82 0 101.64 0 154 0 C154 0.33 154 0.66 154 1 C103.18 1 52.36 1 0 1 C0 0.67 0 0.34 0 0 Z " fill="#000100" transform="translate(25,860)"/>
<path d="M0 0 C7.27 -0.18 14.24 0.5 21.44 1.44 C22.52 1.57 23.61 1.71 24.73 1.85 C32.73 2.87 32.73 2.87 35 4 C37.2 4.23 39.41 4.41 41.62 4.56 C42.81 4.65 44 4.73 45.23 4.82 C46.14 4.88 47.06 4.94 48 5 C48 5.33 48 5.66 48 6 C44.15 6.03 40.29 6.05 36.44 6.06 C35.35 6.07 34.27 6.08 33.15 6.09 C27.65 6.1 22.41 5.99 17 5 C17 4.34 17 3.68 17 3 C11.39 3 5.78 3 0 3 C0 2.01 0 1.02 0 0 Z " fill="#59A2A0" transform="translate(1105,232)"/>
<path d="M0 0 C1.32 0.33 2.64 0.66 4 1 C-1.94 6.94 -7.88 12.88 -14 19 C-14.33 17.68 -14.66 16.36 -15 15 C-13.8 13.15 -13.8 13.15 -11.96 11.29 C-10.96 10.29 -10.96 10.29 -9.95 9.27 C-9.25 8.58 -8.54 7.89 -7.81 7.19 C-7.13 6.48 -6.44 5.78 -5.73 5.05 C-4.73 4.06 -4.73 4.06 -3.71 3.04 C-3.09 2.43 -2.48 1.83 -1.85 1.2 C-1.24 0.8 -0.63 0.41 0 0 Z " fill="#79E1DF" transform="translate(613,14)"/>
<path d="M0 0 C1.32 0.66 2.64 1.32 4 2 C-1.75 7 -1.75 7 -4 7 C-4 7.66 -4 8.32 -4 9 C-6.19 10.51 -6.19 10.51 -9 12.12 C-9.93 12.66 -10.86 13.2 -11.81 13.76 C-12.9 14.37 -12.9 14.37 -14 15 C-13.16 12.54 -13.16 12.54 -12 10 C-10.34 9.63 -8.67 9.29 -7 9 C-5.93 7.2 -5.93 7.2 -5 5 C-3.37 3.3 -1.71 1.62 0 0 Z " fill="#74E0DE" transform="translate(557,63)"/>
<path d="M0 0 C0.99 0.33 1.98 0.66 3 1 C-0.68 5.53 -4.41 9.39 -9 13 C-9.33 12.01 -9.66 11.02 -10 10 C-6.7 6.7 -3.4 3.4 0 0 Z " fill="#71DFDD" transform="translate(968,1052)"/>
<path d="M0 0 C0.99 0.33 1.98 0.66 3 1 C-0.38 5.14 -3.67 8.81 -8 12 C-8.33 11.01 -8.66 10.02 -9 9 C-6.03 6.03 -3.06 3.06 0 0 Z " fill="#73DFDD" transform="translate(903,1117)"/>
<path d="M0 0 C6.07 -0.25 11.16 0.3 17 2 C17 2.33 17 2.66 17 3 C11.39 3 5.78 3 0 3 C0 2.01 0 1.02 0 0 Z " fill="#76BAB8" transform="translate(1105,232)"/>
<path d="M0 0 C1.49 0.99 1.49 0.99 3 2 C2.01 2.33 1.02 2.66 0 3 C0 2.01 0 1.02 0 0 Z M-5 2 C-3.68 2 -2.36 2 -1 2 C-1 2.66 -1 3.32 -1 4 C-3.97 5.32 -6.94 6.64 -10 8 C-10 7.01 -10 6.02 -10 5 C-8.35 4.67 -6.7 4.34 -5 4 C-5 3.34 -5 2.68 -5 2 Z M-15 7 C-13.68 7 -12.36 7 -11 7 C-11 7.66 -11 8.32 -11 9 C-12.32 9.33 -13.64 9.66 -15 10 C-15 9.01 -15 8.02 -15 7 Z " fill="#71DAD8" transform="translate(408,158)"/>
<path d="M0 0 C-3.35 2.23 -4.58 2.27 -8.5 2.25 C-9.94 2.26 -9.94 2.26 -11.41 2.27 C-14 2 -14 2 -17 0 C-12.24 -2.38 -5 -1.33 0 0 Z " fill="#82E3E1" transform="translate(157,236)"/>
<path d="M0 0 C-0.64 0.29 -1.28 0.58 -1.94 0.88 C-4.15 1.83 -4.15 1.83 -5 4 C-9.81 5.55 -15.01 5.09 -20 5 C-20 4.67 -20 4.34 -20 4 C-18.55 3.88 -18.55 3.88 -17.06 3.75 C-13.01 3.21 -9.73 1.6 -6.11 -0.26 C-3.64 -1.13 -2.44 -0.87 0 0 Z " fill="#4B9C9B" transform="translate(300,203)"/>
<path d="M0 0 C5.55 2.47 9.97 6.51 14 11 C14 11.99 14 12.98 14 14 C9.11 9.9 4.29 5.74 0 1 C0 0.67 0 0.34 0 0 Z " fill="#8AE5E3" transform="translate(688,37)"/>
<path d="M0 0 C1.32 0 2.64 0 4 0 C4 0.66 4 1.32 4 2 C3.01 2.33 2.02 2.66 1 3 C0.67 2.01 0.34 1.02 0 0 Z M-1.62 2.31 C-1.09 2.54 -0.55 2.77 0 3 C-3.42 6.15 -6.44 6.56 -11 7 C-9.23 3.46 -5.5 1.8 -1.62 2.31 Z " fill="#79E1DF" transform="translate(337,188)"/>
<path d="M0 0 C-1.37 3.16 -1.99 3.99 -5 6 C-5.33 5.01 -5.66 4.02 -6 3 C-3.38 0 -3.38 0 0 0 Z M-11 5 C-9.35 5.33 -7.7 5.66 -6 6 C-7.32 6.99 -8.64 7.98 -10 9 C-10.66 8.34 -11.32 7.68 -12 7 C-11.67 6.34 -11.34 5.68 -11 5 Z " fill="#6BDDDC" transform="translate(538,80)"/>
<path d="M0 0 C0.99 0.66 1.98 1.32 3 2 C0.69 4.31 -1.62 6.62 -4 9 C-4.66 8.01 -5.32 7.02 -6 6 C-4.02 4.02 -2.04 2.04 0 0 Z " fill="#72DFDE" transform="translate(955,1065)"/>
<path d="M0 0 C4.01 1.37 6.68 3.17 9.81 6 C10.6 6.7 11.39 7.4 12.21 8.12 C14 10 14 10 14 12 C10.81 10.61 8.8 8.97 6.44 6.44 C4.17 4 3.23 3.08 0 2 C0 1.34 0 0.68 0 0 Z " fill="#8EE6E3" transform="translate(716,61)"/>
<path d="M0 0 C0.66 0.66 1.32 1.32 2 2 C1.01 2.33 0.02 2.66 -1 3 C-0.67 2.01 -0.34 1.02 0 0 Z " fill="#7AC1BE" transform="translate(803,1196)"/>
<path d="M0 0 C3 1 3 1 3 1 Z " fill="#7CE2E0" transform="translate(681,1263)"/>
<path d="" fill="#7CE2E0" transform="translate(0,0)"/>
<path d="" fill="#93E8E5" transform="translate(0,0)"/>
<path d="M0 0 C2 1 2 1 2 1 Z " fill="#93E8E5" transform="translate(619,1273)"/>
<path d="M0 0 C2 1 2 1 2 1 Z " fill="#000100" transform="translate(756,1227)"/>
<path d="M0 0 C2 1 2 1 2 1 Z " fill="#93E8E5" transform="translate(761,1223)"/>
<path d="M0 0 C2 1 2 1 2 1 Z " fill="#000100" transform="translate(781,1212)"/>
<path d="M0 0 C2 1 2 1 2 1 Z " fill="#000100" transform="translate(497,1212)"/>
<path d="M0 0 C2 1 2 1 2 1 Z " fill="#93E8E5" transform="translate(853,1162)"/>
<path d="" fill="#000100" transform="translate(0,0)"/>
<path d="" fill="#000100" transform="translate(0,0)"/>
<path d="" fill="#000100" transform="translate(0,0)"/>
<path d="" fill="#000100" transform="translate(0,0)"/>
<path d="" fill="#000100" transform="translate(0,0)"/>
<path d="" fill="#000100" transform="translate(0,0)"/>
<path d="" fill="#000100" transform="translate(0,0)"/>
<path d="" fill="#000100" transform="translate(0,0)"/>
<path d="" fill="#000100" transform="translate(0,0)"/>
<path d="" fill="#000100" transform="translate(0,0)"/>
<path d="" fill="#000100" transform="translate(0,0)"/>
<path d="" fill="#000100" transform="translate(0,0)"/>
<path d="" fill="#000100" transform="translate(0,0)"/>
<path d="" fill="#000100" transform="translate(0,0)"/>
<path d="" fill="#000100" transform="translate(0,0)"/>
<path d="" fill="#000100" transform="translate(0,0)"/>
<path d="" fill="#000100" transform="translate(0,0)"/>
<path d="" fill="#000100" transform="translate(0,0)"/>
<path d="" fill="#000100" transform="translate(0,0)"/>
<path d="" fill="#000100" transform="translate(0,0)"/>
<path d="" fill="#000100" transform="translate(0,0)"/>
<path d="" fill="#000100" transform="translate(0,0)"/>
<path d="" fill="#000100" transform="translate(0,0)"/>
<path d="" fill="#000100" transform="translate(0,0)"/>
<path d="" fill="#000100" transform="translate(0,0)"/>
<path d="" fill="#000100" transform="translate(0,0)"/>
<path d="" fill="#000100" transform="translate(0,0)"/>
<path d="" fill="#93E8E5" transform="translate(0,0)"/>
<path d="" fill="#000100" transform="translate(0,0)"/>
<path d="" fill="#93E8E5" transform="translate(0,0)"/>
<path d="" fill="#93E8E5" transform="translate(0,0)"/>
<path d="" fill="#000100" transform="translate(0,0)"/>
<path d="" fill="#93E8E5" transform="translate(0,0)"/>
<path d="" fill="#93E8E5" transform="translate(0,0)"/>
<path d="" fill="#000100" transform="translate(0,0)"/>
<path d="" fill="#93E8E5" transform="translate(0,0)"/>
<path d="" fill="#93E8E5" transform="translate(0,0)"/>
<path d="" fill="#93E8E5" transform="translate(0,0)"/>
<path d="" fill="#000100" transform="translate(0,0)"/>
<path d="" fill="#93E8E5" transform="translate(0,0)"/>
<path d="" fill="#93E8E5" transform="translate(0,0)"/>
<path d="" fill="#93E8E5" transform="translate(0,0)"/>
<path d="" fill="#4ED6D6" transform="translate(0,0)"/>
<path d="" fill="#000100" transform="translate(0,0)"/>
<path d="" fill="#93E8E5" transform="translate(0,0)"/>
<path d="" fill="#93E8E5" transform="translate(0,0)"/>
<path d="" fill="#4ED6D6" transform="translate(0,0)"/>
<path d="" fill="#000100" transform="translate(0,0)"/>
<path d="" fill="#93E8E5" transform="translate(0,0)"/>
<path d="" fill="#93E8E5" transform="translate(0,0)"/>
<path d="" fill="#000100" transform="translate(0,0)"/>
<path d="" fill="#93E8E5" transform="translate(0,0)"/>
<path d="" fill="#4ED6D6" transform="translate(0,0)"/>
<path d="" fill="#93E8E5" transform="translate(0,0)"/>
<path d="" fill="#000100" transform="translate(0,0)"/>
<path d="" fill="#93E8E5" transform="translate(0,0)"/>
<path d="" fill="#4ED6D6" transform="translate(0,0)"/>
<path d="" fill="#000100" transform="translate(0,0)"/>
<path d="" fill="#93E8E5" transform="translate(0,0)"/>
<path d="" fill="#000100" transform="translate(0,0)"/>
<path d="" fill="#93E8E5" transform="translate(0,0)"/>
<path d="" fill="#000100" transform="translate(0,0)"/>
<path d="" fill="#000100" transform="translate(0,0)"/>
<path d="" fill="#93E8E5" transform="translate(0,0)"/>
<path d="" fill="#000100" transform="translate(0,0)"/>
<path d="" fill="#93E8E5" transform="translate(0,0)"/>
<path d="" fill="#4ED6D6" transform="translate(0,0)"/>
<path d="" fill="#000100" transform="translate(0,0)"/>
<path d="" fill="#93E8E5" transform="translate(0,0)"/>
<path d="" fill="#000100" transform="translate(0,0)"/>
<path d="" fill="#EFF2F1" transform="translate(0,0)"/>
<path d="" fill="#4ED6D6" transform="translate(0,0)"/>
<path d="" fill="#000100" transform="translate(0,0)"/>
<path d="" fill="#93E8E5" transform="translate(0,0)"/>
<path d="" fill="#93E8E5" transform="translate(0,0)"/>
<path d="" fill="#000100" transform="translate(0,0)"/>
<path d="" fill="#000100" transform="translate(0,0)"/>
<path d="" fill="#000100" transform="translate(0,0)"/>
<path d="" fill="#93E8E5" transform="translate(0,0)"/>
<path d="" fill="#93E8E5" transform="translate(0,0)"/>
<path d="" fill="#000100" transform="translate(0,0)"/>
<path d="" fill="#93E8E5" transform="translate(0,0)"/>
<path d="" fill="#4ED6D6" transform="translate(0,0)"/>
<path d="" fill="#000100" transform="translate(0,0)"/>
<path d="" fill="#93E8E5" transform="translate(0,0)"/>
<path d="" fill="#93E8E5" transform="translate(0,0)"/>
<path d="" fill="#000100" transform="translate(0,0)"/>
<path d="" fill="#93E8E5" transform="translate(0,0)"/>
<path d="" fill="#4ED6D6" transform="translate(0,0)"/>
<path d="" fill="#000100" transform="translate(0,0)"/>
<path d="" fill="#93E8E5" transform="translate(0,0)"/>
<path d="" fill="#93E8E5" transform="translate(0,0)"/>
<path d="" fill="#000100" transform="translate(0,0)"/>
<path d="" fill="#93E8E5" transform="translate(0,0)"/>
<path d="" fill="#4ED6D6" transform="translate(0,0)"/>
<path d="" fill="#000100" transform="translate(0,0)"/>
<path d="" fill="#000100" transform="translate(0,0)"/>
<path d="" fill="#93E8E5" transform="translate(0,0)"/>
<path d="" fill="#93E8E5" transform="translate(0,0)"/>
<path d="" fill="#000100" transform="translate(0,0)"/>
<path d="" fill="#000100" transform="translate(0,0)"/>
<path d="" fill="#000100" transform="translate(0,0)"/>
<path d="" fill="#93E8E5" transform="translate(0,0)"/>
<path d="" fill="#93E8E5" transform="translate(0,0)"/>
<path d="" fill="#4ED6D6" transform="translate(0,0)"/>
<path d="" fill="#000100" transform="translate(0,0)"/>
<path d="" fill="#000100" transform="translate(0,0)"/>
<path d="" fill="#93E8E5" transform="translate(0,0)"/>
<path d="" fill="#000100" transform="translate(0,0)"/>
<path d="" fill="#000100" transform="translate(0,0)"/>
<path d="" fill="#93E8E5" transform="translate(0,0)"/>
<path d="" fill="#000100" transform="translate(0,0)"/>
<path d="" fill="#000100" transform="translate(0,0)"/>
<path d="" fill="#93E8E5" transform="translate(0,0)"/>
<path d="" fill="#000100" transform="translate(0,0)"/>
<path d="" fill="#000100" transform="translate(0,0)"/>
<path d="" fill="#000100" transform="translate(0,0)"/>
<path d="" fill="#000100" transform="translate(0,0)"/>
<path d="" fill="#000100" transform="translate(0,0)"/>
<path d="" fill="#000100" transform="translate(0,0)"/>
<path d="" fill="#000100" transform="translate(0,0)"/>
<path d="" fill="#000100" transform="translate(0,0)"/>
<path d="" fill="#000100" transform="translate(0,0)"/>
<path d="" fill="#F9AB01" transform="translate(0,0)"/>
<path d="" fill="#F9AB01" transform="translate(0,0)"/>
<path d="" fill="#000100" transform="translate(0,0)"/>
<path d="" fill="#F9AB01" transform="translate(0,0)"/>
<path d="" fill="#F9AB01" transform="translate(0,0)"/>
<path d="" fill="#000100" transform="translate(0,0)"/>
<path d="" fill="#F9AB01" transform="translate(0,0)"/>
<path d="" fill="#F9AB01" transform="translate(0,0)"/>
<path d="" fill="#000100" transform="translate(0,0)"/>
<path d="" fill="#F9AB01" transform="translate(0,0)"/>
<path d="" fill="#000100" transform="translate(0,0)"/>
<path d="" fill="#000100" transform="translate(0,0)"/>
<path d="" fill="#000100" transform="translate(0,0)"/>
<path d="" fill="#F9AB01" transform="translate(0,0)"/>
<path d="" fill="#000100" transform="translate(0,0)"/>
<path d="" fill="#4ED6D6" transform="translate(0,0)"/>
<path d="" fill="#4ED6D6" transform="translate(0,0)"/>
<path d="" fill="#4ED6D6" transform="translate(0,0)"/>
<path d="" fill="#000100" transform="translate(0,0)"/>
<path d="" fill="#000100" transform="translate(0,0)"/>
<path d="" fill="#000100" transform="translate(0,0)"/>
<path d="" fill="#000100" transform="translate(0,0)"/>
<path d="" fill="#000100" transform="translate(0,0)"/>
<path d="" fill="#4ED6D6" transform="translate(0,0)"/>
<path d="" fill="#93E8E5" transform="translate(0,0)"/>
<path d="" fill="#4ED6D6" transform="translate(0,0)"/>
<path d="" fill="#93E8E5" transform="translate(0,0)"/>
<path d="" fill="#4ED6D6" transform="translate(0,0)"/>
</svg>
