<?xml version="1.0" encoding="UTF-8"?>
<!-- Generator: visioncortex VTracer 0.6.3 -->
<svg version="1.1" xmlns="http://www.w3.org/2000/svg" width="1280" height="890">
<path d="M0 0 C7.26 0 14.52 0 22 0 C22 0.66 22 1.32 22 2 C22.99 1.67 23.98 1.34 25 1 C38.11 1.36 50.84 9.17 60.18 17.82 C62.91 21.08 64 23.75 64 28 C64.99 28 65.98 28 67 28 C67.93 31.01 68.04 31.87 67 35 C67.99 35 68.98 35 70 35 C70.84 39.02 71.05 42.02 70 46 C70.99 46.33 71.98 46.66 73 47 C73.33 49.97 73.66 52.94 74 56 C73.01 56 72.02 56 71 56 C71.5 56.33 71.99 56.66 72.5 57 C74.88 60.18 74.19 63.1 74 67 C74.33 67 74.66 67 75 67 C75.06 68.22 75.12 69.43 75.18 70.68 C75.27 72.27 75.35 73.85 75.44 75.44 C75.48 76.24 75.52 77.04 75.56 77.87 C75.41 81.75 75.41 81.75 77 85 C78.49 85.16 79.98 85.25 81.47 85.32 C82.37 85.36 83.27 85.4 84.2 85.44 C85.14 85.48 86.09 85.52 87.06 85.56 C88.49 85.63 88.49 85.63 89.94 85.69 C92.29 85.8 94.65 85.9 97 86 C97 84.95 96.99 83.9 96.99 82.82 C96.95 72.97 96.92 63.11 96.9 53.25 C96.89 48.18 96.87 43.11 96.85 38.04 C96.83 33.15 96.82 28.26 96.81 23.37 C96.81 21.5 96.8 19.64 96.79 17.77 C96.77 15.16 96.77 12.55 96.77 9.94 C96.77 9.16 96.76 8.38 96.75 7.58 C96.77 2.23 96.77 2.23 99 0 C101.62 -0.19 104.13 -0.26 106.75 -0.23 C107.51 -0.23 108.28 -0.23 109.07 -0.23 C110.69 -0.23 112.32 -0.22 113.94 -0.21 C116.42 -0.19 118.91 -0.19 121.39 -0.19 C122.97 -0.18 124.54 -0.17 126.12 -0.17 C126.86 -0.17 127.61 -0.17 128.38 -0.16 C131.51 -0.14 134 -0 137 1 C137.12 13.07 137.2 25.15 137.26 37.22 C137.29 42.83 137.32 48.43 137.38 54.04 C137.43 59.45 137.46 64.85 137.47 70.26 C137.48 72.33 137.5 74.39 137.53 76.46 C137.56 79.35 137.57 82.23 137.57 85.12 C137.59 86.41 137.59 86.41 137.62 87.72 C137.6 90.11 137.6 90.11 137 94 C136.17 94.48 135.35 94.97 134.5 95.47 C131.85 96.69 131.85 96.69 131.54 98.82 C131.38 101.37 131.38 103.88 131.43 106.43 C131.43 107.39 131.43 108.36 131.43 109.36 C131.43 112.55 131.47 115.75 131.51 118.95 C131.52 121.16 131.53 123.38 131.53 125.6 C131.55 131.43 131.6 137.26 131.66 143.1 C131.71 149.05 131.73 155 131.76 160.96 C131.81 172.64 131.89 184.32 132 196 C127.46 196.06 122.92 196.09 118.38 196.12 C117.09 196.14 115.8 196.16 114.48 196.18 C113.24 196.18 111.99 196.19 110.71 196.2 C109.57 196.21 108.43 196.22 107.25 196.23 C103.83 195.99 101.16 195.33 98 194 C96.87 191.73 96.88 190.52 96.88 188 C96.88 186.75 96.88 186.75 96.88 185.47 C96.88 184.55 96.88 183.63 96.89 182.69 C96.89 181.72 96.89 180.75 96.89 179.76 C96.89 176.55 96.89 173.35 96.9 170.15 C96.9 167.93 96.91 165.71 96.91 163.5 C96.91 157.66 96.92 151.81 96.93 145.97 C96.94 140.01 96.95 134.05 96.95 128.09 C96.96 116.4 96.98 104.7 97 93 C96.67 93.66 96.34 94.32 96 95 C93.68 95.41 91.34 95.74 89 96 C89 95.34 89 94.68 89 94 C87.35 94 85.7 94 84 94 C84.21 94.76 84.41 95.53 84.62 96.31 C85 99 85 99 83 102 C79.88 102.19 79.88 102.19 77 102 C77.33 102.66 77.66 103.32 78 104 C80.31 104 82.62 104 85 104 C84.67 104.99 84.34 105.98 84 107 C84.39 109.14 84.39 109.14 85 111 C82.69 110.67 80.38 110.34 78 110 C78 110.33 78 110.66 78 111 C78 111.99 78 112.98 78 114 C79.32 113.67 80.64 113.34 82 113 C82.33 115.64 82.66 118.28 83 121 C81.68 121.33 80.36 121.66 79 122 C79.99 122.66 80.98 123.32 82 124 C82.19 127.62 82.19 127.62 82 131 C80.02 131.99 80.02 131.99 78 133 C79.32 133 80.64 133 82 133 C82 134.65 82 136.3 82 138 C79.03 138.99 79.03 138.99 76 140 C76.01 140.66 76.01 141.32 76.02 142 C76.04 144.98 76.05 147.96 76.06 150.94 C76.07 151.98 76.08 153.02 76.09 154.09 C76.09 155.08 76.09 156.07 76.1 157.09 C76.1 158.01 76.11 158.92 76.11 159.87 C76 162 76 162 75 163 C72.36 163.33 69.72 163.66 67 164 C66.67 171.92 66.34 179.84 66 188 C59.73 188 53.46 188 47 188 C46.31 191.99 46.31 191.99 46 196 C24.55 196 3.1 196 -19 196 C-19.99 194.02 -20.98 192.04 -22 190 C-25.04 188.71 -25.04 188.71 -28 188 C-29.19 185.62 -29.13 184.15 -29.13 181.5 C-29.13 180.61 -29.14 179.73 -29.14 178.81 C-29.13 177.88 -29.13 176.96 -29.12 176 C-29.13 174.61 -29.13 174.61 -29.14 173.19 C-29.14 172.3 -29.13 171.41 -29.13 170.5 C-29.13 169.69 -29.13 168.87 -29.13 168.03 C-29 166 -29 166 -28 164 C-33.28 164 -38.56 164 -44 164 C-45.82 159.45 -46.41 155.95 -46.62 151.19 C-46.66 150.49 -46.7 149.8 -46.74 149.09 C-46.84 147.39 -46.92 145.7 -47 144 C-47.94 144.02 -47.94 144.02 -48.9 144.05 C-51.72 144.11 -54.55 144.15 -57.38 144.19 C-58.36 144.21 -59.34 144.24 -60.36 144.26 C-61.77 144.28 -61.77 144.28 -63.21 144.29 C-64.51 144.32 -64.51 144.32 -65.85 144.34 C-66.56 144.23 -67.27 144.12 -68 144 C-70.11 140.83 -70.25 140 -70.19 136.38 C-70.18 135.58 -70.17 134.78 -70.17 133.96 C-70 132 -70 132 -69 131 C-63.39 131 -57.78 131 -52 131 C-52 107.57 -52 84.14 -52 60 C-51.67 60 -51.34 60 -51 60 C-50.94 59.31 -50.88 58.63 -50.82 57.92 C-50.73 57.02 -50.65 56.12 -50.56 55.19 C-50.48 54.29 -50.4 53.4 -50.32 52.48 C-50 50 -50 50 -49 47 C-48.96 45.33 -48.95 43.67 -49 42 C-48.34 42 -47.68 42 -47 42 C-47.04 41.09 -47.08 40.18 -47.12 39.25 C-47 35.95 -46.6 34.78 -45 32 C-44.57 30.87 -44.13 29.73 -43.69 28.56 C-41.92 24.82 -39.97 22.82 -37 20 C-36.65 19.3 -36.3 18.6 -35.94 17.88 C-34.72 15.45 -33.23 14.51 -31 13 C-29.95 12.16 -29.95 12.16 -28.88 11.31 C-27 10 -27 10 -25 10 C-25 9.34 -25 8.68 -25 8 C-23 7 -21 6 -19 5 C-18.32 4.63 -17.64 4.26 -16.94 3.88 C-11.7 1.51 -5.65 1.52 0 1 C0 0.67 0 0.34 0 0 Z M135 2 C136 5 136 5 136 5 Z M135 11 C135 18.26 135 25.52 135 33 C135.33 33 135.66 33 136 33 C136 25.74 136 18.48 136 11 C135.67 11 135.34 11 135 11 Z M-1 36 C-0.67 36.33 -0.34 36.66 0 37 C-1.98 37.33 -3.96 37.66 -6 38 C-6 38.66 -6 39.32 -6 40 C-6.99 40.5 -6.99 40.5 -8 41 C-7.67 41.99 -7.34 42.98 -7 44 C-7.94 46.69 -7.94 46.69 -9 49 C-9.66 48.67 -10.32 48.34 -11 48 C-11 51.3 -11 54.6 -11 58 C-11.33 58 -11.66 58 -12 58 C-12 66.91 -12 75.82 -12 85 C-16.29 85 -20.58 85 -25 85 C-25 87.31 -25 89.62 -25 92 C-20.38 92 -15.76 92 -11 92 C-11.33 92.66 -11.66 93.32 -12 94 C-12.1 96.08 -12.14 98.17 -12.15 100.25 C-12.15 101.57 -12.16 102.88 -12.16 104.24 C-12.17 105.68 -12.17 107.12 -12.17 108.56 C-12.17 110.03 -12.17 111.51 -12.18 112.98 C-12.18 116.07 -12.19 119.15 -12.19 122.24 C-12.19 126.2 -12.2 130.16 -12.22 134.12 C-12.23 137.16 -12.23 140.2 -12.23 143.24 C-12.23 144.7 -12.23 146.17 -12.24 147.63 C-12.25 149.67 -12.25 151.71 -12.24 153.75 C-12.25 155.49 -12.25 155.49 -12.25 157.27 C-12.28 160.15 -12.28 160.15 -10 162 C-8.98 157.9 -8.98 157.9 -10 154 C-8.02 154.33 -6.04 154.66 -4 155 C-3.67 157.31 -3.34 159.62 -3 162 C4.59 162 12.18 162 20 162 C20.33 158.7 20.66 155.4 21 152 C23.48 151.5 23.48 151.5 26 151 C26 150.34 26 149.68 26 149 C26.66 149 27.32 149 28 149 C28.1 148.36 28.21 147.72 28.31 147.06 C28.54 146.38 28.77 145.7 29 145 C29.99 144.67 30.98 144.34 32 144 C32.66 145.65 33.32 147.3 34 149 C34.33 149 34.66 149 35 149 C35 143.39 35 137.78 35 132 C32.03 131.5 32.03 131.5 29 131 C28.67 131.33 28.34 131.66 28 132 C28 129.69 28 127.38 28 125 C28.66 124.67 29.32 124.34 30 124 C30 124.66 30 125.32 30 126 C30.66 126 31.32 126 32 126 C32 125.34 32 124.68 32 124 C32.99 124.33 33.98 124.66 35 125 C35 106.85 35 88.7 35 70 C34.67 70 34.34 70 34 70 C34 64.72 34 59.44 34 54 C33.34 54 32.68 54 32 54 C32.05 53.42 32.09 52.84 32.14 52.24 C32.4 46.61 31.87 43.41 28 39 C25.9 37.61 25.9 37.61 24 37 C24.33 36.34 24.66 35.68 25 35 C11.68 32.38 11.68 32.38 -1 36 Z M135 37 C135 41.62 135 46.24 135 51 C135.33 51 135.66 51 136 51 C136 46.38 136 41.76 136 37 C135.67 37 135.34 37 135 37 Z M-9 44 C-8 46 -8 46 -8 46 Z M71 48 C72 52 72 52 72 52 Z M135 57 C135 59.31 135 61.62 135 64 C135.33 64 135.66 64 136 64 C136 61.69 136 59.38 136 57 C135.67 57 135.34 57 135 57 Z M135 65 C135 68.96 135 72.92 135 77 C135.33 77 135.66 77 136 77 C136 73.04 136 69.08 136 65 C135.67 65 135.34 65 135 65 Z M135 78 C135 79.65 135 81.3 135 83 C135.33 83 135.66 83 136 83 C136 81.35 136 79.7 136 78 C135.67 78 135.34 78 135 78 Z M61 85 C61 85.33 61 85.66 61 86 C64.96 86 68.92 86 73 86 C73 85.67 73 85.34 73 85 C69.04 85 65.08 85 61 85 Z M59 87 C60 90 60 90 60 90 Z M62 87 C61.67 88.32 61.34 89.64 61 91 C62.06 92.29 62.06 92.29 64.5 92.1 C65.51 92.09 66.52 92.07 67.56 92.06 C68.57 92.05 69.59 92.04 70.63 92.04 C71.41 92.02 72.19 92.01 73 92 C73 90.35 73 88.7 73 87 C69.37 87 65.74 87 62 87 Z M101 88 C101 88.33 101 88.66 101 89 C105.95 89 110.9 89 116 89 C116 88.67 116 88.34 116 88 C111.05 88 106.1 88 101 88 Z M100 89 C100 90.32 100 91.64 100 93 C105.61 93.33 111.22 93.66 117 94 C117 92.68 117 91.36 117 90 C111.39 89.67 105.78 89.34 100 89 Z M82 96 C83 98 83 98 83 98 Z M74 98 C75 101 75 101 75 101 Z M79 99 C78.67 99.66 78.34 100.32 78 101 C78.66 101 79.32 101 80 101 C79.67 100.34 79.34 99.68 79 99 Z M81 99 C82 101 82 101 82 101 Z M74 109 C75 111 75 111 75 111 Z M74 113 C75 116 75 116 75 116 Z M76 121 C77 123 77 123 77 123 Z M79 124 C80 127 80 127 80 127 Z M-69 132 C-68.67 132.66 -68.34 133.32 -68 134 C-67.67 133.34 -67.34 132.68 -67 132 C-67.66 132 -68.32 132 -69 132 Z M-45 132 C-45 132.33 -45 132.66 -45 133 C-42.36 133 -39.72 133 -37 133 C-37 132.67 -37 132.34 -37 132 C-39.64 132 -42.28 132 -45 132 Z M-46 133 C-46 135.31 -46 137.62 -46 140 C-45.67 140 -45.34 140 -45 140 C-45 137.69 -45 135.38 -45 133 C-45.33 133 -45.66 133 -46 133 Z M-44 134 C-44.17 136.92 -44.17 136.92 -44 140 C-42.04 142.41 -42.04 142.41 -38.38 142.12 C-37.26 142.08 -36.15 142.04 -35 142 C-35 139.36 -35 136.72 -35 134 C-37.97 134 -40.94 134 -44 134 Z M74 139 C75 142 75 142 75 142 Z M-63 142 C-63 142.33 -63 142.66 -63 143 C-57.72 143 -52.44 143 -47 143 C-47 142.67 -47 142.34 -47 142 C-52.28 142 -57.56 142 -63 142 Z M-13 144 C-12 146 -12 146 -12 146 Z M73 144 C73 148.62 73 153.24 73 158 C73.33 158 73.66 158 74 158 C74 153.38 74 148.76 74 144 C73.67 144 73.34 144 73 144 Z M-8 155 C-8 156.65 -8 158.3 -8 160 C-6.68 159.67 -5.36 159.34 -4 159 C-4 157.68 -4 156.36 -4 155 C-5.32 155 -6.64 155 -8 155 Z M74 159 C75 161 75 161 75 161 Z M-36 161 C-36 161.33 -36 161.66 -36 162 C-34.02 162 -32.04 162 -30 162 C-30 161.67 -30 161.34 -30 161 C-31.98 161 -33.96 161 -36 161 Z M66 161 C66 161.33 66 161.66 66 162 C68.64 162 71.28 162 74 162 C74 161.67 74 161.34 74 161 C71.36 161 68.72 161 66 161 Z M-43 162 C-43 162.33 -43 162.66 -43 163 C-41.02 163 -39.04 163 -37 163 C-37 162.67 -37 162.34 -37 162 C-38.98 162 -40.96 162 -43 162 Z M64 163 C64 170.92 64 178.84 64 187 C64.33 187 64.66 187 65 187 C65 179.08 65 171.16 65 163 C64.67 163 64.34 163 64 163 Z M-26 187 C-22 188 -22 188 -22 188 Z M-19 193 C-19 193.66 -19 194.32 -19 195 C-16.36 195 -13.72 195 -11 195 C-11 194.67 -11 194.34 -11 194 C-13.64 193.67 -16.28 193.34 -19 193 Z " fill="#020606" transform="translate(669,492)"/>
<path d="M0 0 C1.55 -0 1.55 -0 3.14 -0.01 C4.21 -0 5.28 0.01 6.38 0.02 C7.45 0.01 8.51 0 9.61 -0.01 C15.32 0.01 20.13 0.34 25.51 2.27 C26.22 2.5 26.93 2.73 27.66 2.98 C34.57 5.55 40.91 8.37 46.51 13.27 C47.16 13.83 47.81 14.39 48.48 14.97 C50.51 16.72 52.52 18.47 54.51 20.27 C55.02 20.73 55.54 21.19 56.07 21.66 C61.6 27.82 64.7 36.58 67.51 44.27 C67.92 45.38 68.33 46.49 68.76 47.64 C69.51 50.27 69.51 50.27 69.51 54.27 C70.5 53.61 71.49 52.95 72.51 52.27 C86.46 50.34 99.08 50.91 111.1 59.01 C113.29 60.71 115.4 62.46 117.51 64.27 C118.52 65.03 119.53 65.79 120.57 66.58 C121.21 67.13 121.85 67.69 122.51 68.27 C122.51 68.93 122.51 69.59 122.51 70.27 C123.17 70.27 123.83 70.27 124.51 70.27 C132.64 83.87 136.07 97.73 132.85 113.48 C128.14 127.62 119.55 136.71 106.51 143.27 C105.37 143.84 104.24 144.42 103.07 145.02 C99.16 146.39 95.66 146.79 91.55 147.05 C89.51 147.05 89.51 147.05 88.51 148.27 C85.92 148.43 83.35 148.53 80.75 148.58 C79.59 148.61 79.59 148.61 78.4 148.65 C75.92 148.71 73.43 148.77 70.95 148.83 C69.26 148.87 67.58 148.91 65.9 148.96 C61.77 149.07 57.64 149.17 53.51 149.27 C53.18 159.5 52.85 169.73 52.51 180.27 C54.16 180.6 55.81 180.93 57.51 181.27 C61.98 182.61 64.47 184.74 67.51 188.27 C69.41 192.11 69.77 195.26 69.8 199.52 C69.81 200.76 69.82 202 69.84 203.28 C69.84 204.63 69.84 205.98 69.84 207.32 C69.85 208.72 69.86 210.11 69.86 211.5 C69.88 214.41 69.88 217.32 69.88 220.23 C69.88 223.95 69.91 227.67 69.94 231.39 C69.96 234.26 69.97 237.13 69.97 240 C69.97 241.37 69.98 242.75 69.99 244.12 C70.13 257.35 70.13 257.35 65.51 262.27 C59.03 268.4 52.39 268.56 43.92 268.54 C42.86 268.55 41.81 268.55 40.72 268.56 C37.24 268.57 33.77 268.57 30.29 268.57 C27.87 268.57 25.45 268.57 23.03 268.58 C17.96 268.59 12.89 268.59 7.81 268.58 C1.32 268.58 -5.18 268.59 -11.67 268.62 C-16.67 268.63 -21.67 268.63 -26.67 268.63 C-29.06 268.63 -31.46 268.63 -33.85 268.64 C-37.2 268.66 -40.55 268.65 -43.9 268.64 C-44.89 268.65 -45.88 268.65 -46.9 268.66 C-53.67 268.61 -57.92 267.48 -63.18 262.95 C-67.15 258.34 -68.85 254.28 -68.97 248.2 C-69 247.03 -69.03 245.85 -69.06 244.64 C-69.08 243.39 -69.09 242.13 -69.11 240.84 C-69.13 239.53 -69.16 238.23 -69.19 236.88 C-69.24 234.13 -69.28 231.37 -69.31 228.62 C-69.35 225.1 -69.42 221.59 -69.5 218.08 C-69.57 214.71 -69.62 211.33 -69.67 207.96 C-69.7 206.71 -69.73 205.46 -69.76 204.17 C-69.82 196.52 -69.85 189.68 -64.19 183.92 C-63.34 183.35 -62.49 182.79 -61.62 182.2 C-60.77 181.61 -59.93 181.02 -59.06 180.42 C-56.49 179.27 -56.49 179.27 -51.49 180.27 C-51.82 169.71 -52.15 159.15 -52.49 148.27 C-55.29 148.27 -58.08 148.27 -60.88 148.28 C-65.62 148.3 -70.37 148.31 -75.11 148.32 C-77.16 148.33 -79.21 148.33 -81.26 148.34 C-84.22 148.35 -87.17 148.36 -90.13 148.36 C-91.05 148.37 -91.97 148.37 -92.93 148.38 C-95.11 148.38 -97.3 148.33 -99.49 148.27 C-99.82 147.94 -100.15 147.61 -100.49 147.27 C-101.23 147.28 -101.97 147.3 -102.73 147.32 C-105.83 147.26 -107.84 146.53 -110.68 145.33 C-111.97 144.79 -111.97 144.79 -113.29 144.24 C-114.7 143.61 -116.11 142.96 -117.49 142.27 C-117.49 141.61 -117.49 140.95 -117.49 140.27 C-118.33 139.93 -118.33 139.93 -119.18 139.58 C-125.2 136.16 -129.03 130.62 -131.49 124.27 C-134.06 113.21 -134.38 103.22 -128.49 93.27 C-127.98 92.3 -127.46 91.33 -126.93 90.33 C-121.49 83.5 -113.97 79.18 -105.49 77.27 C-104.83 77.27 -104.17 77.27 -103.49 77.27 C-103.51 76.21 -103.53 75.16 -103.55 74.08 C-103.35 61.71 -95.42 53.69 -86.95 45.41 C-82.26 41.32 -77.66 40.02 -71.49 39.27 C-71.49 38.94 -71.49 38.61 -71.49 38.27 C-65 37.89 -59.75 38.49 -53.62 40.71 C-51.33 41.52 -51.33 41.52 -48.49 40.27 C-47.81 37.94 -47.14 35.6 -46.49 33.27 C-44.74 30.33 -44.74 30.33 -42.49 27.27 C-42.05 26.64 -41.6 26.01 -41.14 25.36 C-34.74 16.48 -28.33 11.15 -18.49 6.27 C-17.73 5.87 -16.97 5.48 -16.18 5.07 C-10.79 2.31 -6.18 0.01 0 0 Z M3.51 8.27 C3.18 8.93 2.85 9.59 2.51 10.27 C0.67 10.8 -1.19 11.24 -3.05 11.64 C-8.42 12.89 -12.66 14.67 -17.49 17.27 C-18.82 17.63 -20.15 17.98 -21.49 18.27 C-21.49 18.93 -21.49 19.59 -21.49 20.27 C-22.81 20.27 -24.13 20.27 -25.49 20.27 C-25.87 21.36 -25.87 21.36 -26.25 22.48 C-27.59 25.49 -29.18 27.43 -31.37 29.89 C-35.58 34.99 -39.49 41.42 -39.49 48.27 C-40.48 48.76 -40.48 48.76 -41.49 49.27 C-42.63 51.28 -42.63 51.28 -43.49 53.27 C-46.91 52.85 -49.42 52.3 -52.49 50.7 C-59.09 47.71 -67.53 48.39 -74.3 50.39 C-80.6 54.02 -80.6 54.02 -86.49 58.27 C-86.49 58.93 -86.49 59.59 -86.49 60.27 C-87.48 60.76 -87.48 60.76 -88.49 61.27 C-88.66 62.09 -88.82 62.92 -88.99 63.77 C-89.16 64.59 -89.32 65.42 -89.49 66.27 C-90.48 66.76 -90.48 66.76 -91.49 67.27 C-93.64 69.41 -93.23 73.85 -93.55 76.83 C-93.65 77.63 -93.74 78.44 -93.83 79.27 C-94.05 81.27 -94.27 83.27 -94.49 85.27 C-97.65 86.33 -100.77 87.34 -103.99 88.2 C-107.41 89.24 -110.35 90.58 -113.49 92.27 C-113.49 92.93 -113.49 93.59 -113.49 94.27 C-114.48 93.94 -115.47 93.61 -116.49 93.27 C-119.72 95.42 -121.25 96.54 -122.49 100.27 C-122.16 101.26 -121.83 102.25 -121.49 103.27 C-122.3 106.89 -122.3 106.89 -123.49 110.27 C-124.48 110.76 -124.48 110.76 -125.49 111.27 C-125.49 112.26 -125.49 113.25 -125.49 114.27 C-124.5 114.27 -123.51 114.27 -122.49 114.27 C-122.6 115.26 -122.7 116.25 -122.8 117.27 C-122.81 122.05 -120.59 125.72 -117.49 129.27 C-115.42 130.5 -115.42 130.5 -113.49 131.27 C-113.49 131.93 -113.49 132.59 -113.49 133.27 C-104.75 138.07 -96.96 138.55 -87.2 138.49 C-85.99 138.49 -84.78 138.49 -83.53 138.49 C-80.24 138.49 -76.94 138.48 -73.64 138.47 C-70.19 138.46 -66.73 138.45 -63.28 138.45 C-56.75 138.45 -50.22 138.43 -43.69 138.41 C-36.25 138.39 -28.81 138.38 -21.37 138.37 C-6.08 138.35 9.21 138.31 24.51 138.27 C23.83 133.27 22.61 130.3 19.51 126.27 C18.85 125.94 18.19 125.61 17.51 125.27 C15.83 126 14.15 126.74 12.47 127.5 C4.97 130.43 -4.52 130.14 -11.99 127.39 C-19.03 123.94 -24.24 118.57 -27.43 111.39 C-28.12 109.35 -28.81 107.31 -29.49 105.27 C-34.81 103.14 -39.3 103.13 -44.93 103.64 C-46.03 103.73 -46.03 103.73 -47.15 103.81 C-48.93 103.95 -50.71 104.11 -52.49 104.27 C-52.82 103.61 -53.15 102.95 -53.49 102.27 C-55.67 104.13 -56.63 105.57 -57.87 108.2 C-60.18 112.55 -62.84 114.72 -67.49 116.27 C-78.28 116.61 -78.28 116.61 -83.05 113.7 C-87.39 109.37 -89.7 104.82 -89.93 98.64 C-89.67 93.47 -87.85 90 -84.68 85.95 C-81.98 83.87 -79.85 83.57 -76.49 83.27 C-76.49 82.61 -76.49 81.95 -76.49 81.27 C-62.35 84.52 -62.35 84.52 -59.3 88.27 C-58.27 89.98 -57.24 91.7 -56.23 93.43 C-54.61 95.5 -54.61 95.5 -51.95 95.72 C-50.46 95.69 -50.46 95.69 -48.95 95.66 C-47.88 95.64 -46.8 95.63 -45.7 95.62 C-44.58 95.58 -43.46 95.55 -42.3 95.52 C-41.17 95.5 -40.04 95.48 -38.88 95.46 C-36.08 95.41 -33.29 95.35 -30.49 95.27 C-29.3 92.96 -28.38 90.89 -27.62 88.39 C-24.94 80.96 -19.93 75.37 -12.82 72 C-10.4 71.03 -7.95 70.14 -5.49 69.27 C-5.16 63.66 -4.83 58.05 -4.49 52.27 C-6.8 50.95 -9.11 49.63 -11.49 48.27 C-15.47 43.94 -17.26 39.15 -17.49 33.27 C-17.16 32.61 -16.83 31.95 -16.49 31.27 C-16.99 30.28 -16.99 30.28 -17.49 29.27 C-16.5 28.77 -16.5 28.77 -15.49 28.27 C-15.49 27.28 -15.49 26.29 -15.49 25.27 C-14.5 24.77 -14.5 24.77 -13.49 24.27 C-13.02 23.63 -12.54 22.99 -12.05 22.33 C-7.56 18.71 -1.67 18.13 4 18.37 C5.85 18.6 7.68 18.92 9.51 19.27 C9.51 19.93 9.51 20.59 9.51 21.27 C10.5 21.6 11.49 21.93 12.51 22.27 C16.85 27.72 16.95 32.43 16.94 39.28 C16.47 42.52 15.8 43.96 13.51 46.27 C12.85 46.27 12.19 46.27 11.51 46.27 C11.51 47.26 11.51 48.25 11.51 49.27 C10.53 49.82 9.54 50.37 8.53 50.94 C5.08 53.04 5.08 53.04 4.92 57.16 C4.96 58.61 5.03 60.06 5.13 61.52 C5.16 62.26 5.19 63.01 5.21 63.77 C5.29 65.61 5.39 67.44 5.51 69.27 C6.54 69.8 7.58 70.33 8.65 70.88 C10.02 71.59 11.39 72.3 12.76 73.02 C13.44 73.36 14.12 73.71 14.82 74.07 C21.25 77.44 24.52 80.75 27.7 87.39 C28.46 88.97 28.46 88.97 29.24 90.59 C29.66 91.47 30.08 92.35 30.51 93.27 C30.84 93.93 31.17 94.59 31.51 95.27 C39.76 95.27 48.01 95.27 56.51 95.27 C56.51 94.28 56.51 93.29 56.51 92.27 C58.15 90.58 59.82 88.91 61.51 87.27 C61.93 86.23 61.93 86.23 62.36 85.16 C63.51 83.27 63.51 83.27 65.79 82.55 C72.21 82.04 77.78 82.05 83.51 85.27 C87.24 88.54 89.31 91.97 89.75 96.97 C89.9 103.24 89.98 107.42 85.51 112.27 C81.87 115.56 79.07 116.15 74.26 116.52 C68.79 116.15 64.41 114.82 60.13 111.33 C58.51 109.27 58.51 109.27 56.51 105.27 C50.24 105.27 43.97 105.27 37.51 105.27 C38.37 106.32 39.24 107.37 40.13 108.45 C46.53 117.01 50.15 126.93 52.51 137.27 C53.17 136.94 53.83 136.61 54.51 136.27 C54.84 136.6 55.17 136.93 55.51 137.27 C58.57 138.8 61.78 138.39 65.14 138.36 C65.89 138.36 66.64 138.36 67.42 138.36 C69.82 138.35 72.23 138.34 74.63 138.33 C76.26 138.32 77.89 138.32 79.52 138.31 C83.52 138.3 87.51 138.29 91.51 138.27 C91.51 137.94 91.51 137.61 91.51 137.27 C92.11 137.13 92.72 136.99 93.34 136.86 C103.15 134.34 110.4 129.28 116.51 121.27 C117.17 120.94 117.83 120.61 118.51 120.27 C119.58 118 119.58 118 120.51 115.27 C121.01 113.96 121.01 113.96 121.52 112.63 C122.71 108.59 123.13 104.78 123.38 100.58 C123.43 99.79 123.48 99 123.53 98.18 C123.78 91.56 122.55 86.2 119.51 80.27 C118.85 80.27 118.19 80.27 117.51 80.27 C117.32 79.4 117.14 78.53 116.95 77.64 C114.64 72.22 110.31 69.47 105.51 66.27 C104.52 66.27 103.53 66.27 102.51 66.27 C102.51 65.61 102.51 64.95 102.51 64.27 C93.22 61.2 82.59 59.39 73.21 63.2 C71.61 64.17 70.05 65.21 68.51 66.27 C65.07 67.02 65.07 67.02 62.51 67.27 C62.51 66.61 62.51 65.95 62.51 65.27 C61.85 65.27 61.19 65.27 60.51 65.27 C59.65 62.31 59.54 60.53 59.7 57.33 C59.79 47.96 56.15 38.65 50.51 31.27 C50.02 30.61 49.53 29.96 49.02 29.29 C41.99 20.61 32.12 12.87 20.77 11.61 C19.1 11.46 17.43 11.33 15.76 11.2 C14.07 11.07 12.39 10.94 10.71 10.79 C9.98 10.74 9.24 10.68 8.48 10.63 C6.51 10.27 6.51 10.27 3.51 8.27 Z M-17.49 14.27 C-17.16 14.93 -16.83 15.59 -16.49 16.27 C-16.16 15.61 -15.83 14.95 -15.49 14.27 C-16.15 14.27 -16.81 14.27 -17.49 14.27 Z M-27.49 21.27 C-28.81 22.59 -30.13 23.91 -31.49 25.27 C-31.16 25.93 -30.83 26.59 -30.49 27.27 C-29.17 25.95 -27.85 24.63 -26.49 23.27 C-26.82 22.61 -27.15 21.95 -27.49 21.27 Z M-4.24 28.83 C-6.96 31.77 -7.49 33.28 -7.49 37.27 C-6.66 40.18 -6.66 40.18 -4.49 42.27 C-0.89 43.16 -0.89 43.16 2.51 43.27 C2.51 42.61 2.51 41.95 2.51 41.27 C3.13 41.06 3.75 40.85 4.38 40.64 C7.35 38.72 7.64 36.6 8.51 33.27 C6.16 30.65 4.28 28.59 1.01 27.2 C-1.66 27.07 -1.66 27.07 -4.24 28.83 Z M-34.49 29.27 C-34.16 29.93 -33.83 30.59 -33.49 31.27 C-33.16 30.61 -32.83 29.95 -32.49 29.27 C-33.15 29.27 -33.81 29.27 -34.49 29.27 Z M-36.49 32.27 C-36.16 32.93 -35.83 33.59 -35.49 34.27 C-35.16 33.61 -34.83 32.95 -34.49 32.27 C-35.15 32.27 -35.81 32.27 -36.49 32.27 Z M-38.49 36.27 C-37.49 38.27 -37.49 38.27 -37.49 38.27 Z M-39.49 38.27 C-38.49 40.27 -38.49 40.27 -38.49 40.27 Z M-40.49 40.27 C-39.49 43.27 -39.49 43.27 -39.49 43.27 Z M-41.49 44.27 C-41.16 45.26 -40.83 46.25 -40.49 47.27 C-40.16 46.28 -39.83 45.29 -39.49 44.27 C-40.15 44.27 -40.81 44.27 -41.49 44.27 Z M-47.49 52.27 C-45.02 51.92 -45.02 51.92 -42.49 51.27 C-42.16 50.61 -41.83 49.95 -41.49 49.27 C-44.25 49.27 -45.39 50.58 -47.49 52.27 Z M-86.49 54.27 C-86.49 55.26 -86.49 56.25 -86.49 57.27 C-85.83 56.28 -85.17 55.29 -84.49 54.27 C-85.15 54.27 -85.81 54.27 -86.49 54.27 Z M-90.49 60.27 C-89.49 62.27 -89.49 62.27 -89.49 62.27 Z M-93.49 66.27 C-92.49 68.27 -92.49 68.27 -92.49 68.27 Z M-15.99 86.77 C-17.54 89.35 -17.98 91.33 -18.49 94.27 C-17.61 94.05 -16.73 93.83 -15.82 93.61 C-8.95 92.02 -2.66 90.94 4.4 91.26 C6.57 91.42 6.57 91.42 8.51 90.27 C8.51 90.93 8.51 91.59 8.51 92.27 C11.81 92.6 15.11 92.93 18.51 93.27 C18.84 92.61 19.17 91.95 19.51 91.27 C15.97 85.5 12.22 81.05 5.51 79.27 C-3.34 78.1 -9.7 80.47 -15.99 86.77 Z M-16.49 83.27 C-16.16 83.93 -15.83 84.59 -15.49 85.27 C-15.16 84.61 -14.83 83.95 -14.49 83.27 C-15.15 83.27 -15.81 83.27 -16.49 83.27 Z M-97.49 84.27 C-97.16 84.93 -96.83 85.59 -96.49 86.27 C-95.83 85.61 -95.17 84.95 -94.49 84.27 C-95.48 84.27 -96.47 84.27 -97.49 84.27 Z M-76.49 90.27 C-78.66 93.57 -80.3 96.27 -80.49 100.27 C-78.91 104.56 -78.91 104.56 -75.49 107.27 C-73.16 107.31 -70.83 107.31 -68.49 107.27 C-68.16 106.28 -67.83 105.29 -67.49 104.27 C-66.83 103.94 -66.17 103.61 -65.49 103.27 C-64.64 99.71 -64.32 97.77 -65.49 94.27 C-69.04 91.63 -72.13 90.77 -76.49 90.27 Z M68.82 92.95 C66.2 95.57 65.6 96.6 65.51 100.27 C66.14 103.5 66.14 103.5 67.51 106.27 C71.09 107.46 73.75 107.6 77.51 107.27 C79.79 105.5 80.34 104.17 80.86 101.36 C81.01 99.18 80.98 97.4 80.51 95.27 C78.4 92.65 78.4 92.65 75.51 91.27 C71.54 90.91 71.54 90.91 68.82 92.95 Z M-82.49 98.27 C-82.49 99.92 -82.49 101.57 -82.49 103.27 C-81.83 102.94 -81.17 102.61 -80.49 102.27 C-81.15 100.95 -81.81 99.63 -82.49 98.27 Z M-16.49 104.27 C-17.48 104.76 -17.48 104.76 -18.49 105.27 C-17.83 107.25 -17.17 109.23 -16.49 111.27 C-12.39 110.75 -12.39 110.75 -8.59 109.24 C-4.75 107.46 -0.64 108.08 3.51 108.27 C4.62 108.29 5.74 108.31 6.88 108.33 C15.84 110.64 23.12 115.84 28.51 123.27 C29 124.26 29 124.26 29.51 125.27 C30.17 125.27 30.83 125.27 31.51 125.27 C34.95 136.64 35.02 147.73 35.13 159.52 C35.17 162.34 35.21 165.17 35.26 168 C35.28 169.74 35.3 171.49 35.32 173.23 C35 177.06 35 177.06 36.51 180.27 C38.51 180.31 40.51 180.31 42.51 180.27 C42.56 173.79 42.59 167.31 42.62 160.83 C42.63 158.63 42.64 156.42 42.66 154.22 C42.68 151.05 42.69 147.89 42.7 144.72 C42.71 143.73 42.72 142.75 42.73 141.73 C42.73 140.81 42.73 139.89 42.73 138.94 C42.74 137.73 42.74 137.73 42.75 136.49 C42.48 134 41.71 132.44 40.51 130.27 C40.24 129.36 39.97 128.45 39.7 127.52 C35.47 115.94 27.31 108.64 16.34 103.49 C15.41 103.09 14.47 102.68 13.51 102.27 C12.71 101.89 11.91 101.51 11.09 101.12 C1.92 98.08 -8.13 99.88 -16.49 104.27 Z M-123.49 102.27 C-123.16 103.26 -122.83 104.25 -122.49 105.27 C-122.16 104.28 -121.83 103.29 -121.49 102.27 C-122.15 102.27 -122.81 102.27 -123.49 102.27 Z M-60.49 107.27 C-60.16 107.93 -59.83 108.59 -59.49 109.27 C-59.16 108.61 -58.83 107.95 -58.49 107.27 C-59.15 107.27 -59.81 107.27 -60.49 107.27 Z M-63.49 110.27 C-63.82 111.26 -64.15 112.25 -64.49 113.27 C-63.83 113.27 -63.17 113.27 -62.49 113.27 C-62.16 112.28 -61.83 111.29 -61.49 110.27 C-62.15 110.27 -62.81 110.27 -63.49 110.27 Z M-66.49 113.27 C-66.16 113.93 -65.83 114.59 -65.49 115.27 C-65.16 114.61 -64.83 113.95 -64.49 113.27 C-65.15 113.27 -65.81 113.27 -66.49 113.27 Z M-4.49 119.27 C-3.51 120.47 -3.51 120.47 -1.64 120.36 C0.41 120.33 2.46 120.3 4.51 120.27 C4.84 119.61 5.17 118.95 5.51 118.27 C1.43 117.34 -0.91 116.93 -4.49 119.27 Z M124.51 123.27 C124.84 124.26 125.17 125.25 125.51 126.27 C125.84 125.28 126.17 124.29 126.51 123.27 C125.85 123.27 125.19 123.27 124.51 123.27 Z M11.51 125.27 C11.84 125.93 12.17 126.59 12.51 127.27 C13.17 126.61 13.83 125.95 14.51 125.27 C13.52 125.27 12.53 125.27 11.51 125.27 Z M116.51 133.27 C116.84 134.26 117.17 135.25 117.51 136.27 C117.84 135.28 118.17 134.29 118.51 133.27 C117.85 133.27 117.19 133.27 116.51 133.27 Z M-111.49 142.27 C-110.49 144.27 -110.49 144.27 -110.49 144.27 Z M-106.49 144.27 C-106.49 144.6 -106.49 144.93 -106.49 145.27 C-104.84 145.27 -103.19 145.27 -101.49 145.27 C-101.49 144.94 -101.49 144.61 -101.49 144.27 C-103.14 144.27 -104.79 144.27 -106.49 144.27 Z M-42.49 150.27 C-42.79 152.92 -42.79 152.92 -42.72 156.01 C-42.72 157.16 -42.72 158.3 -42.72 159.49 C-42.7 160.69 -42.69 161.9 -42.68 163.14 C-42.68 164.34 -42.68 165.54 -42.68 166.77 C-42.75 173.6 -42.75 173.6 -41.49 180.27 C-39.16 180.31 -36.83 180.31 -34.49 180.27 C-32.64 178.41 -33.36 175.37 -33.36 172.89 C-33.36 171.6 -33.36 170.3 -33.36 168.97 C-33.36 168.29 -33.36 167.61 -33.36 166.91 C-33.37 164.84 -33.36 162.77 -33.36 160.7 C-33.36 159.4 -33.36 158.11 -33.36 156.77 C-33.36 155.57 -33.36 154.37 -33.36 153.14 C-33.29 150.32 -33.29 150.32 -34.49 148.27 C-38.99 147.84 -38.99 147.84 -42.49 150.27 Z M-23.49 148.27 C-24.72 150.34 -24.72 150.34 -24.49 153.27 C-24.49 156.27 -24.49 156.27 -25.49 158.27 C-25.56 159.64 -25.58 161.02 -25.55 162.39 C-25.53 163.67 -25.51 164.95 -25.49 166.27 C-26.15 166.6 -26.81 166.93 -27.49 167.27 C-27.16 167.93 -26.83 168.59 -26.49 169.27 C-25.94 171.85 -25.47 174.45 -24.99 177.05 C-24.71 179.23 -24.71 179.23 -23.49 180.27 C-21.96 180.36 -20.42 180.38 -18.88 180.38 C-17.41 180.38 -17.41 180.38 -15.91 180.38 C-14.84 180.37 -13.77 180.37 -12.68 180.36 C-11.05 180.36 -11.05 180.36 -9.38 180.36 C-5.9 180.35 -2.41 180.34 1.07 180.33 C3.43 180.32 5.78 180.32 8.14 180.31 C13.93 180.3 19.72 180.28 25.51 180.27 C25.51 169.71 25.51 159.15 25.51 148.27 C9.34 148.27 -6.83 148.27 -23.49 148.27 Z M-17.49 188.27 C-22.53 188.5 -27.56 188.75 -32.6 189.01 C-34.31 189.1 -36.02 189.18 -37.73 189.26 C-40.2 189.38 -42.66 189.5 -45.13 189.63 C-45.89 189.67 -46.65 189.7 -47.44 189.73 C-51.5 189.96 -54.82 190.48 -58.49 192.27 C-58.16 193.92 -57.83 195.57 -57.49 197.27 C-56.66 197.33 -55.83 197.39 -54.97 197.45 C-53.89 197.53 -52.8 197.62 -51.68 197.7 C-50.6 197.78 -49.52 197.87 -48.41 197.95 C-45.49 198.27 -45.49 198.27 -42.49 199.27 C-42.49 203.27 -42.49 203.27 -43.57 204.97 C-47.71 207.76 -53.71 207.03 -58.49 207.27 C-59.15 211.56 -59.81 215.85 -60.49 220.27 C-59.83 220.27 -59.17 220.27 -58.49 220.27 C-58.49 227.2 -58.49 234.13 -58.49 241.27 C-53.21 241.6 -47.93 241.93 -42.49 242.27 C-42.49 244.58 -42.49 246.89 -42.49 249.27 C-43.46 249.22 -44.43 249.18 -45.43 249.14 C-49.94 249.12 -54.14 250.16 -58.49 251.27 C-57.4 254.92 -57.4 254.92 -54.69 257.41 C-52.31 258.34 -50.61 258.52 -48.07 258.53 C-47.19 258.53 -46.3 258.54 -45.4 258.55 C-43.96 258.54 -43.96 258.54 -42.49 258.54 C-40.97 258.55 -40.97 258.55 -39.42 258.56 C-36.06 258.57 -32.7 258.57 -29.34 258.57 C-27.01 258.57 -24.68 258.57 -22.34 258.58 C-17.45 258.59 -12.55 258.59 -7.66 258.58 C-1.39 258.58 4.88 258.59 11.15 258.62 C15.97 258.63 20.79 258.63 25.62 258.63 C27.93 258.63 30.24 258.63 32.55 258.64 C35.78 258.66 39.02 258.65 42.25 258.64 C43.68 258.65 43.68 258.65 45.14 258.66 C50.33 258.62 54.06 258.24 58.51 255.27 C59.47 253.19 59.47 253.19 59.51 251.27 C54.48 250.64 49.58 250.14 44.51 250.27 C43.52 246.31 43.52 246.31 42.51 242.27 C50.92 241.77 50.92 241.77 59.51 241.27 C59.18 240.61 58.85 239.95 58.51 239.27 C58.51 236.64 58.64 234.01 58.73 231.39 C58.75 230.7 58.77 230.01 58.79 229.31 C58.87 227.1 58.94 224.9 59.01 222.7 C59.06 221.21 59.1 219.73 59.15 218.24 C59.27 214.58 59.39 210.92 59.51 207.27 C54.23 207.27 48.95 207.27 43.51 207.27 C43.51 203.97 43.51 200.67 43.51 197.27 C48.79 197.27 54.07 197.27 59.51 197.27 C58.09 192.48 58.09 192.48 55.81 190.97 C52.68 190.01 49.9 190.03 46.63 190.04 C45.94 190.04 45.26 190.04 44.56 190.04 C42.31 190.04 40.06 190.05 37.8 190.07 C36.24 190.07 34.68 190.08 33.11 190.08 C29 190.09 24.89 190.11 20.78 190.13 C16.59 190.15 12.39 190.16 8.2 190.17 C-0.03 190.19 -8.26 190.22 -16.49 190.27 C-16.99 189.28 -16.99 189.28 -17.49 188.27 Z M-44.49 199.27 C-44.49 200.59 -44.49 201.91 -44.49 203.27 C-43.83 202.94 -43.17 202.61 -42.49 202.27 C-43.15 201.28 -43.81 200.29 -44.49 199.27 Z M-61.49 216.27 C-60.49 219.27 -60.49 219.27 -60.49 219.27 Z M-44.49 242.27 C-44.49 244.58 -44.49 246.89 -44.49 249.27 C-43.83 248.61 -43.17 247.95 -42.49 247.27 C-42.81 244.66 -42.81 244.66 -43.49 242.27 C-43.82 242.27 -44.15 242.27 -44.49 242.27 Z M66.51 252.27 C66.51 253.26 66.51 254.25 66.51 255.27 C67.17 254.94 67.83 254.61 68.51 254.27 C68.51 253.61 68.51 252.95 68.51 252.27 C67.85 252.27 67.19 252.27 66.51 252.27 Z M63.51 259.27 C62.85 260.59 62.19 261.91 61.51 263.27 C62.83 261.95 64.15 260.63 65.51 259.27 C64.85 259.27 64.19 259.27 63.51 259.27 Z " fill="#498FB0" transform="translate(640.4921875,188.734375)"/>
<path d="M0 0 C1.24 -0 2.48 -0.01 3.76 -0.01 C5.15 -0.01 6.54 -0 7.93 -0 C9.39 -0 10.84 -0.01 12.29 -0.01 C16.25 -0.01 20.21 -0.01 24.17 -0.01 C28.31 -0 32.44 -0.01 36.58 -0.01 C43.53 -0.01 50.48 -0.01 57.42 -0 C65.46 0 73.5 0 81.54 -0.01 C88.44 -0.01 95.33 -0.01 102.22 -0.01 C106.34 -0.01 110.46 -0.01 114.59 -0.01 C118.46 -0.01 122.34 -0.01 126.21 -0 C127.64 -0 129.06 -0 130.49 -0.01 C132.43 -0.01 134.37 -0 136.31 0 C137.4 0 138.48 0 139.6 0 C142.28 0.13 142.28 0.13 145.28 1.13 C145.31 2.71 145.33 4.29 145.34 5.88 C145.36 6.76 145.37 7.64 145.38 8.55 C145.28 11.13 145.28 11.13 144.71 13.14 C144.15 15.72 144.74 17.55 145.28 20.13 C145.35 22.56 145.37 25 145.34 27.44 C145.33 28.69 145.33 29.95 145.32 31.24 C145.3 32.67 145.3 32.67 145.28 34.13 C143.96 34.46 142.64 34.79 141.28 35.13 C141.28 34.14 141.28 33.15 141.28 32.13 C140.95 32.79 140.62 33.45 140.28 34.13 C129.72 34.13 119.16 34.13 108.28 34.13 C108.28 77.36 108.28 120.59 108.28 165.13 C111.57 166.22 114.02 166.23 117.47 166.19 C118.56 166.18 119.64 166.17 120.76 166.16 C121.59 166.15 122.42 166.14 123.28 166.13 C123.61 167.78 123.94 169.43 124.28 171.13 C121.4 172.57 118.86 172.22 115.66 172.19 C114.47 172.18 113.28 172.17 112.05 172.16 C111.14 172.15 110.22 172.14 109.28 172.13 C108.19 175.41 108.18 177.86 108.22 181.31 C108.23 182.4 108.24 183.49 108.25 184.61 C108.26 185.44 108.27 186.27 108.28 187.13 C107.5 186.95 106.73 186.78 105.93 186.6 C103.26 186.12 101.81 186.28 99.28 187.13 C100.33 189.75 100.93 190.92 103.41 192.38 C104.03 192.62 104.64 192.87 105.28 193.13 C104.95 193.79 104.62 194.45 104.28 195.13 C98.07 196.26 91.9 196.28 85.59 196.25 C84.21 196.26 84.21 196.26 82.79 196.26 C81.9 196.26 81 196.26 80.08 196.26 C79.28 196.26 78.48 196.26 77.65 196.26 C75.06 196.12 72.77 195.85 70.28 195.13 C67.91 191.57 68.02 190.03 68 185.81 C68 185.16 67.99 184.52 67.99 183.86 C67.97 181.69 67.97 179.53 67.96 177.37 C67.95 175.83 67.94 174.28 67.93 172.73 C67.9 168.53 67.89 164.32 67.88 160.12 C67.86 155.73 67.83 151.34 67.81 146.94 C67.76 138.62 67.72 130.31 67.69 121.99 C67.65 112.52 67.6 103.05 67.55 93.58 C67.45 74.09 67.36 54.61 67.28 35.13 C49.96 34.63 49.96 34.63 32.28 34.13 C31.95 55.25 31.62 76.37 31.28 98.13 C30.29 98.46 29.3 98.79 28.28 99.13 C28.28 100.03 28.29 100.93 28.29 101.86 C28.31 110.43 28.32 119.01 28.33 127.58 C28.34 131.99 28.35 136.39 28.36 140.8 C28.37 145.07 28.37 149.33 28.38 153.6 C28.38 155.21 28.38 156.83 28.39 158.44 C28.42 169.37 28.04 180.22 27.28 191.13 C26.62 191.46 25.96 191.79 25.28 192.13 C26.27 192.13 27.26 192.13 28.28 192.13 C27.95 193.45 27.62 194.77 27.28 196.13 C18.7 196.13 10.12 196.13 1.28 196.13 C1.28 195.14 1.28 194.15 1.28 193.13 C0.95 194.12 0.62 195.11 0.28 196.13 C-5.59 195.25 -5.59 195.25 -6.72 194.13 C-6.97 191.68 -7.15 189.28 -7.27 186.83 C-7.32 186.01 -7.36 185.19 -7.4 184.34 C-8 170.84 -7.87 157.31 -7.85 143.8 C-7.84 139.72 -7.85 135.65 -7.85 131.57 C-7.86 128.4 -7.86 125.22 -7.85 122.05 C-7.85 120.55 -7.85 119.04 -7.86 117.54 C-7.87 103.22 -7.87 103.22 -6.72 96.13 C-7.98 96.23 -9.23 96.33 -10.53 96.44 C-12.74 96.46 -12.74 96.46 -14.72 96.13 C-16.72 93.63 -16.72 93.63 -17.72 91.13 C-16.66 89.56 -16.66 89.56 -14.72 88.13 C-11.14 88.38 -8.12 88.99 -4.72 90.13 C-4.39 90.79 -4.06 91.45 -3.72 92.13 C-1.17 92.44 1.28 92.64 3.84 92.75 C4.55 92.79 5.27 92.83 6 92.87 C7.76 92.96 9.52 93.05 11.28 93.13 C11.28 92.47 11.28 91.81 11.28 91.13 C10.23 91.09 9.19 91.05 8.11 91.01 C6.73 90.95 5.35 90.88 3.97 90.81 C3.28 90.79 2.59 90.77 1.88 90.75 C-3.26 90.47 -3.26 90.47 -5.4 88.85 C-6.98 86.79 -7.2 85.55 -7.4 82.98 C-7.46 82.18 -7.53 81.38 -7.59 80.56 C-7.78 76.88 -7.86 73.22 -7.85 69.54 C-7.85 68.74 -7.85 67.94 -7.86 67.12 C-7.86 64.52 -7.85 61.92 -7.84 59.31 C-7.84 58.42 -7.84 57.53 -7.84 56.62 C-7.82 43.28 -7.63 29.96 -7.28 16.63 C-7.26 15.84 -7.24 15.06 -7.22 14.25 C-7.17 12.05 -7.1 9.85 -7.04 7.66 C-7 6.42 -6.96 5.17 -6.92 3.89 C-6.56 -1 -4.42 0 0 0 Z M34.28 32.13 C38.28 33.13 38.28 33.13 38.28 33.13 Z M61.28 32.13 C61.28 32.46 61.28 32.79 61.28 33.13 C63.59 33.13 65.9 33.13 68.28 33.13 C68.28 32.8 68.28 32.47 68.28 32.13 C65.97 32.13 63.66 32.13 61.28 32.13 Z M117.28 32.13 C117.28 32.46 117.28 32.79 117.28 33.13 C119.59 33.13 121.9 33.13 124.28 33.13 C124.28 32.8 124.28 32.47 124.28 32.13 C121.97 32.13 119.66 32.13 117.28 32.13 Z M131.28 32.13 C135.28 33.13 135.28 33.13 135.28 33.13 Z M-3.72 88.13 C-3.72 88.46 -3.72 88.79 -3.72 89.13 C1.23 89.13 6.18 89.13 11.28 89.13 C11.28 88.8 11.28 88.47 11.28 88.13 C6.33 88.13 1.38 88.13 -3.72 88.13 Z M-13.72 94.13 C-9.72 95.13 -9.72 95.13 -9.72 95.13 Z M25.28 105.13 C26.28 109.13 26.28 109.13 26.28 109.13 Z M98.28 166.13 C98.28 166.46 98.28 166.79 98.28 167.13 C100.26 167.13 102.24 167.13 104.28 167.13 C104.28 166.8 104.28 166.47 104.28 166.13 C102.3 166.13 100.32 166.13 98.28 166.13 Z M25.28 167.13 C26.28 169.13 26.28 169.13 26.28 169.13 Z M105.28 166.13 C105.28 166.79 105.28 167.45 105.28 168.13 C101.65 168.13 98.02 168.13 94.28 168.13 C94.61 169.12 94.94 170.11 95.28 171.13 C98.91 171.13 102.54 171.13 106.28 171.13 C106.28 169.48 106.28 167.83 106.28 166.13 C105.95 166.13 105.62 166.13 105.28 166.13 Z M108.28 170.13 C108.28 170.46 108.28 170.79 108.28 171.13 C112.9 171.13 117.52 171.13 122.28 171.13 C122.28 170.8 122.28 170.47 122.28 170.13 C117.66 170.13 113.04 170.13 108.28 170.13 Z M26.28 171.13 C27.28 173.13 27.28 173.13 27.28 173.13 Z M25.28 176.13 C25.28 179.1 25.28 182.07 25.28 185.13 C25.61 185.13 25.94 185.13 26.28 185.13 C26.28 182.16 26.28 179.19 26.28 176.13 C25.95 176.13 25.62 176.13 25.28 176.13 Z M97.28 187.13 C98.28 189.13 98.28 189.13 98.28 189.13 Z " fill="#030707" transform="translate(827.7187194824219,491.8730163574219)"/>
<path d="M0 0 C1.56 0 3.12 0.01 4.68 0.02 C5.91 0.02 5.91 0.02 7.17 0.02 C9.79 0.03 12.42 0.04 15.05 0.05 C16.83 0.06 18.61 0.06 20.39 0.06 C24.75 0.08 29.12 0.09 33.49 0.11 C33.98 1.6 33.98 1.6 34.49 3.11 C35.15 2.78 35.81 2.45 36.49 2.11 C36.66 4.15 36.83 6.2 36.99 8.24 C37.08 9.38 37.18 10.51 37.27 11.68 C37.49 15.11 37.49 15.11 37.42 18.44 C37.5 21.68 38.26 21.98 40.49 24.11 C40.18 26.3 40.18 26.3 39.49 28.11 C40.81 28.77 42.13 29.43 43.49 30.11 C43.16 31.43 42.83 32.75 42.49 34.11 C43.48 34.11 44.47 34.11 45.49 34.11 C45.98 36.59 45.98 36.59 46.49 39.11 C47.15 39.11 47.81 39.11 48.49 39.11 C49.76 41.47 50.67 43.68 51.49 46.24 C52.29 49.2 52.29 49.2 54.49 51.11 C55.11 53.74 55.11 53.74 55.49 56.11 C56.15 56.11 56.81 56.11 57.49 56.11 C58.48 59.08 58.48 59.08 59.49 62.11 C60.15 62.11 60.81 62.11 61.49 62.11 C61.6 61.5 61.71 60.88 61.82 60.25 C62.06 59.04 62.06 59.04 62.3 57.8 C62.53 56.6 62.53 56.6 62.76 55.38 C63.57 52.85 64.57 51.88 66.49 50.11 C66.84 48.78 67.18 47.45 67.49 46.11 C68.15 45.78 68.81 45.45 69.49 45.11 C69.49 44.12 69.49 43.13 69.49 42.11 C70.15 42.11 70.81 42.11 71.49 42.11 C71.82 40.13 72.15 38.15 72.49 36.11 C73.15 36.11 73.81 36.11 74.49 36.11 C74.49 35.12 74.49 34.13 74.49 33.11 C75.15 33.11 75.81 33.11 76.49 33.11 C76.61 32.16 76.74 31.22 76.86 30.24 C77.49 27.11 77.49 27.11 79.49 25.11 C79.91 22.94 79.91 22.94 80.05 20.55 C80.39 16.21 80.39 16.21 81.49 15.11 C81.48 12.36 81.36 9.62 81.23 6.88 C81.55 3.51 82.04 2.44 84.49 0.11 C87.17 -0.28 89.44 -0.42 92.11 -0.38 C92.86 -0.38 93.6 -0.39 94.37 -0.39 C95.94 -0.39 97.51 -0.37 99.08 -0.35 C101.48 -0.32 103.88 -0.33 106.29 -0.35 C107.81 -0.34 109.34 -0.33 110.86 -0.32 C111.94 -0.32 111.94 -0.32 113.04 -0.33 C118.04 -0.23 118.04 -0.23 120.47 1.64 C120.97 2.37 120.97 2.37 121.49 3.11 C121.16 3.44 120.83 3.77 120.49 4.11 C120.3 7.75 120.3 7.75 121.49 11.11 C121.12 15.03 120.73 18.39 119.49 22.11 C119.49 22.77 119.49 23.43 119.49 24.11 C118.83 24.44 118.17 24.77 117.49 25.11 C117.55 26.23 117.61 27.34 117.68 28.49 C117.58 30.28 117.58 30.28 117.49 32.11 C116.5 32.77 115.51 33.43 114.49 34.11 C114.24 36.7 114.24 36.7 114.49 39.11 C113.17 39.44 111.85 39.77 110.49 40.11 C111.15 40.44 111.81 40.77 112.49 41.11 C111.37 44.48 109.96 45.65 107.49 48.11 C107.16 49.1 106.83 50.09 106.49 51.11 C105.83 50.78 105.17 50.45 104.49 50.11 C104.82 51.1 105.15 52.09 105.49 53.11 C104.5 53.77 103.51 54.43 102.49 55.11 C101.76 58.18 101.76 58.18 101.49 61.11 C100 61.61 100 61.61 98.49 62.11 C98.11 63.44 97.79 64.77 97.49 66.11 C94.49 71.64 90.95 77.65 86.49 82.11 C85.99 83.6 85.99 83.6 85.49 85.11 C84 85.61 84 85.61 82.49 86.11 C82.24 87.71 82.02 89.32 81.8 90.93 C81.67 91.82 81.55 92.71 81.42 93.63 C81.24 96.18 81.24 96.18 82.97 97.94 C83.47 98.33 83.97 98.71 84.49 99.11 C82.49 102.11 82.49 102.11 80.54 102.63 C79.83 102.68 79.11 102.74 78.36 102.8 C77.09 102.9 75.81 103.01 74.49 103.11 C74.82 104.1 75.15 105.09 75.49 106.11 C76.24 106.09 76.99 106.07 77.76 106.04 C78.74 106.03 79.73 106.01 80.74 105.99 C81.71 105.97 82.69 105.94 83.69 105.92 C86.56 106.12 88.14 106.49 90.49 108.11 C90.82 109.1 91.15 110.09 91.49 111.11 C92.48 112.45 93.48 113.79 94.49 115.11 C94.82 115.79 95.15 116.47 95.49 117.18 C96.39 119.16 96.39 119.16 97.93 120.55 C101.52 124.15 102.92 128.39 104.49 133.11 C105.82 134.45 107.19 135.74 108.6 137 C111.51 141.8 110.91 146.43 110.74 151.93 C110.72 153 110.7 154.07 110.69 155.18 C110.64 157.83 110.57 160.47 110.49 163.11 C111.15 163.11 111.81 163.11 112.49 163.11 C112.49 163.77 112.49 164.43 112.49 165.11 C113.48 165.11 114.47 165.11 115.49 165.11 C115.49 170.06 115.49 175.01 115.49 180.11 C111.2 180.44 106.91 180.77 102.49 181.11 C102.82 182.1 103.15 183.09 103.49 184.11 C107.78 184.44 112.07 184.77 116.49 185.11 C116.16 187.42 115.83 189.73 115.49 192.11 C100.82 192.11 86.16 192.11 71.49 192.11 C71.16 175.94 70.83 159.77 70.49 143.11 C68.51 142.12 68.51 142.12 66.49 141.11 C65.3 139.23 65.3 139.23 64.35 136.98 C64 136.18 63.65 135.37 63.29 134.54 C62.95 133.7 62.6 132.86 62.24 131.99 C61.88 131.14 61.51 130.29 61.14 129.41 C60.24 127.32 59.36 125.22 58.49 123.11 C57 125.98 57 125.98 56.05 129.05 C55.32 131.73 53.93 133.75 52.49 136.11 C51.79 137.77 51.12 139.43 50.49 141.11 C50.16 141.11 49.83 141.11 49.49 141.11 C49.49 150.35 49.49 159.59 49.49 169.11 C48.17 169.11 46.85 169.11 45.49 169.11 C45.49 171.42 45.49 173.73 45.49 176.11 C43.84 175.78 42.19 175.45 40.49 175.11 C40.49 176.1 40.49 177.09 40.49 178.11 C41.48 178.44 42.47 178.77 43.49 179.11 C42.16 181.78 40.82 184.45 39.49 187.11 C38.5 187.11 37.51 187.11 36.49 187.11 C36.49 189.75 36.49 192.39 36.49 195.11 C32.53 195.44 28.57 195.77 24.49 196.11 C24.49 195.12 24.49 194.13 24.49 193.11 C23.83 194.1 23.17 195.09 22.49 196.11 C18.93 196.36 18.93 196.36 15.49 196.11 C15.16 195.78 14.83 195.45 14.49 195.11 C13.11 195.06 11.72 195.08 10.34 195.12 C9.5 195.14 8.66 195.15 7.79 195.17 C6.02 195.22 4.24 195.27 2.46 195.33 C1.62 195.34 0.77 195.36 -0.1 195.37 C-0.87 195.39 -1.64 195.42 -2.44 195.44 C-4.51 195.11 -4.51 195.11 -6.27 194.03 C-8.15 191.12 -7.85 188.69 -7.8 185.26 C-7.8 184.6 -7.79 183.93 -7.79 183.25 C-7.77 181.14 -7.74 179.04 -7.7 176.93 C-7.68 175.49 -7.67 174.06 -7.66 172.63 C-7.62 169.12 -7.57 165.62 -7.51 162.11 C-4.87 162.11 -2.23 162.11 0.49 162.11 C0.49 152.87 0.49 143.63 0.49 134.11 C10.93 134.18 10.93 134.18 14.22 134.2 C15.07 134.21 15.92 134.21 16.8 134.21 C17.67 134.22 18.55 134.22 19.45 134.23 C21.48 134.34 21.48 134.34 22.49 133.11 C19.85 132.78 17.21 132.45 14.49 132.11 C13.58 129.37 13.36 127.74 13.36 124.92 C13.36 124.12 13.35 123.32 13.35 122.5 C13.36 121.67 13.36 120.84 13.36 119.99 C13.36 118.73 13.36 118.73 13.35 117.45 C13.36 111.24 13.36 111.24 14.49 110.11 C17.02 109.88 19.52 109.69 22.05 109.55 C23.12 109.49 23.12 109.49 24.21 109.42 C25.97 109.31 27.73 109.21 29.49 109.11 C29.79 107.99 30.09 106.87 30.4 105.72 C31.45 102.25 31.92 101.37 34.49 99.11 C35.8 96.79 36.64 94.65 37.49 92.11 C36.09 89.67 36.09 89.67 34.11 87.18 C30.1 81.87 30.1 81.87 29.49 78.11 C28.83 78.11 28.17 78.11 27.49 78.11 C26.15 76.3 26.15 76.3 24.55 73.68 C23.93 72.68 23.31 71.68 22.68 70.64 C22.16 69.8 22.16 69.8 21.63 68.95 C19.48 65.49 17.26 62.09 15.05 58.68 C14.58 57.95 14.11 57.22 13.63 56.47 C11.49 53.16 9.34 49.87 7.11 46.64 C3.38 41.21 0.41 36.42 -1.51 30.11 C-1.9 28.92 -2.29 27.72 -2.7 26.49 C-3.49 23.21 -3.59 20.46 -3.51 17.11 C-3.84 16.45 -4.17 15.79 -4.51 15.11 C-4.61 12.76 -4.64 10.41 -4.64 8.05 C-4.64 6.78 -4.64 5.51 -4.64 4.2 C-4.45 -0.17 -4.46 0.14 0 0 Z M40.49 29.11 C41.49 31.11 41.49 31.11 41.49 31.11 Z M57.49 60.11 C58.49 62.11 58.49 62.11 58.49 62.11 Z M95.49 64.11 C96.49 66.11 96.49 66.11 96.49 66.11 Z M90.49 72.11 C91.49 74.11 91.49 74.11 91.49 74.11 Z M78.49 91.11 C78.82 91.77 79.15 92.43 79.49 93.11 C79.82 92.45 80.15 91.79 80.49 91.11 C79.83 91.11 79.17 91.11 78.49 91.11 Z M72.49 103.11 C73.49 105.11 73.49 105.11 73.49 105.11 Z M42.49 167.11 C42.49 167.44 42.49 167.77 42.49 168.11 C44.14 168.11 45.79 168.11 47.49 168.11 C47.49 167.78 47.49 167.45 47.49 167.11 C45.84 167.11 44.19 167.11 42.49 167.11 Z M40.49 169.11 C41.49 171.11 41.49 171.11 41.49 171.11 Z M34.49 184.11 C34.49 187.08 34.49 190.05 34.49 193.11 C32.51 193.11 30.53 193.11 28.49 193.11 C28.49 193.44 28.49 193.77 28.49 194.11 C30.8 194.11 33.11 194.11 35.49 194.11 C35.49 190.81 35.49 187.51 35.49 184.11 C35.16 184.11 34.83 184.11 34.49 184.11 Z M36.49 184.11 C37.49 186.11 37.49 186.11 37.49 186.11 Z " fill="#020505" transform="translate(480.510009765625,491.886474609375)"/>
<path d="M0 0 C12.33 -0.09 24.67 -0.16 37 -0.21 C42.73 -0.23 48.46 -0.26 54.19 -0.3 C59.71 -0.35 65.23 -0.37 70.76 -0.38 C72.87 -0.39 74.98 -0.4 77.09 -0.42 C80.04 -0.45 82.99 -0.46 85.94 -0.45 C86.82 -0.47 87.69 -0.48 88.6 -0.5 C94.53 -0.46 94.53 -0.46 97.07 2.03 C97.37 2.68 97.68 3.33 98 4 C97.67 4.33 97.34 4.66 97 5 C96.84 7.07 96.75 9.15 96.68 11.22 C96.64 12.48 96.6 13.74 96.56 15.04 C96.52 16.38 96.48 17.72 96.44 19.06 C96.39 20.41 96.35 21.75 96.31 23.1 C96.2 26.4 96.1 29.7 96 33 C88.51 33.14 81.01 33.29 73.52 33.43 C70.97 33.48 68.42 33.52 65.87 33.57 C62.21 33.64 58.55 33.71 54.89 33.78 C53.74 33.8 52.6 33.82 51.42 33.85 C50.36 33.87 49.3 33.89 48.21 33.91 C47.27 33.93 46.34 33.94 45.37 33.96 C43.25 34 41.12 34 39 34 C38.97 40.25 38.96 46.5 38.95 52.74 C38.94 54.87 38.93 57 38.92 59.13 C38.91 62.18 38.91 65.23 38.9 68.28 C38.9 69.23 38.89 70.19 38.89 71.18 C38.89 72.06 38.89 72.94 38.89 73.85 C38.88 74.63 38.88 75.41 38.88 76.21 C38.8 78.02 38.8 78.02 40 79 C41.47 79.12 42.94 79.17 44.41 79.19 C45.35 79.21 46.29 79.22 47.25 79.24 C48.78 79.26 48.78 79.26 50.34 79.28 C51.38 79.3 52.42 79.32 53.49 79.34 C56.83 79.4 60.16 79.45 63.5 79.5 C67.89 79.57 72.27 79.64 76.66 79.72 C77.68 79.73 78.7 79.75 79.75 79.76 C80.68 79.78 81.62 79.79 82.59 79.81 C83.42 79.82 84.25 79.84 85.1 79.85 C87 80 87 80 88 81 C88.07 83.56 88 86.1 87.94 88.65 C87.83 91.02 87.83 91.02 89 93 C87.68 93.33 86.36 93.66 85 94 C84.94 94.77 84.88 95.54 84.82 96.34 C84.69 97.84 84.69 97.84 84.56 99.38 C84.48 100.37 84.4 101.37 84.32 102.4 C84 105 84 105 83 107 C84.98 107.33 86.96 107.66 89 108 C88.5 109.98 88.5 109.98 88 112 C87.02 112.02 86.03 112.04 85.02 112.06 C81.37 112.14 77.72 112.22 74.07 112.32 C72.49 112.36 70.91 112.39 69.33 112.42 C67.05 112.47 64.78 112.53 62.51 112.59 C61.81 112.6 61.1 112.61 60.37 112.62 C56.72 112.73 55.12 112.92 52 115 C51.5 116.98 51.5 116.98 51 119 C42.58 119.5 42.58 119.5 34 120 C35.32 120.99 36.64 121.98 38 123 C38.39 125.48 38.39 125.48 38.25 128.19 C38.21 129.09 38.18 129.99 38.14 130.92 C38.09 131.61 38.05 132.29 38 133 C39.42 133.22 39.42 133.22 40.88 133.44 C44 134 44 134 46 135 C46.33 135.99 46.66 136.98 47 138 C48.92 137.97 48.92 137.97 50.88 137.94 C54.75 137.88 54.75 137.88 57 139 C56.67 140.65 56.34 142.3 56 144 C50 144 44 144 38 144 C38 159.51 38 175.02 38 191 C28.1 191.5 28.1 191.5 18 192 C18.33 192.99 18.66 193.98 19 195 C15.25 196.12 15.25 196.12 13 195 C11.36 194.9 9.71 194.87 8.06 194.88 C7.19 194.87 6.31 194.87 5.41 194.87 C2.86 194.9 2.86 194.9 0 196 C-1.82 192.26 -2.33 189.99 -1 186 C2.28 184.36 5.43 185.48 9 186 C8.67 184.68 8.34 183.36 8 182 C7.36 181.88 6.72 181.76 6.07 181.63 C4.83 181.38 4.83 181.38 3.56 181.12 C2.74 180.96 1.92 180.8 1.07 180.63 C0.38 180.42 -0.3 180.22 -1 180 C-2.5 177 -2.09 174.21 -2.06 170.88 C-2.05 169.59 -2.04 168.31 -2.04 166.99 C-2.02 166 -2.01 165.02 -2 164 C-1.34 164 -0.68 164 0 164 C-1.04 162.91 -1.04 162.91 -2.56 161.88 C-4.74 159.04 -4.2 156.46 -4 153 C-1.07 152.02 0.96 151.92 4 152 C-1.24 152 -1.24 152 -4 150 C-4.94 147.62 -4.94 147.62 -5 145 C-3.56 142.69 -3.56 142.69 -2 141 C-0.02 141.33 1.96 141.66 4 142 C4 141.34 4 140.68 4 140 C2.02 140 0.04 140 -2 140 C-5 133.38 -5 133.38 -5 130 C-3.68 130 -2.36 130 -1 130 C-0.67 130.66 -0.34 131.32 0 132 C2.41 128.26 2.35 124.48 2.41 120.17 C2.43 119.42 2.45 118.67 2.47 117.9 C2.53 115.52 2.58 113.13 2.62 110.75 C2.66 109.13 2.7 107.51 2.74 105.89 C2.84 101.93 2.92 97.96 3 94 C6.08 93.71 6.08 93.71 9.15 93.41 C10.07 93.21 10.07 93.21 11 93 C11.33 92.34 11.66 91.68 12 91 C11.34 91 10.68 91 10 91 C10 91.66 10 92.32 10 93 C9.01 92.67 8.02 92.34 7 92 C7.66 92 8.32 92 9 92 C9 91.34 9 90.68 9 90 C6.36 90.33 3.72 90.66 1 91 C-2.05 87.93 -2.35 85.35 -2.37 81.11 C-2.36 80.33 -2.35 79.55 -2.34 78.74 C-2.34 77.5 -2.34 77.5 -2.34 76.23 C-2.34 73.49 -2.32 70.75 -2.29 68.02 C-2.29 66.12 -2.28 64.22 -2.28 62.32 C-2.27 57.32 -2.24 52.32 -2.21 47.32 C-2.18 42.22 -2.16 37.12 -2.15 32.02 C-2.11 22.01 -2.06 12.01 -2 2 C-1.34 1.67 -0.68 1.34 0 1 C0 0.67 0 0.34 0 0 Z M82 93 C82 96.96 82 100.92 82 105 C82.33 105 82.66 105 83 105 C83 101.04 83 97.08 83 93 C82.67 93 82.34 93 82 93 Z M39 136 C40 138 40 138 40 138 Z M26 139 C26 139.33 26 139.66 26 140 C28.97 140 31.94 140 35 140 C35 139.67 35 139.34 35 139 C32.03 139 29.06 139 26 139 Z M22 141 C22 141.33 22 141.66 22 142 C23.98 142 25.96 142 28 142 C28 141.67 28 141.34 28 141 C26.02 141 24.04 141 22 141 Z M-3 148 C-3 148.66 -3 149.32 -3 150 C-2.34 149.67 -1.68 149.34 -1 149 C-1.66 148.67 -2.32 148.34 -3 148 Z M3 156 C4 158 4 158 4 158 Z M-1 187 C0 190 0 190 0 190 Z " fill="#020505" transform="translate(313,492)"/>
<path d="M0 0 C1.12 0.01 1.12 0.01 2.26 0.02 C3.03 0.02 3.79 0.02 4.58 0.02 C6.21 0.03 7.83 0.03 9.45 0.05 C11.94 0.06 14.42 0.07 16.91 0.07 C18.48 0.07 20.06 0.08 21.64 0.08 C22.38 0.09 23.12 0.09 23.89 0.09 C27.03 0.12 29.51 0.25 32.51 1.25 C32.63 13.33 32.72 25.4 32.77 37.47 C32.8 43.08 32.83 48.69 32.89 54.29 C32.95 59.7 32.98 65.11 32.99 70.51 C33 72.58 33.02 74.65 33.04 76.71 C33.08 79.6 33.08 82.49 33.08 85.37 C33.1 86.23 33.12 87.09 33.14 87.98 C33.12 90.36 33.12 90.36 32.51 94.25 C31.69 94.74 30.86 95.22 30.01 95.72 C27.37 96.94 27.37 96.94 27.06 99.08 C26.9 101.62 26.9 104.13 26.95 106.68 C26.95 108.13 26.95 108.13 26.94 109.61 C26.95 112.81 26.99 116 27.03 119.2 C27.04 121.42 27.04 123.63 27.05 125.85 C27.07 131.68 27.12 137.52 27.17 143.35 C27.22 149.3 27.24 155.26 27.27 161.21 C27.32 172.89 27.41 184.57 27.51 196.25 C22.97 196.31 18.43 196.35 13.89 196.38 C11.96 196.4 11.96 196.4 9.99 196.43 C8.75 196.43 7.51 196.44 6.22 196.45 C5.08 196.46 3.94 196.47 2.77 196.48 C-0.65 196.24 -3.33 195.58 -6.49 194.25 C-7.62 191.99 -7.61 190.77 -7.61 188.25 C-7.61 187.42 -7.61 186.58 -7.61 185.72 C-7.61 184.8 -7.6 183.88 -7.6 182.94 C-7.6 181.97 -7.6 181.01 -7.6 180.01 C-7.6 176.81 -7.59 173.6 -7.58 170.4 C-7.58 168.18 -7.58 165.97 -7.58 163.75 C-7.58 157.91 -7.57 152.06 -7.55 146.22 C-7.54 140.26 -7.54 134.3 -7.53 128.35 C-7.52 116.65 -7.51 104.95 -7.49 93.25 C-7.82 93.91 -8.15 94.57 -8.49 95.25 C-10.81 95.66 -13.14 96 -15.49 96.25 C-15.49 95.59 -15.49 94.93 -15.49 94.25 C-17.14 94.25 -18.79 94.25 -20.49 94.25 C-20.28 95.02 -20.07 95.78 -19.86 96.56 C-19.49 99.25 -19.49 99.25 -21.49 102.25 C-24.61 102.44 -24.61 102.44 -27.49 102.25 C-27.16 102.91 -26.83 103.57 -26.49 104.25 C-24.18 104.25 -21.87 104.25 -19.49 104.25 C-19.82 105.24 -20.15 106.23 -20.49 107.25 C-20.1 109.39 -20.1 109.39 -19.49 111.25 C-21.8 110.92 -24.11 110.59 -26.49 110.25 C-26.49 110.58 -26.49 110.91 -26.49 111.25 C-26.49 112.24 -26.49 113.23 -26.49 114.25 C-24.51 113.76 -24.51 113.76 -22.49 113.25 C-22.16 115.89 -21.83 118.53 -21.49 121.25 C-23.47 121.75 -23.47 121.75 -25.49 122.25 C-24.83 122.91 -24.17 123.57 -23.49 124.25 C-24.15 124.25 -24.81 124.25 -25.49 124.25 C-25.82 125.24 -26.15 126.23 -26.49 127.25 C-26.98 124.28 -26.98 124.28 -27.49 121.25 C-28.48 121.25 -29.47 121.25 -30.49 121.25 C-30.98 118.78 -30.98 118.78 -31.49 116.25 C-30.83 116.25 -30.17 116.25 -29.49 116.25 C-29.61 115.2 -29.61 115.2 -29.74 114.14 C-29.84 113.22 -29.94 112.31 -30.05 111.38 C-30.15 110.47 -30.26 109.57 -30.36 108.64 C-30.49 106.25 -30.49 106.25 -29.49 104.25 C-30.15 104.25 -30.81 104.25 -31.49 104.25 C-31.49 103.26 -31.49 102.27 -31.49 101.25 C-30.83 101.25 -30.17 101.25 -29.49 101.25 C-29.69 100.28 -29.9 99.31 -30.11 98.31 C-30.49 94.25 -30.49 94.25 -28.49 85.25 C-21.56 85.58 -14.63 85.91 -7.49 86.25 C-7.5 82.45 -7.5 82.45 -7.52 78.57 C-7.55 70.22 -7.57 61.86 -7.59 53.5 C-7.6 48.43 -7.61 43.36 -7.64 38.29 C-7.66 33.4 -7.67 28.51 -7.68 23.63 C-7.68 21.76 -7.69 19.89 -7.7 18.02 C-7.71 15.41 -7.71 12.8 -7.71 10.19 C-7.72 9.02 -7.72 9.02 -7.73 7.83 C-7.71 1.29 -6.57 0.03 0 0 Z M30.51 2.25 C31.51 5.25 31.51 5.25 31.51 5.25 Z M30.51 11.25 C30.51 18.51 30.51 25.77 30.51 33.25 C30.84 33.25 31.17 33.25 31.51 33.25 C31.51 25.99 31.51 18.73 31.51 11.25 C31.18 11.25 30.85 11.25 30.51 11.25 Z M30.51 37.25 C30.51 41.87 30.51 46.49 30.51 51.25 C30.84 51.25 31.17 51.25 31.51 51.25 C31.51 46.63 31.51 42.01 31.51 37.25 C31.18 37.25 30.85 37.25 30.51 37.25 Z M30.51 57.25 C30.51 59.56 30.51 61.87 30.51 64.25 C30.84 64.25 31.17 64.25 31.51 64.25 C31.51 61.94 31.51 59.63 31.51 57.25 C31.18 57.25 30.85 57.25 30.51 57.25 Z M30.51 65.25 C30.51 69.21 30.51 73.17 30.51 77.25 C30.84 77.25 31.17 77.25 31.51 77.25 C31.51 73.29 31.51 69.33 31.51 65.25 C31.18 65.25 30.85 65.25 30.51 65.25 Z M30.51 78.25 C30.51 79.9 30.51 81.55 30.51 83.25 C30.84 83.25 31.17 83.25 31.51 83.25 C31.51 81.6 31.51 79.95 31.51 78.25 C31.18 78.25 30.85 78.25 30.51 78.25 Z M-3.49 88.25 C-3.49 88.58 -3.49 88.91 -3.49 89.25 C1.46 89.25 6.41 89.25 11.51 89.25 C11.51 88.92 11.51 88.59 11.51 88.25 C6.56 88.25 1.61 88.25 -3.49 88.25 Z M-4.49 89.25 C-4.49 90.57 -4.49 91.89 -4.49 93.25 C1.12 93.58 6.73 93.91 12.51 94.25 C12.51 92.93 12.51 91.61 12.51 90.25 C6.9 89.92 1.29 89.59 -4.49 89.25 Z M-22.49 96.25 C-21.49 98.25 -21.49 98.25 -21.49 98.25 Z M-25.49 99.25 C-25.82 99.91 -26.15 100.57 -26.49 101.25 C-25.83 101.25 -25.17 101.25 -24.49 101.25 C-24.82 100.59 -25.15 99.93 -25.49 99.25 Z M-23.49 99.25 C-22.49 101.25 -22.49 101.25 -22.49 101.25 Z " fill="#030808" transform="translate(773.4859466552734,491.7477569580078)"/>
<path d="M0 0 C4.95 -0.05 9.9 -0.09 14.84 -0.11 C16.53 -0.12 18.21 -0.13 19.9 -0.15 C22.31 -0.18 24.73 -0.19 27.15 -0.2 C27.9 -0.21 28.66 -0.22 29.44 -0.23 C31.29 -0.23 33.15 -0.12 35 0 C37 2 37 2 37.2 5.81 C37.19 7.49 37.17 9.17 37.14 10.86 C37.13 11.77 37.12 12.69 37.11 13.64 C37.07 16.68 37.02 19.72 36.98 22.76 C36.95 24.86 36.93 26.97 36.9 29.07 C36.83 34.62 36.76 40.17 36.67 45.71 C36.59 51.37 36.52 57.03 36.45 62.68 C36.31 73.79 36.16 84.89 36 96 C35.01 96.33 34.02 96.66 33 97 C33 129.34 33 161.68 33 195 C32.01 195 31.02 195 30 195 C29.34 195.33 28.68 195.66 28 196 C26.48 196.09 24.96 196.13 23.44 196.12 C22.63 196.13 21.83 196.13 21 196.13 C19 196 19 196 18 195 C15.55 194.93 13.13 194.91 10.69 194.94 C9.67 194.94 9.67 194.94 8.63 194.95 C6.76 194.96 4.88 194.98 3 195 C1.68 195 0.36 195 -1 195 C-1 191.37 -1 187.74 -1 184 C-1.66 183.67 -2.32 183.34 -3 183 C-2.34 183 -1.68 183 -1 183 C-1.24 181.72 -1.24 181.72 -1.49 180.42 C-2 177 -2.13 173.78 -2.13 170.33 C-2.13 169.04 -2.14 167.74 -2.14 166.41 C-2.13 165.02 -2.13 163.64 -2.12 162.25 C-2.12 161.55 -2.12 160.85 -2.12 160.13 C-2.1 146.4 -1.67 132.71 -1 119 C-1.66 118.67 -2.32 118.34 -3 118 C-2.34 118 -1.68 118 -1 118 C-1.66 116.35 -2.32 114.7 -3 113 C-2.5 112.5 -2.5 112.5 -2 112 C-2.33 111.34 -2.66 110.68 -3 110 C-2.5 109.5 -2.5 109.5 -2 109 C-2.33 108.34 -2.66 107.68 -3 107 C-2.5 106.5 -2.5 106.5 -2 106 C-2.33 105.34 -2.66 104.68 -3 104 C-2.34 104 -1.68 104 -1 104 C-1.57 99.87 -1.57 99.87 -3 96 C-5.31 96 -7.62 96 -10 96 C-11.46 93.35 -12 92.11 -12 89 C-10 87 -10 87 -7.84 86.8 C-5.56 86.87 -3.28 86.93 -1 87 C-1 83.37 -1 79.74 -1 76 C-1.66 76 -2.32 76 -3 76 C-3 74 -3 72 -3 70 C-2.01 69.5 -2.01 69.5 -1 69 C-1.33 68.01 -1.66 67.02 -2 66 C-2.09 64.43 -2.13 62.86 -2.13 61.29 C-2.13 60.34 -2.14 59.38 -2.14 58.4 C-2.14 56.84 -2.14 56.84 -2.13 55.26 C-2.13 54.19 -2.13 53.12 -2.14 52.01 C-2.14 49.73 -2.13 47.46 -2.13 45.18 C-2.13 41.74 -2.13 38.3 -2.14 34.86 C-2.15 4.29 -2.15 4.29 0 0 Z M-2 73 C-1 75 -1 75 -1 75 Z M0 88 C0.33 88.66 0.66 89.32 1 90 C8.92 89.5 8.92 89.5 17 89 C17 88.67 17 88.34 17 88 C11.39 88 5.78 88 0 88 Z M-1 90 C0 93 0 93 0 93 Z M1 90 C1.33 91.32 1.66 92.64 2 94 C6.95 93.67 11.9 93.34 17 93 C17.33 92.01 17.66 91.02 18 90 C12.39 90 6.78 90 1 90 Z M-9 94 C-9 94.33 -9 94.66 -9 95 C-7.02 95 -5.04 95 -3 95 C-3 94.67 -3 94.34 -3 94 C-4.98 94 -6.96 94 -9 94 Z " fill="#010404" transform="translate(430,492)"/>
<path d="M0 0 C4.45 3.85 5.71 6.06 6.27 11.77 C6.32 13.28 6.32 13.28 6.38 14.81 C6.42 15.81 6.47 16.81 6.52 17.83 C5.98 21.11 5.52 21.8 3.5 24.23 C0.03 28.7 0.43 32.99 0.69 38.44 C0.71 39.36 0.73 40.28 0.76 41.23 C0.81 43.49 0.9 45.74 1 48 C-2.27 49.75 -4.45 50.25 -8.19 50.19 C-9.07 50.18 -9.95 50.17 -10.86 50.17 C-13 50 -13 50 -14 49 C-15.11 49.04 -16.23 49.08 -17.38 49.12 C-21 49 -21 49 -22.88 47.75 C-25.47 43.71 -24.92 40.41 -24.06 35.81 C-23.87 34.75 -23.67 33.68 -23.47 32.58 C-23.32 31.73 -23.16 30.88 -23 30 C-23 27.6 -24.84 25.24 -26.14 23.32 C-29.57 17.89 -29.3 13.26 -28.1 7.07 C-26.38 2.26 -23.46 -0.59 -19 -3 C-12.18 -4.86 -5.94 -3.69 0 0 Z M-18 10 C-19.26 13.06 -19.14 14.51 -18.25 17.69 C-17.08 20.29 -17.08 20.29 -14 22 C-11.67 22.08 -9.33 22.09 -7 22 C-6.71 21.42 -6.42 20.85 -6.12 20.25 C-5 18 -5 18 -3.75 16.06 C-2.76 13.94 -2.76 13.94 -3.62 11.44 C-5.13 8.76 -6.35 7.53 -9 6 C-13.1 6 -14.84 7.46 -18 10 Z M-19 7 C-18.67 7.66 -18.34 8.32 -18 9 C-17.67 8.34 -17.34 7.68 -17 7 C-17.66 7 -18.32 7 -19 7 Z M-20 9 C-19 11 -19 11 -19 11 Z M-21 11 C-20 13 -20 13 -20 13 Z M-11 32 C-11.33 34.31 -11.66 36.62 -12 39 C-11.01 39 -10.02 39 -9 39 C-9.33 36.69 -9.66 34.38 -10 32 C-10.33 32 -10.66 32 -11 32 Z " fill="#488DAE" transform="translate(652,390)"/>
<path d="M0 0 C0 0.66 0 1.32 0 2 C-1.65 2 -3.3 2 -5 2 C-4.79 2.76 -4.59 3.53 -4.38 4.31 C-4 7 -4 7 -6 10 C-9.12 10.19 -9.12 10.19 -12 10 C-11.67 10.66 -11.34 11.32 -11 12 C-8.69 12 -6.38 12 -4 12 C-4.33 12.99 -4.66 13.98 -5 15 C-4.61 17.14 -4.61 17.14 -4 19 C-6.31 18.67 -8.62 18.34 -11 18 C-11 18.33 -11 18.66 -11 19 C-11 19.99 -11 20.98 -11 22 C-9.68 21.67 -8.36 21.34 -7 21 C-6.67 23.64 -6.34 26.28 -6 29 C-7.32 29.33 -8.64 29.66 -10 30 C-9.34 30.66 -8.68 31.32 -8 32 C-8.66 32 -9.32 32 -10 32 C-10.33 32.99 -10.66 33.98 -11 35 C-11.33 33.02 -11.66 31.04 -12 29 C-12.99 29 -13.98 29 -15 29 C-15.33 27.35 -15.66 25.7 -16 24 C-15.34 24 -14.68 24 -14 24 C-14.08 23.3 -14.17 22.6 -14.25 21.88 C-14.36 20.97 -14.46 20.06 -14.56 19.12 C-14.67 18.22 -14.77 17.32 -14.88 16.38 C-15 14 -15 14 -14 12 C-14.66 12 -15.32 12 -16 12 C-16 11.01 -16 10.02 -16 9 C-15.34 9 -14.68 9 -14 9 C-14.28 7.3 -14.28 7.3 -14.56 5.56 C-14.78 3.8 -14.78 3.8 -15 2 C-11.84 -1.16 -4.18 -0.09 0 0 Z M-7 4 C-6 6 -6 6 -6 6 Z M-10 7 C-10.33 7.66 -10.66 8.32 -11 9 C-10.34 9 -9.68 9 -9 9 C-9.33 8.34 -9.66 7.68 -10 7 Z M-8 7 C-7 9 -7 9 -7 9 Z " fill="#4486A5" transform="translate(758,584)"/>
<path d="M0 0 C0.33 0 0.66 0 1 0 C1 2.31 1 4.62 1 7 C3 8 4.83 8.49 7 9 C7 10.65 7 12.3 7 14 C5.02 14.66 3.04 15.32 1 16 C1.01 16.66 1.01 17.32 1.02 18 C1.04 20.98 1.05 23.96 1.06 26.94 C1.07 27.98 1.08 29.02 1.09 30.09 C1.09 31.08 1.09 32.07 1.1 33.09 C1.1 34.01 1.11 34.92 1.11 35.87 C1 38 1 38 0 39 C-2.64 39.33 -5.28 39.66 -8 40 C-8.33 47.92 -8.66 55.84 -9 64 C-9.66 63.67 -10.32 63.34 -11 63 C-10.86 59.02 -10.71 55.04 -10.56 51.06 C-10.52 49.93 -10.48 48.79 -10.44 47.62 C-10.4 46.54 -10.36 45.46 -10.32 44.35 C-10.28 43.35 -10.24 42.35 -10.21 41.32 C-10 39 -10 39 -9 38 C-6.35 37.55 -3.68 37.3 -1 37 C-0.98 32.89 -0.96 28.78 -0.95 24.66 C-0.94 23.27 -0.93 21.87 -0.92 20.47 C-0.91 18.46 -0.91 16.45 -0.9 14.44 C-0.9 13.23 -0.89 12.02 -0.89 10.78 C-0.68 8.09 -0.68 8.09 -2 7 C-2.04 5.33 -2.04 3.67 -2 2 C-1.34 2 -0.68 2 0 2 C0 1.34 0 0.68 0 0 Z " fill="#478BAB" transform="translate(744,616)"/>
<path d="M0 0 C1.32 0.33 2.64 0.66 4 1 C3.01 1 2.02 1 1 1 C1 32.68 1 64.36 1 97 C0.67 97 0.34 97 0 97 C0 64.99 0 32.98 0 0 Z " fill="#4B93B5" transform="translate(801,589)"/>
<path d="M0 0 C0.33 0 0.66 0 1 0 C1 30.36 1 60.72 1 92 C-1.48 92.5 -1.48 92.5 -4 93 C-2.51 92.01 -2.51 92.01 -1 91 C-0.68 88.07 -0.56 85.35 -0.57 82.42 C-0.55 81.09 -0.55 81.09 -0.54 79.73 C-0.51 76.79 -0.5 73.84 -0.49 70.9 C-0.47 68.86 -0.45 66.82 -0.43 64.79 C-0.39 59.42 -0.36 54.05 -0.33 48.68 C-0.3 43.2 -0.25 37.73 -0.21 32.25 C-0.12 21.5 -0.06 10.75 0 0 Z " fill="#4A91B3" transform="translate(467,497)"/>
<path d="M0 0 C2.05 0.03 4.1 0.07 6.15 0.1 C6.15 1.09 6.15 2.08 6.15 3.1 C5.49 3.1 4.83 3.1 4.15 3.1 C4.81 5.08 5.47 7.06 6.15 9.1 C3.68 10.58 3.68 10.58 1.15 12.1 C0.82 11.77 0.49 11.44 0.15 11.1 C-0.36 10.73 -0.88 10.36 -1.41 9.97 C-3.61 7.11 -3.11 4.59 -2.85 1.1 C-1.85 0.1 -1.85 0.1 0 0 Z " fill="#1B3541" transform="translate(311.84765625,643.90234375)"/>
<path d="M0 0 C2.97 0.5 2.97 0.5 6 1 C6.33 3.64 6.66 6.28 7 9 C2.67 11.17 2.67 11.17 -0.25 10.44 C-2 9 -2 9 -2.94 6.62 C-3.01 3.39 -2.16 2.33 0 0 Z M-1 7 C-1 7.66 -1 8.32 -1 9 C-0.34 8.67 0.32 8.34 1 8 C0.34 7.67 -0.32 7.34 -1 7 Z " fill="#1D3B47" transform="translate(311,633)"/>
<path d="M0 0 C1.32 0 2.64 0 4 0 C4.33 0.66 4.66 1.32 5 2 C5.33 1.34 5.66 0.68 6 0 C6.99 0 7.98 0 9 0 C9 3.3 9 6.6 9 10 C7.02 10 5.04 10 3 10 C0 3.38 0 3.38 0 0 Z " fill="#152A32" transform="translate(308,622)"/>
<path d="M0 0 C0.99 0 1.98 0 3 0 C5.5 3.33 6 4.73 6 9 C1.38 9 -3.24 9 -8 9 C-8 8.34 -8 7.68 -8 7 C-6.35 7 -4.7 7 -3 7 C-3 6.34 -3 5.68 -3 5 C-2.34 5 -1.68 5 -1 5 C-0.67 3.35 -0.34 1.7 0 0 Z " fill="#1E3D4A" transform="translate(698,636)"/>
<path d="M0 0 C0.33 0.99 0.66 1.98 1 3 C2.32 2.67 3.64 2.34 5 2 C5.33 4.64 5.66 7.28 6 10 C4.68 10.33 3.36 10.66 2 11 C2.66 11.66 3.32 12.32 4 13 C3.34 13 2.68 13 2 13 C1.67 13.99 1.34 14.98 1 16 C0.67 14.02 0.34 12.04 0 10 C-0.99 10 -1.98 10 -3 10 C-3.33 8.35 -3.66 6.7 -4 5 C-3.01 4.67 -2.02 4.34 -1 4 C-0.27 1.98 -0.27 1.98 0 0 Z " fill="#2A5365" transform="translate(746,603)"/>
<path d="M0 0 C17.82 0 35.64 0 54 0 C54 0.33 54 0.66 54 1 C36.18 1 18.36 1 0 1 C0 0.67 0 0.34 0 0 Z " fill="#4B93B5" transform="translate(356,526)"/>
<path d="M0 0 C0.33 0.66 0.66 1.32 1 2 C3.02 3.13 3.02 3.13 5 4 C4.67 5.65 4.34 7.3 4 9 C1.62 9.62 1.62 9.62 -1 10 C-3 8 -3 8 -3.12 5.38 C-3.08 4.59 -3.04 3.81 -3 3 C-2.01 2.67 -1.02 2.34 0 2 C0 1.34 0 0.68 0 0 Z M0 5 C1 7 1 7 1 7 Z M3 5 C4 7 4 7 4 7 Z " fill="#12252D" transform="translate(662,634)"/>
<path d="M0 0 C7.75 -0.12 7.75 -0.12 10 1 C9.67 2.65 9.34 4.3 9 6 C5.7 6 2.4 6 -1 6 C-0.01 5.01 0.98 4.02 2 3 C1.01 3.33 0.02 3.66 -1 4 C-0.67 2.68 -0.34 1.36 0 0 Z " fill="#244858" transform="translate(360,630)"/>
<path d="M0 0 C0.33 0 0.66 0 1 0 C1 15.51 1 31.02 1 47 C0.67 47 0.34 47 0 47 C0 31.49 0 15.98 0 0 Z " fill="#4689A9" transform="translate(819,619)"/>
<path d="M0 0 C15.51 0 31.02 0 47 0 C47 0.33 47 0.66 47 1 C31.49 1 15.98 1 0 1 C0 0.67 0 0.34 0 0 Z " fill="#000100" transform="translate(353,570)"/>
<path d="M0 0 C1.65 0 3.3 0 5 0 C5.91 3.07 6.09 5.8 6 9 C4.02 9 2.04 9 0 9 C-1 6 -1 6 0 3 C0 2.01 0 1.02 0 0 Z " fill="#13272F" transform="translate(697,626)"/>
<path d="M0 0 C0 1.32 0 2.64 0 4 C0.66 4 1.32 4 2 4 C2.33 2.68 2.66 1.36 3 0 C3.62 2.31 3.62 2.31 4 5 C3.01 6.49 3.01 6.49 2 8 C-1.12 8.19 -1.12 8.19 -4 8 C-4.33 6.02 -4.66 4.04 -5 2 C-2 0 -2 0 0 0 Z M-2 5 C-2.33 5.66 -2.66 6.32 -3 7 C-2.34 7 -1.68 7 -1 7 C-1.33 6.34 -1.66 5.68 -2 5 Z M0 5 C1 7 1 7 1 7 Z " fill="#0D1C21" transform="translate(750,586)"/>
<path d="M0 0 C13.86 0 27.72 0 42 0 C42 0.33 42 0.66 42 1 C28.14 1 14.28 1 0 1 C0 0.67 0 0.34 0 0 Z " fill="#4B93B5" transform="translate(554,685)"/>
<path d="M0 0 C2.97 0 5.94 0 9 0 C8.67 0.99 8.34 1.98 8 3 C8.39 5.14 8.39 5.14 9 7 C2.25 6.25 2.25 6.25 0 4 C0 2.68 0 1.36 0 0 Z " fill="#091216" transform="translate(745,596)"/>
<path d="M0 0 C1.92 -0.05 3.83 -0.09 5.75 -0.12 C7.35 -0.16 7.35 -0.16 8.98 -0.2 C11.92 -0 13.52 0.47 16 2 C16 2.33 16 2.66 16 3 C10.72 3 5.44 3 0 3 C0 2.01 0 1.02 0 0 Z " fill="#1E3B48" transform="translate(588,290)"/>
<path d="M0 0 C0.33 0 0.66 0 1 0 C1 1.65 1 3.3 1 5 C-4.61 5 -10.22 5 -16 5 C-16 4.34 -16 3.68 -16 3 C-11.05 3 -6.1 3 -1 3 C-0.67 2.01 -0.34 1.02 0 0 Z " fill="#284F61" transform="translate(448,582)"/>
<path d="M0 0 C2.31 0.66 4.62 1.32 7 2 C5.71 4.88 4.34 6.87 2 9 C0 7 0 7 -0.12 3.38 C-0.08 2.26 -0.04 1.15 0 0 Z " fill="#0B181C" transform="translate(517,669)"/>
<path d="M0 0 C0.66 0 1.32 0 2 0 C2 0.66 2 1.32 2 2 C2.66 2 3.32 2 4 2 C4 1.34 4 0.68 4 0 C4.99 0.33 5.98 0.66 7 1 C7 2.98 7 4.96 7 7 C6.34 6.01 5.68 5.02 5 4 C4.01 4.33 3.02 4.66 2 5 C0.78 7.5 0.78 7.5 0 10 C-1.49 7.02 -1.12 4.28 -1 1 C-0.67 0.67 -0.34 0.34 0 0 Z " fill="#19323D" transform="translate(697,616)"/>
<path d="M0 0 C0.66 0 1.32 0 2 0 C2 1.32 2 2.64 2 4 C2.66 4 3.32 4 4 4 C4 3.01 4 2.02 4 1 C4.66 1 5.32 1 6 1 C6 3.31 6 5.62 6 8 C4.02 8 2.04 8 0 8 C0 5.36 0 2.72 0 0 Z " fill="#0E1D23" transform="translate(745,615)"/>
<path d="M0 0 C0.33 0.66 0.66 1.32 1 2 C1.99 2 2.98 2 4 2 C4 3.65 4 5.3 4 7 C3.01 7 2.02 7 1 7 C1 8.98 1 10.96 1 13 C0.67 13 0.34 13 0 13 C-0.19 11.02 -0.38 9.04 -0.56 7.06 C-0.67 5.96 -0.77 4.86 -0.88 3.72 C-0.92 2.82 -0.96 1.93 -1 1 C-0.67 0.67 -0.34 0.34 0 0 Z " fill="#04090A" transform="translate(510,300)"/>
<path d="M0 0 C4.95 0 9.9 0 15 0 C15.33 0.99 15.66 1.98 16 3 C10.72 2.67 5.44 2.34 0 2 C0 1.34 0 0.68 0 0 Z " fill="#000100" transform="translate(936,660)"/>
<path d="M0 0 C0.33 0 0.66 0 1 0 C1 8.91 1 17.82 1 27 C-1.31 27 -3.62 27 -6 27 C-6 26.67 -6 26.34 -6 26 C-4.02 26 -2.04 26 0 26 C0 17.42 0 8.84 0 0 Z " fill="#000100" transform="translate(480,627)"/>
<path d="M0 0 C1.98 0 3.96 0 6 0 C6 1.65 6 3.3 6 5 C4.02 5.66 2.04 6.32 0 7 C0 4.69 0 2.38 0 0 Z " fill="#12242B" transform="translate(745,625)"/>
<path d="M0 0 C10.56 0 21.12 0 32 0 C32 0.33 32 0.66 32 1 C21.44 1 10.88 1 0 1 C0 0.67 0 0.34 0 0 Z " fill="#4B93B5" transform="translate(368,605)"/>
<path d="M0 0 C0.33 0 0.66 0 1 0 C1 10.23 1 20.46 1 31 C0.67 31 0.34 31 0 31 C0 20.77 0 10.54 0 0 Z " fill="#4689A9" transform="translate(427,638)"/>
<path d="M0 0 C0.33 0 0.66 0 1 0 C1 9.57 1 19.14 1 29 C0.67 29 0.34 29 0 29 C0 19.43 0 9.86 0 0 Z " fill="#4B93B5" transform="translate(410,497)"/>
<path d="M0 0 C0.66 0.66 1.32 1.32 2 2 C-0.31 4.31 -2.62 6.62 -5 9 C-5.99 8.67 -6.98 8.34 -8 8 C-5.36 5.36 -2.72 2.72 0 0 Z " fill="#4B93B5" transform="translate(555,233)"/>
<path d="M0 0 C0.33 0 0.66 0 1 0 C1 8.25 1 16.5 1 25 C0.67 25 0.34 25 0 25 C0 16.75 0 8.5 0 0 Z " fill="#000100" transform="translate(471,656)"/>
<path d="M0 0 C8.25 0 16.5 0 25 0 C25 0.33 25 0.66 25 1 C16.75 1 8.5 1 0 1 C0 0.67 0 0.34 0 0 Z " fill="#4B93B5" transform="translate(625,445)"/>
<path d="M0 0 C7.26 0 14.52 0 22 0 C22 0.33 22 0.66 22 1 C14.74 1 7.48 1 0 1 C0 0.67 0 0.34 0 0 Z " fill="#4B93B5" transform="translate(587,325)"/>
<path d="M0 0 C0.33 0.66 0.66 1.32 1 2 C-5.27 2 -11.54 2 -18 2 C-18 1.67 -18 1.34 -18 1 C-12.06 0.67 -6.12 0.34 0 0 Z " fill="#4B93B5" transform="translate(351,683)"/>
<path d="M0 0 C0.33 0 0.66 0 1 0 C1 6.27 1 12.54 1 19 C0.67 19 0.34 19 0 19 C0 12.73 0 6.46 0 0 Z " fill="#4383A1" transform="translate(819,530)"/>
<path d="M0 0 C0.33 0 0.66 0 1 0 C1 5.94 1 11.88 1 18 C0.67 18 0.34 18 0 18 C0 12.06 0 6.12 0 0 Z " fill="#326278" transform="translate(427,539)"/>
<path d="M0 0 C5.94 0 11.88 0 18 0 C18 0.33 18 0.66 18 1 C12.06 1 6.12 1 0 1 C0 0.67 0 0.34 0 0 Z " fill="#4B93B5" transform="translate(638,367)"/>
<path d="M0 0 C5.94 0 11.88 0 18 0 C18 0.33 18 0.66 18 1 C12.06 1 6.12 1 0 1 C0 0.67 0 0.34 0 0 Z " fill="#4B93B5" transform="translate(591,282)"/>
<path d="M0 0 C5.61 0 11.22 0 17 0 C17 0.33 17 0.66 17 1 C11.39 1 5.78 1 0 1 C0 0.67 0 0.34 0 0 Z " fill="#4B93B5" transform="translate(478,687)"/>
<path d="M0 0 C5.61 0 11.22 0 17 0 C17 0.33 17 0.66 17 1 C11.39 1 5.78 1 0 1 C0 0.67 0 0.34 0 0 Z " fill="#4B93B5" transform="translate(716,680)"/>
<path d="M0 0 C4.95 0 9.9 0 15 0 C15 0.33 15 0.66 15 1 C10.05 1 5.1 1 0 1 C0 0.67 0 0.34 0 0 Z " fill="#4B93B5" transform="translate(433,687)"/>
<path d="M0 0 C0.33 0 0.66 0 1 0 C1 4.95 1 9.9 1 15 C0.67 15 0.34 15 0 15 C0 10.05 0 5.1 0 0 Z " fill="#000100" transform="translate(492,605)"/>
<path d="M0 0 C4.29 0 8.58 0 13 0 C9.02 1.99 8.32 2.22 4.25 1.62 C3.45 1.51 2.65 1.4 1.83 1.29 C0.92 1.15 0.92 1.15 0 1 C0 0.67 0 0.34 0 0 Z " fill="#4588A8" transform="translate(583,673)"/>
<path d="M0 0 C0.33 0 0.66 0 1 0 C1 4.62 1 9.24 1 14 C0.67 14 0.34 14 0 14 C0 9.38 0 4.76 0 0 Z " fill="#3A738E" transform="translate(819,597)"/>
<path d="M0 0 C0.33 0 0.66 0 1 0 C1 4.62 1 9.24 1 14 C0.67 14 0.34 14 0 14 C0 9.38 0 4.76 0 0 Z " fill="#4588A8" transform="translate(819,555)"/>
<path d="M0 0 C4.62 0 9.24 0 14 0 C14 0.33 14 0.66 14 1 C9.38 1 4.76 1 0 1 C0 0.67 0 0.34 0 0 Z " fill="#4B93B5" transform="translate(589,445)"/>
<path d="M0 0 C0.33 0 0.66 0 1 0 C1 4.29 1 8.58 1 13 C0.67 13 0.34 13 0 13 C0 8.71 0 4.42 0 0 Z " fill="#4B93B5" transform="translate(597,659)"/>
<path d="M0 0 C0.33 0 0.66 0 1 0 C1 4.29 1 8.58 1 13 C0.67 13 0.34 13 0 13 C0 8.71 0 4.42 0 0 Z " fill="#4B93B5" transform="translate(605,352)"/>
<path d="M0 0 C0.33 0 0.66 0 1 0 C1 3.96 1 7.92 1 12 C0.67 12 0.34 12 0 12 C0 8.04 0 4.08 0 0 Z " fill="#4486A5" transform="translate(402,572)"/>
<path d="M0 0 C3.63 0 7.26 0 11 0 C11 0.33 11 0.66 11 1 C7.37 1 3.74 1 0 1 C0 0.67 0 0.34 0 0 Z " fill="#4B93B5" transform="translate(541,325)"/>
<path d="M0 0 C0.33 0 0.66 0 1 0 C1 3.63 1 7.26 1 11 C0.67 11 0.34 11 0 11 C0 7.37 0 3.74 0 0 Z " fill="#000100" transform="translate(774,284)"/>
<path d="M0 0 C3.3 0 6.6 0 10 0 C10 0.33 10 0.66 10 1 C6.7 1 3.4 1 0 1 C0 0.67 0 0.34 0 0 Z " fill="#4B93B5" transform="translate(316,687)"/>
<path d="M0 0 C2.97 0 5.94 0 9 0 C9 0.33 9 0.66 9 1 C6.03 1 3.06 1 0 1 C0 0.67 0 0.34 0 0 Z " fill="#4B93B5" transform="translate(627,367)"/>
<path d="M0 0 C0.33 0 0.66 0 1 0 C1 2.97 1 5.94 1 9 C0.67 9 0.34 9 0 9 C0 6.03 0 3.06 0 0 Z " fill="#4B93B5" transform="translate(664,344)"/>
<path d="M0 0 C0.33 0 0.66 0 1 0 C1 2.97 1 5.94 1 9 C0.67 9 0.34 9 0 9 C0 6.03 0 3.06 0 0 Z " fill="#4B93B5" transform="translate(605,341)"/>
<path d="M0 0 C2.64 0 5.28 0 8 0 C8 0.33 8 0.66 8 1 C5.36 1 2.72 1 0 1 C0 0.67 0 0.34 0 0 Z " fill="#000100" transform="translate(813,579)"/>
<path d="M0 0 C2.64 0 5.28 0 8 0 C8 0.33 8 0.66 8 1 C5.36 1 2.72 1 0 1 C0 0.67 0 0.34 0 0 Z " fill="#4B93B5" transform="translate(609,379)"/>
<path d="M0 0 C0.33 0 0.66 0 1 0 C1 2.64 1 5.28 1 8 C0.67 8 0.34 8 0 8 C0 5.36 0 2.72 0 0 Z " fill="#4B93B5" transform="translate(587,359)"/>
<path d="M0 0 C2.64 0 5.28 0 8 0 C8 0.33 8 0.66 8 1 C5.36 1 2.72 1 0 1 C0 0.67 0 0.34 0 0 Z " fill="#4B93B5" transform="translate(610,325)"/>
<path d="M0 0 C2.64 0 5.28 0 8 0 C8 0.33 8 0.66 8 1 C5.36 1 2.72 1 0 1 C0 0.67 0 0.34 0 0 Z " fill="#4B93B5" transform="translate(578,325)"/>
<path d="M0 0 C2.31 0 4.62 0 7 0 C7 0.33 7 0.66 7 1 C4.69 1 2.38 1 0 1 C0 0.67 0 0.34 0 0 Z " fill="#4B93B5" transform="translate(686,445)"/>
<path d="M0 0 C2.31 0 4.62 0 7 0 C7 0.33 7 0.66 7 1 C4.69 1 2.38 1 0 1 C0 0.67 0 0.34 0 0 Z " fill="#4B93B5" transform="translate(655,445)"/>
<path d="M0 0 C0.33 0 0.66 0 1 0 C1 2.31 1 4.62 1 7 C0.67 7 0.34 7 0 7 C0 4.69 0 2.38 0 0 Z " fill="#4B93B5" transform="translate(570,397)"/>
<path d="M0 0 C0.33 0 0.66 0 1 0 C1 2.31 1 4.62 1 7 C0.67 7 0.34 7 0 7 C0 4.69 0 2.38 0 0 Z " fill="#4B93B5" transform="translate(664,355)"/>
<path d="M0 0 C2.31 0 4.62 0 7 0 C7 0.33 7 0.66 7 1 C4.69 1 2.38 1 0 1 C0 0.67 0 0.34 0 0 Z " fill="#4B93B5" transform="translate(654,325)"/>
<path d="M0 0 C2.31 0 4.62 0 7 0 C7 0.33 7 0.66 7 1 C4.69 1 2.38 1 0 1 C0 0.67 0 0.34 0 0 Z " fill="#4B93B5" transform="translate(635,325)"/>
<path d="M0 0 C0.33 0 0.66 0 1 0 C1 1.98 1 3.96 1 6 C0.67 6 0.34 6 0 6 C0 4.02 0 2.04 0 0 Z " fill="#4B93B5" transform="translate(597,678)"/>
<path d="M0 0 C0.33 0.99 0.66 1.98 1 3 C0.01 2.67 -0.98 2.34 -2 2 C-1.34 1.34 -0.68 0.68 0 0 Z " fill="#326278" transform="translate(565,592)"/>
<path d="M0 0 C1.98 0 3.96 0 6 0 C6 0.33 6 0.66 6 1 C4.02 1 2.04 1 0 1 C0 0.67 0 0.34 0 0 Z " fill="#4B93B5" transform="translate(616,445)"/>
<path d="M0 0 C0.33 1.32 0.66 2.64 1 4 C0.01 3.67 -0.98 3.34 -2 3 C-1.34 3 -0.68 3 0 3 C0 2.01 0 1.02 0 0 Z " fill="#4B93B5" transform="translate(664,364)"/>
<path d="M0 0 C0.66 0.33 1.32 0.66 2 1 C0.02 1.99 0.02 1.99 -2 3 C-1.34 2.01 -0.68 1.02 0 0 Z " fill="#254A5A" transform="translate(521,286)"/>
<path d="M0 0 C1.98 0.99 1.98 0.99 4 2 C2.68 2 1.36 2 0 2 C0 1.34 0 0.68 0 0 Z " fill="#3C7590" transform="translate(768,686)"/>
<path d="M0 0 C0.33 0 0.66 0 1 0 C1 1.65 1 3.3 1 5 C0.67 5 0.34 5 0 5 C0 3.35 0 1.7 0 0 Z " fill="#4B93B5" transform="translate(715,682)"/>
<path d="M0 0 C0.33 0.66 0.66 1.32 1 2 C-0.32 1.67 -1.64 1.34 -3 1 C-2.01 0.67 -1.02 0.34 0 0 Z " fill="#1E3B48" transform="translate(750,631)"/>
<path d="M0 0 C0.99 0.5 0.99 0.5 2 1 C1.01 2.49 1.01 2.49 0 4 C0 2.68 0 1.36 0 0 Z " fill="#4B93B5" transform="translate(598,517)"/>
<path d="M0 0 C0.33 0 0.66 0 1 0 C1 1.65 1 3.3 1 5 C0.67 5 0.34 5 0 5 C0 3.35 0 1.7 0 0 Z " fill="#4B93B5" transform="translate(601,496)"/>
<path d="M0 0 C1.65 0 3.3 0 5 0 C5 0.33 5 0.66 5 1 C3.35 1 1.7 1 0 1 C0 0.67 0 0.34 0 0 Z " fill="#4B93B5" transform="translate(610,445)"/>
<path d="M0 0 C1.65 0 3.3 0 5 0 C5 0.33 5 0.66 5 1 C3.35 1 1.7 1 0 1 C0 0.67 0 0.34 0 0 Z " fill="#000100" transform="translate(633,439)"/>
<path d="M0 0 C1.65 0 3.3 0 5 0 C5 0.33 5 0.66 5 1 C3.35 1 1.7 1 0 1 C0 0.67 0 0.34 0 0 Z " fill="#000100" transform="translate(591,439)"/>
<path d="M0 0 C0.33 0 0.66 0 1 0 C1 1.65 1 3.3 1 5 C0.67 5 0.34 5 0 5 C0 3.35 0 1.7 0 0 Z " fill="#4B93B5" transform="translate(570,420)"/>
<path d="M0 0 C0 0.99 0 1.98 0 3 C-0.66 2.34 -1.32 1.68 -2 1 C-1.34 0.67 -0.68 0.34 0 0 Z " fill="#2D586C" transform="translate(598,393)"/>
<path d="M0 0 C1.65 0 3.3 0 5 0 C5 0.33 5 0.66 5 1 C3.35 1 1.7 1 0 1 C0 0.67 0 0.34 0 0 Z " fill="#4B93B5" transform="translate(621,367)"/>
<path d="M0 0 C0.33 0 0.66 0 1 0 C1 1.65 1 3.3 1 5 C0.67 5 0.34 5 0 5 C0 3.35 0 1.7 0 0 Z " fill="#000100" transform="translate(616,359)"/>
<path d="M0 0 C1.65 0 3.3 0 5 0 C5 0.33 5 0.66 5 1 C3.35 1 1.7 1 0 1 C0 0.67 0 0.34 0 0 Z " fill="#4B93B5" transform="translate(720,325)"/>
<path d="M0 0 C1.65 0 3.3 0 5 0 C5 0.33 5 0.66 5 1 C3.35 1 1.7 1 0 1 C0 0.67 0 0.34 0 0 Z " fill="#4B93B5" transform="translate(569,325)"/>
<path d="M0 0 C1 4 1 4 1 4 Z " fill="#000100" transform="translate(695,618)"/>
<path d="M0 0 C1 4 1 4 1 4 Z " fill="#4B93B5" transform="translate(365,607)"/>
<path d="M0 0 C0 3 0 3 0 3 Z " fill="#386E87" transform="translate(564,577)"/>
<path d="M0 0 C0 3 0 3 0 3 Z " fill="#254A5A" transform="translate(584,546)"/>
<path d="M0 0 C1 4 1 4 1 4 Z " fill="#000100" transform="translate(654,432)"/>
<path d="M0 0 C1 4 1 4 1 4 Z " fill="#4B93B5" transform="translate(587,354)"/>
<path d="M0 0 C1 4 1 4 1 4 Z " fill="#4B93B5" transform="translate(587,349)"/>
<path d="M0 0 C1 4 1 4 1 4 Z " fill="#4B93B5" transform="translate(664,338)"/>
<path d="M0 0 C4 1 4 1 4 1 Z " fill="#4B93B5" transform="translate(619,325)"/>
<path d="M0 0 C4 1 4 1 4 1 Z " fill="#4B93B5" transform="translate(561,325)"/>
<path d="M0 0 C4 1 4 1 4 1 Z " fill="#000100" transform="translate(640,319)"/>
<path d="M0 0 C0.66 0.66 1.32 1.32 2 2 C1.34 2 0.68 2 0 2 C0 1.34 0 0.68 0 0 Z " fill="#19313C" transform="translate(473,685)"/>
<path d="M0 0 C3 1 3 1 3 1 Z " fill="#4B93B5" transform="translate(931,678)"/>
<path d="M0 0 C0.33 0.66 0.66 1.32 1 2 C0.34 1.67 -0.32 1.34 -1 1 C-0.67 0.67 -0.34 0.34 0 0 Z " fill="#4B93B5" transform="translate(523,674)"/>
<path d="" fill="#4B93B5" transform="translate(0,0)"/>
<path d="" fill="#4B93B5" transform="translate(0,0)"/>
<path d="" fill="#4B93B5" transform="translate(0,0)"/>
<path d="M0 0 C0.99 0.5 0.99 0.5 2 1 C1.01 1.5 1.01 1.5 0 2 C0 1.34 0 0.68 0 0 Z " fill="#4B93B5" transform="translate(936,526)"/>
<path d="M0 0 C3 1 3 1 3 1 Z " fill="#4B93B5" transform="translate(681,526)"/>
<path d="" fill="#4B93B5" transform="translate(0,0)"/>
<path d="M0 0 C3 1 3 1 3 1 Z " fill="#4B93B5" transform="translate(677,445)"/>
<path d="M0 0 C3 1 3 1 3 1 Z " fill="#4B93B5" transform="translate(604,445)"/>
<path d="" fill="#4B93B5" transform="translate(0,0)"/>
<path d="" fill="#4B93B5" transform="translate(0,0)"/>
<path d="M0 0 C0.33 0.66 0.66 1.32 1 2 C0.34 1.67 -0.32 1.34 -1 1 C-0.67 0.67 -0.34 0.34 0 0 Z " fill="#4B93B5" transform="translate(605,366)"/>
<path d="M0 0 C3 1 3 1 3 1 Z " fill="#4B93B5" transform="translate(631,325)"/>
<path d="M0 0 C3 1 3 1 3 1 Z " fill="#4B93B5" transform="translate(587,282)"/>
<path d="M0 0 C2 1 2 1 2 1 Z " fill="#4B93B5" transform="translate(899,687)"/>
<path d="" fill="#4B93B5" transform="translate(0,0)"/>
<path d="" fill="#4B93B5" transform="translate(0,0)"/>
<path d="M0 0 C2 1 2 1 2 1 Z " fill="#4B93B5" transform="translate(523,668)"/>
<path d="" fill="#000100" transform="translate(0,0)"/>
<path d="" fill="#000100" transform="translate(0,0)"/>
<path d="M0 0 C2 1 2 1 2 1 Z " fill="#4B93B5" transform="translate(749,603)"/>
<path d="M0 0 C2 1 2 1 2 1 Z " fill="#4B93B5" transform="translate(747,602)"/>
<path d="M0 0 C2 1 2 1 2 1 Z " fill="#000100" transform="translate(397,597)"/>
<path d="" fill="#254A5A" transform="translate(0,0)"/>
<path d="" fill="#000100" transform="translate(0,0)"/>
<path d="M0 0 C2 1 2 1 2 1 Z " fill="#4B93B5" transform="translate(860,526)"/>
<path d="" fill="#4B93B5" transform="translate(0,0)"/>
<path d="M0 0 C2 1 2 1 2 1 Z " fill="#4B93B5" transform="translate(651,445)"/>
<path d="M0 0 C2 1 2 1 2 1 Z " fill="#4B93B5" transform="translate(696,443)"/>
<path d="M0 0 C2 1 2 1 2 1 Z " fill="#4B93B5" transform="translate(584,428)"/>
<path d="" fill="#4B93B5" transform="translate(0,0)"/>
<path d="" fill="#4B93B5" transform="translate(0,0)"/>
<path d="M0 0 C2 1 2 1 2 1 Z " fill="#4B93B5" transform="translate(695,384)"/>
<path d="M0 0 C2 1 2 1 2 1 Z " fill="#4B93B5" transform="translate(618,367)"/>
<path d="" fill="#4B93B5" transform="translate(0,0)"/>
<path d="" fill="#4B93B5" transform="translate(0,0)"/>
<path d="M0 0 C2 1 2 1 2 1 Z " fill="#4B93B5" transform="translate(716,325)"/>
<path d="M0 0 C2 1 2 1 2 1 Z " fill="#4B93B5" transform="translate(624,325)"/>
<path d="M0 0 C2 1 2 1 2 1 Z " fill="#4B93B5" transform="translate(557,325)"/>
<path d="M0 0 C2 1 2 1 2 1 Z " fill="#4B93B5" transform="translate(554,325)"/>
<path d="" fill="#000100" transform="translate(0,0)"/>
<path d="M0 0 C2 1 2 1 2 1 Z " fill="#000100" transform="translate(604,293)"/>
<path d="" fill="#4B93B5" transform="translate(0,0)"/>
<path d="M0 0 C2 1 2 1 2 1 Z " fill="#4B93B5" transform="translate(689,282)"/>
<path d="" fill="#4B93B5" transform="translate(0,0)"/>
<path d="" fill="#000100" transform="translate(0,0)"/>
<path d="M0 0 C2 1 2 1 2 1 Z " fill="#4B93B5" transform="translate(634,206)"/>
<path d="" fill="#000100" transform="translate(0,0)"/>
<path d="" fill="#4B93B5" transform="translate(0,0)"/>
<path d="" fill="#4B93B5" transform="translate(0,0)"/>
<path d="" fill="#000100" transform="translate(0,0)"/>
<path d="" fill="#000100" transform="translate(0,0)"/>
<path d="" fill="#000100" transform="translate(0,0)"/>
<path d="" fill="#000100" transform="translate(0,0)"/>
<path d="" fill="#000100" transform="translate(0,0)"/>
<path d="" fill="#000100" transform="translate(0,0)"/>
<path d="" fill="#4B93B5" transform="translate(0,0)"/>
<path d="" fill="#4B93B5" transform="translate(0,0)"/>
<path d="" fill="#000100" transform="translate(0,0)"/>
<path d="" fill="#4B93B5" transform="translate(0,0)"/>
<path d="" fill="#000100" transform="translate(0,0)"/>
<path d="" fill="#000100" transform="translate(0,0)"/>
<path d="" fill="#4B93B5" transform="translate(0,0)"/>
<path d="" fill="#4B93B5" transform="translate(0,0)"/>
<path d="" fill="#4B93B5" transform="translate(0,0)"/>
<path d="" fill="#4B93B5" transform="translate(0,0)"/>
<path d="" fill="#4B93B5" transform="translate(0,0)"/>
<path d="" fill="#000100" transform="translate(0,0)"/>
<path d="" fill="#4B93B5" transform="translate(0,0)"/>
<path d="" fill="#000100" transform="translate(0,0)"/>
<path d="" fill="#4B93B5" transform="translate(0,0)"/>
<path d="" fill="#4B93B5" transform="translate(0,0)"/>
<path d="" fill="#4B93B5" transform="translate(0,0)"/>
<path d="" fill="#4B93B5" transform="translate(0,0)"/>
<path d="" fill="#4B93B5" transform="translate(0,0)"/>
<path d="" fill="#4B93B5" transform="translate(0,0)"/>
<path d="" fill="#000100" transform="translate(0,0)"/>
<path d="" fill="#4B93B5" transform="translate(0,0)"/>
<path d="" fill="#000100" transform="translate(0,0)"/>
<path d="" fill="#000100" transform="translate(0,0)"/>
<path d="" fill="#000100" transform="translate(0,0)"/>
<path d="" fill="#4B93B5" transform="translate(0,0)"/>
<path d="" fill="#000100" transform="translate(0,0)"/>
<path d="" fill="#4B93B5" transform="translate(0,0)"/>
<path d="" fill="#000100" transform="translate(0,0)"/>
<path d="" fill="#000100" transform="translate(0,0)"/>
<path d="" fill="#000100" transform="translate(0,0)"/>
<path d="" fill="#4B93B5" transform="translate(0,0)"/>
<path d="" fill="#4B93B5" transform="translate(0,0)"/>
<path d="" fill="#000100" transform="translate(0,0)"/>
<path d="" fill="#4B93B5" transform="translate(0,0)"/>
<path d="" fill="#000100" transform="translate(0,0)"/>
<path d="" fill="#4B93B5" transform="translate(0,0)"/>
<path d="" fill="#000100" transform="translate(0,0)"/>
<path d="" fill="#4B93B5" transform="translate(0,0)"/>
<path d="" fill="#000100" transform="translate(0,0)"/>
<path d="" fill="#4B93B5" transform="translate(0,0)"/>
<path d="" fill="#4B93B5" transform="translate(0,0)"/>
<path d="" fill="#4B93B5" transform="translate(0,0)"/>
<path d="" fill="#4B93B5" transform="translate(0,0)"/>
<path d="" fill="#000100" transform="translate(0,0)"/>
<path d="" fill="#000100" transform="translate(0,0)"/>
<path d="" fill="#000100" transform="translate(0,0)"/>
<path d="" fill="#000100" transform="translate(0,0)"/>
<path d="" fill="#000100" transform="translate(0,0)"/>
<path d="" fill="#000100" transform="translate(0,0)"/>
<path d="" fill="#000100" transform="translate(0,0)"/>
<path d="" fill="#000100" transform="translate(0,0)"/>
<path d="" fill="#000100" transform="translate(0,0)"/>
<path d="" fill="#000100" transform="translate(0,0)"/>
<path d="" fill="#4B93B5" transform="translate(0,0)"/>
<path d="" fill="#4B93B5" transform="translate(0,0)"/>
<path d="" fill="#4B93B5" transform="translate(0,0)"/>
<path d="" fill="#4B93B5" transform="translate(0,0)"/>
<path d="" fill="#4B93B5" transform="translate(0,0)"/>
<path d="" fill="#4B93B5" transform="translate(0,0)"/>
<path d="" fill="#4B93B5" transform="translate(0,0)"/>
<path d="" fill="#4B93B5" transform="translate(0,0)"/>
<path d="" fill="#4B93B5" transform="translate(0,0)"/>
<path d="" fill="#4B93B5" transform="translate(0,0)"/>
<path d="" fill="#4B93B5" transform="translate(0,0)"/>
<path d="" fill="#4B93B5" transform="translate(0,0)"/>
<path d="" fill="#000100" transform="translate(0,0)"/>
<path d="" fill="#000100" transform="translate(0,0)"/>
<path d="" fill="#4B93B5" transform="translate(0,0)"/>
<path d="" fill="#000100" transform="translate(0,0)"/>
<path d="" fill="#4B93B5" transform="translate(0,0)"/>
<path d="" fill="#4B93B5" transform="translate(0,0)"/>
<path d="" fill="#4B93B5" transform="translate(0,0)"/>
<path d="" fill="#4B93B5" transform="translate(0,0)"/>
<path d="" fill="#4B93B5" transform="translate(0,0)"/>
<path d="" fill="#000100" transform="translate(0,0)"/>
<path d="" fill="#4B93B5" transform="translate(0,0)"/>
<path d="" fill="#4B93B5" transform="translate(0,0)"/>
<path d="" fill="#4B93B5" transform="translate(0,0)"/>
<path d="" fill="#4B93B5" transform="translate(0,0)"/>
<path d="" fill="#4B93B5" transform="translate(0,0)"/>
<path d="" fill="#000100" transform="translate(0,0)"/>
<path d="" fill="#000100" transform="translate(0,0)"/>
<path d="" fill="#000100" transform="translate(0,0)"/>
<path d="" fill="#000100" transform="translate(0,0)"/>
<path d="" fill="#000100" transform="translate(0,0)"/>
<path d="" fill="#000100" transform="translate(0,0)"/>
<path d="" fill="#000100" transform="translate(0,0)"/>
<path d="" fill="#000100" transform="translate(0,0)"/>
<path d="" fill="#000100" transform="translate(0,0)"/>
<path d="" fill="#000100" transform="translate(0,0)"/>
<path d="" fill="#000100" transform="translate(0,0)"/>
<path d="" fill="#000100" transform="translate(0,0)"/>
</svg>
